<?xml version="1.0" encoding="iso-8859-1"?>
<!-- Generator: Adobe Illustrator 17.1.0, SVG Export Plug-In . SVG Version: 6.00 Build 0)  -->
<!DOCTYPE svg PUBLIC "-//W3C//DTD SVG 1.1//EN" "http://www.w3.org/Graphics/SVG/1.1/DTD/svg11.dtd">
<svg version="1.1" id="Capa_1" xmlns="http://www.w3.org/2000/svg" xmlns:xlink="http://www.w3.org/1999/xlink" x="0px" y="0px"
	 viewBox="0 0 392.81 392.81" style="enable-background:new 0 0 392.81 392.81;" xml:space="preserve">
<path id="XMLID_1312_" d="M96.732,182.001c1.189,12.16,4.183,24.407,8.276,35.193c14.161,37.312,40.368,60.263,70.104,61.395
	c1.196,0.046,2.448,0.077,3.745,0.077c5.416,0,11.593-0.539,17.546-2.8c7.381,2.802,15.104,2.96,21.295,2.723
	c29.733-1.132,55.938-24.081,70.1-61.389c11.319-29.818,14.226-70.791-6.14-90.288c-16.634-15.921-43.013-19.26-65.642-8.298
	c-3.028,1.466-5.662,2.637-7.995,3.54c2.656-9.305,6.69-18.097,11.88-26.113c20.435,7.636,46.579,2.695,67.687-13.413
	c23.832-18.194,35.619-46.342,29.329-70.043c-0.612-2.306-2.115-4.274-4.178-5.474c-21.205-12.318-51.464-8.373-75.296,9.819
	c-22.432,17.119-34.192,43.057-30.259,65.81c-4.149,5.92-7.754,12.234-10.743,18.856c-7.289-16.271-18.345-30.762-32.502-42.292
	c-3.854-3.137-9.521-2.561-12.662,1.295c-3.139,3.854-2.559,9.522,1.295,12.662c15.668,12.761,26.835,29.807,32.234,48.899
	c-2.337-0.904-4.978-2.077-8.012-3.547c-22.628-10.957-49.009-7.624-65.643,8.298c-12.668,12.127-16.332,32.564-14.568,53.458
	C96.584,180.914,96.634,181.46,96.732,182.001z M248.364,31.239c16.502-12.595,37.217-16.551,51.905-10.279
	c2.176,15.82-7.103,34.764-23.603,47.36C262.75,78.941,245.832,83.419,232.066,80.8c10.858-11.139,24.385-19.741,39.613-24.661
	c4.729-1.528,7.325-6.602,5.796-11.332c-1.527-4.729-6.602-7.328-11.331-5.797c-14.801,4.783-28.241,12.497-39.697,22.402
	C229.883,50.405,237.581,39.468,248.364,31.239z M147.188,248.875c-10.303-8.593-19.103-21.604-25.352-38.067
	c-3.245-8.55-5.445-17.34-6.616-25.762c4.948-2.502,10.414-3.807,16.059-3.807c19.676,0,35.684,16.007,35.684,35.683
	C166.963,230.585,159.18,242.907,147.188,248.875z M123.6,139.916c9.344-8.946,26.991-13.991,45.351-5.101
	c10.059,4.87,18.624,8.055,27.453,7.774c8.871,0.277,17.399-2.905,27.458-7.775c18.357-8.889,36.004-3.845,45.35,5.101
	c11.792,11.289,12.564,42.431,1.759,70.897c-11.512,30.329-31.683,48.941-53.956,49.79c-7.57,0.288-12.596-0.485-16.278-2.508
	c-2.697-1.482-5.966-1.481-8.665,0.001c-3.682,2.021-8.708,2.792-16.272,2.507c-3.687-0.141-7.313-0.767-10.854-1.853
	c12.406-9.997,20.019-25.257,20.019-41.828c0-29.601-24.082-53.683-53.684-53.683c-5.814,0-11.505,0.922-16.907,2.713
	C115.073,154.528,118.167,145.115,123.6,139.916z M384.072,239.407c-1.518-3.07-4.645-5.014-8.069-5.014h-58.508
	c-4.971,0-9,4.029-9,9s4.029,9,9,9h51.508c-0.746,7.546-13.297,19.571-46.784,29.761c-33.48,10.188-78.162,15.799-125.815,15.799
	c-47.651,0-92.332-5.61-125.813-15.799c-33.486-10.189-46.037-22.215-46.783-29.761h51.508c4.971,0,9-4.029,9-9s-4.029-9-9-9H16.808
	c-3.421,0-6.546,1.939-8.064,5.004c-1.972,3.98-2.972,8.113-2.972,12.285c0,19.34,20.603,35.831,59.579,47.692
	c32.99,10.039,76.04,15.842,122.053,16.513v17.3h-81.814c-21.655,0-39.273,17.617-39.273,39.272v11.351c0,4.971,4.029,9,9,9h242.18
	c4.971,0,9-4.029,9-9V372.46c0-21.655-17.618-39.272-39.273-39.272h-81.818v-17.3c46.015-0.671,89.065-6.474,122.056-16.513
	c38.978-11.861,59.58-28.353,59.58-47.692C387.039,247.522,386.041,243.392,384.072,239.407z M287.222,351.187
	c11.73,0,21.273,9.543,21.273,21.272v2.351H84.315v-2.351c0-11.729,9.543-21.272,21.273-21.272H287.222z"/>
<g>
</g>
<g>
</g>
<g>
</g>
<g>
</g>
<g>
</g>
<g>
</g>
<g>
</g>
<g>
</g>
<g>
</g>
<g>
</g>
<g>
</g>
<g>
</g>
<g>
</g>
<g>
</g>
<g>
</g>
</svg>
