<?xml version="1.0" encoding="iso-8859-1"?>
<!-- Generator: Adobe Illustrator 18.0.0, SVG Export Plug-In . SVG Version: 6.00 Build 0)  -->
<!DOCTYPE svg PUBLIC "-//W3C//DTD SVG 1.1//EN" "http://www.w3.org/Graphics/SVG/1.1/DTD/svg11.dtd">
<svg version="1.1" id="Capa_1" xmlns="http://www.w3.org/2000/svg" xmlns:xlink="http://www.w3.org/1999/xlink" x="0px" y="0px"
	 viewBox="0 0 297 297" style="enable-background:new 0 0 297 297;" xml:space="preserve">
<path d="M274.968,198.717c-11.991-4.253-22.107-3.189-30.092,0.168c1.342-8.142,4.365-17.003,10.855-23.024
	c4.002-3.712,4.236-9.965,0.524-13.967c-3.71-4.001-9.964-4.236-13.967-0.524c-11.408,10.582-15.83,25.509-17.393,37.877
	c-2.97-1.333-6.247-2.351-9.818-2.89l17.543-91.231c0.557-2.896-0.208-5.888-2.086-8.161c-1.877-2.273-4.671-3.589-7.62-3.589
	h-1.894c0.87-4.645,1.309-9.256,1.274-13.642c-0.147-18.504-8.383-32.442-22.031-37.283c-13.084-4.642-24.035-3.247-32.549,0.613
	c1.35-9.056,4.587-19.151,11.896-25.931c4.002-3.712,4.236-9.965,0.524-13.967c-3.71-4.001-9.965-4.236-13.967-0.524
	c-12.254,11.368-16.845,27.521-18.394,40.711c-6.821-3.231-15.256-4.887-25.138-3.065C112.48,25.704,98.384,18.982,84.68,22.267
	c-13.471,3.235-21.885,10.352-26.924,18.211c-3.807-8.346-6.608-18.575-4.192-28.179c1.331-5.294-1.881-10.664-7.174-11.996
	c-5.296-1.335-10.664,1.88-11.996,7.174c-4.077,16.208,0.878,32.258,6.768,44.161c-9.431,1.274-19.651,6.03-28.295,17.318
	c-5.367,7.01-7.178,15.761-5.531,25.055c-1.604,0.6-3.049,1.603-4.165,2.954c-1.877,2.273-2.643,5.265-2.086,8.161l35.353,183.857
	c0.895,4.653,4.967,8.017,9.706,8.017h141.416c4.739,0,8.811-3.364,9.706-8.017l0.348-1.809c2.665,1.836,5.528,3.372,8.601,4.517
	c11.753,4.376,22.707,2.58,28.25,1.095c2.932,0.786,7.379,1.659,12.658,1.659c4.698,0,10.057-0.692,15.591-2.754
	c21.908-8.162,33.547-35.634,33.375-57.34C295.951,216.68,288.055,203.359,274.968,198.717z M210.447,113.143
	c-4.551,43.672-41.321,73.41-92.544,73.41s-87.993-29.739-92.544-73.41H210.447z M148.799,69.748c1.71,3.235,4.974,5.26,8.636,5.26
	s6.925-2.025,8.636-5.26c0.269-0.446,2.693-4.324,7.139-7.21c5.839-3.788,12.526-4.265,20.444-1.457
	c7.896,2.8,8.835,14.087,8.873,18.809c0.034,4.302-0.597,8.924-1.769,13.485h-66.135c2.187-11.04,0.874-23.127-2.681-34.05
	c3.495,0.203,6.718,1.269,9.716,3.213C146.106,65.424,148.528,69.301,148.799,69.748z M28.563,80.972
	c5.107-6.669,10.973-9.914,17.935-9.921h0.019c5.294,0,9.431,1.927,9.897,2.153c3.164,1.759,6.95,1.598,10.011-0.346
	c3.074-1.954,4.734-5.49,4.465-9.123c-0.053-0.715-1.072-17.573,18.406-22.249c8.133-1.956,15.086,6.994,17.692,10.934
	c7.492,11.327,11.336,28.843,7.21,40.954H27.429C26.122,89.267,25.77,84.621,28.563,80.972z M54.31,277.233L34.718,175.347
	c1.284,1.234,2.606,2.438,3.967,3.61c20.491,17.645,48.625,27.363,79.218,27.363s58.727-9.717,79.218-27.363
	c0.478-0.411,0.945-0.832,1.413-1.251l-4.003,20.82c-0.19,0.065-0.377,0.124-0.568,0.191c-13.087,4.642-20.983,17.963-21.122,35.634
	c-0.086,10.807,2.759,23.042,8.338,33.612l-1.782,9.27H54.31z M255.814,273.168c-8.756,3.261-17.457,0.162-17.781,0.044
	c-2.317-0.897-4.812-0.919-7.126-0.003c-0.088,0.034-8.911,3.266-17.79-0.042c-12.414-4.624-20.628-23.724-20.51-38.66
	c0.035-4.323,0.878-14.648,7.964-17.161c3.243-1.15,6.139-1.622,8.714-1.622c10.279,0,15.383,7.535,16.54,9.506
	c1.707,3.248,4.97,5.282,8.641,5.282c3.672,0,6.934-2.036,8.641-5.282c1.447-2.464,9.064-13.624,25.254-7.884
	c7.085,2.512,7.929,12.838,7.964,17.161C276.442,249.444,268.228,268.544,255.814,273.168z"/>
<g>
</g>
<g>
</g>
<g>
</g>
<g>
</g>
<g>
</g>
<g>
</g>
<g>
</g>
<g>
</g>
<g>
</g>
<g>
</g>
<g>
</g>
<g>
</g>
<g>
</g>
<g>
</g>
<g>
</g>
</svg>
