<?xml version="1.0" encoding="iso-8859-1"?>
<!-- Generator: Adobe Illustrator 19.0.0, SVG Export Plug-In . SVG Version: 6.00 Build 0)  -->
<svg version="1.1" id="Capa_1" xmlns="http://www.w3.org/2000/svg" xmlns:xlink="http://www.w3.org/1999/xlink" x="0px" y="0px"
	 viewBox="0 0 463.557 463.557" style="enable-background:new 0 0 463.557 463.557;" xml:space="preserve">
<path d="M291.03,185.909c-1.352-4.923-3.404-9.518-5.655-13.602c9.646-10.761,12.663-23.954,8.679-38.466
	c-3.233-11.774-10.446-21.734-14.909-27.077c1.756-33.788-0.79-53.542-9.47-74.532c-8.902-21.528-25.043-34.094-41.125-32.007
	c-20.838,2.702-30.498,18.599-33.355,28.49c-8.625,8.547-13.019,18.922-12.732,30.142c0.203,7.919,2.717,16.046,7.482,24.294
	c-7.145,8.067-10.767,17.569-10.506,27.774c0.203,7.918,2.717,16.046,7.482,24.294c-7.145,8.067-10.767,17.569-10.506,27.774
	c0.203,7.918,2.717,16.045,7.482,24.294c-7.145,8.067-10.767,17.569-10.506,27.773c0.203,7.918,2.717,16.046,7.482,24.294
	c-7.144,8.067-10.767,17.569-10.506,27.773c0.204,7.957,2.739,16.124,7.548,24.412c-9.44,10.708-12.361,23.795-8.413,38.177
	c3.233,11.774,10.446,21.734,14.909,27.077c-1.756,33.787,0.79,53.542,9.47,74.532c8.26,19.975,22.752,32.231,37.645,32.231
	c1.158,0,2.32-0.074,3.48-0.225c21.026-2.727,30.672-18.887,33.43-28.757c11.083-11.095,14.722-25.005,10.497-40.396
	c-1.352-4.923-3.404-9.518-5.655-13.602c9.646-10.761,12.663-23.954,8.679-38.466c-1.352-4.923-3.404-9.518-5.655-13.602
	c9.646-10.761,12.663-23.954,8.678-38.466c-1.352-4.923-3.404-9.518-5.655-13.602c9.646-10.761,12.663-23.954,8.679-38.466
	c-1.352-4.923-3.404-9.518-5.655-13.602C291.998,213.613,295.014,200.42,291.03,185.909z M279.589,137.812
	c2.245,8.178,1.245,15.278-3.046,21.531c-0.971-1.181-1.836-2.171-2.52-2.927l-61.361-67.711
	c-11.223-12.384-21.327-29.61-10.69-44.862l19.07,21.043c-2.78,1.097-4.747,3.802-4.747,6.973c0,4.142,3.363,7.5,7.505,7.5
	c2.907,0,5.422-1.657,6.667-4.074l35.466,39.136C269.053,117.866,276.631,127.039,279.589,137.812z M230.478,15.101
	c8.876-1.149,19.293,8.251,25.335,22.863c5.612,13.573,8.998,27.403,8.823,52.692l-54.274-59.891
	C212.355,25.786,217.686,16.759,230.478,15.101z M183.969,325.745c-2.242-8.166-1.248-15.257,3.026-21.503
	c0.793,0.935,1.607,1.871,2.456,2.807l21.183,23.375c-1.439,1.367-2.341,3.294-2.341,5.437c0,4.143,3.363,7.5,7.505,7.5
	c1.875,0,3.585-0.692,4.9-1.83l30.114,33.23c3.121,3.444,10.699,12.617,13.658,23.391c2.235,8.142,1.255,15.216-2.988,21.45
	l-63.857-70.465C194.505,345.691,186.927,336.518,183.969,325.745z M233.079,448.456c-8.872,1.155-19.292-8.251-25.335-22.863
	c-5.612-13.573-8.998-27.402-8.823-52.691l34.868,38.476c-0.935,1.251-1.495,2.799-1.495,4.482c0,4.143,3.363,7.5,7.505,7.5
	c1.417,0,2.737-0.4,3.867-1.083l9.522,10.507C251.179,437.796,245.839,446.802,233.079,448.456z M261.928,364.687l-61.361-67.711
	c-11.238-12.4-21.353-29.656-10.647-44.922c0.824,0.975,1.67,1.95,2.555,2.927l48.578,53.605c-0.482,0.991-0.759,2.099-0.759,3.274
	c0,4.143,3.363,7.5,7.505,7.5c0.913,0,1.784-0.171,2.593-0.47l3.445,3.802c3.121,3.444,10.699,12.618,13.657,23.391
	c2.245,8.178,1.245,15.278-3.046,21.531C263.477,366.433,262.612,365.442,261.928,364.687z M264.952,312.62l-61.362-67.711
	c-9.853-10.872-14.968-21.043-15.203-30.232c-0.135-5.277,1.396-10.196,4.552-14.696c0.826,0.977,1.673,1.955,2.56,2.934
	l22.236,24.537c-0.902,1.239-1.441,2.759-1.441,4.41c0,4.143,3.363,7.5,7.505,7.5c1.385,0,2.677-0.381,3.79-1.036l29.271,32.3
	c3.121,3.444,10.699,12.617,13.658,23.391c2.245,8.178,1.245,15.278-3.046,21.531C266.501,314.365,265.636,313.374,264.952,312.62z
	 M267.975,260.552l-61.361-67.711c-11.238-12.4-21.354-29.656-10.647-44.922c0.824,0.975,1.67,1.951,2.555,2.927l18.978,20.941
	c-0.76,1.173-1.206,2.57-1.206,4.073c0,4.142,3.363,7.5,7.505,7.5c1.238,0,2.402-0.305,3.431-0.836l32.654,36.033
	c3.121,3.444,10.699,12.618,13.657,23.391c2.245,8.177,1.245,15.277-3.046,21.531C269.524,262.297,268.66,261.307,267.975,260.552z
	 M270.999,208.484l-61.362-67.711c-9.853-10.872-14.968-21.044-15.203-30.232c-0.135-5.276,1.396-10.195,4.552-14.695
	c0.826,0.977,1.673,1.954,2.56,2.933l49.852,55.011c-1.879,1.363-3.105,3.571-3.105,6.071c0,4.142,3.363,7.5,7.505,7.5
	c2.233,0,4.232-0.981,5.606-2.529l1.503,1.659c3.121,3.444,10.699,12.617,13.658,23.391c2.245,8.178,1.245,15.277-3.046,21.531
	C272.548,210.23,271.684,209.239,270.999,208.484z"/>
<g>
</g>
<g>
</g>
<g>
</g>
<g>
</g>
<g>
</g>
<g>
</g>
<g>
</g>
<g>
</g>
<g>
</g>
<g>
</g>
<g>
</g>
<g>
</g>
<g>
</g>
<g>
</g>
<g>
</g>
</svg>
