<?xml version="1.0" encoding="iso-8859-1"?>
<!-- Generator: Adobe Illustrator 18.0.0, SVG Export Plug-In . SVG Version: 6.00 Build 0)  -->
<!DOCTYPE svg PUBLIC "-//W3C//DTD SVG 1.1//EN" "http://www.w3.org/Graphics/SVG/1.1/DTD/svg11.dtd">
<svg version="1.1" id="Capa_1" xmlns="http://www.w3.org/2000/svg" xmlns:xlink="http://www.w3.org/1999/xlink" x="0px" y="0px"
	 viewBox="0 0 297 297" style="enable-background:new 0 0 297 297;" xml:space="preserve">
<g>
	<path d="M287.438,118.954l-48.923-81.539c-1.112-1.852-2.799-3.289-4.805-4.092L152.171,0.707c-2.357-0.942-4.984-0.942-7.341,0
		L63.29,33.322c-2.006,0.803-3.693,2.24-4.805,4.092L9.562,118.954c-0.922,1.536-1.408,3.293-1.408,5.085v163.078
		c0,5.458,4.425,9.884,9.884,9.884h260.925c5.458,0,9.884-4.425,9.884-9.884V124.038
		C288.846,122.247,288.36,120.489,287.438,118.954z M73.723,50.439l74.777-29.91l74.777,29.91l45.802,76.337v85.226h-61.772v-71.656
		c0-5.458-4.425-9.884-9.884-9.884H99.577c-5.458,0-9.884,4.425-9.884,9.884v71.656H27.921v-85.226L73.723,50.439z M109.46,172.989
		l27.162,40.743l-27.162,40.743V172.989z M118.044,150.23h60.912L148.5,195.914L118.044,150.23z M148.5,231.549l30.456,45.684
		h-60.913L148.5,231.549z M160.378,213.731l27.162-40.743v81.485L160.378,213.731z M27.921,231.769h61.772v45.464H27.921V231.769z
		 M207.307,277.233v-45.464h61.772v45.464H207.307z"/>
	<path d="M148.5,101.306c14.442,0,26.191-11.749,26.191-26.191S162.942,48.923,148.5,48.923s-26.191,11.749-26.191,26.191
		S134.058,101.306,148.5,101.306z M148.5,68.691c3.542,0,6.424,2.882,6.424,6.424c0,3.542-2.882,6.424-6.424,6.424
		s-6.424-2.882-6.424-6.424C142.076,71.573,144.958,68.691,148.5,68.691z"/>
</g>
<g>
</g>
<g>
</g>
<g>
</g>
<g>
</g>
<g>
</g>
<g>
</g>
<g>
</g>
<g>
</g>
<g>
</g>
<g>
</g>
<g>
</g>
<g>
</g>
<g>
</g>
<g>
</g>
<g>
</g>
</svg>
