<?xml version="1.0" encoding="iso-8859-1"?>
<!-- Generator: Adobe Illustrator 18.0.0, SVG Export Plug-In . SVG Version: 6.00 Build 0)  -->
<!DOCTYPE svg PUBLIC "-//W3C//DTD SVG 1.1//EN" "http://www.w3.org/Graphics/SVG/1.1/DTD/svg11.dtd">
<svg version="1.1" id="Capa_1" xmlns="http://www.w3.org/2000/svg" xmlns:xlink="http://www.w3.org/1999/xlink" x="0px" y="0px"
	 viewBox="0 0 297 297" style="enable-background:new 0 0 297 297;" xml:space="preserve">

<path d="M16.092,140.735H7.795c-4.305,0-7.795,3.49-7.795,7.795l0,15.69c0,4.151,3.131,7.789,7.274,8.044
	c4.51,0.277,8.255-3.299,8.255-7.75v-8.219c0-0.017,0.014-0.031,0.031-0.031h24.204c0.017,0,0.031,0.014,0.031,0.031v43.485
	c0,2.659,1.09,5.201,3.017,7.033c30.86,29.352,77.017,46.186,126.637,46.186c48.216,0,93.54-16.062,124.355-44.068
	c2.033-1.848,3.196-4.465,3.196-7.213V95.281c0-2.747-1.163-5.365-3.196-7.213c-30.816-28.006-76.139-44.068-124.355-44.068
	c-49.62,0-95.777,16.835-126.637,46.186c-1.927,1.832-3.017,4.374-3.017,7.033v43.485c0,0.017-0.014,0.031-0.031,0.031h-8.28
	c-0.017,0,0-0.014,0-0.031v-9.73c-0.003-0.016-0.016-0.03,0-0.033c2.339-0.413,4.039-2.486,3.939-4.967
	c-0.107-2.643-2.447-4.652-5.093-4.652H17.229c-2.645,0-4.985,2.009-5.093,4.652c-0.101,2.491,1.602,4.571,3.955,4.972V140.735z
	 M277.588,140.735h-37.368v-24.704c13.82,2.737,26.441,6.294,37.368,10.574V140.735z M224.691,140.735H112.103v-27.068
	c17.839-2.714,37.255-4.152,57.345-4.152c19.252,0,37.947,1.338,55.243,3.861V140.735z M96.574,140.735H59.206V127.44
	c10.857-4.445,23.479-8.144,37.368-11.003V140.735z M59.206,156.265h37.368v24.299c-13.889-2.859-26.51-6.559-37.368-11.003
	V156.265z M112.103,156.265h112.588v27.359c-17.296,2.522-35.991,3.861-55.243,3.861c-20.09,0-39.506-1.438-57.345-4.152V156.265z
	 M240.221,156.265h37.368v14.13c-10.927,4.28-23.548,7.837-37.368,10.574V156.265z M277.588,110.043
	c-11.201-3.958-23.792-7.252-37.368-9.802V77.109c13.941,5.829,26.592,13.407,37.368,22.549V110.043z M224.691,71.507v26.2
	c-17.439-2.435-36.109-3.721-55.243-3.721c-19.959,0-39.342,1.388-57.345,4.009V72.125c17.779-5.691,37.216-8.713,57.345-8.713
	C188.735,63.412,207.45,66.221,224.691,71.507z M96.574,77.97v22.658c-13.625,2.656-26.214,6.071-37.368,10.166v-9.315
	C69.904,91.968,82.555,84.068,96.574,77.97z M59.206,186.206c11.154,4.095,23.743,7.51,37.368,10.166v22.658
	c-14.019-6.099-26.67-13.998-37.368-23.509V186.206z M112.103,224.875v-25.869c18.003,2.621,37.387,4.009,57.345,4.009
	c19.134,0,37.804-1.286,55.243-3.721v26.2c-17.241,5.286-35.956,8.095-55.243,8.095
	C149.319,233.588,129.882,230.566,112.103,224.875z M240.221,219.891v-23.131c13.576-2.55,26.166-5.844,37.368-9.802v10.384
	C266.813,206.483,254.162,214.062,240.221,219.891z"/>
<path d="M158.206,125.206c0,5.62,4.571,10.191,10.191,10.191c5.62,0,10.191-4.571,10.191-10.191s-4.571-10.191-10.191-10.191
	C162.777,115.015,158.206,119.586,158.206,125.206z"/>

</svg>
