<?xml version="1.0" encoding="iso-8859-1"?>
<!-- Generator: Adobe Illustrator 19.0.0, SVG Export Plug-In . SVG Version: 6.00 Build 0)  -->
<svg version="1.1" id="Capa_1" xmlns="http://www.w3.org/2000/svg" xmlns:xlink="http://www.w3.org/1999/xlink" x="0px" y="0px"
	 viewBox="0 0 463 463" style="enable-background:new 0 0 463 463;" xml:space="preserve">
<g>
	<path d="M362.425,17.587c-1.421-1.817-3.601-2.879-5.908-2.879c-19.557,0-29.092-3.365-39.187-6.927
		C306.489,3.956,295.279,0,273.154,0s-33.336,3.956-44.178,7.781c-10.095,3.562-19.63,6.927-39.186,6.927
		c-19.542,0-29.069-3.364-39.157-6.926C139.798,3.956,128.594,0,106.483,0c-2.308,0-4.488,1.063-5.909,2.881s-1.926,4.19-1.369,6.43
		l89.4,359.191v4.955c0,11.432,6.122,21.459,15.259,26.98l7.208,56.02c0.365,2.836,2.311,5.218,5.017,6.142
		c0.793,0.27,1.61,0.402,2.42,0.401c1.957,0,3.875-0.767,5.304-2.197l9.634-9.634l9.634,9.634c2.022,2.023,5.019,2.717,7.725,1.795
		c2.707-0.923,4.652-3.305,5.017-6.142l7.208-56.021c9.137-5.521,15.259-15.548,15.259-26.979v-4.957l85.506-344.486
		C364.353,21.775,363.847,19.405,362.425,17.587z M246.791,389.958h-26.686c-8.549,0-15.601-6.536-16.42-14.874h59.526
		C262.392,383.421,255.34,389.958,246.791,389.958z M242.895,439.403l-4.144-4.143c-2.929-2.929-7.678-2.929-10.606,0l-4.143,4.143
		l-4.434-34.459c0.18,0.003,0.357,0.014,0.538,0.014h26.686c0.18,0,0.358-0.011,0.538-0.014L242.895,439.403z M264.924,360.083
		h-62.957L116.155,15.311c13.329,0.912,21.219,3.697,29.483,6.616c10.835,3.826,22.039,7.782,44.151,7.782
		c22.125,0,33.336-3.956,44.177-7.781C244.062,18.365,253.597,15,273.154,15s29.092,3.365,39.187,6.927
		c9.165,3.234,18.593,6.561,34.655,7.512L264.924,360.083z"/>
	<path d="M305.196,65.203l-4.281,17.249c-0.998,4.02,1.453,8.088,5.473,9.086c0.607,0.15,1.214,0.223,1.813,0.223
		c3.365,0,6.426-2.282,7.273-5.695l4.281-17.249c0.998-4.02-1.453-8.088-5.473-9.086C310.264,58.734,306.194,61.183,305.196,65.203z
		"/>
	<path d="M302.171,108.526c-4.023-0.996-8.088,1.453-9.086,5.473l-21.675,87.324c-0.998,4.02,1.452,8.088,5.473,9.086
		c0.606,0.15,1.214,0.223,1.813,0.223c3.365,0,6.426-2.282,7.273-5.695l21.675-87.324
		C308.641,113.592,306.191,109.524,302.171,108.526z"/>
</g>
<g>
</g>
<g>
</g>
<g>
</g>
<g>
</g>
<g>
</g>
<g>
</g>
<g>
</g>
<g>
</g>
<g>
</g>
<g>
</g>
<g>
</g>
<g>
</g>
<g>
</g>
<g>
</g>
<g>
</g>
</svg>
