<?xml version="1.0" encoding="iso-8859-1"?>
<!-- Generator: Adobe Illustrator 19.0.0, SVG Export Plug-In . SVG Version: 6.00 Build 0)  -->
<svg version="1.1" id="Capa_1" xmlns="http://www.w3.org/2000/svg" xmlns:xlink="http://www.w3.org/1999/xlink" x="0px" y="0px"
	 viewBox="0 0 463.013 463.013" style="enable-background:new 0 0 463.013 463.013;" xml:space="preserve">
<path d="M304.542,389.978c0-30.188-13.802-74.402-27.15-117.162c-12.426-39.808-25.248-80.9-26.379-108.819
	c7.176-4.027,12.038-11.707,12.038-20.504V55.496c0-8.488-4.524-15.939-11.287-20.07c2.114-3.576,3.244-7.664,3.244-11.926
	c0-6.277-2.445-12.178-6.883-16.617l0,0C243.685,2.445,237.784,0,231.507,0c-6.277,0-12.179,2.445-16.617,6.883
	c-7.724,7.723-8.91,19.519-3.612,28.526c-6.778,4.127-11.315,11.587-11.315,20.087v87.997c0,8.798,4.862,16.477,12.038,20.504
	c-1.131,27.919-13.953,69.011-26.379,108.819c-13.348,42.759-27.15,86.974-27.15,117.162c0,40.257,32.74,73.01,72.991,73.034
	c0.015,0,0.029,0.002,0.044,0.002s0.029-0.002,0.044-0.002C271.802,462.988,304.542,430.235,304.542,389.978z M214.963,55.496
	c0-4.687,3.813-8.5,8.5-8.5h16.087c4.687,0,8.5,3.813,8.5,8.5v87.997c0,4.687-3.813,8.5-8.5,8.5h-16.087c-4.687,0-8.5-3.813-8.5-8.5
	V55.496z M221.134,389.979c0-28.725,3.703-72.224,7.285-114.29c1.051-12.343,2.112-24.808,3.088-37.002
	c0.977,12.195,2.038,24.659,3.088,37.002c3.582,42.066,7.285,85.565,7.285,114.29c0,31.647-6.225,52.496-10.373,57.378
	C227.358,442.474,221.134,421.625,221.134,389.979z M212.601,284.669c-3.313,39.086-6.467,78.311-6.467,105.31
	c0,17.178,1.751,33.458,4.944,46.177c-8.302-10.703-13.775-27.586-13.775-46.177C197.303,363.507,204.824,323.93,212.601,284.669z
	 M251.936,436.155c3.192-12.718,4.944-28.999,4.944-46.177c0-26.998-3.154-66.22-6.467-105.305
	c7.777,39.26,15.298,78.835,15.298,105.305C265.711,408.569,260.238,425.452,251.936,436.155z M225.496,17.49
	c1.605-1.605,3.74-2.49,6.011-2.49s4.405,0.884,6.01,2.49c0,0,0,0,0,0c1.605,1.605,2.49,3.74,2.49,6.01s-0.884,4.405-2.49,6.011
	c-1.656,1.657-3.832,2.485-6.008,2.485h-0.005c-2.176-0.001-4.351-0.829-6.007-2.485C222.182,26.196,222.182,20.804,225.496,17.49z
	 M173.472,389.978c0-25.615,11.343-64.047,23.271-102.43c-7.496,38.052-14.44,75.895-14.44,102.43
	c0,14.963,2.986,29.274,8.504,41.32C180.115,420.766,173.472,406.136,173.472,389.978z M272.207,431.298
	c5.518-12.047,8.504-26.358,8.504-41.32c0-26.534-6.943-64.377-14.44-102.429c11.928,38.383,23.27,76.814,23.27,102.429
	C289.542,406.136,282.898,420.766,272.207,431.298z"/>
<g>
</g>
<g>
</g>
<g>
</g>
<g>
</g>
<g>
</g>
<g>
</g>
<g>
</g>
<g>
</g>
<g>
</g>
<g>
</g>
<g>
</g>
<g>
</g>
<g>
</g>
<g>
</g>
<g>
</g>
</svg>
