<?xml version="1.0" encoding="iso-8859-1"?>
<!-- Generator: Adobe Illustrator 18.0.0, SVG Export Plug-In . SVG Version: 6.00 Build 0)  -->
<!DOCTYPE svg PUBLIC "-//W3C//DTD SVG 1.1//EN" "http://www.w3.org/Graphics/SVG/1.1/DTD/svg11.dtd">
<svg version="1.1" id="Capa_1" xmlns="http://www.w3.org/2000/svg" xmlns:xlink="http://www.w3.org/1999/xlink" x="0px" y="0px"
	 viewBox="0 0 297 297" style="enable-background:new 0 0 297 297;" xml:space="preserve">
<g>
	<path d="M287.116,97.847h-66.325c-6.387-25.878,10.44-68.289,18.078-83.524c1.644-3.27,1.346-7.18-0.773-10.162
		c-2.12-2.983-5.713-4.551-9.341-4.076c-17.081,2.237-29.461,8.608-38.228,15.551c0.14-1.625,0.282-3.243,0.43-4.843
		c0.358-3.883-1.6-7.614-5-9.524c-3.398-1.913-7.604-1.645-10.735,0.68c-12.945,9.612-21.311,25.124-26.723,41.348
		c-5.412-16.224-13.779-31.736-26.723-41.348c-3.131-2.325-7.337-2.593-10.735-0.68c-3.399,1.91-5.358,5.642-5,9.524
		c0.148,1.6,0.29,3.218,0.43,4.843C97.706,8.692,85.326,2.322,68.245,0.085c-3.626-0.476-7.222,1.093-9.341,4.076
		c-2.12,2.982-2.417,6.892-0.773,10.162c7.65,15.221,24.497,57.602,18.081,83.524H9.884c-5.458,0-9.884,4.425-9.884,9.884
		c0,5.458,4.425,9.883,9.884,9.883h42.614c-7.875,9.431-11.728,22.245-11.728,39.04c0,25.76,17.836,51.732,53.012,77.194
		c18.049,13.065,35.907,22.487,44.835,26.893v26.376c0,5.458,4.425,9.884,9.883,9.884s9.883-4.425,9.883-9.884v-26.376
		c8.928-4.406,26.786-13.828,44.835-26.893c35.176-25.462,53.012-51.434,53.012-77.194c0-16.795-3.853-29.609-11.728-39.04h42.614
		c5.458,0,9.883-4.425,9.883-9.883C297,102.273,292.574,97.847,287.116,97.847z M188.304,49.314
		c0.299-0.702,7.896-16.526,24.461-24.335c-7.292,19.054-16.042,48.574-12.092,72.869h-11.998
		C187.334,88.272,187.367,69.793,188.304,49.314z M158.659,97.796c0.801-14.169,3.496-34.943,10.076-52.509
		c-0.121,2.356-0.235,4.756-0.336,7.174c-0.948,22.493-0.525,36.459,0.452,45.335H158.659z M128.149,97.796
		c0.977-8.876,1.4-22.842,0.452-45.335c-0.101-2.418-0.215-4.818-0.336-7.174c6.58,17.566,9.274,38.34,10.076,52.509H128.149z
		 M108.694,49.269c0.94,20.497,0.974,38.996-0.368,48.579H96.327c3.95-24.294-4.8-53.815-12.092-72.869
		C100.719,32.75,108.344,48.453,108.694,49.269z M184.854,117.614c19.053,0.499,34.61,2.711,43.005,11.041
		c4.71,4.673,7.451,11.607,8.309,21.081h-6.129c-3.821,0-6.918,3.097-6.918,6.918c0,3.821,3.097,6.918,6.918,6.918h5.747
		c-6.681,34.631-61.131,67.503-87.286,80.031c-12.886-6.173-32.635-17.285-50.159-31.108h1.236c3.821,0,6.918-3.097,6.918-6.918
		s-3.097-6.918-6.918-6.918H83.269c-0.186,0-0.368,0.014-0.55,0.028c-12.928-13.011-22.182-27.476-22.182-42.033
		c0-13.096,2.814-22.254,8.605-27.999c8.403-8.337,23.982-10.544,43.06-11.041H184.854z"/>
	<path d="M66.961,228.31H34.346c-5.458,0-9.884,4.425-9.884,9.883c0,5.458,4.425,9.884,9.884,9.884h32.616
		c5.458,0,9.884-4.425,9.884-9.884C76.845,232.735,72.419,228.31,66.961,228.31z"/>
	<path d="M246.347,244.617h-16.308c-5.458,0-9.883,4.425-9.883,9.883c0,5.458,4.425,9.883,9.883,9.883h16.308
		c5.458,0,9.883-4.425,9.883-9.883C256.23,249.043,251.805,244.617,246.347,244.617z"/>
	<path d="M278.962,195.694h-16.308c-5.458,0-9.884,4.425-9.884,9.883s4.425,9.883,9.884,9.883h16.308
		c5.458,0,9.884-4.425,9.884-9.883S284.42,195.694,278.962,195.694z"/>
	<path d="M115.884,166.044H83.269c-3.821,0-6.918,3.097-6.918,6.918c0,3.821,3.097,6.918,6.918,6.918h32.616
		c3.821,0,6.918-3.097,6.918-6.918C122.803,169.141,119.706,166.044,115.884,166.044z"/>
	<path d="M181.116,198.659H148.5c-3.821,0-6.918,3.097-6.918,6.918s3.097,6.918,6.918,6.918h32.616c3.821,0,6.918-3.097,6.918-6.918
		S184.937,198.659,181.116,198.659z"/>
	<path d="M181.116,133.428h-16.308c-3.821,0-6.918,3.097-6.918,6.918s3.097,6.918,6.918,6.918h16.308
		c3.821,0,6.918-3.097,6.918-6.918S184.937,133.428,181.116,133.428z"/>
</g>
<g>
</g>
<g>
</g>
<g>
</g>
<g>
</g>
<g>
</g>
<g>
</g>
<g>
</g>
<g>
</g>
<g>
</g>
<g>
</g>
<g>
</g>
<g>
</g>
<g>
</g>
<g>
</g>
<g>
</g>
</svg>
