<?xml version='1.0' encoding='iso-8859-1'?>
<!DOCTYPE svg PUBLIC '-//W3C//DTD SVG 1.1//EN' 'http://www.w3.org/Graphics/SVG/1.1/DTD/svg11.dtd'>
<svg version="1.1" xmlns="http://www.w3.org/2000/svg" viewBox="0 0 239.797 239.797" xmlns:xlink="http://www.w3.org/1999/xlink" enable-background="new 0 0 239.797 239.797">
  <path d="m224.261,160.983l-22.264-22.263c-1.406-1.406-3.313-2.196-5.303-2.196h-21.094v-5.436l26.396-26.391c1.407-1.406 2.197-3.314 2.197-5.304v-41.42c0-4.143-3.357-7.5-7.5-7.5-4.143,0-7.5,3.357-7.5,7.5v38.314l-13.594,13.591v-6.073c0-4.143-3.357-7.5-7.5-7.5h-5.202c-3.144-18.072-17.429-32.357-35.501-35.501v-45.804h8.286c4.143,0 7.5-3.358 7.5-7.5 0-4.143-3.357-7.5-7.5-7.5h-31.572c-4.142,0-7.5,3.357-7.5,7.5 0,4.142 3.358,7.5 7.5,7.5h8.286v45.803c-18.071,3.144-32.356,17.429-35.499,35.501h-5.202c-4.142,0-7.5,3.357-7.5,7.5v6.073l-13.593-13.591v-38.313c0-4.143-3.358-7.5-7.5-7.5-4.142,0-7.5,3.357-7.5,7.5v41.421c0,1.989 0.79,3.897 2.197,5.304l26.396,26.391v5.436h-21.093c-1.989,0-3.896,0.79-5.303,2.196l-22.264,22.263c-2.929,2.929-2.929,7.678 0,10.606 1.464,1.465 3.384,2.197 5.303,2.197 1.919,0 3.839-0.732 5.303-2.196l20.067-20.066h15.928l-24.989,32.566c-1.005,1.31-1.55,2.914-1.55,4.565v43.641c0,4.143 3.358,7.5 7.5,7.5s7.5-3.357 7.5-7.5v-41.095l13.961-18.194c3.129,27.77 26.748,49.427 55.34,49.427 28.591,0 52.208-21.657 55.338-49.426l13.959,18.193v41.095c0,4.143 3.357,7.5 7.5,7.5 4.143,0 7.5-3.357 7.5-7.5v-43.641c0-1.651-0.545-3.256-1.55-4.565l-24.987-32.566h15.929l20.067,20.066c1.464,1.464 3.384,2.196 5.303,2.196 1.919,0 3.839-0.732 5.304-2.197 2.929-2.929 2.929-7.678 0-10.607zm-104.364-85.838c13.208,0 24.352,8.983 27.657,21.159h-55.311c3.305-12.176 14.447-21.159 27.654-21.159zm-40.701,91.586v-55.428h33.203v95.427c-18.872-3.531-33.203-20.118-33.203-39.999zm81.405,0c0,19.881-14.33,36.467-33.201,39.999v-95.427h33.201v16.673c0,0.002 0,0.004 0,0.006v38.749z"/>
</svg>
