<?xml version="1.0" encoding="iso-8859-1"?>
<!-- Generator: Adobe Illustrator 19.0.0, SVG Export Plug-In . SVG Version: 6.00 Build 0)  -->
<svg version="1.1" id="Capa_1" xmlns="http://www.w3.org/2000/svg" xmlns:xlink="http://www.w3.org/1999/xlink" x="0px" y="0px"
	 viewBox="0 0 447 447" style="enable-background:new 0 0 447 447;" xml:space="preserve">
<g>
	<path d="M399.5,0h-352C21.309,0,0,21.309,0,47.5v352C0,425.692,21.309,447,47.5,447h352c26.191,0,47.5-21.309,47.5-47.5v-352
		C447,21.309,425.692,0,399.5,0z M432,399.5c0,17.92-14.58,32.5-32.5,32.5h-352c-17.92,0-32.5-14.58-32.5-32.5v-352
		C15,29.58,29.58,15,47.5,15h352c17.92,0,32.5,14.58,32.5,32.5V399.5z"/>
	<path d="M206.5,328h-62c-4.687,0-8.5,3.813-8.5,8.5v62c0,4.687,3.813,8.5,8.5,8.5h62c4.687,0,8.5-3.813,8.5-8.5v-62
		C215,331.813,211.187,328,206.5,328z M200,392h-49v-49h49V392z"/>
	<path d="M110.5,328h-62c-4.687,0-8.5,3.813-8.5,8.5v62c0,4.687,3.813,8.5,8.5,8.5h62c4.687,0,8.5-3.813,8.5-8.5v-62
		C119,331.813,115.187,328,110.5,328z M104,392H55v-49h49V392z"/>
	<path d="M398.5,328h-62c-4.687,0-8.5,3.813-8.5,8.5v62c0,4.687,3.813,8.5,8.5,8.5h62c4.687,0,8.5-3.813,8.5-8.5v-62
		C407,331.813,403.188,328,398.5,328z M392,392h-49v-49h49V392z"/>
	<path d="M302.5,328h-62c-4.687,0-8.5,3.813-8.5,8.5v62c0,4.687,3.813,8.5,8.5,8.5h62c4.687,0,8.5-3.813,8.5-8.5v-62
		C311,331.813,307.187,328,302.5,328z M296,392h-49v-49h49V392z"/>
	<path d="M205.662,160.549c-3.838-1.553-8.211,0.298-9.767,4.138c-5.715,14.119-17.091,25.494-31.209,31.209
		c-3.839,1.554-5.692,5.927-4.138,9.766c1.181,2.918,3.989,4.688,6.955,4.688c0.937,0,1.89-0.177,2.812-0.55
		c17.862-7.23,32.254-21.622,39.486-39.484C211.354,166.477,209.501,162.104,205.662,160.549z"/>
	<path d="M399.465,118.941c4.234-0.481,7.536-4.081,7.536-8.441v-62c0-4.687-3.813-8.5-8.5-8.5h-62c-4.687,0-8.5,3.813-8.5,8.5
		v61.747c-11.007,6.295-19.275,16.855-22.508,29.423c-2.701-2.285-6.186-3.67-9.992-3.67h-48c-0.264,0-0.521,0.026-0.782,0.04
		c-0.417-5.749-1.303-11.454-2.66-17.04H302.5c4.687,0,8.5-3.813,8.5-8.5v-62c0-4.687-3.813-8.5-8.5-8.5h-51.876
		c0.144-2.156-0.643-4.272-2.174-5.803c-1.561-1.562-3.734-2.355-5.931-2.17c-1.841,0.155-32.809,2.914-61.646,14.934
		C168.966,42.344,156.41,40,143.5,40c-10.193,0-20.044,1.488-29.355,4.247C111.306,41.565,107.514,40,103.5,40h-48
		C46.953,40,40,46.953,40,55.5v48c0,4.013,1.579,7.806,4.249,10.639C41.489,123.451,40,133.304,40,143.5
		c0,12.911,2.344,25.466,6.961,37.372c-12.02,28.837-14.78,59.806-14.934,61.647c-0.185,2.2,0.609,4.37,2.17,5.931
		c1.412,1.413,3.322,2.197,5.303,2.197c0.166,0,0.333-0.01,0.5-0.021V295.5c0,8.547,6.953,15.5,15.5,15.5h48
		c8.547,0,15.5-6.954,15.5-15.5v-48c0-1.222-0.157-2.406-0.426-3.547c5.709,1.412,11.544,2.334,17.426,2.763V302.5
		c0,4.687,3.813,8.5,8.5,8.5h62c4.687,0,8.5-3.813,8.5-8.5v-62c0-4.687-3.813-8.5-8.5-8.5h-9.381
		c14.234-8.656,26.225-20.647,34.881-34.881v2.381c0,8.547,6.953,15.5,15.5,15.5h17.277c-0.501,2.76-0.777,5.598-0.777,8.5
		c0,2.626,0.217,5.486,0.632,8.5H247.5c-8.547,0-15.5,6.953-15.5,15.5v48c0,8.547,6.953,15.5,15.5,15.5h48
		c8.547,0,15.5-6.954,15.5-15.5v-0.513c0.167,0.003,0.333,0.013,0.5,0.013c5.909,0,11.444-2.085,16.5-5.601v6.101
		c0,8.547,6.953,15.5,15.5,15.5h48c8.547,0,15.5-6.954,15.5-15.5v-48c0-8.547-6.953-15.5-15.5-15.5h-33.132
		c0.415-3.014,0.632-5.874,0.632-8.5c0-2.902-0.276-5.74-0.777-8.5H391.5c8.547,0,15.5-6.953,15.5-15.5v-20.706
		c9.478-7.532,16-16.828,16-27.294C423,138.44,412.845,127.203,399.465,118.941z M343,104V55h49v49H343z M208.852,73.795
		c-2.929-2.929-7.678-2.929-10.606,0l-44.991,44.991c-3.144-5.078-4.833-10.938-4.833-17.061c0-8.681,3.38-16.843,9.519-22.981
		c19.192-19.192,55.401-27.229,74.06-30.217v13.669c-2.116,10.111-5.34,22.258-10.14,33.816c-0.075,0.163-0.144,0.329-0.207,0.497
		c-4.456,10.614-10.25,20.696-17.751,28.197c-6.138,6.139-14.3,9.519-22.981,9.519c-6.122,0-11.982-1.689-17.061-4.833
		l44.991-44.991C211.781,81.473,211.781,76.724,208.852,73.795z M296,104h-49V63.884c0.652-3.197,1.195-6.181,1.646-8.884H296V104z
		 M55,55.5c0-0.276,0.224-0.5,0.5-0.5h34.381C75.647,63.656,63.656,75.647,55,89.881V55.5z M55,143.5C55,94.701,94.701,55,143.5,55
		c6.147,0,12.196,0.63,18.109,1.859c-5.21,3.315-10.052,7.056-14.275,11.279c-8.972,8.971-13.913,20.899-13.913,33.587
		c0,10.151,3.17,19.811,9.03,27.864l-12.861,12.861c-8.053-5.859-17.713-9.03-27.864-9.03c-12.688,0-24.616,4.941-33.587,13.913
		c-4.223,4.223-7.965,9.065-11.28,14.276C55.629,155.697,55,149.648,55,143.5z M134.226,180.921c0,8.681-3.38,16.843-9.519,22.981
		c-20.091,20.091-58.845,27.962-76.576,30.608c1.723-11.598,5.682-32.186,13.853-50.673c0.017-0.042,0.036-0.082,0.053-0.124
		c4.307-9.717,9.78-18.846,16.707-25.773c6.138-6.139,14.3-9.519,22.981-9.519c6.122,0,11.982,1.689,17.061,4.833l-44.991,44.991
		c-2.929,2.929-2.929,7.678,0,10.606c1.464,1.464,3.384,2.197,5.303,2.197s3.839-0.732,5.303-2.197l44.991-44.991
		C132.537,168.939,134.226,174.799,134.226,180.921z M104,295.5c0,0.276-0.224,0.5-0.5,0.5h-48c-0.276,0-0.5-0.225-0.5-0.5v-46.854
		c2.703-0.451,5.687-0.994,8.884-1.646H103.5c0.276,0,0.5,0.224,0.5,0.5V295.5z M200,296h-49v-49h49V296z M143.5,232
		c-9.035,0-17.805-1.318-26.217-3.93c6.643-3.852,12.808-8.34,18.03-13.562c8.972-8.971,13.913-20.899,13.913-33.587
		c0-10.151-3.17-19.811-9.03-27.864l12.861-12.861c8.053,5.859,17.713,9.03,27.864,9.03c12.688,0,24.616-4.941,33.587-13.913
		c5.222-5.222,9.709-11.387,13.562-18.03c2.612,8.412,3.929,17.182,3.929,26.217C232,192.299,192.299,232,143.5,232z M247.5,200
		c-0.276,0-0.5-0.224-0.5-0.5v-48c0-0.276,0.224-0.5,0.5-0.5h48c0.276,0,0.5,0.224,0.5,0.5v27.111
		c-10.946,3.791-20.082,11.473-25.753,21.389H247.5z M296,295.5c0,0.276-0.224,0.5-0.5,0.5h-48c-0.276,0-0.5-0.225-0.5-0.5v-48
		c0-0.276,0.224-0.5,0.5-0.5h20.514c5.178,16.901,15.078,34.687,27.986,43.072V295.5z M311.5,280c-15.794,0-32.5-36.741-32.5-56.5
		c0-15.339,10.685-28.221,25-31.617V231.5c0,4.142,3.358,7.5,7.5,7.5s7.5-3.358,7.5-7.5v-39.617c14.315,3.396,25,16.278,25,31.617
		C344,243.259,327.295,280,311.5,280z M391.5,247c0.276,0,0.5,0.224,0.5,0.5v48c0,0.276-0.224,0.5-0.5,0.5h-48
		c-0.276,0-0.5-0.225-0.5-0.5v-22.369c5.156-7.935,9.237-17.157,11.986-26.131H391.5z M392,199.5c0,0.276-0.224,0.5-0.5,0.5h-38.747
		c-0.192-0.337-0.38-0.677-0.58-1.008c11.199-0.151,26.385-4.065,39.827-10.787V199.5z M351.5,184
		c-15.339,0-28.221-10.685-31.617-25H359.5c4.142,0,7.5-3.358,7.5-7.5s-3.358-7.5-7.5-7.5h-39.617c3.396-14.315,16.278-25,31.617-25
		c19.759,0,56.5,16.706,56.5,32.5S371.259,184,351.5,184z"/>
</g>
<g>
</g>
<g>
</g>
<g>
</g>
<g>
</g>
<g>
</g>
<g>
</g>
<g>
</g>
<g>
</g>
<g>
</g>
<g>
</g>
<g>
</g>
<g>
</g>
<g>
</g>
<g>
</g>
<g>
</g>
</svg>
