<?xml version='1.0' encoding='iso-8859-1'?>
<!DOCTYPE svg PUBLIC '-//W3C//DTD SVG 1.1//EN' 'http://www.w3.org/Graphics/SVG/1.1/DTD/svg11.dtd'>
<svg version="1.1" xmlns="http://www.w3.org/2000/svg" viewBox="0 0 451.582 451.582" xmlns:xlink="http://www.w3.org/1999/xlink" enable-background="new 0 0 451.582 451.582">
  <g>
    <path d="m328.747,334.208c27.943-27.647 42.712-67.042 42.712-113.925 0-93.247-57.33-170.207-130.596-179.584 4.352-9.266 13.769-15.699 24.664-15.699 6.903,0 12.5-5.596 12.5-12.5s-5.597-12.5-12.5-12.5c-15.897,0-30.148,7.147-39.736,18.386-9.589-11.239-23.84-18.386-39.736-18.386-6.903,0-12.5,5.596-12.5,12.5s5.597,12.5 12.5,12.5c10.895,0 20.312,6.433 24.664,15.699-73.266,9.378-130.596,86.337-130.596,179.584 0,46.883 14.77,86.278 42.712,113.925 14.852,14.695 33.179,25.605 53.71,32.258v44.55l-19.227,19.227c-4.881,4.882-4.881,12.796 0,17.678 4.882,4.881 12.796,4.881 17.678,0l12.546-12.547 12.547,12.547c2.441,2.441 5.64,3.661 8.839,3.661s6.398-1.22 8.839-3.661c4.881-4.882 4.881-12.796 0-17.678l-16.222-16.221v-41.742c7.883,1.16 15.981,1.761 24.245,1.761 9.318,0 18.426-0.761 27.251-2.231v39.207l-19.227,19.227c-4.881,4.882-4.881,12.796 0,17.678 4.882,4.882 12.797,4.882 17.678,0l12.547-12.547 12.546,12.547c2.441,2.441 5.64,3.661 8.839,3.661 3.199,0 6.398-1.221 8.839-3.661 4.881-4.882 4.881-12.796 0-17.678l-16.222-16.222v-48.566c19.316-6.724 36.583-17.274 50.706-31.248zm-17.584-17.771c-2.641,2.613-5.422,5.08-8.333,7.397 0.748-28.046 16.227-53.205 39.8-66.789-5.26,23.798-15.878,43.968-31.467,59.392zm-202.211-59.389c23.572,13.588 39.051,38.745 39.799,66.786-2.91-2.317-5.692-4.784-8.333-7.397-15.587-15.423-26.205-35.592-31.466-59.389zm64.092,81.379c0.494-4.128 0.752-8.295 0.752-12.468 0-44.075-27.759-83.201-68.525-98.125-0.098-2.489-0.149-5.006-0.149-7.551 0-41.699 12.897-81.01 36.317-110.691 22.824-28.926 52.78-44.855 84.351-44.855s61.527,15.93 84.351,44.855c23.42,29.681 36.317,68.991 36.317,110.691 0,2.544-0.05,5.061-0.148,7.55-40.767,14.918-68.525,54.044-68.525,98.127 0,4.173 0.258,8.34 0.752,12.468-15.817,6.949-33.73,10.613-52.747,10.613-19.016-5.68434e-14-36.929-3.665-52.746-10.614z"/>
    <path d="m304.544,204.59c3.3,0 6.52-1.33 8.84-3.66 2.33-2.33 3.67-5.55 3.67-8.84 0-3.29-1.34-6.51-3.67-8.84-2.32-2.32-5.54-3.66-8.84-3.66-3.29,0-6.51,1.34-8.83,3.66-2.33,2.33-3.67,5.55-3.67,8.84 0,3.29 1.34,6.51 3.67,8.84 2.32,2.33 5.54,3.66 8.83,3.66z"/>
    <path d="m147.034,179.59c-3.29,0-6.51,1.34-8.84,3.66-2.33,2.33-3.66,5.55-3.66,8.84 0,3.29 1.33,6.51 3.66,8.84 2.33,2.33 5.55,3.66 8.84,3.66s6.51-1.33 8.84-3.66c2.32-2.33 3.66-5.55 3.66-8.84 0-3.29-1.34-6.51-3.66-8.84-2.33-2.32-5.55-3.66-8.84-3.66z"/>
    <path d="m266.729,193.84l-32.654-28.898c-4.729-4.186-11.839-4.186-16.568,0l-32.654,28.899c-5.081,4.496-5.647,12.224-1.276,17.413l32.654,38.769c2.375,2.82 5.874,4.448 9.561,4.448 3.687,0 7.186-1.627 9.561-4.447l32.654-38.769c4.369-5.19 3.803-12.918-1.278-17.415zm-40.938,28.727l-15.235-18.089 15.235-13.483 15.236,13.483-15.236,18.089z"/>
  </g>
</svg>
