<?xml version="1.0" encoding="iso-8859-1"?>
<!-- Generator: Adobe Illustrator 16.0.0, SVG Export Plug-In . SVG Version: 6.00 Build 0)  -->
<!DOCTYPE svg PUBLIC "-//W3C//DTD SVG 1.1//EN" "http://www.w3.org/Graphics/SVG/1.1/DTD/svg11.dtd">
<svg version="1.1" id="Capa_1" xmlns="http://www.w3.org/2000/svg" xmlns:xlink="http://www.w3.org/1999/xlink" x="0px" y="0px"
	 width="386.101px" height="386.101px" viewBox="0 0 386.101 386.101" style="enable-background:new 0 0 386.101 386.101;"
	 xml:space="preserve">
<g>
	<path d="M355.706,110.35l-18.525-5.149v-14.56c0-31.438-25.571-57.019-57.012-57.019H141.57l24.382-19.153
		c3.515-2.763,4.132-7.857,1.366-11.372c-2.763-3.515-7.863-4.132-11.373-1.366l-29.689,23.327V8.104c0-4.477-3.628-8.1-8.1-8.1
		s-8.1,3.623-8.1,8.1V34.27c-27.604,3.953-48.919,27.686-48.919,56.371v172.03c-4.361,1.061-8.174,1.588-11.377,1.588
		c-8.514,0-8.867-3.486-9.142-6.286c-0.422-4.293-4.369-7.504-8.456-7.282c-4.316,0.216-7.702,3.775-7.702,8.089
		c0,0.606,0.772,60.402,66.707,68.513c8.3,4.478,17.6,6.84,26.994,6.84h64.368l-11.059,41.792c-1.145,4.329,1.437,8.759,5.756,9.903
		c0.696,0.185,1.395,0.274,2.08,0.274c3.586,0,6.864-2.399,7.823-6.033l12.155-45.942h25.565l10.758,45.727
		c0.876,3.729,4.198,6.249,7.879,6.249c0.611,0,1.234-0.074,1.861-0.222c4.361-1.023,7.051-5.384,6.027-9.745l-9.893-42.009h38.696
		c31.43,0,57.006-25.576,57.006-57.016V150.937l22.623-27.651c1.729-2.117,2.283-4.97,1.456-7.578
		C360.43,113.1,358.342,111.085,355.706,110.35z M322.81,142.919c-1.182,1.448-1.83,3.261-1.83,5.131v129.075
		c0,22.502-18.304,40.816-40.812,40.816H118.15c-7.127,0-14.18-1.909-20.395-5.511c-0.983-0.564-2.07-0.923-3.19-1.039
		c-28.896-3.122-42.306-17.961-48.526-31.098c6.951,0.659,15.499-0.596,25.592-3.718c3.391-1.049,5.706-4.188,5.706-7.741V90.646
		c0-22.507,18.312-40.819,40.819-40.819h162.023c22.497,0,40.806,18.312,40.806,40.819v20.717c0,3.639,2.426,6.829,5.938,7.802
		l12.487,3.473L322.81,142.919z"/>
	<path d="M261.833,82.546c-14.581,0-26.446,11.865-26.446,26.438c0,14.576,11.865,26.438,26.446,26.438s26.436-11.862,26.436-26.438
		C288.269,94.411,276.415,82.546,261.833,82.546z M261.833,119.231c-5.648,0-10.247-4.596-10.247-10.241
		c0-5.643,4.604-10.238,10.247-10.238c5.647,0,10.235,4.596,10.235,10.238C272.069,114.635,267.481,119.231,261.833,119.231z"/>
</g>
<g>
</g>
<g>
</g>
<g>
</g>
<g>
</g>
<g>
</g>
<g>
</g>
<g>
</g>
<g>
</g>
<g>
</g>
<g>
</g>
<g>
</g>
<g>
</g>
<g>
</g>
<g>
</g>
<g>
</g>
</svg>
