<?xml version="1.0" encoding="iso-8859-1"?>
<!-- Generator: Adobe Illustrator 18.0.0, SVG Export Plug-In . SVG Version: 6.00 Build 0)  -->
<!DOCTYPE svg PUBLIC "-//W3C//DTD SVG 1.1//EN" "http://www.w3.org/Graphics/SVG/1.1/DTD/svg11.dtd">
<svg version="1.1" id="Capa_1" xmlns="http://www.w3.org/2000/svg" xmlns:xlink="http://www.w3.org/1999/xlink" x="0px" y="0px"
	 viewBox="0 0 297 297" style="enable-background:new 0 0 297 297;" xml:space="preserve">
<path d="M236.192,156.404h-43.536c-4.557,0-8.951-1.892-12.056-5.19c-2.672-2.837-4.021-6.405-3.801-10.045
	c1.778-29.33,14.326-128.958,14.452-129.961c0.358-2.836-0.519-5.69-2.41-7.834C186.95,1.229,184.229,0,181.37,0H79.787
	c-5.501,0-9.96,4.46-9.96,9.96v20.419H14.048c-5.501,0-9.96,4.46-9.96,9.96v217.676v15.905C4.088,286.647,14.441,297,27.167,297
	h59.44c1.422,0,2.827-0.304,4.121-0.893l10.39-4.722l10.391,4.722c1.295,0.589,2.699,0.893,4.121,0.893h88.463
	c12.726,0,23.079-10.353,23.079-23.079v-7.3h42.66c12.726,0,23.079-10.353,23.079-23.079v-30.416
	C292.912,181.849,267.467,156.404,236.192,156.404z M89.748,19.921h80.342c-3.371,27.21-11.701,95.73-13.174,120.043
	c-0.556,9.181,2.704,18.025,9.179,24.904c6.854,7.282,16.535,11.457,26.561,11.457h43.536c20.291,0,36.799,16.509,36.799,36.8v4.551
	h-52.066c-9.414-18.322-28.497-30.893-50.473-30.893h-43.536c-4.557,0-8.951-1.892-12.056-5.19
	c-2.672-2.837-4.021-6.405-3.801-10.045c1.778-29.33,14.326-128.958,14.452-129.961c0.358-2.836-0.519-5.69-2.41-7.834
	c-1.891-2.145-4.613-3.373-7.471-3.373H89.748V19.921z M24.009,50.3h80.342c-3.371,27.21-11.701,95.73-13.174,120.043
	c-0.556,9.181,2.704,18.025,9.179,24.904c6.854,7.282,16.535,11.457,26.561,11.457h43.536c20.291,0,36.799,16.509,36.799,36.8v4.551
	H24.009V50.3z M204.094,277.079h-8.932v-1.033c0-3.851-3.121-6.972-6.972-6.972c-3.851,0-6.972,3.121-6.972,6.972v1.033h-7.823
	v-1.033c0-3.851-3.121-6.972-6.972-6.972c-3.851,0-6.972,3.121-6.972,6.972v1.033h-7.822v-1.033c0-3.851-3.121-6.972-6.972-6.972
	s-6.972,3.121-6.972,6.972v1.033h-19.894l-12.549-5.703c-2.619-1.191-5.624-1.191-8.243,0l-12.548,5.703h-5.382v-1.033
	c0-3.851-3.121-6.972-6.972-6.972s-6.972,3.121-6.972,6.972v1.033H50.044v-1.033c0-3.851-3.121-6.972-6.972-6.972
	s-6.972,3.121-6.972,6.972v1.033h-8.932c-1.741,0-3.158-1.417-3.158-3.158v-5.944h183.244v5.944
	C207.252,275.662,205.835,277.079,204.094,277.079z M269.833,246.7h-8.932v-1.033c0-3.851-3.121-6.972-6.972-6.972
	s-6.972,3.121-6.972,6.972v1.033h-19.783c0,0-0.106-7.16-0.308-9.103h46.126v5.944C272.991,245.283,271.574,246.7,269.833,246.7z"/>
</svg>
