<?xml version='1.0' encoding='iso-8859-1'?>
<!DOCTYPE svg PUBLIC '-//W3C//DTD SVG 1.1//EN' 'http://www.w3.org/Graphics/SVG/1.1/DTD/svg11.dtd'>
<svg version="1.1" xmlns="http://www.w3.org/2000/svg" viewBox="0 0 212.365 212.365" xmlns:xlink="http://www.w3.org/1999/xlink" enable-background="new 0 0 212.365 212.365">
  <path d="m204.865,109.294h-35.44v-37.622l28.313-28.311c2.929-2.929 2.929-7.678 0.001-10.607-2.93-2.929-7.678-2.929-10.607,0l-19.615,19.613c-7.171-26.983-31.802-46.929-61.013-46.929-29.269,0-53.943,20.024-61.058,47.091l-19.775-19.775c-2.929-2.929-7.678-2.929-10.606,0-2.929,2.929-2.929,7.678 0,10.606l28.311,28.311v37.622h-35.876c-4.142,0-7.5,3.358-7.5,7.5 0,4.142 3.358,7.5 7.5,7.5h35.881c0.041,12.755 3.894,24.624 10.471,34.54l-35.291,35.29c-2.929,2.929-2.929,7.678 0,10.607 1.464,1.465 3.384,2.197 5.303,2.197 1.919,0 3.839-0.732 5.303-2.197l34.433-34.432c11.249,10.427 26.29,16.818 42.801,16.818 16.4,0 31.354-6.302 42.577-16.605l34.217,34.219c1.464,1.465 3.384,2.197 5.303,2.197 1.919,0 3.839-0.732 5.303-2.197 2.929-2.928 2.929-7.677 0-10.607l-35.023-35.025c6.684-9.968 10.6-21.938 10.641-34.805h35.445c4.142,0 7.5-3.358 7.5-7.5 0.001-4.141-3.357-7.499-7.499-7.499zm-98.361-88.855c23.987-7.10543e-15 43.928,17.64 47.541,40.627h-95.081c3.613-22.988 23.553-40.627 47.54-40.627zm-48.128,103.652v-48.026h40.525v95.461c-22.931-3.611-40.525-23.505-40.525-47.435zm55.525,47.435v-95.461h40.524v48.025c0,23.931-17.594,43.825-40.524,47.436z"/>
</svg>
