<?xml version='1.0' encoding='utf-8'?>
<!DOCTYPE svg PUBLIC '-//W3C//DTD SVG 1.1//EN' 'http://www.w3.org/Graphics/SVG/1.1/DTD/svg11.dtd'>
<svg version="1.1" xmlns="http://www.w3.org/2000/svg" viewBox="0 0 512 512" xmlns:xlink="http://www.w3.org/1999/xlink" enable-background="new 0 0 512 512">

<path d="m489.8,257.9c-23.7-12-48.7-7.8-65.3-2.4-5.6-10.8-12.9-20.9-21.6-30l-53.9-55.9c-12.4-12.9-27-22.8-43-29.5-1.1-2.4-7.1-15.1 9.7-31 8.2-7.8 7.8-21-0.2-28.9-8-7.9-21-7.8-28.9,0.2-18.6,18.9-23.2,37.1-23.4,50.1-2.2-0.1-20.2-1.4-35.5,3.1-3-14-9.8-27-20-37.6-14.4-14.9-28.7-25.1-64.2-23.2-2.2-6.4-3.2-17 6.3-28.6 7.1-8.7 5.9-21.6-2.9-28.7-8.7-7.1-21.6-5.9-28.7,2.9-20.5,25.2-19,51.6-12.5,69.6-6.3,4.7-12,10.4-16.6,16.8-30-13.7-58.3-1.8-70.4,7.9-8.8,7-10.3,19.9-3.3,28.7 7,8.7 19.7,10.3 28.5,3.4 2.7-2 15.3-10.1 30.8-1.5-1.5,27.9 7,45.3 21.4,60.2 10.2,10.6 22.9,17.9 36.8,21.4-5.9,16.5-4.4,33.5-4.4,34.7-3.2-0.3-6.5-0.5-10-0.3-13.1,0.7-32.6,6.4-51.2,28.9-7.2,8.7-5.9,21.6 2.8,28.7 8.7,7.2 22.2,6.4 28.7-2.8 16.5-22.9 35.3-10.9 38.6-8.6 6.1,15.3 15.1,29.4 26.9,41.6l53.9,55.9c5.7,5.9 11.8,11.1 18.3,15.8-13.5,32.8 0.2,68.1 0.8,69.8 4.1,10.5 16,15.6 26.5,11.5 10.5-4.1 15.6-15.9 11.5-26.4-0.2-0.5-7.3-20.3-2-36.9 11.9,3.6 24.4,5.4 37.2,5.4 33.3,0 64.9-12.7 88.9-35.8 24.7-23.7 38.6-55.6 39.3-89.8 0.1-7.6-0.4-15.1-1.5-22.5 9.3-3.1 22.9-5.6 34.2,0.1 10.1,5.1 22.4,1 27.4-9 5.1-10 1-22.2-9-27.3zm-364.3-82.8c-6.8-7-10.4-16.3-10.2-26 0.4-20.2 17.2-36.3 37.4-35.9 9.8,0.2 18.9,4.2 25.7,11.2 6.7,6.9 10.3,15.9 10.2,25.5-7.4,4.6-14.4,10.1-20.8,16.3-6.4,6.2-12.2,12.9-17.1,20.2-9.6-0.4-18.5-4.4-25.2-11.3zm258.7,186.2l-85.9-89.1c-7.8-8.1-20.8-8.3-28.9-0.5-8.1,7.8-8.4,20.8-0.5,28.9l85.8,89c-13.3,7.8-28.4,11.9-44.2,11.9-24,0-46.4-9.5-63-26.7l-53.9-55.9c-16.2-16.8-24.8-38.8-24.4-62.1 0.4-23.3 9.9-45 26.8-61.1 16.4-15.7 37.9-24.4 60.6-24.4 24,0 46.4,9.5 63,26.7l53.9,55.9c16.2,16.8 24.8,38.8 24.4,62.1-0.3,16.3-5.1,31.8-13.7,45.3z"/>

</svg>
