<?xml version="1.0" encoding="iso-8859-1"?>
<!-- Generator: Adobe Illustrator 17.1.0, SVG Export Plug-In . SVG Version: 6.00 Build 0)  -->
<!DOCTYPE svg PUBLIC "-//W3C//DTD SVG 1.1//EN" "http://www.w3.org/Graphics/SVG/1.1/DTD/svg11.dtd">
<svg version="1.1" id="Capa_1" xmlns="http://www.w3.org/2000/svg" xmlns:xlink="http://www.w3.org/1999/xlink" x="0px" y="0px"
	 viewBox="0 0 371.105 371.105" style="enable-background:new 0 0 371.105 371.105;" xml:space="preserve">
<path d="M326.804,316.993h-29.169V216.892c0-21.691-17.647-39.339-39.339-39.339H112.812c-21.692,0-39.34,17.647-39.34,39.339
	v100.102H44.304c-4.418,0-8,3.582-8,8s3.582,8,8,8h37.047c0.04,0.001,0.081,0.001,0.121,0.001h208.163c0.04,0,0.081,0,0.121-0.001
	h37.048c4.418,0,8-3.582,8-8S331.222,316.993,326.804,316.993z M193.556,193.553h50.058v25.057c0,4.695-3.819,8.515-8.515,8.515
	s-8.516-3.819-8.516-8.515c0-4.418-3.582-8-8-8s-8,3.582-8,8v27.055c0,4.695-3.82,8.515-8.516,8.515
	c-4.693,0-8.512-3.819-8.512-8.515V193.553z M281.635,316.993H89.472V216.892c0-12.869,10.471-23.339,23.34-23.339h64.744v52.111
	c0,13.518,10.996,24.515,24.512,24.515c13.518,0,24.516-10.997,24.516-24.515v-4.065c2.653,0.986,5.523,1.525,8.516,1.525
	c13.518,0,24.515-10.997,24.515-24.515v-25.02c12.259,0.686,22.021,10.875,22.021,23.302V316.993z M339.867,38.111h-62.3
	c-14.46,0-26.656,9.874-30.2,23.234H47.983c-0.073,0-0.146,0.001-0.218,0.003H8c-4.418,0-8,3.582-8,8v20.884
	c0,3.912,2.829,7.25,6.688,7.892l158.937,26.438c1.845,0.307,3.688,0.458,5.525,0.458c8.225,0,16.263-3.042,23.088-8.826
	c9.919-8.406,16.081-21.781,16.081-34.906v-3.942h37.045c3.541,13.366,15.74,23.247,30.204,23.247h62.3
	c17.225,0,31.238-14.015,31.238-31.241C371.105,52.126,357.092,38.111,339.867,38.111z M194.318,81.288
	c0,8.552-3.995,17.25-10.426,22.7c-3.327,2.819-8.739,5.933-15.644,4.791L16,83.453v-6.104h178.318V81.288z M339.867,84.593h-62.3
	c-8.403,0-15.24-6.837-15.24-15.241c0-8.403,6.837-15.24,15.24-15.24h62.3c8.402,0,15.238,6.837,15.238,15.24
	C355.105,77.756,348.27,84.593,339.867,84.593z"/>
<g>
</g>
<g>
</g>
<g>
</g>
<g>
</g>
<g>
</g>
<g>
</g>
<g>
</g>
<g>
</g>
<g>
</g>
<g>
</g>
<g>
</g>
<g>
</g>
<g>
</g>
<g>
</g>
<g>
</g>
</svg>
