<?xml version="1.0" encoding="iso-8859-1"?>
<!-- Generator: Adobe Illustrator 18.0.0, SVG Export Plug-In . SVG Version: 6.00 Build 0)  -->
<!DOCTYPE svg PUBLIC "-//W3C//DTD SVG 1.1//EN" "http://www.w3.org/Graphics/SVG/1.1/DTD/svg11.dtd">
<svg version="1.1" id="Capa_1" xmlns="http://www.w3.org/2000/svg" xmlns:xlink="http://www.w3.org/1999/xlink" x="0px" y="0px"
	 viewBox="0 0 209.582 209.582" style="enable-background:new 0 0 209.582 209.582;" xml:space="preserve">
<g>
	<path d="M166.287,87.275c-1.624-3.508-5.784-5.035-9.293-3.411c-3.508,1.624-5.036,5.785-3.411,9.293
		c9.772,21.107,7.471,47.505-6.004,68.89c-4.032,6.399-8.83,12.058-14.247,16.888c4-10.715,6.113-22.136,6.113-33.727
		c0-25.616-10.164-50.019-28.109-68.036c11.128-7.574,18.452-20.34,18.452-34.786V7c0-2.114-0.955-4.114-2.599-5.443
		c-1.643-1.329-3.798-1.845-5.866-1.402L87.736,7.342L54.148,0.155c-2.064-0.442-4.223,0.073-5.866,1.402
		C46.638,2.887,45.683,4.887,45.683,7v35.386c0,14.446,7.324,27.212,18.452,34.786c-17.945,18.017-28.109,42.42-28.109,68.036
		c0,22.598,7.979,44.569,22.466,61.869c1.33,1.588,3.295,2.505,5.367,2.505h47.752c2.071,0,4.037-0.917,5.367-2.505
		c0.721-0.861,1.413-1.741,2.101-2.624c16.469-7.115,30.395-19.152,40.344-34.941C175.402,144.154,178.032,112.643,166.287,87.275z
		 M59.683,15.657l26.588,5.688c0.965,0.206,1.964,0.206,2.929,0l26.588-5.688v26.729c0,15.468-12.584,28.052-28.052,28.052
		S59.683,57.854,59.683,42.386V15.657z M50.026,145.208c0-23.729,10.206-46.241,28.023-61.908c3.112,0.737,6.352,1.139,9.686,1.139
		c3.334,0,6.574-0.402,9.686-1.139c17.817,15.668,28.023,38.179,28.023,61.908c0,18.241-6.081,36.003-17.184,50.374H94.736v-38.24
		c0-3.866-3.134-7-7-7s-7,3.134-7,7v38.24H67.21C56.107,181.211,50.026,163.449,50.026,145.208z"/>
	<path d="M86.444,58.217c0.713,0.713,1.869,0.713,2.583,0l5.421-5.421c1.15-1.15,0.336-3.117-1.291-3.117H82.314
		c-1.627,0-2.442,1.967-1.291,3.117L86.444,58.217z"/>
</g>
<g>
</g>
<g>
</g>
<g>
</g>
<g>
</g>
<g>
</g>
<g>
</g>
<g>
</g>
<g>
</g>
<g>
</g>
<g>
</g>
<g>
</g>
<g>
</g>
<g>
</g>
<g>
</g>
<g>
</g>
</svg>
