<?xml version='1.0' encoding='iso-8859-1'?>
<!DOCTYPE svg PUBLIC '-//W3C//DTD SVG 1.1//EN' 'http://www.w3.org/Graphics/SVG/1.1/DTD/svg11.dtd'>
<svg version="1.1" xmlns="http://www.w3.org/2000/svg" viewBox="0 0 275.617 275.617" xmlns:xlink="http://www.w3.org/1999/xlink" enable-background="new 0 0 275.617 275.617">
  <path d="m268.355,152.287c-4.232-3.771-9.773-5.921-15.579-6.052-5.592-0.15-10.885,1.632-14.866,4.979-2.259,1.908-3.985,4.251-5.198,6.992-0.018-0.01-0.044-0.024-0.061-0.034-0.558-0.327-1.126-0.607-1.691-0.831-0.168-0.067-0.339-0.128-0.511-0.183l-.171-.056c-0.626-0.206-1.644-0.541-2.941-0.65-2.594-0.288-5.337,0.187-8.472,1.468-1.387-3.948-3.767-7.269-6.985-9.715-3.826-2.978-8.545-4.552-13.645-4.552-0.126,0-0.255,0.007-0.381,0.009-0.528-5.351-2.884-10.281-6.769-14.016-4.079-3.93-9.417-6.139-15.089-6.304-0.483-5.806-3.163-11.142-7.603-15.101-4.59-4.116-10.538-6.24-16.734-5.857-0.633-2.913-1.838-5.688-3.593-8.243-0.043-0.063-0.087-0.125-0.133-0.187-1.852-2.529-4.216-4.702-7.027-6.46-0.087-0.055-0.175-0.107-0.264-0.158-2.87-1.634-5.926-2.693-9.084-3.148-0.086-0.012-0.173-0.022-0.26-0.032-3.2-0.349-6.361-0.085-9.348,0.806-0.266,0.081-0.525,0.174-0.786,0.265-0.134-0.236-0.266-0.474-0.409-0.707-0.048-0.078-0.098-0.156-0.148-0.232-1.724-2.581-4.019-4.818-6.82-6.65-0.032-0.021-0.065-0.042-0.098-0.063-2.641-1.668-5.87-2.838-9.6-3.477-0.143-0.024-0.285-0.045-0.429-0.062-3.375-0.382-6.868-0.108-10.146,0.789-0.138,0.037-0.275,0.079-0.411,0.125-3.218,1.081-6.035,2.688-8.374,4.776-0.04,0.036-0.08,0.072-0.12,0.109-0.344,0.32-0.671,0.653-0.989,0.992-0.392-0.243-0.769-0.501-1.183-0.724-2.758-1.472-5.941-2.325-9.461-2.539-0.128-0.008-0.256-0.012-0.384-0.014l-.286-.001c-3.559,0-6.836,0.624-9.744,1.855-3.111,1.215-5.96,3.116-8.471,5.654-0.023,0.024-0.047,0.048-0.07,0.072-2.194,2.278-3.933,5.105-5.028,8.174-0.025,0.071-0.051,0.144-0.074,0.216-0.063,0.194-0.114,0.389-0.171,0.584-0.17-0.018-0.338-0.041-0.508-0.055-1.584-0.141-3.129-0.118-4.809,0.094-1.501,0.208-3.01,0.57-4.486,1.08-3.017,1.009-5.829,2.681-8.359,4.972-2.333,2.07-4.191,4.614-5.681,7.775-0.021,0.043-0.04,0.087-0.059,0.131-1.25,2.79-1.901,5.818-1.938,9.045-0.006,1.071 0.076,2.135 0.23,3.185h-15.638c-4.143,0-7.5,3.357-7.5,7.5 0,4.143 3.357,7.5 7.5,7.5h20.254v20.254c0,4.143 3.357,7.5 7.5,7.5s7.5-3.357 7.5-7.5v-16.462c1.064,0.149 2.138,0.253 3.227,0.262l.295,.002c2.567,0 5.151-0.452 7.679-1.344 2.514-0.851 4.849-2.237 7.134-4.236 0.028-0.025 0.057-0.05 0.085-0.075 1.996-1.801 3.642-4.054 4.925-6.771 0.56-1.221 1.013-2.536 1.326-3.832 0.061-0.239 0.097-0.475 0.149-0.711 1.358,0.271 2.747,0.434 4.166,0.463 0.195,0.006 0.389,0.009 0.582,0.009 2.337,0 4.645-0.435 7.054-1.329 0.154-0.058 0.308-0.12 0.458-0.189 1.647-0.738 4.07-1.982 6.269-4.295 0.694-0.68 1.351-1.459 1.979-2.301 0.818,0.646 1.657,1.231 2.522,1.716 2.228,1.39 4.646,2.247 7.195,2.553 0.836,0.142 1.698,0.213 2.567,0.213 1.614,0 3.254-0.233 5.153-0.735 1.253-0.311 2.499-0.769 3.732-1.35 0.62,1.32 1.344,2.556 2.189,3.674 1.646,2.308 3.688,4.171 6.073,5.543 2.321,1.438 4.944,2.364 7.803,2.753 1.091,0.174 2.213,0.263 3.338,0.263 0.821,0 1.648-0.049 2.467-0.139 0.852,4.977 3.313,9.48 7.084,12.865 3.991,3.557 9.162,5.54 14.599,5.634 0.408,5.367 2.675,10.604 6.83,14.606 4.247,4.076 9.797,6.332 15.643,6.38 0.703,5.945 3.902,11.52 8.908,15.413 4.199,3.205 9.335,4.971 14.46,4.971h0.001c1.257,0 2.512-0.107 3.727-0.317 0.362-0.063 0.721-0.137 1.076-0.216 0.233,0.496 0.48,0.989 0.753,1.468 1.828,3.2 4.286,5.772 7.308,7.648 1.84,1.196 3.545,2.018 5.35,2.578 0.901,0.298 1.754,0.542 2.521,0.727 0.807,0.205 2.038,0.486 3.48,0.591 1.06,0.09 1.96,0.132 2.83,0.132 1.203,0 2.315-0.082 3.396-0.25 0.921-0.129 1.835-0.296 2.719-0.496 0.076-0.018 0.151-0.036 0.227-0.056 0.876-0.227 1.764-0.515 2.798-0.905 3.704-1.404 6.901-3.681 9.251-6.585 0.649-0.785 1.22-1.626 1.728-2.504 0.762,0.21 1.542,0.38 2.339,0.502 1.111,0.18 2.261,0.271 3.416,0.271 5.574,0 11.282-2.136 15.638-5.842 5.198-4.386 8.263-10.631 8.41-17.163 0.115-6.231-2.53-12.22-7.258-16.432zm-215.227-34.277c-0.037,0.464-0.117,0.935-0.264,1.513-0.106,0.438-0.241,0.837-0.366,1.11-0.386,0.817-0.835,1.466-1.334,1.928-0.753,0.65-1.437,1.082-2.034,1.281-0.047,0.016-0.094,0.032-0.14,0.049-0.93,0.331-1.844,0.498-2.715,0.498l-.132-.001c-1.6-0.013-3.923-0.399-5.909-2.162-1.509-1.34-2.334-3.114-2.324-4.953 0.012-1.073 0.22-2.102 0.601-2.979 0.602-1.259 1.271-2.205 2.047-2.89 0.027-0.023 0.054-0.048 0.08-0.071 0.994-0.904 2.031-1.539 3.081-1.887 0.034-0.011 0.067-0.022 0.101-0.034 0.563-0.195 1.124-0.332 1.584-0.396 0.48-0.061 0.916-0.076 1.595-0.016 1.604,0.126 3.044,0.894 4.115,2.177 0.079,0.125 0.151,0.253 0.232,0.378 0.169,0.259 0.36,0.501 0.539,0.753 1.197,2.082 1.349,4.243 1.243,5.702zm25.027-17.059c-0.225,1.171-0.605,2.294-1.12,3.282-0.701,1.36-1.253,1.962-1.457,2.157-0.113,0.108-0.223,0.22-0.329,0.334-0.19,0.206-0.499,0.468-1.321,0.855-0.611,0.21-1.139,0.312-1.606,0.312l-.117-.002c-0.046-0.002-0.092-0.003-0.138-0.004-0.975-0.017-1.853-0.174-2.683-0.479-0.071-0.025-0.144-0.051-0.215-0.075-1.898-0.634-3.601-1.816-4.777-3.299-0.175-0.28-0.337-0.568-0.524-0.841-0.089-0.129-0.186-0.252-0.276-0.379-0.755-1.441-0.905-3.009-0.429-4.574 0.275-0.738 0.774-1.762 1.633-2.665 1.027-1.03 2.129-1.774 3.275-2.212 0.101-0.039 0.2-0.079 0.299-0.122 1.043-0.451 2.353-0.683 3.891-0.688 1.268,0.095 2.315,0.359 3.092,0.773 0.841,0.453 1.501,1.019 1.958,1.675 0.473,0.679 0.803,1.551 0.954,2.518 0.165,1.069 0.131,2.19-0.11,3.434zm26.186,1.783c-0.079,0.051-0.157,0.103-0.235,0.155-1.016,0.695-1.763,0.971-2.212,1.08-0.054,0.013-0.107,0.026-0.161,0.041-0.772,0.206-1.169,0.249-1.366,0.249l-.061-.002c-0.223-0.043-0.447-0.076-0.673-0.099-0.408-0.041-0.739-0.164-1.143-0.425-0.167-0.108-0.339-0.21-0.514-0.304-0.302-0.163-0.934-0.579-1.767-1.542-0.032-0.037-0.064-0.074-0.098-0.11-0.967-1.073-2.637-3.313-2.966-6.255-0.209-1.854 0.342-3.422 1.637-4.66 0.754-0.656 1.75-1.214 2.896-1.623 1.316-0.332 2.753-0.444 4.101-0.318 2.023,0.37 3.206,0.906 3.856,1.307 1.014,0.671 1.848,1.456 2.423,2.278 0.886,1.504 1.074,3.101 0.58,4.751-0.019,0.045-0.04,0.089-0.058,0.135-0.078,0.198-0.136,0.404-0.209,0.605-0.779,1.885-2.224,3.597-4.03,4.737zm23.305,11.592c-0.089-0.015-0.177-0.027-0.266-0.039-0.802-0.104-1.455-0.322-1.997-0.667-0.116-0.073-0.233-0.144-0.353-0.211-0.539-0.302-0.998-0.729-1.405-1.31-0.063-0.089-0.127-0.177-0.193-0.264-0.438-0.569-0.811-1.357-1.091-2.323-0.37-1.251-0.819-3.685 0.079-6.271 0.068-0.175 0.15-0.345 0.214-0.521 0.02-0.054 0.034-0.108 0.054-0.162 0.734-1.599 2.012-2.749 3.601-3.236 0.698-0.208 1.471-0.313 2.296-0.313 0.315,0 0.64,0.016 0.965,0.047 1.186,0.188 2.402,0.615 3.537,1.242 1.079,0.693 2.001,1.529 2.68,2.43 0.613,0.917 1.045,1.91 1.239,2.824 0.338,1.661 0.007,3.355-0.927,4.842-0.111,0.136-0.227,0.269-0.335,0.408-0.132,0.17-0.244,0.352-0.371,0.524-1.659,1.927-3.817,2.637-5.075,2.897-0.934,0.204-1.845,0.239-2.652,0.103zm18.163,11.611c-0.146-1.901 0.367-3.836 1.412-5.411 0.151-0.188 0.317-0.365 0.464-0.56 0.107-0.142 0.206-0.289 0.309-0.433 1.189-1.287 2.736-2.04 4.505-2.177 0.179-0.014 0.358-0.02 0.538-0.02 1.927,0 3.873,0.755 5.357,2.087 1.645,1.466 2.596,3.422 2.679,5.507 0.072,1.808-0.514,3.53-1.648,4.921-0.148,0.148-0.3,0.293-0.444,0.445-0.092,0.097-0.169,0.203-0.259,0.302-1.496,1.407-3.435,2.186-5.518,2.186-1.898,0-3.68-0.656-4.997-1.83-1.441-1.294-2.248-2.975-2.398-5.017zm23.683,15.112c0.128-0.127 0.26-0.251 0.385-0.382 0.139-0.145 0.268-0.295 0.402-0.442 1.371-1.234 3.137-1.914 5.043-1.914 2.023,0 3.926,0.76 5.362,2.144 1.834,1.764 2.262,3.843 2.298,5.254 0.043,1.919-0.579,3.751-1.748,5.227-0.146,0.154-0.304,0.295-0.445,0.453-0.131,0.146-0.254,0.297-0.38,0.445-1.306,1.202-2.97,1.883-4.764,1.925l-.183,.003c-2.024-0.001-3.956-0.785-5.432-2.201-2.958-2.85-3.15-7.364-0.538-10.512zm29.154,33.088h-0.001c-1.855,0-3.759-0.673-5.305-1.854-1.851-1.438-3.015-3.435-3.198-5.526-0.165-1.735 0.332-3.431 1.402-4.849 0.138-0.144 0.278-0.282 0.412-0.43 0.139-0.152 0.258-0.318 0.393-0.474 1.351-1.311 3.134-2.132 5.051-2.314 0.279-0.024 0.558-0.037 0.835-0.037 1.207,0 2.956,0.241 4.5,1.441 1.253,0.953 2.05,2.415 2.37,4.354 0.169,1.021 0.17,2.201 0.002,3.322-0.131,0.874-0.36,1.692-0.683,2.444-0.189,0.341-0.385,0.677-0.557,1.025-0.026,0.054-0.049,0.108-0.075,0.162-0.428,0.668-0.938,1.227-1.526,1.649-0.693,0.498-1.495,0.82-2.451,0.986-0.375,0.068-0.767,0.101-1.169,0.101zm34.675,7.888c-0.078,0.524-0.284,1.254-0.812,1.888-0.026,0.032-0.053,0.064-0.079,0.098-0.389,0.482-1.283,1.385-2.91,2.002-0.458,0.173-0.837,0.301-1.156,0.389-0.45,0.099-0.919,0.182-1.394,0.246-0.056,0.008-0.11,0.017-0.165,0.025-0.644,0.102-1.444,0.102-2.722-0.007-0.045-0.004-0.09-0.007-0.136-0.011-0.256-0.017-0.623-0.104-0.966-0.191-0.462-0.111-0.941-0.25-1.466-0.425-0.063-0.02-0.125-0.041-0.189-0.06-0.475-0.145-0.995-0.411-1.686-0.864-0.063-0.041-0.125-0.081-0.189-0.119-0.906-0.557-1.635-1.33-2.225-2.362-0.09-0.157-0.171-0.316-0.242-0.476-0.059-0.171-0.11-0.342-0.153-0.521-0.101-0.41-0.153-0.821-0.153-1.227-0.001-0.679 0.156-1.38 0.45-2.094 0.023-0.042 0.052-0.078 0.074-0.12 0.183-0.331 0.335-0.679 0.501-1.019 0.982-1.615 2.536-3.06 4.631-4.305 1.813-1.003 2.83-1.338 3.267-1.448 0.72,0.504 1.563,1.182 2.451,1.974 1.094,1.016 2.068,1.948 2.907,3.016 0.025,0.033 0.052,0.066 0.078,0.098 0.861,1.06 1.499,2.113 1.891,3.121 0.337,0.868 0.465,1.651 0.393,2.392zm24.186-7.586c-1.683,1.432-3.904,2.286-5.941,2.286-0.352,0-0.692-0.026-1.079-0.089-2.149-0.328-3.224-1.739-3.749-2.872-1.207-2.593-1.179-5.361-0.952-7.146 0.335-2.429 1.142-3.385 1.793-3.936 1.117-0.939 2.737-1.457 4.563-1.457l.273,.004c1.315,0.029 3.838,0.362 5.963,2.256 1.5,1.336 2.273,3.051 2.239,4.927-0.051,2.205-1.176,4.394-3.11,6.027z"/>
</svg>
