<?xml version="1.0" encoding="iso-8859-1"?>
<!-- Generator: Adobe Illustrator 18.0.0, SVG Export Plug-In . SVG Version: 6.00 Build 0)  -->
<!DOCTYPE svg PUBLIC "-//W3C//DTD SVG 1.1//EN" "http://www.w3.org/Graphics/SVG/1.1/DTD/svg11.dtd">
<svg version="1.1" id="Capa_1" xmlns="http://www.w3.org/2000/svg" xmlns:xlink="http://www.w3.org/1999/xlink" x="0px" y="0px"
	 viewBox="0 0 297 297" style="enable-background:new 0 0 297 297;" xml:space="preserve">
<path d="M288.781,95.423c-0.068-0.014-0.128-0.031-0.204-0.042L63.406,60.739c-2.453-0.379-4.958,0.177-7.02,1.553L4.423,96.934
	c-0.003,0.002-0.004,0.004-0.007,0.006C1.754,98.721,0,101.754,0,105.198v121.246c0,5.486,4.448,9.933,9.933,9.933h209.334
	c3.224,0,6.248-1.565,8.109-4.197c1.862-2.633,2.33-6.005,1.256-9.046c-0.608-1.721-0.917-3.521-0.917-5.351
	c0-8.849,7.2-16.048,16.048-16.048s16.048,7.2,16.048,16.048c0,1.829-0.308,3.63-0.917,5.351c-1.074,3.04-0.606,6.413,1.256,9.046
	c1.861,2.633,4.885,4.197,8.109,4.197h18.805c5.486,0,9.933-4.448,9.933-9.933V105.198C297,100.298,293.448,96.237,288.781,95.423z
	 M225.171,131.18c0,8.849-7.2,16.048-16.048,16.048s-16.048-7.2-16.048-16.048s7.2-16.048,16.048-16.048
	S225.171,122.331,225.171,131.18z M64.197,80.96l92.98,14.305H42.74L64.197,80.96z M103.925,139.84c0,4.073-3.315,7.388-7.388,7.388
	s-7.388-3.315-7.388-7.388c0-4.073,3.315-7.388,7.388-7.388S103.925,135.767,103.925,139.84z M129.203,200.463
	c0-7.357,5.985-13.342,13.343-13.342c7.357,0,13.342,5.985,13.342,13.342s-5.985,13.342-13.342,13.342
	C135.188,213.805,129.203,207.82,129.203,200.463z M277.134,204.501c-5.292-13.247-18.256-22.632-33.369-22.632
	c-19.377,0-35.221,15.424-35.892,34.642h-36.266c2.639-4.76,4.147-10.23,4.147-16.048c0-18.311-14.897-33.208-33.208-33.208
	s-33.209,14.897-33.209,33.208c0,5.818,1.508,11.288,4.148,16.048H19.866v-24.024c3.228,5.521,9.204,9.248,16.048,9.248
	c10.252,0,18.594-8.341,18.594-18.594s-8.341-18.594-18.594-18.594c-6.844,0-12.82,3.727-16.048,9.248v-58.665h65.189
	c-9.305,4.342-15.772,13.782-15.772,24.709c0,15.028,12.226,27.254,27.254,27.254s27.254-12.226,27.254-27.254
	c0-10.927-6.467-20.367-15.772-24.709h68.988c-2.425,4.834-3.799,10.282-3.799,16.048c0,19.803,16.111,35.914,35.914,35.914
	s35.914-16.111,35.914-35.914c0-5.766-1.374-11.215-3.799-16.048h35.895V204.501z M34.642,183.142c0-0.701,0.571-1.273,1.273-1.273
	s1.273,0.571,1.273,1.273c0,0.701-0.571,1.273-1.273,1.273S34.642,183.844,34.642,183.142z"/>
</svg>
