<?xml version="1.0" encoding="iso-8859-1"?>
<!-- Generator: Adobe Illustrator 19.0.0, SVG Export Plug-In . SVG Version: 6.00 Build 0)  -->
<svg version="1.1" id="Capa_1" xmlns="http://www.w3.org/2000/svg" xmlns:xlink="http://www.w3.org/1999/xlink" x="0px" y="0px"
	 viewBox="0 0 480 480" style="enable-background:new 0 0 480 480;" xml:space="preserve">
<path id="XMLID_798_" d="M450,401.266V340c0-22.056-17.944-40-40-40h-20V170c0-38.598-31.401-70-70-70h-21.057
	C311.931,87.285,320,69.568,320,50V40c0-22.056-17.944-40-40-40h-10c-25.432,0-47.74,13.635-60,33.975
	C197.74,13.635,175.431,0,150,0h-10c-22.056,0-40,17.944-40,40v10c0,19.568,8.07,37.285,21.057,50H100c-38.598,0-70,31.402-70,70
	v231.266C12.767,405.717,0,421.396,0,440c0,22.056,17.944,40,40,40h400c22.056,0,40-17.944,40-40
	C480,421.396,467.233,405.717,450,401.266z M410,320c11.028,0,20,8.972,20,20v60H310v-60c0-11.028,8.972-20,20-20H410z M220,70
	c0-27.57,22.43-50,50-50h10c11.028,0,20,8.972,20,20v10c0,27.57-22.43,50-50,50h-15.858l24.596-24.595
	c3.905-3.905,3.905-10.237,0-14.142c-3.905-3.905-10.235-3.905-14.143,0L220,85.858V70z M120,50V40c0-11.028,8.972-20,20-20h10
	c27.57,0,50,22.43,50,50v15.858l-24.595-24.596c-3.905-3.905-10.237-3.905-14.143,0s-3.905,10.237,0,14.143L185.858,100H170
	C142.43,100,120,77.57,120,50z M50,170c0-27.57,22.43-50,50-50h220c27.57,0,50,22.43,50,50v130h-40c-22.056,0-40,17.944-40,40v60H50
	V170z M440,460H40c-11.028,0-20-8.972-20-20s8.972-20,20-20h400c11.028,0,20,8.972,20,20S451.028,460,440,460z M190,210
	c0-27.57-22.43-50-50-50s-50,22.43-50,50s22.43,50,50,50S190,237.57,190,210z M140,240c-16.542,0-30-13.458-30-30s13.458-30,30-30
	s30,13.458,30,30S156.542,240,140,240z M210,280c-22.056,0-40,17.944-40,40s17.944,40,40,40s40-17.944,40-40S232.056,280,210,280z
	 M210,340c-11.028,0-20-8.972-20-20s8.972-20,20-20s20,8.972,20,20S221.028,340,210,340z M330,210c0-22.056-17.944-40-40-40
	s-40,17.944-40,40s17.944,40,40,40S330,232.056,330,210z M270,210c0-11.028,8.972-20,20-20s20,8.972,20,20s-8.972,20-20,20
	S270,221.028,270,210z"/>
<g>
</g>
<g>
</g>
<g>
</g>
<g>
</g>
<g>
</g>
<g>
</g>
<g>
</g>
<g>
</g>
<g>
</g>
<g>
</g>
<g>
</g>
<g>
</g>
<g>
</g>
<g>
</g>
<g>
</g>
</svg>