<?xml version="1.0" encoding="iso-8859-1"?>
<!-- Generator: Adobe Illustrator 18.0.0, SVG Export Plug-In . SVG Version: 6.00 Build 0)  -->
<!DOCTYPE svg PUBLIC "-//W3C//DTD SVG 1.1//EN" "http://www.w3.org/Graphics/SVG/1.1/DTD/svg11.dtd">
<svg version="1.1" id="Capa_1" xmlns="http://www.w3.org/2000/svg" xmlns:xlink="http://www.w3.org/1999/xlink" x="0px" y="0px"
	 viewBox="0 0 265.084 265.084" style="enable-background:new 0 0 265.084 265.084;" xml:space="preserve">
<g>
	<g>
		<g>
			<path d="M169.49,202.217c-19.6,0-35.545-15.946-35.545-35.546s15.945-35.545,35.545-35.545s35.545,15.945,35.545,35.545
				S189.09,202.217,169.49,202.217z M169.49,146.126c-11.329,0-20.545,9.217-20.545,20.545c0,11.329,9.216,20.546,20.545,20.546
				s20.545-9.217,20.545-20.546C190.035,155.343,180.819,146.126,169.49,146.126z"/>
		</g>
		<g>
			<path d="M64.877,153.414c-15.427,0-27.978-12.551-27.978-27.978c0-15.427,12.551-27.978,27.978-27.978
				c15.427,0,27.978,12.551,27.978,27.978C92.854,140.863,80.304,153.414,64.877,153.414z M64.877,112.459
				c-7.155,0-12.978,5.821-12.978,12.978c0,7.156,5.822,12.978,12.978,12.978c7.155,0,12.978-5.821,12.978-12.978
				C77.854,118.28,72.032,112.459,64.877,112.459z"/>
		</g>
		<g>
			<path d="M257.584,257.156H113.363c-4.142,0-7.5-3.358-7.5-7.5c0-15.322-12.466-27.788-27.788-27.788
				c-15.322,0-27.788,12.466-27.788,27.788c0,4.143-3.358,7.5-7.5,7.5H7.5c-4.142,0-7.5-3.358-7.5-7.5V15.428
				c0-4.142,3.358-7.5,7.5-7.5h84.384c4.143,0,7.5,3.357,7.5,7.5c0,22.514,18.315,40.829,40.828,40.829
				c22.514,0,40.831-18.315,40.831-40.829c0-4.142,3.358-7.5,7.5-7.5h69.041c4.142,0,7.5,3.357,7.5,7.5v93.348
				c0,4.143-3.358,7.5-7.5,7.5c-11.86,0-21.509,9.648-21.509,21.509c0,11.859,9.648,21.508,21.509,21.508c4.142,0,7.5,3.357,7.5,7.5
				v82.864C265.084,253.799,261.726,257.156,257.584,257.156z M120.205,242.156h129.879v-68.639
				c-16.545-3.469-29.009-18.173-29.009-35.733c0-17.561,12.464-32.266,29.009-35.734V22.928h-54.543
				c-3.674,27.252-27.086,48.329-55.329,48.329c-28.242,0-51.652-21.077-55.326-48.329H15v219.229h20.945
				c3.556-20.03,21.094-35.288,42.13-35.288C99.111,206.868,116.649,222.126,120.205,242.156z"/>
		</g>
	</g>
</g>
<g>
</g>
<g>
</g>
<g>
</g>
<g>
</g>
<g>
</g>
<g>
</g>
<g>
</g>
<g>
</g>
<g>
</g>
<g>
</g>
<g>
</g>
<g>
</g>
<g>
</g>
<g>
</g>
<g>
</g>
</svg>
