<?xml version="1.0" encoding="iso-8859-1"?>
<!-- Generator: Adobe Illustrator 17.1.0, SVG Export Plug-In . SVG Version: 6.00 Build 0)  -->
<!DOCTYPE svg PUBLIC "-//W3C//DTD SVG 1.1//EN" "http://www.w3.org/Graphics/SVG/1.1/DTD/svg11.dtd">
<svg version="1.1" id="Capa_1" xmlns="http://www.w3.org/2000/svg" xmlns:xlink="http://www.w3.org/1999/xlink" x="0px" y="0px"
	 viewBox="0 0 348.756 348.756" style="enable-background:new 0 0 348.756 348.756;" xml:space="preserve">
<g>
	<path d="M297.552,0H51.204c-3.899,0-7.061,3.161-7.061,7.061v33.446c0,3.899,3.161,7.061,7.061,7.061H71.24
		c0.958,29.208,7.845,56.867,20.087,80.38c13.222,25.395,31.416,43.689,52.614,52.906c0.917,0.398,1.872,0.587,2.812,0.587
		c2.727,0,5.323-1.588,6.479-4.247c1.555-3.576-0.084-7.736-3.66-9.291c-36.351-15.804-62.166-64.686-64.195-120.335h212.174
		c3.899,0,7.061-3.161,7.061-7.061V7.061C304.612,3.161,301.451,0,297.552,0z M290.491,33.446H58.265V14.121h232.227V33.446z"/>
	<path d="M297.552,301.188h-20.036c-0.958-29.208-7.845-56.867-20.087-80.38c-10.626-20.408-24.462-36.23-40.488-46.441
		c13.403-8.577,25.402-21.178,35.178-37.05c12.496-20.287,20.801-45.042,24.016-71.591c0.469-3.871-2.289-7.39-6.161-7.858
		c-3.869-0.476-7.39,2.29-7.858,6.161c-5.942,49.063-30.644,89.836-62.931,103.873c-2.578,1.121-4.245,3.664-4.245,6.476
		s1.667,5.354,4.245,6.476c36.351,15.805,62.182,64.685,64.21,120.335h-148.26c2.436-21.79,28.066-38.994,59.245-38.994
		c22.492,0,43.472,9.382,53.446,23.901c1.834,2.668,5.482,3.343,8.15,1.512c2.668-1.833,3.345-5.481,1.512-8.15
		c-12.283-17.879-36.465-28.985-63.108-28.985c-37.745,0-68.706,22.457-71.021,50.717H85.36
		c1.492-41.64,16.125-79.891,39.785-103.367c2.768-2.746,2.785-7.217,0.038-9.985c-2.745-2.767-7.217-2.787-9.985-0.038
		c-26.248,26.044-42.426,68.036-43.955,113.391H51.204c-3.899,0-7.061,3.161-7.061,7.061v33.446c0,3.899,3.161,7.061,7.061,7.061
		h246.348c3.899,0,7.061-3.161,7.061-7.061v-33.446C304.612,304.35,301.451,301.188,297.552,301.188z M290.491,334.635H58.265
		V315.31h19.908h192.41h19.908V334.635z"/>
	<path d="M174.378,242.708c1.859,0,3.68-0.75,4.99-2.07c1.319-1.31,2.069-3.13,2.069-4.99c0-1.859-0.75-3.68-2.069-4.99
		c-1.311-1.319-3.131-2.069-4.99-2.069c-1.86,0-3.681,0.75-4.99,2.069c-1.32,1.311-2.07,3.131-2.07,4.99
		c0,1.86,0.75,3.681,2.07,4.99C170.697,241.958,172.518,242.708,174.378,242.708z"/>
	<path d="M174.378,197.947c-1.86,0-3.681,0.761-4.99,2.07c-1.32,1.32-2.07,3.14-2.07,4.99c0,1.86,0.75,3.68,2.07,5
		c1.31,1.31,3.13,2.07,4.99,2.07c1.85,0,3.67-0.761,4.99-2.07c1.319-1.32,2.069-3.14,2.069-5c0-1.851-0.75-3.67-2.069-4.99
		C178.058,198.708,176.237,197.947,174.378,197.947z"/>
	<path d="M179.368,169.388c-1.311-1.32-3.131-2.07-4.99-2.07c-1.86,0-3.681,0.75-4.99,2.07c-1.32,1.31-2.07,3.13-2.07,4.99
		c0,1.859,0.75,3.68,2.07,4.99c1.31,1.319,3.13,2.069,4.99,2.069c1.859,0,3.68-0.75,4.99-2.069c1.319-1.311,2.069-3.131,2.069-4.99
		C181.438,172.518,180.688,170.697,179.368,169.388z"/>
	<path d="M215.892,131.729c10.39-12.824,18.553-30.165,23.605-50.15c0.533-2.111,0.063-4.351-1.274-6.068s-3.394-2.723-5.571-2.723
		H116.103c-2.178,0-4.233,1.005-5.571,2.723s-1.808,3.958-1.274,6.068c5.054,19.985,13.216,37.327,23.605,50.15
		c11.998,14.808,26.354,22.635,41.515,22.635C189.539,154.364,203.895,146.537,215.892,131.729z M174.377,140.243
		c-22.332,0-39.962-25.557-48.905-53.334h97.811C214.34,114.687,196.71,140.243,174.377,140.243z"/>
</g>
<g>
</g>
<g>
</g>
<g>
</g>
<g>
</g>
<g>
</g>
<g>
</g>
<g>
</g>
<g>
</g>
<g>
</g>
<g>
</g>
<g>
</g>
<g>
</g>
<g>
</g>
<g>
</g>
<g>
</g>
</svg>
