<?xml version="1.0" encoding="iso-8859-1"?>
<!-- Generator: Adobe Illustrator 18.0.0, SVG Export Plug-In . SVG Version: 6.00 Build 0)  -->
<!DOCTYPE svg PUBLIC "-//W3C//DTD SVG 1.1//EN" "http://www.w3.org/Graphics/SVG/1.1/DTD/svg11.dtd">

<svg xmlns="http://www.w3.org/2000/svg" version="1.1" x="0" y="0" viewBox="0 0 297 297" xml:space="preserve"><path d="M251 277h-17.7l0-31.6c0-31.6-17.4-60.7-48.9-81.9 -4-2.7-6.5-8.4-6.5-15.1s2.5-12.4 6.5-15.1c31.5-21.2 48.9-50.3 48.9-81.9V20h17.7c5.5 0 10-4.5 10-10 0-5.5-4.5-10-10-10H46c-5.5 0-10 4.5-10 10 0 5.5 4.5 10 10 10h17.7v31.6c0 31.6 17.4 60.7 48.9 81.9 4 2.7 6.5 8.4 6.5 15.1s-2.5 12.4-6.5 15.1c-31.5 21.2-48.9 50.3-48.9 81.9v31.6H46c-5.5 0-10 4.5-10 10 0 5.5 4.5 10 10 10h205c5.5 0 10-4.5 10-10C261 281.5 256.5 277 251 277zM83.7 245.5c0-33.4 25.1-55.3 40-65.3 9.6-6.4 15.3-18.3 15.3-31.6s-5.7-25.2-15.3-31.6c-15-10-40-31.9-40-65.3V20h129.7l0 31.6c0 33.4-25.1 55.3-40 65.3 -9.6 6.4-15.3 18.3-15.3 31.6s5.7 25.2 15.3 31.6c15 10 40 31.9 40 65.3v31.6h-3.3c-8.2-30.9-50.1-64.4-55.4-68.5 -3.6-2.8-8.7-2.8-12.3 0 -5.2 4.1-47.2 37.7-55.4 68.5h-3.3V245.5zM189 277h-81.1c6.6-15.4 25.4-34.9 40.5-47.8C163.7 242.1 182.5 261.6 189 277zM148.5 191c2.6 0 5.2-1.1 7.1-2.9 1.9-1.9 2.9-4.4 2.9-7.1s-1.1-5.2-2.9-7.1c-1.9-1.9-4.4-2.9-7.1-2.9 -2.6 0-5.2 1.1-7.1 2.9 -1.9 1.9-2.9 4.4-2.9 7.1s1.1 5.2 2.9 7.1C143.3 189.9 145.9 191 148.5 191zM148.5 138c5.5 0 10-4.5 10-10v-17.7c0-5.5-4.5-10-10-10s-10 4.5-10 10v17.7C138.5 133.5 143 138 148.5 138z"/></svg>
