<?xml version="1.0" encoding="iso-8859-1"?>
<!-- Generator: Adobe Illustrator 18.0.0, SVG Export Plug-In . SVG Version: 6.00 Build 0)  -->
<!DOCTYPE svg PUBLIC "-//W3C//DTD SVG 1.1//EN" "http://www.w3.org/Graphics/SVG/1.1/DTD/svg11.dtd">
<svg version="1.1" id="Capa_1" xmlns="http://www.w3.org/2000/svg" xmlns:xlink="http://www.w3.org/1999/xlink" x="0px" y="0px"
	 viewBox="0 0 297 297" style="enable-background:new 0 0 297 297;" xml:space="preserve">
<path d="M207.806,92.668c-1.993-8.292-4.205-16.381-6.624-24.083C186.889,23.075,169.164,0,148.5,0s-38.389,23.075-52.682,68.585
	c-2.419,7.703-4.632,15.791-6.624,24.083C78.171,73.774,59.484,62.889,36.45,63.535C20.108,63.976,6.856,69.642,6.3,69.883
	c-3.645,1.58-6.081,5.087-6.286,9.054c-0.206,3.967,1.853,7.707,5.315,9.656c39.505,22.233,38.693,54.443,37.835,88.544
	c-0.55,21.834-1.118,44.412,10.102,63.037c17.492,29.036,49.54,42.166,70.544,50.883c7.936,3.294,15.967,5.942,24.683,5.944
	c0.001,0,0.002,0,0.004,0c0.001,0,0.001,0,0.002,0c0.001,0,0.001,0,0.002,0s0.001,0,0.002,0c0.001,0,0.001,0,0.002,0
	c0.001,0,0.002,0,0.004,0c8.715-0.001,16.747-2.65,24.683-5.944c21.003-8.717,53.051-21.847,70.544-50.883
	c11.221-18.625,10.653-41.203,10.102-63.037c-0.858-34.101-1.67-66.311,37.835-88.544c3.462-1.949,5.521-5.689,5.315-9.656
	c-0.205-3.967-2.641-7.474-6.286-9.054c-0.556-0.241-13.807-5.907-30.15-6.348C237.489,62.894,218.828,73.774,207.806,92.668z
	 M115.773,74.852c1.509-4.804,3.018-9.19,4.519-13.228l17.855,17.855l-24.157,24.157l-4.759-4.759
	C111.194,90.544,113.384,82.457,115.773,74.852z M181.227,74.852c2.388,7.605,4.578,15.693,6.542,24.025l-4.759,4.759
	l-24.157-24.157l17.855-17.855C178.209,65.662,179.719,70.048,181.227,74.852z M180.18,169.827L158.854,148.5l24.157-24.157
	l8.564,8.564C187.821,144.281,184.033,156.804,180.18,169.827z M172.657,183.011L148.5,207.168l-24.157-24.157l24.157-24.157
	L172.657,183.011z M172.657,113.989L148.5,138.146l-24.157-24.157L148.5,89.832L172.657,113.989z M113.989,124.343l24.157,24.157
	l-21.327,21.327c-3.852-13.022-7.641-25.546-11.394-36.92L113.989,124.343z M138.146,217.521l-5.455,5.455
	c-1.622-5.176-3.234-10.452-4.82-15.73L138.146,217.521z M148.5,266.754c-3.441-7.458-7.08-17.236-10.745-28.134l10.745-10.745
	l10.745,10.745C155.58,249.517,151.941,259.296,148.5,266.754z M164.308,222.976l-5.455-5.455l10.275-10.275
	C167.542,212.524,165.931,217.8,164.308,222.976z M148.5,20.915c4.295,0,12.681,6.111,22.115,26.095L148.5,69.125l-22.115-22.115
	C135.819,27.026,144.205,20.915,148.5,20.915z M35.441,84.442c15.328-0.389,27.87,5.33,35.005,17.562
	c9.41,16.132,20.145,52.695,30.527,88.054c10.264,34.961,18.362,61.684,26.127,80.008c-18.163-6.363-42.602-18.584-55.918-40.686
	c-8.074-13.402-7.605-32.014-7.109-51.718C64.821,147.933,65.721,111.987,35.441,84.442z M261.622,84.375
	c-30.347,27.553-29.444,63.537-28.694,93.287c0.496,19.704,0.965,38.316-7.109,51.718c-13.255,22.002-37.712,34.24-55.897,40.635
	c7.758-18.323,15.851-45.031,26.106-79.957c10.381-35.359,21.117-71.923,30.527-88.054
	C234.681,88.072,250.314,84.375,261.622,84.375z"/>
</svg>
