<?xml version="1.0" encoding="iso-8859-1"?>
<!-- Generator: Adobe Illustrator 19.0.0, SVG Export Plug-In . SVG Version: 6.00 Build 0)  -->
<svg version="1.1" id="Capa_1" xmlns="http://www.w3.org/2000/svg" xmlns:xlink="http://www.w3.org/1999/xlink" x="0px" y="0px"
	 viewBox="0 0 463.008 463.008" style="enable-background:new 0 0 463.008 463.008;" xml:space="preserve">
<g>
	<path d="M399.005,167.504c0-12.479-5.711-23.962-15.669-31.504c-0.208-0.157-0.305-0.315-0.305-0.496
		c0-0.181,0.097-0.338,0.305-0.496c9.958-7.542,15.669-19.025,15.669-31.504c0-12.478-5.71-23.96-15.667-31.502
		c-0.271-0.206-0.303-0.379-0.303-0.491c0-0.185,0.104-0.353,0.317-0.515c12.565-9.527,18.161-25.124,14.603-40.704
		c-3.303-14.462-14.781-25.938-29.244-29.239c-15.577-3.556-31.172,2.041-40.697,14.604c-0.162,0.213-0.331,0.317-0.516,0.317
		c-0.113,0-0.286-0.031-0.491-0.303c-7.542-9.957-19.024-15.667-31.502-15.667c-12.479,0-23.961,5.711-31.504,15.669
		c-0.314,0.415-0.677,0.416-0.992,0c-7.542-9.958-19.025-15.669-31.504-15.669c-12.479,0-23.961,5.711-31.504,15.669
		c-0.314,0.415-0.677,0.416-0.992,0c-7.542-9.958-19.025-15.669-31.504-15.669c-12.479,0-23.96,5.71-31.502,15.667
		c-0.206,0.271-0.379,0.303-0.491,0.303c-0.185,0-0.354-0.104-0.515-0.317C125.47,3.094,109.874-2.502,94.298,1.053
		c-14.462,3.3-25.94,14.777-29.243,29.239c-3.558,15.58,2.038,31.177,14.603,40.704c0.213,0.162,0.317,0.331,0.317,0.515
		c0,0.112-0.032,0.286-0.303,0.491c-9.957,7.542-15.667,19.024-15.667,31.502c0,12.479,5.711,23.962,15.67,31.504
		c0.208,0.157,0.304,0.315,0.304,0.496c0,0.181-0.097,0.339-0.304,0.496c-9.958,7.542-15.67,19.024-15.67,31.504
		c0,12.479,5.711,23.962,15.669,31.504c0.208,0.158,0.305,0.315,0.305,0.497c0,0.181-0.097,0.338-0.304,0.496
		c-9.958,7.542-15.67,19.024-15.67,31.504c0,12.479,5.711,23.962,15.669,31.504c0.208,0.158,0.305,0.315,0.305,0.497
		c0,0.181-0.097,0.338-0.305,0.496c-9.958,7.542-15.669,19.025-15.669,31.504c0,12.479,5.711,23.962,15.669,31.504
		c0.208,0.158,0.305,0.315,0.305,0.497c0,0.181-0.097,0.338-0.305,0.496c-9.958,7.542-15.669,19.025-15.669,31.504
		c0,12.478,5.71,23.96,15.667,31.502c0.271,0.206,0.303,0.379,0.303,0.491c0,0.185-0.104,0.353-0.317,0.515
		c-12.564,9.526-18.16,25.122-14.604,40.7c3.301,14.462,14.779,25.94,29.242,29.243c3.101,0.708,6.201,1.053,9.255,1.053
		c12.291,0,23.816-5.593,31.446-15.657c0.162-0.213,0.33-0.317,0.515-0.317c0,0,0,0,0,0c0.112,0,0.286,0.031,0.491,0.303
		c7.542,9.957,19.024,15.667,31.502,15.667c12.479,0,23.962-5.711,31.504-15.669c0.315-0.418,0.677-0.416,0.992,0
		c7.542,9.958,19.024,15.669,31.503,15.669s23.962-5.711,31.504-15.669c0.315-0.418,0.677-0.416,0.992,0
		c7.542,9.958,19.024,15.669,31.503,15.669c12.478,0,23.96-5.71,31.502-15.667c0.206-0.271,0.379-0.303,0.491-0.303
		c0.185,0,0.353,0.104,0.515,0.317c9.526,12.564,25.124,18.161,40.702,14.604c14.462-3.302,25.94-14.781,29.241-29.243
		c3.556-15.579-2.041-31.174-14.604-40.7c-0.213-0.162-0.316-0.33-0.316-0.515c0-0.112,0.031-0.286,0.303-0.491
		c9.957-7.542,15.667-19.024,15.667-31.502c0-12.479-5.711-23.962-15.669-31.504c-0.208-0.157-0.305-0.315-0.305-0.496
		c0-0.181,0.097-0.339,0.305-0.497c9.958-7.542,15.669-19.025,15.669-31.504c0-12.479-5.711-23.961-15.669-31.504
		c-0.208-0.157-0.305-0.315-0.305-0.496c0-0.181,0.097-0.339,0.305-0.497c9.958-7.542,15.669-19.025,15.669-31.504
		c0-12.479-5.711-23.962-15.669-31.504c-0.208-0.157-0.305-0.315-0.305-0.496c0-0.181,0.097-0.339,0.305-0.497
		C393.293,191.466,399.005,179.983,399.005,167.504z M374.279,211.958c6.181,4.681,9.726,11.805,9.726,19.546
		s-3.545,14.865-9.726,19.547c-3.971,3.007-6.249,7.546-6.249,12.454c0,4.907,2.277,9.446,6.249,12.453
		c6.181,4.682,9.726,11.806,9.726,19.546c0,7.741-3.545,14.865-9.726,19.547c-3.971,3.007-6.249,7.546-6.249,12.454
		c0,4.907,2.277,9.446,6.249,12.453c6.181,4.682,9.726,11.806,9.726,19.547c0,7.74-3.544,14.863-9.724,19.545
		c-3.969,3.006-6.245,7.542-6.246,12.445c-0.001,4.912,2.279,9.457,6.254,12.471c7.804,5.917,11.269,15.653,9.042,25.409
		c-1.996,8.744-9.211,15.96-17.955,17.957c-9.756,2.226-19.493-1.238-25.411-9.042c-3.014-3.975-7.557-6.254-12.467-6.254
		c-0.001,0-0.003,0-0.004,0c-4.903,0.001-9.439,2.277-12.445,6.246c-4.682,6.18-11.806,9.725-19.545,9.725
		c-7.74,0-14.865-3.545-19.546-9.726c-3.007-3.971-7.546-6.249-12.454-6.249c-4.907,0-9.446,2.277-12.453,6.249
		c-4.682,6.181-11.806,9.726-19.547,9.726c-7.74,0-14.865-3.545-19.546-9.726c-3.007-3.971-7.546-6.249-12.454-6.249
		c-4.907,0-9.446,2.277-12.453,6.249c-4.682,6.181-11.806,9.726-19.547,9.726c-7.74,0-14.864-3.544-19.545-9.724
		c-3.006-3.968-7.542-6.245-12.444-6.246c-0.001,0-0.002,0-0.004,0c-4.909,0-9.454,2.279-12.468,6.254
		c-5.917,7.805-15.653,11.271-25.41,9.042c-8.744-1.997-15.96-9.213-17.956-17.957c-2.227-9.755,1.238-19.492,9.043-25.409
		c3.976-3.014,6.255-7.56,6.254-12.47c-0.001-4.903-2.277-9.439-6.246-12.446c-6.18-4.681-9.725-11.805-9.725-19.545
		c0-7.741,3.545-14.865,9.726-19.547c3.971-3.008,6.248-7.547,6.248-12.453c0-4.907-2.277-9.446-6.248-12.454
		c-6.181-4.682-9.726-11.806-9.726-19.547c0-7.74,3.545-14.865,9.726-19.546c3.971-3.008,6.248-7.547,6.248-12.453
		c0-4.907-2.277-9.446-6.248-12.454c-6.181-4.682-9.726-11.806-9.726-19.547s3.545-14.865,9.726-19.546
		c3.971-3.008,6.248-7.547,6.248-12.453c0-4.907-2.277-9.446-6.248-12.454c-6.181-4.682-9.726-11.806-9.726-19.547
		s3.545-14.865,9.726-19.546c3.971-3.008,6.249-7.547,6.248-12.454c0-4.907-2.277-9.446-6.248-12.453
		c-6.181-4.682-9.726-11.806-9.726-19.547c0-7.74,3.544-14.864,9.724-19.545c3.968-3.005,6.245-7.541,6.246-12.444
		c0.001-4.911-2.278-9.457-6.254-12.472c-7.805-5.918-11.27-15.655-9.042-25.411c1.997-8.744,9.213-15.959,17.957-17.955
		c9.757-2.227,19.492,1.238,25.409,9.042c3.014,3.975,7.558,6.255,12.468,6.254c0.001,0,0.002,0,0.003,0
		c4.903-0.001,9.439-2.277,12.445-6.246c4.681-6.18,11.805-9.724,19.545-9.724c7.741,0,14.865,3.545,19.546,9.726
		c3.008,3.971,7.547,6.249,12.454,6.249c4.907,0,9.446-2.277,12.454-6.249c4.682-6.181,11.806-9.726,19.546-9.726
		c7.741,0,14.865,3.545,19.546,9.726c3.008,3.971,7.547,6.249,12.454,6.249c4.907,0,9.446-2.277,12.454-6.249
		c4.682-6.181,11.806-9.726,19.546-9.726s14.864,3.544,19.545,9.725c3.006,3.968,7.542,6.244,12.445,6.245c0.001,0,0.002,0,0.003,0
		c4.91,0,9.454-2.279,12.468-6.254c5.917-7.804,15.655-11.267,25.408-9.042c8.744,1.995,15.96,9.211,17.957,17.954
		c2.228,9.757-1.237,19.494-9.042,25.412c-3.976,3.015-6.255,7.56-6.254,12.471c0.001,4.903,2.278,9.439,6.246,12.444
		c6.18,4.682,9.725,11.806,9.725,19.545c0,7.741-3.545,14.865-9.726,19.546c-3.971,3.007-6.249,7.546-6.249,12.453
		c0,4.907,2.277,9.447,6.249,12.455c6.181,4.681,9.726,11.805,9.726,19.546s-3.545,14.865-9.726,19.547
		c-3.971,3.007-6.249,7.546-6.249,12.454C368.03,204.411,370.307,208.95,374.279,211.958z"/>
	<path d="M135.504,64.004c-1.97,0-3.91,0.8-5.3,2.2c-1.4,1.39-2.2,3.33-2.2,5.3c0,1.97,0.8,3.91,2.2,5.3c1.39,1.4,3.33,2.2,5.3,2.2
		c1.97,0,3.91-0.8,5.3-2.2c1.4-1.39,2.2-3.33,2.2-5.3c0-1.97-0.8-3.91-2.2-5.3C139.414,64.804,137.474,64.004,135.504,64.004z"/>
	<path d="M199.504,64.004c-1.97,0-3.91,0.8-5.3,2.2c-1.4,1.39-2.2,3.33-2.2,5.3c0,1.97,0.8,3.91,2.2,5.3c1.39,1.4,3.33,2.2,5.3,2.2
		c1.97,0,3.91-0.8,5.3-2.2c1.4-1.39,2.2-3.33,2.2-5.3c0-1.97-0.8-3.91-2.2-5.3C203.414,64.804,201.474,64.004,199.504,64.004z"/>
	<path d="M263.504,64.004c-1.97,0-3.91,0.8-5.3,2.2c-1.4,1.39-2.2,3.33-2.2,5.3c0,1.97,0.8,3.91,2.2,5.3c1.39,1.4,3.33,2.2,5.3,2.2
		c1.97,0,3.91-0.8,5.3-2.2c1.4-1.39,2.2-3.33,2.2-5.3c0-1.97-0.8-3.91-2.2-5.3C267.414,64.804,265.474,64.004,263.504,64.004z"/>
	<path d="M327.504,64.004c-1.97,0-3.91,0.8-5.3,2.2c-1.4,1.39-2.2,3.33-2.2,5.3c0,1.97,0.8,3.91,2.2,5.3c1.39,1.4,3.33,2.2,5.3,2.2
		c1.97,0,3.91-0.8,5.3-2.2c1.4-1.39,2.2-3.33,2.2-5.3c0-1.97-0.8-3.91-2.2-5.3C331.414,64.804,329.484,64.004,327.504,64.004z"/>
	<path d="M135.504,128.004c-1.97,0-3.91,0.8-5.3,2.2c-1.4,1.39-2.2,3.33-2.2,5.3c0,1.97,0.8,3.91,2.2,5.3c1.39,1.4,3.33,2.2,5.3,2.2
		c1.97,0,3.91-0.8,5.3-2.2c1.4-1.39,2.2-3.33,2.2-5.3c0-1.97-0.8-3.91-2.2-5.3C139.414,128.804,137.474,128.004,135.504,128.004z"/>
	<path d="M199.504,128.004c-1.98,0-3.91,0.8-5.3,2.2c-1.4,1.39-2.2,3.33-2.2,5.3c0,1.97,0.8,3.91,2.2,5.3c1.39,1.4,3.33,2.2,5.3,2.2
		c1.97,0,3.91-0.8,5.3-2.2c1.4-1.39,2.2-3.33,2.2-5.3c0-1.97-0.8-3.91-2.2-5.3C203.414,128.804,201.474,128.004,199.504,128.004z"/>
	<path d="M263.504,128.004c-1.97,0-3.91,0.8-5.3,2.2c-1.4,1.39-2.2,3.33-2.2,5.3c0,1.97,0.8,3.91,2.2,5.3c1.39,1.4,3.33,2.2,5.3,2.2
		c1.97,0,3.91-0.8,5.3-2.2c1.4-1.39,2.2-3.33,2.2-5.3c0-1.97-0.8-3.91-2.2-5.3C267.414,128.804,265.474,128.004,263.504,128.004z"/>
	<path d="M327.504,128.004c-1.97,0-3.91,0.8-5.3,2.2c-1.4,1.39-2.2,3.33-2.2,5.3c0,1.97,0.8,3.91,2.2,5.3c1.39,1.4,3.33,2.2,5.3,2.2
		c1.97,0,3.91-0.8,5.3-2.2c1.4-1.39,2.2-3.33,2.2-5.3c0-1.97-0.8-3.91-2.2-5.3C331.414,128.804,329.484,128.004,327.504,128.004z"/>
	<path d="M135.504,256.004c-1.98,0-3.91,0.8-5.3,2.2c-1.4,1.39-2.2,3.32-2.2,5.3s0.8,3.91,2.2,5.3c1.39,1.4,3.33,2.2,5.3,2.2
		c1.97,0,3.91-0.8,5.3-2.2c1.4-1.39,2.2-3.33,2.2-5.3c0-1.97-0.8-3.91-2.2-5.3C139.414,256.804,137.484,256.004,135.504,256.004z"/>
	<path d="M199.504,256.004c-1.97,0-3.91,0.8-5.3,2.2c-1.4,1.39-2.2,3.33-2.2,5.3c0,1.97,0.8,3.91,2.2,5.3c1.39,1.4,3.33,2.2,5.3,2.2
		c1.97,0,3.9-0.8,5.3-2.2c1.4-1.39,2.2-3.33,2.2-5.3c0-1.97-0.8-3.91-2.2-5.3C203.414,256.804,201.474,256.004,199.504,256.004z"/>
	<path d="M263.504,256.004c-1.97,0-3.91,0.8-5.3,2.2c-1.4,1.39-2.2,3.33-2.2,5.3c0,1.97,0.8,3.91,2.2,5.3c1.39,1.4,3.33,2.2,5.3,2.2
		c1.97,0,3.91-0.8,5.3-2.2c1.4-1.39,2.2-3.33,2.2-5.3c0-1.97-0.8-3.91-2.2-5.3C267.414,256.804,265.474,256.004,263.504,256.004z"/>
	<path d="M327.504,256.004c-1.97,0-3.91,0.8-5.3,2.2c-1.4,1.39-2.2,3.33-2.2,5.3c0,1.97,0.8,3.91,2.2,5.3c1.39,1.4,3.33,2.2,5.3,2.2
		c1.97,0,3.91-0.8,5.3-2.2c1.4-1.39,2.2-3.33,2.2-5.3c0-1.97-0.8-3.91-2.2-5.3C331.414,256.804,329.474,256.004,327.504,256.004z"/>
	<path d="M135.504,192.004c-1.97,0-3.91,0.8-5.3,2.2c-1.4,1.39-2.2,3.33-2.2,5.3c0,1.97,0.8,3.91,2.2,5.3c1.39,1.4,3.33,2.2,5.3,2.2
		c1.97,0,3.91-0.8,5.3-2.2c1.4-1.39,2.2-3.33,2.2-5.3c0-1.97-0.8-3.91-2.2-5.3C139.414,192.804,137.474,192.004,135.504,192.004z"/>
	<path d="M199.504,192.004c-1.97,0-3.91,0.8-5.3,2.2c-1.4,1.39-2.2,3.33-2.2,5.3c0,1.97,0.8,3.91,2.2,5.3c1.39,1.4,3.33,2.2,5.3,2.2
		c1.97,0,3.91-0.8,5.3-2.2c1.4-1.39,2.2-3.33,2.2-5.3c0-1.97-0.8-3.91-2.2-5.3C203.414,192.804,201.474,192.004,199.504,192.004z"/>
	<path d="M263.504,192.004c-1.98,0-3.91,0.8-5.3,2.2c-1.4,1.39-2.2,3.33-2.2,5.3c0,1.97,0.8,3.91,2.2,5.3c1.39,1.4,3.32,2.2,5.3,2.2
		c1.97,0,3.91-0.8,5.3-2.2c1.4-1.39,2.2-3.33,2.2-5.3c0-1.97-0.8-3.91-2.2-5.3C267.414,192.804,265.474,192.004,263.504,192.004z"/>
	<path d="M327.504,192.004c-1.97,0-3.91,0.8-5.3,2.2c-1.4,1.39-2.2,3.33-2.2,5.3c0,1.97,0.8,3.91,2.2,5.3c1.39,1.4,3.33,2.2,5.3,2.2
		c1.97,0,3.91-0.8,5.3-2.2c1.4-1.39,2.2-3.33,2.2-5.3c0-1.97-0.8-3.91-2.2-5.3C331.414,192.804,329.474,192.004,327.504,192.004z"/>
	<path d="M135.504,320.004c-1.97,0-3.91,0.8-5.3,2.2c-1.4,1.39-2.2,3.33-2.2,5.3c0,1.97,0.8,3.91,2.2,5.3c1.39,1.4,3.33,2.2,5.3,2.2
		c1.97,0,3.91-0.8,5.3-2.2c1.4-1.39,2.2-3.33,2.2-5.3c0-1.97-0.8-3.91-2.2-5.3C139.414,320.804,137.474,320.004,135.504,320.004z"/>
	<path d="M199.504,320.004c-1.97,0-3.91,0.8-5.3,2.2c-1.4,1.39-2.2,3.33-2.2,5.3c0,1.98,0.8,3.91,2.2,5.3c1.39,1.4,3.32,2.2,5.3,2.2
		c1.97,0,3.91-0.8,5.3-2.2c1.4-1.39,2.2-3.33,2.2-5.3c0-1.97-0.8-3.91-2.2-5.3C203.414,320.804,201.474,320.004,199.504,320.004z"/>
	<path d="M263.504,320.004c-1.97,0-3.91,0.8-5.3,2.2c-1.4,1.39-2.2,3.33-2.2,5.3c0,1.98,0.8,3.91,2.2,5.3c1.39,1.4,3.32,2.2,5.3,2.2
		s3.91-0.8,5.3-2.2c1.4-1.39,2.2-3.32,2.2-5.3c0-1.97-0.8-3.91-2.2-5.3C267.414,320.804,265.474,320.004,263.504,320.004z"/>
	<path d="M327.504,320.004c-1.97,0-3.91,0.8-5.3,2.2c-1.4,1.39-2.2,3.33-2.2,5.3c0,1.98,0.8,3.91,2.2,5.3c1.39,1.4,3.32,2.2,5.3,2.2
		c1.97,0,3.91-0.8,5.3-2.2c1.4-1.39,2.2-3.33,2.2-5.3c0-1.97-0.8-3.91-2.2-5.3C331.414,320.804,329.474,320.004,327.504,320.004z"/>
	<path d="M135.504,384.004c-1.97,0-3.91,0.8-5.3,2.2c-1.4,1.39-2.2,3.33-2.2,5.3c0,1.97,0.8,3.91,2.2,5.3c1.39,1.4,3.33,2.2,5.3,2.2
		c1.97,0,3.91-0.8,5.3-2.2c1.4-1.39,2.2-3.33,2.2-5.3c0-1.97-0.8-3.91-2.2-5.3C139.414,384.804,137.474,384.004,135.504,384.004z"/>
	<path d="M199.504,384.004c-1.97,0-3.91,0.8-5.3,2.2c-1.4,1.39-2.2,3.33-2.2,5.3c0,1.97,0.8,3.91,2.2,5.3c1.39,1.4,3.33,2.2,5.3,2.2
		c1.97,0,3.91-0.8,5.3-2.2c1.4-1.39,2.2-3.33,2.2-5.3c0-1.97-0.8-3.91-2.2-5.3C203.414,384.804,201.474,384.004,199.504,384.004z"/>
	<path d="M263.504,384.004c-1.97,0-3.91,0.8-5.3,2.2c-1.4,1.39-2.2,3.33-2.2,5.3c0,1.98,0.8,3.91,2.2,5.3c1.39,1.4,3.33,2.2,5.3,2.2
		c1.97,0,3.91-0.8,5.3-2.2c1.4-1.39,2.2-3.33,2.2-5.3c0-1.97-0.8-3.91-2.2-5.3C267.414,384.804,265.474,384.004,263.504,384.004z"/>
	<path d="M327.504,384.004c-1.97,0-3.91,0.8-5.3,2.2c-1.4,1.39-2.2,3.33-2.2,5.3c0,1.97,0.8,3.91,2.2,5.3c1.39,1.4,3.33,2.2,5.3,2.2
		c1.97,0,3.91-0.8,5.3-2.2c1.4-1.39,2.2-3.33,2.2-5.3c0-1.97-0.8-3.91-2.2-5.3C331.414,384.804,329.474,384.004,327.504,384.004z"/>
</g>
<g>
</g>
<g>
</g>
<g>
</g>
<g>
</g>
<g>
</g>
<g>
</g>
<g>
</g>
<g>
</g>
<g>
</g>
<g>
</g>
<g>
</g>
<g>
</g>
<g>
</g>
<g>
</g>
<g>
</g>
</svg>
