<?xml version="1.0" encoding="iso-8859-1"?>
<!-- Generator: Adobe Illustrator 19.0.0, SVG Export Plug-In . SVG Version: 6.00 Build 0)  -->
<svg version="1.1" id="Capa_1" xmlns="http://www.w3.org/2000/svg" xmlns:xlink="http://www.w3.org/1999/xlink" x="0px" y="0px"
	 viewBox="0 0 460.462 460.462" style="enable-background:new 0 0 460.462 460.462;" xml:space="preserve">
<g>
	<path d="M444.385,266.782l-32.292-36.905l4.406-6.61c6.193-9.289,4.398-21.723-4.175-28.923
		c-14.777-12.408-45.992-34.118-91.109-42.467c-0.053-8.407-4.922-16.132-12.743-19.772c-23.73-11.045-50.785-16.883-78.241-16.883
		c-27.456,0-54.511,5.838-78.241,16.883c-7.821,3.64-12.69,11.365-12.743,19.772c-45.119,8.349-76.333,30.059-91.109,42.467
		c-8.573,7.2-10.369,19.634-4.176,28.923l4.407,6.61l-32.291,36.905C5.71,278.63,0,293.827,0,309.571
		c0,12.078,6.036,23.235,16.145,29.844c5.907,3.861,12.676,5.826,19.491,5.826c4.849,0,9.723-0.995,14.322-3.009l57.649-25.248
		c3.884,3.171,8.74,4.912,13.763,4.911c2.007,0,4.042-0.277,6.049-0.851l35.693-10.198c3.958,3.833,9.329,6.183,15.2,6.183H282.15
		c5.871,0,11.242-2.35,15.2-6.183l35.693,10.198c2.008,0.574,4.041,0.851,6.049,0.851c5.022,0,9.879-1.741,13.762-4.912
		l57.65,25.248c4.6,2.014,9.472,3.01,14.322,3.009c6.815,0,13.585-1.965,19.492-5.826c10.109-6.609,16.145-17.765,16.145-29.843
		C460.462,293.827,454.753,278.631,444.385,266.782z M43.94,328.491c-6.504,2.849-13.644,2.254-19.588-1.631
		C18.409,322.974,15,316.672,15,309.571c0-12.11,4.392-23.798,12.366-32.911l29.622-33.854l41.265,61.898L43.94,328.491z
		 M123.298,306.621c-2.883,0.824-5.939-0.299-7.604-2.795l-59.252-88.879c-1.946-2.92-1.37-6.839,1.342-9.116
		c13.512-11.347,41.932-31.127,83.069-38.997l15.669,130.294L123.298,306.621z M282.15,302.029H178.313
		c-3.474,0-6.406-2.601-6.821-6.05L154.28,152.855c-0.359-2.985,1.264-5.859,4.04-7.151c21.761-10.128,46.627-15.482,71.911-15.482
		c25.284,0,50.15,5.354,71.911,15.482c2.775,1.292,4.399,4.166,4.04,7.151l-17.211,143.124
		C288.556,299.428,285.624,302.029,282.15,302.029z M337.164,306.621l-33.224-9.492l15.669-130.294
		c41.135,7.87,69.557,27.651,83.069,38.997c2.711,2.277,3.288,6.196,1.341,9.116l-59.252,88.879
		C343.103,306.321,340.048,307.445,337.164,306.621z M436.109,326.859c-5.943,3.886-13.083,4.481-19.588,1.632l-54.313-23.787
		l41.265-61.898l29.622,33.854c7.975,9.114,12.366,20.802,12.366,32.911C445.462,316.672,442.053,322.974,436.109,326.859z"/>
	<path d="M351.992,235.3c-2.298,3.446-1.367,8.103,2.08,10.401c1.279,0.852,2.724,1.26,4.153,1.26c2.423,0,4.802-1.173,6.247-3.341
		l16.164-24.245c2.294-3.441,1.37-8.09-2.067-10.392c-10.284-6.887-21.418-12.66-33.093-17.156
		c-3.864-1.489-8.206,0.438-9.694,4.303c-1.489,3.865,0.438,8.206,4.304,9.694c8.284,3.191,16.268,7.085,23.815,11.612
		L351.992,235.3z"/>
	<path d="M230.231,147.222c-5.593,0-11.236,0.292-16.774,0.869c-4.12,0.429-7.112,4.116-6.683,8.236
		c0.401,3.856,3.657,6.724,7.45,6.724c0.26,0,0.522-0.013,0.786-0.041c5.024-0.523,10.145-0.788,15.221-0.788
		c4.142,0,7.5-3.358,7.5-7.5S234.373,147.222,230.231,147.222z"/>
	<path d="M282.78,156.128c-6.11-2.177-12.495-3.985-18.977-5.375c-4.051-0.868-8.037,1.711-8.906,5.761
		c-0.868,4.05,1.711,8.037,5.761,8.905c3.866,0.829,7.689,1.822,11.426,2.965l-5.947,49.448c-0.495,4.113,2.438,7.847,6.551,8.342
		c0.304,0.037,0.606,0.054,0.905,0.054c3.742,0,6.979-2.797,7.437-6.605l6.679-55.535
		C288.127,160.609,286.081,157.304,282.78,156.128z"/>
	<path d="M124.681,196.13c-1.489-3.865-5.83-5.792-9.694-4.303c-11.676,4.497-22.81,10.269-33.093,17.156
		c-3.442,2.305-4.363,6.963-2.058,10.405c1.447,2.16,3.82,3.327,6.238,3.327c1.435,0,2.885-0.411,4.167-1.269
		c9.36-6.269,19.5-11.524,30.137-15.622C124.243,204.336,126.169,199.996,124.681,196.13z"/>
	<path d="M420.302,287.854l-8.549-9.77c-2.728-3.117-7.465-3.433-10.583-0.705c-3.117,2.728-3.433,7.466-0.705,10.583l8.548,9.77
		c1.098,1.255,2.015,2.655,2.727,4.16c1.281,2.71,3.975,4.297,6.786,4.297c1.074,0,2.165-0.232,3.2-0.721
		c3.745-1.77,5.346-6.241,3.576-9.986C423.997,292.72,422.315,290.154,420.302,287.854z"/>
</g>
<g>
</g>
<g>
</g>
<g>
</g>
<g>
</g>
<g>
</g>
<g>
</g>
<g>
</g>
<g>
</g>
<g>
</g>
<g>
</g>
<g>
</g>
<g>
</g>
<g>
</g>
<g>
</g>
<g>
</g>
</svg>
