<?xml version="1.0" encoding="iso-8859-1"?>
<!-- Generator: Adobe Illustrator 19.0.0, SVG Export Plug-In . SVG Version: 6.00 Build 0)  -->
<svg version="1.1" id="Layer_1" xmlns="http://www.w3.org/2000/svg" xmlns:xlink="http://www.w3.org/1999/xlink" x="0px" y="0px"
	 viewBox="0 0 495 495" style="enable-background:new 0 0 495 495;" xml:space="preserve">
<g>
	<path style="fill:#FF9811;" d="M435,160c-14.48,0-27.779-5.157-38.156-13.729L341.32,193.65l-55.299-47.696
		C275.591,154.712,262.154,160,247.5,160v205h160v2.139l45.225-209.813C447.12,159.062,441.168,160,435,160z"/>
	<path style="fill:#FFA733;" d="M247.5,365V160c-14.655,0-28.094-5.289-38.525-14.049L153.68,193.65l-55.524-47.379
		C87.779,154.843,74.48,160,60,160c-6.168,0-12.12-0.938-17.725-2.674L87.5,367.139V365H247.5z"/>
	<path style="fill:#FFDA44;" d="M60,40C26.916,40,0,66.916,0,100c0,26.916,17.817,49.748,42.275,57.326
		C47.88,159.062,53.832,160,60,160V40z"/>
	<path style="fill:#FFCD00;" d="M60,160c14.48,0,27.779-5.157,38.156-13.729C111.489,135.257,120,118.604,120,100
		c0-33.084-26.916-60-60-60V160z"/>
	<path style="fill:#FFDA44;" d="M435,40c-33.084,0-60,26.916-60,60c0,18.604,8.511,35.257,21.844,46.271
		C407.221,154.843,420.52,160,435,160V40z"/>
	<path style="fill:#FFCD00;" d="M435,160c6.168,0,12.12-0.938,17.725-2.674C477.183,149.748,495,126.916,495,100
		c0-33.084-26.916-60-60-60V160z"/>
	<path style="fill:#FFDA44;" d="M247.5,40c-33.084,0-60,26.916-60,60c0,18.429,8.358,34.936,21.475,45.951
		C219.406,154.711,232.845,160,247.5,160V40z"/>
	<path style="fill:#FFCD00;" d="M247.5,160c14.654,0,28.091-5.288,38.521-14.046C299.14,134.939,307.5,118.43,307.5,100
		c0-33.084-26.916-60-60-60V160z"/>
	<rect x="87.5" y="365" style="fill:#FFCD00;" width="320" height="90"/>
</g>
</svg>
