<?xml version="1.0" encoding="iso-8859-1"?>
<!-- Generator: Adobe Illustrator 19.0.0, SVG Export Plug-In . SVG Version: 6.00 Build 0)  -->
<svg version="1.1" id="Capa_1" xmlns="http://www.w3.org/2000/svg" xmlns:xlink="http://www.w3.org/1999/xlink" x="0px" y="0px"
	 viewBox="0 0 463.002 463.002" style="enable-background:new 0 0 463.002 463.002;" xml:space="preserve">
<g>
	<path d="M445.489,226.983c-1.417-1.879-3.634-2.983-5.988-2.983h-16.792c-2.321-29.859-18.309-43.106-28.292-50.03
		c5.898-9.35,7.664-21.781,4.92-35.974c-3.479-17.991-15.101-39.262-30.783-46.087c-6.547-4.541-16.382-5.804-21.179-6.417
		c-13.323-1.703-31.278-1.956-50.286-2.224c-5.469-0.077-11.32-0.16-17.356-0.295c4.734-8.28,7.268-17.68,7.268-27.474
		c0-30.603-24.897-55.5-55.5-55.5s-55.5,24.897-55.5,55.5c0,0.402,0.016,0.805,0.025,1.207
		c-23.237,3.982-61.309,24.583-78.433,54.092c-9.841,16.957-11.464,34.591-4.867,51.519c-48.865,13.144-46.562,43.109-45.148,61.43
		c0.007,0.085,0.013,0.167,0.019,0.251H23.501c-2.354,0-4.57,1.104-5.988,2.983c-1.417,1.879-1.87,4.314-1.224,6.577l57.369,200.791
		c4.788,16.759,20.237,28.491,37.642,28.642c0.064,0.002,0.127,0.009,0.192,0.009c0.023,0,0.046-0.003,0.07-0.003
		c0.026,0,0.051,0.001,0.077,0.001h31.843c0.003,0,0.007,0,0.01,0c0.003,0,0.006,0,0.009,0h176.001c0.003,0,0.006,0,0.009,0
		c0.003,0,0.007,0,0.01,0h31.843c0.026,0,0.051-0.001,0.077-0.001c0.023,0,0.047,0.003,0.07,0.003c0.064,0,0.128-0.007,0.192-0.009
		c17.405-0.151,32.854-11.883,37.642-28.641l57.369-200.792C447.359,231.297,446.906,228.862,445.489,226.983z M407.656,224H300.203
		c28.966-10.685,65.583-25.693,83.625-39.095C392.274,190.585,405.389,199.835,407.656,224z M345.222,448h-17.374l22.393-209h32.303
		L345.222,448z M287.273,448l7.464-209h40.417l-22.393,209H287.273z M150.24,448l-22.393-209h40.417l7.464,209H150.24z M117.78,448
		L80.459,239h32.302l22.393,209H117.78z M183.273,239h40.727v209h-33.263L183.273,239z M239.001,239h40.727l-7.464,209h-33.263V239z
		 M231.501,15c22.332,0,40.5,18.168,40.5,40.5c0,10.013-3.615,19.468-10.219,26.886c-33.37-1.52-66.726-5.898-70.275-20.489
		c-0.333-2.102-0.506-4.252-0.506-6.397C191.001,33.168,209.169,15,231.501,15z M110.566,118.328
		c15.387-26.514,50.771-44.207,68.568-46.952c13.083,25.413,66.223,26.166,117.744,26.891c16.349,0.23,31.79,0.448,43.765,1.574
		c12.39,1.165,17.084,2.991,18.784,3.974c0.144,0.138,0.298,0.267,0.453,0.393c-0.879,2.918-7.922,13.257-62.148,25.298
		c-38.932,8.645-89.193,15.377-129.58,20.787c-24.204,3.242-45.48,6.094-60.504,8.792
		C101.668,145.695,102.627,132.008,110.566,118.328z M62.532,222.594c-1.467-19.004-2.984-38.655,42.439-47.74
		c14.598-2.919,38.034-6.059,65.172-9.694c40.669-5.448,91.283-12.228,130.839-21.011c41.095-9.125,63.512-18.652,71.064-30.653
		c5.715,6.948,10.587,17.129,12.563,27.348c3.348,17.311-2.441,25.687-6.189,29.139c-6.739,6.207-24.431,17.326-70.444,35.048
		c-28.005,10.786-53.294,18.855-53.546,18.935c-0.031,0.01-0.059,0.023-0.09,0.034H119.485c-0.01,0-0.02,0-0.029,0H62.639
		C62.604,223.533,62.569,223.069,62.532,222.594z M88.081,430.231L33.444,239h31.778L102.2,446.081
		C95.488,443.255,90.161,437.511,88.081,430.231z M374.921,430.231c-2.08,7.28-7.407,13.024-14.119,15.85L397.781,239h31.778
		L374.921,430.231z"/>
	<path d="M171.653,111.821c8.146,4.867,19.711,8.422,35.354,10.87c0.393,0.062,0.783,0.091,1.169,0.091
		c3.63,0,6.822-2.642,7.4-6.341c0.641-4.093-2.158-7.929-6.25-8.569c-13.518-2.115-23.605-5.119-29.981-8.928
		c-3.555-2.125-8.161-0.964-10.285,2.592C166.936,105.092,168.096,109.697,171.653,111.821z"/>
	<path d="M343.501,163.502c0.864,0,1.743-0.15,2.601-0.468c8.068-2.984,14.414-6.008,19.398-9.243
		c3.475-2.255,4.464-6.899,2.209-10.374c-2.256-3.476-6.901-4.463-10.374-2.209c-3.988,2.588-9.519,5.198-16.438,7.757
		c-3.885,1.437-5.869,5.751-4.432,9.636C337.585,161.629,340.451,163.502,343.501,163.502z"/>
	<path d="M240.615,186.114c0.38,0,0.765-0.029,1.151-0.088c30.127-4.643,54.05-9.154,73.135-13.79
		c4.025-0.978,6.495-5.034,5.518-9.059c-0.978-4.024-5.031-6.497-9.059-5.518c-18.666,4.535-42.177,8.964-71.878,13.541
		c-4.094,0.631-6.901,4.461-6.271,8.555C233.783,183.462,236.978,186.114,240.615,186.114z"/>
	<path d="M231.501,47c4.687,0,8.5,3.813,8.5,8.5c0,4.142,3.358,7.5,7.5,7.5s7.5-3.358,7.5-7.5c0-12.958-10.542-23.5-23.5-23.5
		c-4.142,0-7.5,3.358-7.5,7.5S227.359,47,231.501,47z"/>
</g>
<g>
</g>
<g>
</g>
<g>
</g>
<g>
</g>
<g>
</g>
<g>
</g>
<g>
</g>
<g>
</g>
<g>
</g>
<g>
</g>
<g>
</g>
<g>
</g>
<g>
</g>
<g>
</g>
<g>
</g>
</svg>
