<?xml version="1.0" encoding="iso-8859-1"?>
<!-- Generator: Adobe Illustrator 19.0.0, SVG Export Plug-In . SVG Version: 6.00 Build 0)  -->
<svg version="1.1" id="Capa_1" xmlns="http://www.w3.org/2000/svg" xmlns:xlink="http://www.w3.org/1999/xlink" x="0px" y="0px"
	 viewBox="0 0 463 463" style="enable-background:new 0 0 463 463;" xml:space="preserve">
<g>
	<path d="M395.195,67.805C351.471,24.08,293.336,0,231.5,0S111.529,24.08,67.805,67.805S0,169.664,0,231.5
		s24.08,119.971,67.805,163.695C111.529,438.92,169.664,463,231.5,463s119.971-24.08,163.695-67.805
		C438.92,351.471,463,293.336,463,231.5S438.92,111.529,395.195,67.805z M384.589,384.589C343.697,425.48,289.329,448,231.5,448
		s-112.197-22.52-153.089-63.412C37.52,343.697,15,289.329,15,231.5S37.52,119.303,78.411,78.411C119.303,37.52,173.671,15,231.5,15
		s112.197,22.52,153.089,63.411C425.48,119.303,448,173.671,448,231.5S425.48,343.697,384.589,384.589z"/>
	<path d="M231.5,144c-48.248,0-87.5,39.252-87.5,87.5c0,48.248,39.252,87.5,87.5,87.5s87.5-39.252,87.5-87.5
		C319,183.252,279.748,144,231.5,144z M231.5,304c-39.977,0-72.5-32.523-72.5-72.5c0-39.977,32.523-72.5,72.5-72.5
		s72.5,32.523,72.5,72.5C304,271.477,271.477,304,231.5,304z"/>
	<path d="M104.803,270.197l-16-16c-2.929-2.929-7.678-2.929-10.606,0c-2.929,2.929-2.929,7.678,0,10.606l16,16
		C95.661,282.268,97.581,283,99.5,283s3.839-0.732,5.303-2.197C107.732,277.875,107.732,273.125,104.803,270.197z"/>
	<path d="M163.507,115.001c1.43,0,2.875-0.408,4.153-1.261l24-16c3.447-2.297,4.378-6.954,2.08-10.4s-6.955-4.377-10.4-2.08l-24,16
		c-3.447,2.297-4.378,6.954-2.08,10.4C158.705,113.828,161.083,115.001,163.507,115.001z"/>
	<path d="M332.792,168.146c-1.853,3.705-0.351,8.21,3.354,10.062l16,8c1.077,0.539,2.221,0.793,3.348,0.793
		c2.751,0,5.4-1.52,6.714-4.147c1.853-3.705,0.351-8.21-3.354-10.062l-16-8C339.151,162.939,334.645,164.441,332.792,168.146z"/>
	<path d="M346.616,281.128c-1.31-3.93-5.559-6.054-9.487-4.744c-3.93,1.31-6.053,5.557-4.744,9.487l8,24
		c1.048,3.143,3.974,5.13,7.114,5.13c0.786,0,1.586-0.125,2.373-0.387c3.93-1.31,6.053-5.557,4.744-9.487L346.616,281.128z"/>
	<path d="M250.197,338.197l-16,16c-2.929,2.929-2.929,7.678,0,10.606c1.464,1.464,3.384,2.197,5.303,2.197s3.839-0.732,5.303-2.197
		l16-16c2.929-2.929,2.929-7.678,0-10.606C257.875,335.269,253.125,335.269,250.197,338.197z"/>
	<path d="M162.854,336.792l-16-8c-3.703-1.853-8.209-0.351-10.062,3.354s-0.351,8.21,3.354,10.062l16,8
		c1.077,0.539,2.221,0.793,3.348,0.793c2.751,0,5.4-1.52,6.714-4.147C168.061,343.15,166.559,338.645,162.854,336.792z"/>
	<path d="M83.5,203h8c4.142,0,7.5-3.358,7.5-7.5s-3.358-7.5-7.5-7.5h-8c-4.142,0-7.5,3.358-7.5,7.5S79.358,203,83.5,203z"/>
	<path d="M122.208,136.146c-1.852-3.705-6.357-5.208-10.062-3.354c-3.705,1.852-5.207,6.357-3.354,10.062l8,16
		c1.314,2.628,3.962,4.147,6.714,4.147c1.127,0,2.271-0.255,3.348-0.793c3.705-1.852,5.207-6.357,3.354-10.062L122.208,136.146z"/>
	<path d="M251.5,115c4.142,0,7.5-3.358,7.5-7.5v-16c0-4.142-3.358-7.5-7.5-7.5s-7.5,3.358-7.5,7.5v16
		C244,111.642,247.358,115,251.5,115z"/>
	<path d="M288.146,138.208c1.077,0.539,2.221,0.793,3.348,0.793c2.751,0,5.4-1.52,6.714-4.147l8-16
		c1.853-3.705,0.351-8.21-3.354-10.062c-3.703-1.853-8.209-0.351-10.062,3.354l-8,16
		C282.939,131.851,284.441,136.356,288.146,138.208z"/>
	<path d="M387,227.5c0-4.142-3.358-7.5-7.5-7.5h-24c-4.142,0-7.5,3.358-7.5,7.5s3.358,7.5,7.5,7.5h24
		C383.643,235,387,231.642,387,227.5z"/>
	<path d="M318.208,324.146c-1.853-3.705-6.357-5.206-10.063-3.354c-3.705,1.853-5.206,6.357-3.354,10.063l8,16
		c1.314,2.628,3.963,4.147,6.714,4.147c1.127,0,2.271-0.255,3.349-0.793c3.705-1.853,5.206-6.357,3.354-10.063L318.208,324.146z"/>
	<path d="M202.854,344.792c-3.703-1.853-8.209-0.351-10.062,3.354l-8,16c-1.853,3.705-0.351,8.21,3.354,10.062
		c1.077,0.539,2.221,0.793,3.348,0.793c2.751,0,5.4-1.52,6.714-4.147l8-16C208.061,351.15,206.559,346.645,202.854,344.792z"/>
	<path d="M110.197,302.197l-8,8c-2.929,2.929-2.929,7.678,0,10.607c1.464,1.464,3.384,2.196,5.303,2.196s3.839-0.732,5.303-2.197
		l8-8c2.929-2.929,2.929-7.678,0-10.606C117.875,299.267,113.125,299.268,110.197,302.197z"/>
	<path d="M110.197,214.197l-8,8c-2.929,2.929-2.929,7.678,0,10.606c1.464,1.464,3.384,2.197,5.303,2.197s3.839-0.732,5.303-2.197
		l8-8c2.929-2.929,2.929-7.678,0-10.606C117.875,211.268,113.125,211.268,110.197,214.197z"/>
	<path d="M211.5,123h8c4.142,0,7.5-3.358,7.5-7.5s-3.358-7.5-7.5-7.5h-8c-4.142,0-7.5,3.358-7.5,7.5S207.358,123,211.5,123z"/>
	<path d="M150.197,144.803c1.464,1.464,3.384,2.197,5.303,2.197s3.839-0.732,5.303-2.197c2.929-2.929,2.929-7.678,0-10.606l-8-8
		c-2.929-2.929-7.678-2.929-10.606,0c-2.929,2.929-2.929,7.678,0,10.606L150.197,144.803z"/>
	<path d="M339.5,139h8c4.142,0,7.5-3.358,7.5-7.5s-3.358-7.5-7.5-7.5h-8c-4.142,0-7.5,3.358-7.5,7.5S335.358,139,339.5,139z"/>
	<path d="M376.804,262.197c-2.929-2.929-7.678-2.929-10.606,0c-2.929,2.929-2.929,7.678,0,10.606l8,8
		c1.464,1.464,3.384,2.197,5.303,2.197s3.839-0.732,5.303-2.197c2.929-2.929,2.929-7.678,0-10.606L376.804,262.197z"/>
	<path d="M282.197,354.197l-8,8c-2.929,2.929-2.929,7.678,0,10.606c1.464,1.464,3.384,2.197,5.303,2.197s3.839-0.732,5.303-2.197
		l8-8c2.929-2.929,2.929-7.678,0-10.606C289.875,351.269,285.125,351.269,282.197,354.197z"/>
	<path d="M412.547,182.433c-4.424-7.332-8.603-14.257-11.471-21.174c-3.04-7.331-5.104-15.449-7.289-24.043
		c-4.285-16.853-8.715-34.279-21.218-46.783c-12.504-12.504-29.931-16.935-46.785-21.221c-8.594-2.185-16.711-4.249-24.043-7.29
		c-6.916-2.868-13.842-7.046-21.174-11.471C265.532,41.381,249.984,32,231.5,32c-18.485,0-34.032,9.381-49.067,18.453
		c-7.332,4.424-14.257,8.603-21.173,11.471c-7.331,3.04-15.448,5.104-24.042,7.289c-16.853,4.285-34.28,8.715-46.784,21.219
		c-12.504,12.504-16.935,29.931-21.221,46.785c-2.185,8.594-4.249,16.712-7.289,24.043c-2.868,6.916-7.047,13.841-11.471,21.173
		C41.381,197.468,32,213.015,32,231.5s9.381,34.032,18.453,49.068c4.424,7.332,8.603,14.257,11.47,21.172
		c3.04,7.332,5.104,15.449,7.289,24.042c4.285,16.854,8.716,34.281,21.219,46.784c12.504,12.504,29.932,16.935,46.786,21.221
		c8.594,2.185,16.711,4.249,24.042,7.289c6.916,2.868,13.841,7.047,21.173,11.471C197.468,421.619,213.015,431,231.5,431
		s34.032-9.381,49.067-18.453c7.332-4.424,14.257-8.603,21.174-11.471c7.331-3.04,15.449-5.104,24.043-7.289
		c16.853-4.285,34.28-8.715,46.783-21.219c12.504-12.504,16.935-29.932,21.221-46.786c2.185-8.594,4.249-16.711,7.289-24.042
		c2.868-6.917,7.047-13.842,11.471-21.174C421.62,265.532,431,249.985,431,231.5C431,213.016,421.62,197.469,412.547,182.433z
		 M399.704,272.818c-4.515,7.483-9.185,15.221-12.483,23.177c-3.455,8.332-5.75,17.36-7.971,26.092
		c-3.96,15.575-7.701,30.287-17.29,39.875c-9.588,9.588-24.299,13.328-39.873,17.288c-8.732,2.22-17.762,4.516-26.093,7.97
		c-7.956,3.299-15.694,7.968-23.177,12.484C258.929,408.085,245.81,416,231.5,416s-27.429-7.916-41.318-16.297
		c-7.483-4.515-15.221-9.184-23.177-12.483c-8.332-3.455-17.36-5.75-26.092-7.971c-15.575-3.96-30.286-7.701-39.875-17.29
		c-9.588-9.588-13.328-24.299-17.288-39.874c-2.22-8.731-4.515-17.76-7.97-26.092c-3.299-7.956-7.968-15.693-12.483-23.176
		C54.916,258.929,47,245.81,47,231.5s7.916-27.429,16.296-41.318c4.515-7.483,9.184-15.222,12.483-23.177
		c3.455-8.332,5.751-17.361,7.971-26.093c3.96-15.575,7.701-30.286,17.29-39.875c9.588-9.588,24.299-13.328,39.874-17.288
		c8.731-2.22,17.76-4.515,26.092-7.97c7.956-3.299,15.693-7.968,23.176-12.483C204.071,54.916,217.19,47,231.5,47
		c14.31,0,27.429,7.916,41.318,16.296c7.483,4.516,15.222,9.185,23.178,12.483c8.332,3.455,17.361,5.751,26.093,7.971
		c15.575,3.96,30.286,7.701,39.875,17.29c9.588,9.588,13.328,24.298,17.288,39.873c2.22,8.732,4.516,17.761,7.97,26.093
		c3.299,7.956,7.968,15.694,12.484,23.177C408.085,204.072,416,217.19,416,231.5C416,245.81,408.084,258.929,399.704,272.818z"/>
</g>
<g>
</g>
<g>
</g>
<g>
</g>
<g>
</g>
<g>
</g>
<g>
</g>
<g>
</g>
<g>
</g>
<g>
</g>
<g>
</g>
<g>
</g>
<g>
</g>
<g>
</g>
<g>
</g>
<g>
</g>
</svg>
