<?xml version='1.0' encoding='iso-8859-1'?>
<!DOCTYPE svg PUBLIC '-//W3C//DTD SVG 1.1//EN' 'http://www.w3.org/Graphics/SVG/1.1/DTD/svg11.dtd'>
<svg version="1.1" xmlns="http://www.w3.org/2000/svg" viewBox="0 0 429.86 429.86" xmlns:xlink="http://www.w3.org/1999/xlink" enable-background="new 0 0 429.86 429.86">
  <g>
    <path d="m228.19,65.269c20.049,6.752 36.65,26.813 44.762,38.169 13.152,18.414 23.802,40.813 30.797,64.776 1.593,5.458 6.581,9 11.994,9 1.159,0 2.339-0.163 3.508-0.504 6.627-1.935 10.431-8.875 8.496-15.502-7.772-26.627-19.686-51.628-34.451-72.301-12.052-16.874-31.746-38.783-57.126-47.331-6.542-2.204-13.633,1.314-15.836,7.856-2.204,6.543 1.314,13.633 7.856,15.837z"/>
    <path d="m396.159,187.367c-0.992-6.459-6.797-11.056-13.307-10.561-2.856,0.218-5.428,1.386-7.416,3.179l-3.665,3.167c-7.345-42.162-24.143-83.553-47.555-116.331-30.775-43.09-69.589-66.821-109.292-66.821-39.699,0-78.511,23.731-109.288,66.823-23.412,32.78-40.208,74.17-47.549,116.33l-3.519-3.042c-2.006-1.867-4.634-3.086-7.561-3.31-6.514-0.49-12.314,4.107-13.307,10.566-2.449,15.94-3.69,31.789-3.69,47.104 0,59.695 18.746,109.794 54.211,144.883 32.919,32.569 79.341,50.506 130.713,50.506 51.368,0 97.787-17.937 130.705-50.506 35.464-35.089 54.21-85.188 54.21-144.883 0.001-15.315-1.241-31.164-3.69-47.104zm-270.178-106.014c25.954-36.34 57.542-56.353 88.943-56.353 31.405,0 62.995,20.013 88.95,56.352 24.082,33.717 40.47,77.569 45.443,121.209l-20.044,17.323-49.011-42.354c-4.694-4.056-11.654-4.056-16.348,0.002l-48.99,42.351-48.999-42.352c-4.693-4.058-11.654-4.058-16.348,0l-49,42.352-20.034-17.318c4.968-43.639 21.355-87.493 45.438-121.212zm202.076,280.229c-28.207,27.908-68.381,43.278-113.122,43.278-44.746,0-84.922-15.37-113.13-43.278-30.613-30.287-46.795-74.241-46.795-127.111 0-6.654 0.256-13.424 0.767-20.27l36.625,31.66c4.693,4.058 11.653,4.058 16.348,0l49-42.353 49,42.353c4.694,4.058 11.654,4.058 16.349-0.001l48.99-42.352 49.01,42.354c4.694,4.056 11.653,4.056 16.347,0l36.636-31.664c0.51,6.846 0.767,13.618 0.767,20.272 0.001,52.87-16.18,96.824-46.792,127.112z"/>
  </g>
</svg>
