<?xml version="1.0" encoding="iso-8859-1"?>
<!-- Generator: Adobe Illustrator 18.0.0, SVG Export Plug-In . SVG Version: 6.00 Build 0)  -->
<!DOCTYPE svg PUBLIC "-//W3C//DTD SVG 1.1//EN" "http://www.w3.org/Graphics/SVG/1.1/DTD/svg11.dtd">
<svg version="1.1" id="Capa_1" xmlns="http://www.w3.org/2000/svg" xmlns:xlink="http://www.w3.org/1999/xlink" x="0px" y="0px"
	 viewBox="0 0 297 297" style="enable-background:new 0 0 297 297;" xml:space="preserve">
<path d="M287.631,151.225h-10.502c2.821-5.885,4.412-12.465,4.412-19.415c0-31.505-18.541-66.609-45.145-66.609
	c-22.663,0-39.464,25.474-43.948,52.497c-4.484-27.023-21.286-52.497-43.948-52.497c-22.663,0-39.465,25.476-43.949,52.5
	c-4.483-27.024-21.284-52.5-43.948-52.5c-26.604,0-45.145,35.104-45.145,66.609c0,6.95,1.59,13.53,4.409,19.415H9.369
	c-5.174,0-9.369,4.195-9.369,9.369v30.918c0,5.174,4.195,9.369,9.369,9.369h9.668l12.87,25.738c1.587,3.175,4.831,5.18,8.38,5.18
	h30.918c3.549,0,6.793-2.005,8.38-5.18l12.87-25.738h19.337l12.87,25.738c1.587,3.175,4.831,5.18,8.38,5.18h30.918
	c3.549,0,6.793-2.005,8.38-5.18l12.87-25.738h19.337l12.87,25.738c1.587,3.175,4.831,5.18,8.38,5.18h30.918
	c3.549,0,6.793-2.005,8.38-5.18l12.87-25.738h9.668c5.174,0,9.369-4.195,9.369-9.369v-30.918
	C297,155.42,292.805,151.225,287.631,151.225z M236.396,83.939c13.08,0,26.406,24.159,26.406,47.871
	c0,7.671-3.291,14.586-8.531,19.415h-35.75c-5.241-4.829-8.531-11.744-8.531-19.415C209.99,108.098,223.316,83.939,236.396,83.939z
	 M195.659,151.225h-6.424c1.383-2.889,2.469-5.945,3.214-9.133C193.196,145.279,194.276,148.337,195.659,151.225z M148.5,83.939
	c13.08,0,26.406,24.159,26.406,47.871c0,7.671-3.291,14.586-8.531,19.415h-35.75c-5.241-4.829-8.532-11.744-8.532-19.415
	C122.094,108.098,135.42,83.939,148.5,83.939z M107.767,151.225h-6.423c1.384-2.889,2.461-5.95,3.208-9.138
	C105.299,145.276,106.382,148.335,107.767,151.225z M34.197,131.81c0-23.712,13.326-47.871,26.406-47.871
	c13.079,0,26.405,24.159,26.405,47.871c0,7.671-3.291,14.586-8.531,19.415H42.729C37.488,146.396,34.197,139.481,34.197,131.81z
	 M278.262,182.143h-6.09c-3.549,0-6.793,2.005-8.38,5.18l-12.87,25.738h-19.337l-12.87-25.738c-1.587-3.175-4.831-5.18-8.38-5.18
	h-30.918c-3.549,0-6.793,2.005-8.38,5.18l-12.87,25.738h-19.337l-12.87-25.738c-1.587-3.175-4.831-5.18-8.38-5.18H86.664
	c-3.549,0-6.793,2.005-8.38,5.18l-12.87,25.738H46.078l-12.87-25.738c-1.587-3.175-4.831-5.18-8.38-5.18h-6.09v-12.18h259.524
	V182.143z"/>
<g>
</g>
<g>
</g>
<g>
</g>
<g>
</g>
<g>
</g>
<g>
</g>
<g>
</g>
<g>
</g>
<g>
</g>
<g>
</g>
<g>
</g>
<g>
</g>
<g>
</g>
<g>
</g>
<g>
</g>
</svg>
