<?xml version="1.0" encoding="iso-8859-1"?>
<!-- Generator: Adobe Illustrator 18.0.0, SVG Export Plug-In . SVG Version: 6.00 Build 0)  -->
<!DOCTYPE svg PUBLIC "-//W3C//DTD SVG 1.1//EN" "http://www.w3.org/Graphics/SVG/1.1/DTD/svg11.dtd">
<svg version="1.1" id="Capa_1" xmlns="http://www.w3.org/2000/svg" xmlns:xlink="http://www.w3.org/1999/xlink" x="0px" y="0px"
	 viewBox="0 0 297 297" style="enable-background:new 0 0 297 297;" xml:space="preserve">

<path d="M285.387,150.23c5.458,0,9.884-4.425,9.884-9.884V79.507c0-5.458-4.425-9.884-9.884-9.884h-0.933V26.191
	c0-3.643-2.004-6.99-5.214-8.711L248.82,1.173c-2.917-1.564-6.422-1.564-9.339,0l-30.419,16.308
	c-3.21,1.721-5.214,5.068-5.214,8.711v43.433h-15.045V26.191c0-3.643-2.004-6.99-5.214-8.711L153.17,1.173
	c-2.917-1.564-6.422-1.564-9.339,0l-30.419,16.308c-3.21,1.721-5.214,5.068-5.214,8.711v43.433H93.152V26.191
	c0-3.643-2.004-6.99-5.214-8.711L57.519,1.173c-2.916-1.563-6.421-1.564-9.339,0L17.76,17.481c-3.21,1.721-5.214,5.068-5.214,8.711
	v43.433h-0.933c-5.458,0-9.884,4.425-9.884,9.884v60.839c0,5.458,4.425,9.884,9.884,9.884h0.933v32.657h-0.933
	c-5.458,0-9.884,4.425-9.884,9.884v60.839c0,5.458,4.425,9.884,9.884,9.884h0.933v23.624c0,5.458,4.425,9.884,9.884,9.884h60.839
	c5.458,0,9.884-4.425,9.884-9.884v-23.624h15.045v23.624c0,5.458,4.425,9.884,9.884,9.884h60.838c5.458,0,9.884-4.425,9.884-9.884
	v-23.624h15.045v23.624c0,5.458,4.425,9.884,9.884,9.884h60.839c5.458,0,9.884-4.425,9.884-9.884v-23.624h0.933
	c5.458,0,9.884-4.425,9.884-9.884V192.77c0-5.458-4.425-9.884-9.884-9.884h-0.933V150.23H285.387z M275.503,202.654v41.072H21.497
	v-41.072H275.503z M108.198,150.23v32.657H93.152V150.23H108.198z M127.965,182.887V150.23h41.071v32.657H127.965z
	 M188.802,182.887V150.23h15.045v32.657H188.802z M21.497,130.463V89.391h254.007v41.072H21.497z M223.615,32.107l20.535-11.009
	l20.536,11.009v37.517h-41.072V32.107z M127.965,32.107L148.5,21.098l20.535,11.009v37.517h-41.071V32.107z M32.314,32.107
	L52.85,21.098l20.535,11.009v37.517H32.314V32.107z M32.314,150.23h41.072v32.657H32.314V150.23z M73.385,277.233H32.314v-13.74
	h41.072V277.233z M169.035,277.233h-41.071v-13.74h41.071V277.233z M264.686,277.233h-41.072v-13.74h41.072V277.233z
	 M264.686,182.887h-41.072V150.23h41.072V182.887z"/>
<path d="M56.583,99.55c-5.723,0-10.378,4.655-10.378,10.378c0,5.723,4.655,10.378,10.378,10.378s10.378-4.655,10.378-10.378
	C66.961,104.205,62.306,99.55,56.583,99.55z"/>
<path d="M148.5,99.55c-5.723,0-10.378,4.655-10.378,10.378c0,5.723,4.655,10.378,10.378,10.378s10.378-4.655,10.378-10.378
	C158.878,104.205,154.223,99.55,148.5,99.55z"/>
<path d="M240.417,99.55c-5.723,0-10.378,4.655-10.378,10.378c0,5.723,4.655,10.378,10.378,10.378
	c5.723,0,10.378-4.655,10.378-10.378C250.795,104.205,246.139,99.55,240.417,99.55z"/>
<path d="M56.583,233.567c5.723,0,10.378-4.655,10.378-10.378c0-5.723-4.655-10.378-10.378-10.378s-10.378,4.655-10.378,10.378
	C46.205,228.912,50.861,233.567,56.583,233.567z"/>
<path d="M148.5,233.567c5.723,0,10.378-4.655,10.378-10.378c0-5.723-4.655-10.378-10.378-10.378s-10.378,4.655-10.378,10.378
	C138.122,228.912,142.777,233.567,148.5,233.567z"/>
<path d="M240.417,233.567c5.723,0,10.378-4.655,10.378-10.378c0-5.723-4.655-10.378-10.378-10.378
	c-5.723,0-10.378,4.655-10.378,10.378C230.039,228.912,234.694,233.567,240.417,233.567z"/>

</svg>
