<?xml version="1.0" encoding="iso-8859-1"?>
<!-- Generator: Adobe Illustrator 18.0.0, SVG Export Plug-In . SVG Version: 6.00 Build 0)  -->
<!DOCTYPE svg PUBLIC "-//W3C//DTD SVG 1.1//EN" "http://www.w3.org/Graphics/SVG/1.1/DTD/svg11.dtd">
<svg version="1.1" id="Capa_1" xmlns="http://www.w3.org/2000/svg" xmlns:xlink="http://www.w3.org/1999/xlink" x="0px" y="0px"
	 viewBox="0 0 297 297" style="enable-background:new 0 0 297 297;" xml:space="preserve">

<path d="M148.499,41.925c5.174,0,9.369-4.195,9.369-9.369V17.097c0-5.174-4.195-9.369-9.369-9.369
	c-5.174,0-9.369,4.195-9.369,9.369v15.459C139.13,37.73,143.325,41.925,148.499,41.925z"/>
<path d="M203.774,52.232c2.464,0,4.881-1.003,6.623-2.746c1.743-1.742,2.746-4.159,2.746-6.623c0-2.464-1.003-4.881-2.746-6.624
	c-1.742-1.743-4.15-2.745-6.623-2.745c-2.464,0-4.881,1.002-6.624,2.745c-1.743,1.743-2.745,4.16-2.745,6.624
	c0,2.464,1.002,4.881,2.745,6.623C198.902,51.229,201.31,52.232,203.774,52.232z"/>
<path d="M93.219,52.232c2.464,0,4.881-1.003,6.623-2.746c1.752-1.742,2.746-4.159,2.746-6.623c0-2.464-0.994-4.881-2.746-6.624
	c-1.742-1.743-4.15-2.745-6.623-2.745c-2.464,0-4.881,1.002-6.624,2.745c-1.743,1.743-2.745,4.16-2.745,6.624
	c0,2.464,1.002,4.881,2.745,6.623C88.347,51.229,90.755,52.232,93.219,52.232z"/>
<path d="M241.254,88.303c2.398,0,4.795-0.915,6.625-2.744l10.931-10.931c3.659-3.659,3.659-9.591,0-13.25
	c-3.66-3.658-9.591-3.658-13.25,0l-10.931,10.931c-3.659,3.659-3.659,9.591,0,13.25C236.458,87.388,238.855,88.303,241.254,88.303z
	"/>
<path d="M49.12,85.559c1.83,1.829,4.227,2.744,6.625,2.744c2.398,0,4.795-0.915,6.625-2.744c3.659-3.659,3.659-9.591,0-13.25
	L51.44,61.377c-3.66-3.658-9.591-3.658-13.25,0c-3.659,3.659-3.659,9.591,0,13.25L49.12,85.559z"/>
<path d="M294.256,195.981l-45.842-45.842h39.217c5.174,0,9.369-4.195,9.369-9.369c0-5.174-4.195-9.369-9.369-9.369h-40.077
	c-5.348-21.363-17.667-40.7-34.9-54.631c-18.079-14.615-40.863-22.664-64.154-22.664s-46.074,8.049-64.154,22.664
	c-17.233,13.931-29.552,33.267-34.9,54.631H24.828c-5.174,0-9.369,4.195-9.369,9.369c0,5.174,4.195,9.369,9.369,9.369h23.757
	L2.744,195.981c-3.659,3.659-3.658,9.591,0,13.25c1.829,1.829,4.227,2.744,6.625,2.744s4.795-0.915,6.625-2.744l59.091-59.092
	h11.115L16.638,275.351c-2.513,4.524-0.884,10.227,3.64,12.74c1.441,0.801,3.002,1.181,4.542,1.181
	c3.292,0,6.486-1.738,8.198-4.821l74.618-134.312h13.726l-28.384,127.73c-1.123,5.051,2.062,10.055,7.114,11.178
	c0.684,0.152,1.368,0.225,2.041,0.225c4.295,0,8.167-2.972,9.137-7.339l29.288-131.794h15.886l29.288,131.794
	c0.97,4.367,4.842,7.339,9.137,7.339c0.673,0,1.357-0.073,2.041-0.225c5.051-1.123,8.236-6.127,7.114-11.178l-28.384-127.73h13.726
	l74.618,134.312c1.712,3.082,4.906,4.821,8.198,4.821c1.54,0,3.101-0.381,4.542-1.181c4.524-2.512,6.153-8.216,3.64-12.74
	l-69.562-125.212h11.114l59.092,59.092c1.83,1.829,4.227,2.744,6.625,2.744c2.398,0,4.795-0.915,6.625-2.744
	C297.915,205.572,297.915,199.639,294.256,195.981z M68.879,131.4c10.74-34.784,42.601-58.557,79.621-58.557
	S217.38,96.616,228.12,131.4H68.879z"/>

</svg>
