<?xml version="1.0" encoding="iso-8859-1"?>
<!-- Generator: Adobe Illustrator 19.0.0, SVG Export Plug-In . SVG Version: 6.00 Build 0)  -->
<svg version="1.1" id="Capa_1" xmlns="http://www.w3.org/2000/svg" xmlns:xlink="http://www.w3.org/1999/xlink" x="0px" y="0px"
	 viewBox="0 0 459.527 459.527" style="enable-background:new 0 0 459.527 459.527;" xml:space="preserve">
<g>
	<path d="M412.027,66.276h-22.556L269.437,18.262c-26.704-10.682-56.116-10.682-82.82,0L66.583,66.276H47.499
		c-13.246,0-25.986,5.59-34.955,15.337C3.576,91.36-0.937,104.521,0.163,117.721l2.276,27.313
		c0.717,8.609,5.003,16.634,11.759,22.019c6.109,4.868,13.873,7.275,21.627,6.791L23.438,390.61
		c-0.88,15.401,4.469,30.06,15.062,41.275c10.592,11.215,24.922,17.392,40.348,17.392h298.358c15.427,0,29.756-6.176,40.348-17.391
		c10.593-11.215,15.941-25.874,15.062-41.275L419.98,169.495l0.407,0.102c9.475,2.37,19.327,0.281,27.025-5.731
		c7.699-6.011,12.114-15.061,12.114-24.829v-25.261C459.527,87.584,438.218,66.276,412.027,66.276z M192.188,32.189
		c23.11-9.244,48.567-9.244,71.678,0l85.217,34.087H106.971L192.188,32.189z M417.64,391.465
		c0.642,11.239-3.261,21.936-10.991,30.12s-18.186,12.691-29.443,12.691H78.848c-11.257,0-21.713-4.507-29.443-12.691
		c-7.729-8.184-11.633-18.881-10.991-30.12l12.553-219.676l66.077-9.44c4.711-0.674,9.5-0.748,14.23-0.222l123.794,13.755
		c2.648,0.294,5.295,0.441,7.936,0.441c6.327,0,12.614-0.843,18.773-2.523l60.087-16.388c9.321-2.542,19.2-2.646,28.57-0.304
		l34.304,8.576L417.64,391.465z M444.527,139.037c0,5.116-2.313,9.857-6.346,13.005c-4.032,3.148-9.191,4.245-14.156,3.002v0
		l-49.953-12.488c-11.858-2.966-24.361-2.832-36.154,0.384l-60.087,16.388c-6.898,1.881-13.998,2.434-21.105,1.646L132.93,147.219
		c-2.623-0.292-5.259-0.437-7.895-0.437c-3.381,0-6.762,0.24-10.112,0.718l-78.76,11.251c-4.542,0.65-9.026-0.569-12.617-3.43
		c-3.591-2.862-5.778-6.958-6.159-11.534l-0.593-7.116l76.997-10.999c20.229-2.89,40.813-3.561,61.182-1.993l72.479,5.575
		c4.136,0.322,7.735-2.773,8.053-6.903c0.317-4.13-2.773-7.735-6.903-8.053l-72.479-5.575c-21.459-1.652-43.145-0.945-64.454,2.1
		l-76.123,10.875l-0.435-5.222c-0.764-9.164,2.245-17.938,8.472-24.705c6.227-6.768,14.72-10.494,23.916-10.494h364.528
		c17.92,0,32.5,14.58,32.5,32.5V139.037z"/>
	<path d="M423.381,115.068l-16-8c-3.703-1.852-8.209-0.351-10.062,3.354s-0.351,8.21,3.354,10.062l16,8
		c1.077,0.539,2.221,0.793,3.348,0.793c2.751,0,5.4-1.52,6.714-4.147C428.588,121.425,427.086,116.92,423.381,115.068z"/>
	<path d="M372.027,98.276h-0.364c-16.297,0-32.576,2.004-48.386,5.957l-9.069,2.267c-4.019,1.005-6.462,5.077-5.458,9.095
		c0.852,3.408,3.91,5.683,7.271,5.683c0.602,0,1.214-0.073,1.825-0.226l9.07-2.268c14.621-3.655,29.676-5.509,44.748-5.509h0.364
		c4.142,0,7.5-3.358,7.5-7.5S376.169,98.276,372.027,98.276z"/>
	<path d="M375.23,210.202c0.228,3.99,3.535,7.072,7.481,7.072c0.144,0,0.289-0.004,0.435-0.012c4.136-0.236,7.296-3.78,7.06-7.916
		l-0.898-15.714c-0.236-4.135-3.777-7.297-7.916-7.06c-4.136,0.236-7.296,3.78-7.06,7.916L375.23,210.202z"/>
	<path d="M384.119,234.29c-4.136,0.236-7.296,3.78-7.06,7.916l5.942,103.993c0.228,3.99,3.535,7.072,7.481,7.072
		c0.144,0,0.289-0.004,0.435-0.012c4.136-0.236,7.296-3.78,7.06-7.916l-5.942-103.993
		C391.798,237.215,388.248,234.061,384.119,234.29z"/>
	<path d="M272.027,269.276c1.919,0,3.839-0.732,5.303-2.197l20-20c2.929-2.929,2.929-7.678,0-10.606
		c-2.929-2.929-7.678-2.929-10.606,0l-20,20c-2.929,2.929-2.929,7.678,0,10.606C268.188,268.543,270.108,269.276,272.027,269.276z"
		/>
	<path d="M257.33,276.473c-2.929-2.929-7.678-2.929-10.606,0l-92,92c-2.929,2.929-2.929,7.678,0,10.606
		c1.464,1.464,3.384,2.197,5.303,2.197s3.839-0.732,5.303-2.197l92-92C260.259,284.15,260.259,279.401,257.33,276.473z"/>
	<path d="M196.027,313.276c4.142,0,7.5-3.358,7.5-7.5v-24c0-4.142-3.358-7.5-7.5-7.5s-7.5,3.358-7.5,7.5v24
		C188.527,309.918,191.885,313.276,196.027,313.276z"/>
	<path d="M252.027,330.276h-24c-4.142,0-7.5,3.358-7.5,7.5s3.358,7.5,7.5,7.5h24c4.142,0,7.5-3.358,7.5-7.5
		S256.169,330.276,252.027,330.276z"/>
	<path d="M172.027,337.276c4.142,0,7.5-3.358,7.5-7.5v-24c0-4.142-3.358-7.5-7.5-7.5s-7.5,3.358-7.5,7.5v24
		C164.527,333.918,167.885,337.276,172.027,337.276z"/>
	<path d="M228.027,354.276h-24c-4.142,0-7.5,3.358-7.5,7.5s3.358,7.5,7.5,7.5h24c4.142,0,7.5-3.358,7.5-7.5
		S232.169,354.276,228.027,354.276z"/>
	<path d="M220.027,289.276c4.142,0,7.5-3.358,7.5-7.5v-24c0-4.142-3.358-7.5-7.5-7.5s-7.5,3.358-7.5,7.5v24
		C212.527,285.918,215.885,289.276,220.027,289.276z"/>
	<path d="M276.027,306.276h-24c-4.142,0-7.5,3.358-7.5,7.5s3.358,7.5,7.5,7.5h24c4.142,0,7.5-3.358,7.5-7.5
		S280.169,306.276,276.027,306.276z"/>
	<path d="M244.027,265.276c4.142,0,7.5-3.358,7.5-7.5v-24c0-4.142-3.358-7.5-7.5-7.5s-7.5,3.358-7.5,7.5v24
		C236.527,261.918,239.885,265.276,244.027,265.276z"/>
	<path d="M300.027,282.276h-24c-4.142,0-7.5,3.358-7.5,7.5s3.358,7.5,7.5,7.5h24c4.142,0,7.5-3.358,7.5-7.5
		S304.169,282.276,300.027,282.276z"/>
</g>
<g>
</g>
<g>
</g>
<g>
</g>
<g>
</g>
<g>
</g>
<g>
</g>
<g>
</g>
<g>
</g>
<g>
</g>
<g>
</g>
<g>
</g>
<g>
</g>
<g>
</g>
<g>
</g>
<g>
</g>
</svg>
