<?xml version="1.0" encoding="iso-8859-1"?>
<!-- Generator: Adobe Illustrator 18.0.0, SVG Export Plug-In . SVG Version: 6.00 Build 0)  -->
<!DOCTYPE svg PUBLIC "-//W3C//DTD SVG 1.1//EN" "http://www.w3.org/Graphics/SVG/1.1/DTD/svg11.dtd">
<svg version="1.1" id="Capa_1" xmlns="http://www.w3.org/2000/svg" xmlns:xlink="http://www.w3.org/1999/xlink" x="0px" y="0px"
	 viewBox="0 0 297 297" style="enable-background:new 0 0 297 297;" xml:space="preserve">
<g>
	<path d="M241.563,74.983C230.213,33.473,192.12,4.011,148.5,4.011c-44.623,0-83.043,30.409-93.621,73.158
		C22.267,87.593,0,117.727,0,152.511c0,43.644,35.507,79.151,79.151,79.151h21.423c-0.775,13.914-3.965,29.902-10.942,47.999
		c-1.162,3.015-0.764,6.409,1.064,9.073c1.827,2.664,4.851,4.256,8.082,4.256h86.488c2.926,0,5.699-1.308,7.562-3.565
		c1.862-2.258,2.618-5.229,2.061-8.102c-5.286-27.271-7.239-49.293-7.209-66.998h38.837c38.864,0,70.482-31.618,70.482-70.482
		C297,110.388,273.613,81.928,241.563,74.983z M112.561,273.385c12.642-40.807,7.658-71.474,0.735-90.663
		c-0.68-1.885-1.39-3.695-2.122-5.433l26.276,12.419c3.213,1.519,6.997,1.178,9.888-0.887l25.409-18.16
		c-6.564,26.592-6.303,61.061,0.773,102.725H112.561z M226.518,194.721h-37.9c3.589-35.908,16.243-46.943,16.857-47.452
		c4.305-3.152,5.302-9.18,2.221-13.553c-3.104-4.404-9.179-5.478-13.604-2.406c-0.031,0.021-0.067,0.047-0.108,0.077l-53.36,38.138
		l-52.068-24.61c-4.399-2.08-9.656-0.618-12.351,3.435c-2.694,4.051-2.008,9.465,1.61,12.718
		c0.28,0.252,18.415,17.083,22.252,50.991H79.151c-32.835,0-59.547-26.712-59.547-59.547c0-27.767,18.858-51.596,45.859-57.947
		c3.802-0.894,6.709-3.959,7.402-7.802c6.598-36.59,38.408-63.147,75.635-63.147c36.599,0,68.312,26.018,75.407,61.865
		c0.827,4.181,4.262,7.348,8.495,7.835c25.651,2.95,44.993,24.672,44.993,50.527C277.396,171.896,254.572,194.721,226.518,194.721z"
		/>
	<path d="M147.275,57.832c-9.864,0-17.889,8.024-17.889,17.889s8.024,17.889,17.889,17.889s17.889-8.024,17.889-17.889
		S157.139,57.832,147.275,57.832z"/>
	<path d="M50.235,122.525c-9.864,0-17.889,8.024-17.889,17.889c0,9.864,8.024,17.889,17.889,17.889s17.889-8.024,17.889-17.889
		C68.124,130.549,60.099,122.525,50.235,122.525z"/>
	<path d="M230.592,106.351c-9.864,0-17.889,8.024-17.889,17.889s8.024,17.889,17.889,17.889s17.889-8.024,17.889-17.889
		S240.456,106.351,230.592,106.351z"/>
	<path d="M114.928,106.351c-9.864,0-17.889,8.024-17.889,17.889s8.024,17.889,17.889,17.889s17.889-8.024,17.889-17.889
		S124.792,106.351,114.928,106.351z"/>
	<path d="M236.228,251.911c-9.864,0-17.889,8.024-17.889,17.889s8.024,17.889,17.889,17.889s17.889-8.024,17.889-17.889
		S246.092,251.911,236.228,251.911z"/>
</g>
<g>
</g>
<g>
</g>
<g>
</g>
<g>
</g>
<g>
</g>
<g>
</g>
<g>
</g>
<g>
</g>
<g>
</g>
<g>
</g>
<g>
</g>
<g>
</g>
<g>
</g>
<g>
</g>
<g>
</g>
</svg>
