<?xml version="1.0" encoding="iso-8859-1"?>
<!-- Generator: Adobe Illustrator 18.0.0, SVG Export Plug-In . SVG Version: 6.00 Build 0)  -->
<!DOCTYPE svg PUBLIC "-//W3C//DTD SVG 1.1//EN" "http://www.w3.org/Graphics/SVG/1.1/DTD/svg11.dtd">
<svg version="1.1" id="Capa_1" xmlns="http://www.w3.org/2000/svg" xmlns:xlink="http://www.w3.org/1999/xlink" x="0px" y="0px"
	 viewBox="0 0 297 297" style="enable-background:new 0 0 297 297;" xml:space="preserve">
<path d="M267.134,116.176c-24.467-8.678-42.398-2.06-53.305,5.255c1.155-16.408,5.716-38.029,20.48-51.725
	c4.011-3.72,4.246-9.988,0.525-13.998c-3.719-4.01-9.988-4.246-13.998-0.525c-19.791,18.358-25.549,45.698-26.861,65.722
	c-10.974-7.099-28.626-13.197-52.507-4.729c-6.398,2.269-11.877,5.947-16.332,10.839c-7.125-19.005-19.44-40.58-40.553-61.533
	c-1.226-6.169-4.945-17.55-16.09-24.04c-11.754-6.845-27.411-5.656-46.534,3.53c-4.783,2.297-6.905,7.954-4.815,12.831
	c1.188,2.772,12.202,27.207,32.725,31.34c1.713,0.345,3.639,0.572,5.744,0.572c2.706,0,5.707-0.375,8.929-1.353
	c-2.152,26.382-9.008,66.306-26.501,86.633C16.689,177.273,0,195.393,0,217.341c0,23.486,19.108,42.594,42.594,42.594
	c19.318,0,35.664-12.932,40.86-30.591c5.197,17.659,21.542,30.591,40.86,30.591c10.66,0,20.404-3.952,27.88-10.45
	c2.909,1.74,5.902,3.209,8.968,4.352c18.377,6.846,35.783,3.269,43.139,1.134c4.14,1.201,11.463,2.86,20.352,2.859
	c6.904,0,14.755-1,22.788-3.993c14.697-5.475,27.831-18.057,36.984-35.43c8.123-15.416,12.705-33.908,12.572-50.736
	C296.792,141.604,285.908,122.834,267.134,116.176z M53.808,69.727c-5.14-1.021-9.887-6.013-13.344-10.899
	c7.764-2.453,13.981-2.591,17.976-0.315c3.243,1.848,5.003,5.227,5.943,8.006C60.54,69.283,57,70.361,53.808,69.727z
	 M42.594,240.124c-12.563,0-22.783-10.22-22.783-22.783c0-12.563,10.22-22.783,22.783-22.783s22.783,10.22,22.783,22.783
	C65.377,229.904,55.157,240.124,42.594,240.124z M83.453,205.335c-3.531-11.994-12.206-21.798-23.464-26.858
	c15.814-24.962,21.709-60.672,23.901-84.178c13.345,16.76,22.517,35.173,27.35,54.964c0.516,2.111,0.955,4.152,1.335,6.12
	c-0.603,3.884-0.934,7.984-0.968,12.288c-0.023,2.927,0.105,5.907,0.361,8.91C98.282,180.734,87.497,191.604,83.453,205.335z
	 M101.532,217.341c0-9.446,5.79-17.541,13.998-20.988c2.11,7.683,5.024,15.176,8.649,22.054c3.588,6.809,7.794,12.869,12.459,18.067
	c-3.556,2.3-7.781,3.649-12.323,3.649C111.752,240.124,101.532,229.904,101.532,217.341z M240.525,235.272
	c-16.307,6.08-32.225,0.204-32.619,0.056c-2.332-0.912-4.922-0.905-7.25,0.016c-0.158,0.062-16.162,6.044-32.577-0.073
	c-22.907-8.533-36.865-41.653-36.662-67.444c0.065-8.161,1.818-27.711,16.675-32.98c5.576-1.977,10.891-2.965,15.927-2.965
	c7.104,0,13.65,1.967,19.567,5.895c7.973,5.292,12.027,12.334,12.035,12.346c1.741,3.166,5.051,5.163,8.664,5.163
	c3.614,0,6.924-1.939,8.664-5.106c0.041-0.07,4.095-7.111,12.068-12.403c10.11-6.712,22.053-7.698,35.495-2.93
	c14.857,5.269,16.61,24.819,16.675,32.98C277.39,193.619,263.431,226.739,240.525,235.272z"/>
<g>
</g>
<g>
</g>
<g>
</g>
<g>
</g>
<g>
</g>
<g>
</g>
<g>
</g>
<g>
</g>
<g>
</g>
<g>
</g>
<g>
</g>
<g>
</g>
<g>
</g>
<g>
</g>
<g>
</g>
</svg>
