<?xml version="1.0" encoding="iso-8859-1"?>
<!-- Generator: Adobe Illustrator 18.0.0, SVG Export Plug-In . SVG Version: 6.00 Build 0)  -->
<!DOCTYPE svg PUBLIC "-//W3C//DTD SVG 1.1//EN" "http://www.w3.org/Graphics/SVG/1.1/DTD/svg11.dtd">
<svg version="1.1" id="Capa_1" xmlns="http://www.w3.org/2000/svg" xmlns:xlink="http://www.w3.org/1999/xlink" x="0px" y="0px"
	 viewBox="0 0 297 297" style="enable-background:new 0 0 297 297;" xml:space="preserve">
<path d="M297,196.078v-49.729c0-5.548-4.498-10.046-10.046-10.046h-51.637c-10.397-25.116-23.203-50.088-30.193-61.189
	c-8.231-13.073-16.863-20.666-26.388-23.215c-4.919-1.317-9.891-1.264-15.01,0.156c-7.164-20.311-6.602-32.942-6.582-33.333
	c0.377-5.506-3.762-10.291-9.274-10.703c-5.513-0.391-10.353,3.736-10.767,9.27c-0.04,0.537-0.633,9.504,2.718,24.366
	c-13.573-10.323-23.095-13.71-23.635-13.897c-5.244-1.812-11,0.956-12.813,6.199s0.933,10.953,6.177,12.766
	c0.137,0.05,13.46,5.009,30.843,21.951c-1.926,3.022-3.22,6.282-3.883,9.815c-1.818,9.691,1.3,20.756,9.531,33.829
	c3.565,5.66,9.735,14.248,17.327,23.983h-14.138c-1.783-2.688-3.685-5.48-5.722-8.387c-15.994-22.823-34.751-45.266-44.28-54.796
	C82.882,56.775,67.635,52.336,53.753,59.815C42.254,41.578,40.007,29.127,39.944,28.758c-0.855-5.453-5.957-9.195-11.416-8.38
	c-5.487,0.823-9.268,5.939-8.445,11.426c0.05,0.336,0.63,3.986,2.69,10.074c-5.602-3.135-9.081-4.372-9.401-4.482
	c-5.245-1.812-11,0.956-12.813,6.199S1.491,54.547,6.735,56.36c0.134,0.049,12.879,4.795,29.699,20.849
	c-2.444,4.615-3.56,9.387-3.369,14.405c0.375,9.853,5.866,19.953,16.789,30.876c3.536,3.536,8.857,8.346,15.31,13.812H38.307
	c-5.548,0-10.046,4.498-10.046,10.046v49.729c0,4.947,3.58,9.05,8.288,9.883v13.387c-4.708,0.833-8.288,4.936-8.288,9.883v49.729
	c0,5.548,4.498,10.046,10.046,10.046h248.647c5.548,0,10.046-4.498,10.046-10.046v-49.729c0-4.947-3.58-9.05-8.288-9.883v-13.387
	C293.42,205.128,297,201.025,297,196.078z M56.641,219.185v-13.06h211.978v13.06H56.641z M176.807,120.845l4.342-2.734
	c3.286-2.07,4.273-6.412,2.204-9.699c-2.071-3.286-6.41-4.272-9.699-2.204l-5.255,3.309c-2.178-3.06-3.992-5.739-5.356-7.904
	c-6.641-10.547-7.355-16.381-6.785-19.419c0.358-1.909,1.479-4.547,7.012-8.031c3.901-2.457,6.475-3.117,8.312-3.117
	c0.768,0,1.408,0.116,1.961,0.264c2.985,0.799,7.938,3.964,14.579,14.509c4.569,7.256,12.126,21.514,19.77,38.007l-5.732,3.61
	c-3.015,1.9-4.087,5.711-2.645,8.866h-10.372C184.684,130.913,180.517,125.676,176.807,120.845z M121.256,131.363
	c0.682,0.931,1.362,1.865,2.04,2.804c0.526,0.729,1.022,1.428,1.527,2.136h-9.313c0.86-0.343,1.667-0.861,2.363-1.557
	L121.256,131.363z M81.743,123.989l3.63-3.631c2.746-2.746,2.746-7.199-0.001-9.945c-2.745-2.745-7.198-2.746-9.945,0.001
	l-4.39,4.39c-2.801-2.502-5.165-4.713-6.975-6.522C55.25,99.471,53.26,93.94,53.143,90.851c-0.074-1.941,0.435-4.761,5.058-9.385
	c2.44-2.439,5.039-5.039,9.04-5.039c4.057,0,9.553,2.674,17.778,10.9c6.063,6.063,16.591,18.291,27.7,32.681l-4.79,4.79
	c-2.746,2.747-2.746,7.199,0,9.946c0.696,0.696,1.503,1.214,2.363,1.557H97.158C91.633,132.045,86.42,127.869,81.743,123.989z
	 M48.353,156.395h228.554v29.637H48.353V156.395z M276.907,268.914H48.353v-29.637h228.554V268.914z"/>

</svg>
