<?xml version="1.0" encoding="iso-8859-1"?>
<!-- Generator: Adobe Illustrator 18.0.0, SVG Export Plug-In . SVG Version: 6.00 Build 0)  -->
<!DOCTYPE svg PUBLIC "-//W3C//DTD SVG 1.1//EN" "http://www.w3.org/Graphics/SVG/1.1/DTD/svg11.dtd">
<svg version="1.1" id="Capa_1" xmlns="http://www.w3.org/2000/svg" xmlns:xlink="http://www.w3.org/1999/xlink" x="0px" y="0px"
	 viewBox="0 0 297 297" style="enable-background:new 0 0 297 297;" xml:space="preserve">
<path d="M291.636,40.293L274.38,5.782c-1.624-3.248-4.815-5.421-8.432-5.741c-3.615-0.325-7.141,1.258-9.309,4.17
	c-1.065,1.43-26.271,35.608-43.446,87.956c-5.034,15.342-8.842,30.669-11.425,45.875h-9.156c2.506-17.134,6.049-32.408,9.817-45.418
	c13.677-47.217,33.098-75.974,33.292-76.259c2.191-3.199,2.432-7.348,0.625-10.779c-1.809-3.436-5.371-5.586-9.254-5.586h-51.766
	c-4.146,0-7.9,2.449-9.571,6.244c-0.62,1.408-15.287,35.096-23.842,86.957c-2.176,13.189-4.037,28.299-5.05,44.84h-9.673
	c0.754-14.804,2.285-28.39,4.14-40.33c7.695-49.53,22.309-82.657,22.456-82.986c1.633-3.652,1.04-7.916-1.53-10.984
	c-2.571-3.07-6.667-4.4-10.554-3.43L72.682,17.569c-5.296,1.324-8.683,6.499-7.776,11.882c0.14,0.826,7.983,47.977,13.416,108.592
	h-4.071c-1.264-11.491-2.836-21.796-4.5-30.784C61.89,64.815,50.583,41.358,50.106,40.381c-1.597-3.269-4.777-5.474-8.399-5.821
	c-3.629-0.349-7.163,1.212-9.353,4.119L6.364,73.189c-2.51,3.333-2.798,7.841-0.732,11.468c0.211,0.37,10.655,19.215,17.865,53.386
	h-0.043c-5.775,0-10.458,4.682-10.458,10.458v51.766c0,5.775,4.682,10.458,10.458,10.458h6.714
	c-0.366,22.07-2.799,46.709-8.432,73.681c-0.643,3.082,0.136,6.29,2.121,8.733c1.986,2.444,4.967,3.862,8.116,3.862h25.991
	c5.064,0,9.402-3.63,10.294-8.615c5.027-28.082,7.569-54.065,8.454-77.661h6.172c0.837,25.512,0.759,51.179-0.844,75.12
	c-0.194,2.888,0.819,5.727,2.796,7.842C86.814,295.8,89.579,297,92.474,297h47.583c3.464,0,6.705-1.716,8.651-4.582
	c1.947-2.866,2.347-6.51,1.07-9.731c-9.717-24.503-15.741-48.788-19.193-71.963h8.071c2.901,25.372,8.465,52.125,17.906,79.256
	c1.462,4.203,5.426,7.02,9.877,7.02h26.144c3.286,0,6.382-1.545,8.358-4.172c1.975-2.627,2.601-6.03,1.689-9.187
	c-7.397-25.617-11.331-50.072-12.861-72.917h9.274c2.803,27.832,10.148,54.721,21.988,80.222c1.715,3.692,5.415,6.054,9.485,6.054
	h34.51c3.431,0,6.644-1.683,8.598-4.504c1.953-2.822,2.398-6.421,1.191-9.633c-8.644-22.999-12.42-47.705-13.131-72.14h3.342
	c5.775,0,10.458-4.682,10.458-10.458V148.5c0-4.978-3.482-9.137-8.142-10.192c8.738-50.549,24.299-88.61,24.592-89.316
	C293.104,46.188,292.995,43.011,291.636,40.293z M254.569,158.958v30.85H33.911v-30.85H254.569z M162.444,97.25
	c6.033-36.908,15.497-64.559,19.963-76.333h26.408c-7.412,13.868-17.768,36.095-26.228,65.041
	c-4.322,14.79-8.377,32.322-11.1,52.085h-13.661C158.792,123.043,160.475,109.295,162.444,97.25z M87.062,35.533l40.327-10.081
	c-5.182,15.297-12.001,38.958-16.617,68.353c-2.05,13.051-3.735,27.958-4.52,44.238h-6.834
	C95.316,91.575,89.741,52.855,87.062,35.533z M43.698,132.295c-5.486-25.393-12.66-42.979-16.727-51.701l10.794-14.332
	c3.566,10.587,7.99,26.018,11.594,45.758c1.404,7.691,2.739,16.39,3.85,26.024h-8.337C44.487,136.071,44.097,134.14,43.698,132.295z
	 M49.143,276.085H44.65c4.24-23.753,6.09-45.625,6.398-65.361h4.727C54.992,230.763,52.975,252.599,49.143,276.085z
	 M125.034,276.085h-21.485c1.025-21.25,1.001-43.399,0.314-65.361h5.588C112.404,231.791,117.343,253.773,125.034,276.085z
	 M178.943,276.085h-4.983c-7.211-22.319-11.691-44.316-14.233-65.361h9.073C170.105,231.366,173.251,253.249,178.943,276.085z
	 M250.52,276.085h-13.227c-9.077-21.059-14.845-42.877-17.333-65.361h20.824C241.389,232.338,244.211,254.61,250.52,276.085z
	 M248.555,124.266c-0.862,4.396-1.691,9.008-2.474,13.777h-23.127c2.358-12.745,5.649-25.652,9.904-38.714
	c9.696-29.767,22.387-53.6,30.972-67.88l7.008,14.017C266.646,56.383,256.065,85.957,248.555,124.266z"/>

</svg>
