<?xml version="1.0" encoding="iso-8859-1"?>
<!-- Generator: Adobe Illustrator 18.0.0, SVG Export Plug-In . SVG Version: 6.00 Build 0)  -->
<!DOCTYPE svg PUBLIC "-//W3C//DTD SVG 1.1//EN" "http://www.w3.org/Graphics/SVG/1.1/DTD/svg11.dtd">
<svg version="1.1" id="Capa_1" xmlns="http://www.w3.org/2000/svg" xmlns:xlink="http://www.w3.org/1999/xlink" x="0px" y="0px"
	 viewBox="0 0 297 297" style="enable-background:new 0 0 297 297;" xml:space="preserve">
<g>
	<path d="M117.614,197.423c0-23.434-19.065-42.499-42.499-42.499s-42.499,19.065-42.499,42.499s19.065,42.499,42.499,42.499
		S117.614,220.857,117.614,197.423z M52.383,197.423c0-12.535,10.197-22.732,22.732-22.732s22.732,10.197,22.732,22.732
		s-10.197,22.732-22.732,22.732S52.383,209.958,52.383,197.423z"/>
	<path d="M85.018,197.423c0-5.458-4.424-9.884-9.884-9.884h-0.01c-5.458,0-9.879,4.425-9.879,9.884s4.43,9.884,9.888,9.884
		C80.593,207.307,85.018,202.882,85.018,197.423z"/>
	<path d="M205.577,239.923c23.434,0,42.499-19.065,42.499-42.499s-19.065-42.499-42.499-42.499s-42.499,19.065-42.499,42.499
		S182.144,239.923,205.577,239.923z M205.577,174.691c12.535,0,22.732,10.197,22.732,22.732s-10.197,22.732-22.732,22.732
		c-12.535,0-22.732-10.197-22.732-22.732S193.042,174.691,205.577,174.691z"/>
	<path d="M205.597,207.307c5.459,0,9.884-4.425,9.884-9.884s-4.424-9.884-9.884-9.884h-0.01c-5.458,0-9.879,4.425-9.879,9.884
		S200.139,207.307,205.597,207.307z"/>
	<path d="M140.346,125.768c23.434,0,42.499-19.065,42.499-42.499S163.78,40.77,140.346,40.77S97.847,59.835,97.847,83.269
		S116.912,125.768,140.346,125.768z M140.346,60.537c12.535,0,22.732,10.197,22.732,22.732s-10.197,22.732-22.732,22.732
		c-12.535,0-22.732-10.197-22.732-22.732S127.811,60.537,140.346,60.537z"/>
	<path d="M140.365,93.152c5.459,0,9.884-4.425,9.884-9.884c0-5.458-4.424-9.884-9.884-9.884h-0.01c-5.458,0-9.879,4.425-9.879,9.884
		C130.477,88.727,134.907,93.152,140.365,93.152z"/>
	<path d="M287.116,269.079h-59.001c30.44-9.596,52.577-38.087,52.577-71.656c0-41.418-33.697-75.115-75.115-75.115
		c-0.369,0-0.733,0.023-1.101,0.028c6.965-11.39,10.985-24.768,10.985-39.068c0-41.418-33.697-75.115-75.115-75.115
		S65.231,41.851,65.231,83.269c0,14.3,4.02,27.678,10.985,39.068c-0.368-0.005-0.732-0.028-1.101-0.028
		C33.697,122.309,0,156.005,0,197.423c0,33.569,22.137,62.06,52.577,71.656H9.884c-5.458,0-9.884,4.425-9.884,9.884
		c0,5.458,4.425,9.884,9.884,9.884h277.233c5.458,0,9.884-4.425,9.884-9.884C297,273.504,292.575,269.079,287.116,269.079z
		 M260.925,197.423c0,30.519-24.828,55.348-55.348,55.348s-55.348-24.828-55.348-55.348s24.829-55.348,55.348-55.348
		S260.925,166.904,260.925,197.423z M140.346,160.252c-0.363-0.635-0.72-1.273-1.101-1.896c0.368,0.005,0.732,0.028,1.101,0.028
		c0.369,0,0.733-0.023,1.101-0.028C141.066,158.979,140.709,159.617,140.346,160.252z M140.346,27.921
		c30.519,0,55.348,24.829,55.348,55.348s-24.829,55.348-55.348,55.348s-55.348-24.828-55.348-55.348S109.827,27.921,140.346,27.921z
		 M19.767,197.423c0-30.519,24.829-55.348,55.348-55.348s55.348,24.828,55.348,55.348s-24.828,55.348-55.348,55.348
		S19.767,227.943,19.767,197.423z M140.346,234.595c9.309,16.271,24.512,28.752,42.694,34.484H97.653
		C115.835,263.348,131.037,250.866,140.346,234.595z"/>
</g>
<g>
</g>
<g>
</g>
<g>
</g>
<g>
</g>
<g>
</g>
<g>
</g>
<g>
</g>
<g>
</g>
<g>
</g>
<g>
</g>
<g>
</g>
<g>
</g>
<g>
</g>
<g>
</g>
<g>
</g>
</svg>
