<?xml version="1.0" encoding="iso-8859-1"?>
<!-- Generator: Adobe Illustrator 18.0.0, SVG Export Plug-In . SVG Version: 6.00 Build 0)  -->
<!DOCTYPE svg PUBLIC "-//W3C//DTD SVG 1.1//EN" "http://www.w3.org/Graphics/SVG/1.1/DTD/svg11.dtd">
<svg version="1.1" id="Capa_1" xmlns="http://www.w3.org/2000/svg" xmlns:xlink="http://www.w3.org/1999/xlink" x="0px" y="0px"
	 viewBox="0 0 297 297" style="enable-background:new 0 0 297 297;" xml:space="preserve">
<g>
	<path d="M197.423,236.958c1.77,0,3.541-0.676,4.893-2.026l16.308-16.308c2.702-2.703,2.702-7.083,0-9.785
		c-2.703-2.701-7.083-2.701-9.785,0l-16.308,16.308c-2.702,2.703-2.702,7.083,0,9.785
		C193.882,236.282,195.653,236.958,197.423,236.958z"/>
	<path d="M176.223,153.393c1.351,1.35,3.122,2.026,4.893,2.026s3.541-0.676,4.893-2.026c2.702-2.703,2.702-7.083,0-9.785
		L169.7,127.3c-2.703-2.701-7.083-2.701-9.785,0c-2.702,2.703-2.702,7.083,0,9.785L176.223,153.393z"/>
	<path d="M287.116,269.079h-6.689c-2.022-40.374-15.953-90.474-36.656-130.684c-3.075-5.971-6.242-11.621-9.485-16.974l0.645-0.645
		c2.702-2.703,2.702-7.083,0-9.785c-2.209-2.208-5.539-2.608-8.158-1.206c-23.582-34.22-50.734-52.708-78.274-52.708
		c-7.63,0-15.229,1.424-22.732,4.202V18.037c0-5.458-4.425-9.884-9.884-9.884s-9.884,4.425-9.884,9.884v53.871
		c-19.083,13.517-37.083,36.015-52.773,66.487c-4.004,7.776-7.749,15.926-11.21,24.301l-2.781-2.781
		c-2.703-2.701-7.083-2.701-9.785,0c-2.702,2.703-2.702,7.083,0,9.785l7.088,7.088c-11.315,31.05-18.555,64.047-19.969,92.29H9.884
		c-5.458,0-9.884,4.425-9.884,9.884c0,5.458,4.425,9.884,9.884,9.884h277.233c5.458,0,9.884-4.425,9.884-9.884
		C297,273.504,292.575,269.079,287.116,269.079z M148.5,76.844c21.232,0,43.796,16.808,63.865,46.929l-3.526,3.526
		c-2.702,2.703-2.702,7.083,0,9.785c1.351,1.35,3.122,2.026,4.893,2.026s3.541-0.676,4.893-2.026l1.237-1.237
		c2.15,3.711,4.265,7.574,6.337,11.597c19.356,37.592,32.419,84.145,34.444,121.634H155.418v-37.721
		c0-13.534-11.011-24.545-24.545-24.545h-5.106V82.935C133.399,78.929,141.032,76.844,148.5,76.844z M108.832,220.65
		c0.044,0.045,0.089,0.09,0.134,0.134v48.295H90.187v-37.721c0-5.904,4.803-10.708,10.707-10.708H108.832z M122.803,220.784
		c0.045-0.044,0.09-0.089,0.134-0.134h7.937c5.904,0,10.708,4.804,10.708,10.708v37.721h-18.779V220.784z M53.743,187.302
		c0.65-0.325,1.261-0.752,1.803-1.294c2.055-2.056,2.542-5.081,1.471-7.601c4.112-10.717,8.732-21.147,13.786-30.962
		c0.185-0.36,0.374-0.708,0.56-1.066l7.014,7.014c1.351,1.35,3.122,2.026,4.893,2.026c1.77,0,3.541-0.676,4.893-2.026
		c2.702-2.703,2.702-7.083,0-9.785l-9.813-9.813c8.749-14.765,18.08-26.936,27.652-36.171v109.189h-5.107
		c-13.534,0-24.544,11.011-24.544,24.545v37.721H36.358C37.709,244.069,43.973,215.03,53.743,187.302z"/>
</g>
<g>
</g>
<g>
</g>
<g>
</g>
<g>
</g>
<g>
</g>
<g>
</g>
<g>
</g>
<g>
</g>
<g>
</g>
<g>
</g>
<g>
</g>
<g>
</g>
<g>
</g>
<g>
</g>
<g>
</g>
</svg>
