<?xml version="1.0" encoding="iso-8859-1"?>
<!-- Generator: Adobe Illustrator 18.0.0, SVG Export Plug-In . SVG Version: 6.00 Build 0)  -->
<!DOCTYPE svg PUBLIC "-//W3C//DTD SVG 1.1//EN" "http://www.w3.org/Graphics/SVG/1.1/DTD/svg11.dtd">
<svg version="1.1" id="Capa_1" xmlns="http://www.w3.org/2000/svg" xmlns:xlink="http://www.w3.org/1999/xlink" x="0px" y="0px"
	 viewBox="0 0 297 297" style="enable-background:new 0 0 297 297;" xml:space="preserve">

<path d="M228.062,50.37c-1.622,0-3.203,0.658-4.353,1.797c-1.15,1.15-1.807,2.741-1.807,4.363c0,1.622,0.657,3.213,1.807,4.353
	c1.15,1.15,2.731,1.807,4.353,1.807c1.622,0,3.213-0.657,4.363-1.807c1.139-1.15,1.797-2.731,1.797-4.353
	c0-1.622-0.658-3.213-1.797-4.363C231.275,51.027,229.684,50.37,228.062,50.37z"/>
<path d="M221.533,93.348c-5.454-1.494-11.104,1.721-12.61,7.18c-0.06,0.218-6.21,22.037-22.831,42.343
	c-19.58,23.924-44.939,35.782-75.577,35.344v-24.157c0-5.67-4.597-10.266-10.266-10.266c-5.67,0-10.266,4.597-10.266,10.266v33.879
	c0,5.307,4.044,9.739,9.328,10.223c4.403,0.404,8.662,0.597,12.787,0.597c45.232,0,73.909-23.12,90.392-43.505
	c19.126-23.652,25.962-48.285,26.243-49.322C230.216,100.467,226.994,94.843,221.533,93.348z"/>
<path d="M232.954,17.129c-0.88-4.997-3.761-10.779-7.917-13.689c-4.156-2.911-9.195-4.027-14.191-3.146
	c-3.385,0.597-6.494,2.085-9.042,4.268c-3.281-0.825-6.727-0.965-10.079-0.376c-13.101,2.311-21.88,14.849-19.57,27.95
	c1.764,9.999,9.491,17.46,18.872,19.416c-8.978,19.279-22.914,31.25-44.786,38.55c-28.914,9.651-71.222,10.618-129.349,2.96
	c-3.088-0.407-6.197,0.611-8.446,2.767c-2.25,2.156-3.398,5.217-3.122,8.32c0.137,1.538,3.572,38.085,22.856,74.246
	c6.951,13.035,15.063,24.314,24.234,33.816c-5.156,0.799-9.948,2.711-14.129,5.475l-0.713-0.713c-2.807-2.805-7.357-2.805-10.164,0
	c-2.806,2.807-2.806,7.357,0,10.164l0.713,0.713c-3.722,5.632-5.897,12.373-5.897,19.615c0,19.672,16.004,35.676,35.676,35.676
	h42.451l11.755,11.755c1.404,1.403,3.243,2.104,5.082,2.104s3.678-0.702,5.082-2.104c2.806-2.807,2.806-7.357,0-10.164
	l-1.591-1.591h106.616c19.672,0,35.676-16.004,35.676-35.676c0-7.242-2.175-13.982-5.897-19.615l0.713-0.713
	c2.806-2.807,2.806-7.357,0-10.164c-2.807-2.805-7.357-2.805-10.164,0l-0.713,0.713c-4.13-2.73-8.856-4.624-13.939-5.441
	c1.467-1.663,2.909-3.36,4.294-5.134c25.724-32.957,32.119-78.734,32.345-115.023c0.894,0.08,1.764,0.133,2.583,0.133
	c6.015,0,10.033-2.028,12.563-4.094c4.977-4.064,7.424-10.776,6.89-18.897c-0.802-12.195-11.7-18.471-18.72-20.501l5.142-7.378
	c2.187-3.137,2.448-7.231,0.679-10.62c-1.77-3.391-5.277-5.516-9.101-5.516h-11.75C253.229,22.299,243.899,17.463,232.954,17.129z
	 M198.074,37.551c-5.294,0.931-10.831-2.616-11.765-7.91c-0.933-5.297,2.616-10.366,7.911-11.3c2.171-0.381,4.36-0.026,6.317,1.032
	c3.409,1.84,7.667,0.648,9.621-2.699c0.689-1.179,1.849-1.989,3.183-2.225c1.216-0.218,2.44,0.058,3.452,0.765
	c1.011,0.708,2.015,2.972,2.229,4.187C210.746,22.481,203.733,28.589,198.074,37.551z M42.756,247.465
	c0-1.508,0.228-2.962,0.641-4.338l0.95,0.95c1.404,1.403,3.243,2.104,5.082,2.104s3.678-0.702,5.082-2.104
	c2.806-2.807,2.806-7.357,0-10.164l-0.95-0.95c1.376-0.412,2.83-0.641,4.338-0.641h39.682c-0.879,0.351-1.704,0.88-2.415,1.591
	l-16.94,16.94c-2.806,2.807-2.806,7.357,0,10.164c0.712,0.711,1.536,1.24,2.415,1.591H57.899
	C49.55,262.608,42.756,255.814,42.756,247.465z M230.683,244.077c1.404,1.403,3.243,2.104,5.082,2.104s3.678-0.702,5.082-2.104
	l0.95-0.95c0.412,1.376,0.641,2.83,0.641,4.338c0,5.92-3.423,11.043-8.386,13.532l-10.144-10.144
	c-2.807-2.805-7.357-2.805-10.164,0c-2.806,2.807-2.806,7.357,0,10.164l1.591,1.591h-60.776l1.591-1.591
	c2.806-2.807,2.806-7.357,0-10.164c-2.807-2.805-7.357-2.805-10.164,0l-11.755,11.755H85.976c0.879-0.351,1.703-0.88,2.415-1.591
	l16.94-16.94c2.806-2.807,2.806-7.357,0-10.164c-0.712-0.711-1.536-1.24-2.415-1.591h78.54l-1.591,1.591
	c-2.806,2.807-2.806,7.357,0,10.164c1.404,1.403,3.243,2.104,5.082,2.104s3.678-0.702,5.082-2.104l11.755-11.755h25.512
	c1.508,0,2.962,0.228,4.338,0.641l-0.95,0.95C227.876,236.72,227.876,241.27,230.683,244.077z M245.553,42.837
	c12.888,17.932,12.408,104.439-24.506,151.68c-5.28,6.757-11.353,12.509-18.178,17.272H83.564
	c-14.685-9.886-27.052-24.069-36.993-42.543c-10.927-20.31-16.307-41.238-18.811-54.161
	c106.056,12.053,161.285-5.776,183.586-58.675c4.379-10.39,9.857-16.529,16.28-18.246
	C233.637,36.553,242.886,39.126,245.553,42.837z M275.664,76.993c-1.101,0.9-3.376,1.087-6.285,0.584
	c-0.202-5.423-0.518-10.506-0.894-15.161c0.347,0.096,8.466,2.431,8.816,7.758C277.516,73.431,276.904,75.981,275.664,76.993z"/>

</svg>
