<?xml version="1.0" encoding="iso-8859-1"?>
<!-- Generator: Adobe Illustrator 18.0.0, SVG Export Plug-In . SVG Version: 6.00 Build 0)  -->
<!DOCTYPE svg PUBLIC "-//W3C//DTD SVG 1.1//EN" "http://www.w3.org/Graphics/SVG/1.1/DTD/svg11.dtd">
<svg version="1.1" id="Capa_1" xmlns="http://www.w3.org/2000/svg" xmlns:xlink="http://www.w3.org/1999/xlink" x="0px" y="0px"
	 viewBox="0 0 297 297" style="enable-background:new 0 0 297 297;" xml:space="preserve">
<g>
	<path d="M276.702,213.512c1.811-2.512,2.303-5.741,1.325-8.68l-11.67-35.01h2.529c3.097,0,6.005-1.488,7.816-4.002
		c1.811-2.512,2.303-5.741,1.325-8.68l-15.897-47.692c-0.841-2.523-2.688-4.587-5.103-5.702l-14.278-6.59
		c6.837-5.572,10.409-13.919,8.536-22.109c-1.387-6.066-5.643-11.252-11.674-14.228c-5.652-2.789-12.397-3.494-18.99-1.987
		c-6.392,1.462-11.763,4.836-15.486,9.212c-6.229-0.881-12.081,0.468-16.377,4.193l-35.064-16.183c-2.561-1.182-5.514-1.182-8.075,0
		L42.287,103.747c-2.415,1.115-4.262,3.178-5.103,5.702l-15.897,47.692c-0.979,2.938-0.486,6.168,1.325,8.68
		c1.811,2.513,4.719,4.002,7.816,4.002h2.529l-11.67,35.01c-0.979,2.938-0.486,6.168,1.325,8.68
		c1.811,2.513,4.719,4.002,7.816,4.002h2.529l-11.67,35.01c-0.979,2.938-0.486,6.168,1.325,8.68
		c1.811,2.513,4.719,4.002,7.816,4.002h14.211v22.16c0,5.321,4.314,9.635,9.635,9.635s9.635-4.314,9.635-9.635v-22.16h171.498v22.16
		c0,5.321,4.314,9.635,9.635,9.635c5.321,0,9.635-4.314,9.635-9.635v-22.16h14.211c3.097,0,6.005-1.488,7.816-4.002
		c1.811-2.512,2.303-5.741,1.325-8.68l-11.67-35.01h2.529C271.984,217.514,274.891,216.025,276.702,213.512z M223.254,98.933
		c0.714,3.125,0.314,5.771-1.098,7.264c-1.529,1.613-4.455,2.077-7.895,1.331l8.798-9.293
		C223.123,98.468,223.201,98.702,223.254,98.933z M186.971,110.706c0.377-2.196,1.175-4.265,2.29-6.018
		c1.415,1.914,3.045,3.767,4.891,5.514c3.109,2.942,6.476,5.269,9.911,6.955c-0.867,2.197-2.159,4.129-3.764,5.53
		c-1.172,1.023-3.575,2.666-6.47,2.17C188.938,124.018,185.798,117.538,186.971,110.706z M216.009,87.113
		c0.768,0.727,1.478,1.496,2.149,2.284l-12.999,13.732c-0.811-0.617-1.614-1.282-2.397-2.023c-0.178-0.168-0.338-0.343-0.509-0.513
		l13.221-13.966C215.653,86.788,215.832,86.945,216.009,87.113z M223.629,71.982c1.257-0.288,2.53-0.43,3.776-0.43
		c2.25,0,4.413,0.463,6.239,1.363c1.396,0.69,3.837,2.273,4.492,5.139c0.829,3.625-1.657,7.549-5.796,9.941
		c-1.936-3.578-4.551-6.98-7.719-9.979c-1.733-1.64-3.547-3.081-5.408-4.334C220.538,72.939,222.024,72.349,223.629,71.982z
		 M201.49,80.336c1.679,0,3.601,0.372,5.615,1.116l-10.479,11.07c-1.917-4.43-1.909-8.494-0.009-10.501
		C197.673,80.906,199.393,80.336,201.49,80.336z M43.794,150.552l10.353-31.056l95.51-44.082l33.376,15.404
		c0.034,0.19,0.077,0.381,0.116,0.572c-0.11,0.092-0.226,0.173-0.335,0.268c-4.748,4.146-7.993,10.099-9.138,16.766
		c-2.45,14.279,5.566,27.615,17.869,29.728c1.098,0.188,2.205,0.281,3.312,0.281c5.077,0,10.151-1.953,14.312-5.584
		c3.684-3.217,6.448-7.529,8.043-12.411c0.014,0,0.027,0.001,0.041,0.001c5.452,0,10.409-1.841,13.999-5.632
		c0.376-0.397,0.723-0.817,1.057-1.246l12.858,5.935l10.353,31.056H43.794z M43.794,198.244l9.475-28.422h192.775l9.475,28.422
		H43.794z M255.519,245.936H43.794l9.475-28.422h192.775L255.519,245.936z"/>
	<path d="M36.48,43.978c-0.008,5.466,1.825,10.44,5.625,14.037c3.374,3.193,7.947,4.868,13.028,4.868
		c0.198,0,0.399-0.013,0.598-0.018c4.139,9.46,12.712,15.678,21.749,15.678c1.456,0,2.923-0.161,4.385-0.495
		c6.066-1.387,11.252-5.642,14.228-11.673c2.789-5.653,3.494-12.396,1.987-18.99c-1.462-6.394-4.834-11.77-9.211-15.495
		c0.965-6.845-0.754-13.239-5.366-17.607c-4.638-4.389-11.16-5.747-17.979-4.373c-0.093-0.11-0.175-0.225-0.27-0.334
		c-4.146-4.748-10.1-7.993-16.765-9.137C34.206-2.008,20.873,6.006,18.76,18.309c-1.053,6.133,0.881,12.556,5.303,17.624
		C27.281,39.619,31.596,42.383,36.48,43.978z M55.806,29.526c0.168-0.177,0.339-0.343,0.509-0.514L70.28,42.233
		c-0.162,0.18-0.312,0.363-0.481,0.541c-0.727,0.768-1.496,1.478-2.284,2.149L53.784,31.922
		C54.4,31.111,55.065,30.308,55.806,29.526z M49.383,41.024l9.294,8.799c-0.233,0.064-0.467,0.142-0.698,0.195
		c-3.123,0.715-5.77,0.314-7.264-1.099C49.101,47.39,48.637,44.465,49.383,41.024z M84.93,50.393
		c0.807,3.526,0.467,7.177-0.933,10.014c-0.689,1.396-2.273,3.837-5.139,4.492c-3.619,0.831-7.561-1.646-9.958-5.786
		c3.585-1.937,6.993-4.555,9.997-7.728c1.641-1.734,3.084-3.55,4.338-5.412C83.977,47.299,84.563,48.788,84.93,50.393z
		 M74.892,23.381c2.007,1.9,2.237,5.957,0.566,10.486L64.383,23.382c2.212-0.958,4.333-1.435,6.152-1.435
		C72.362,21.948,73.885,22.428,74.892,23.381z M32.055,20.592c0.72-4.196,5.594-7.104,11.279-7.104c0.94,0,1.903,0.08,2.873,0.247
		c2.195,0.377,4.254,1.184,6.004,2.299c-1.91,1.413-3.758,3.039-5.502,4.881c-2.942,3.108-5.265,6.475-6.952,9.91
		c-2.198-0.866-4.132-2.157-5.534-3.762C33.201,25.889,31.557,23.489,32.055,20.592z"/>
</g>
<g>
</g>
<g>
</g>
<g>
</g>
<g>
</g>
<g>
</g>
<g>
</g>
<g>
</g>
<g>
</g>
<g>
</g>
<g>
</g>
<g>
</g>
<g>
</g>
<g>
</g>
<g>
</g>
<g>
</g>
</svg>
