<?xml version="1.0" encoding="iso-8859-1"?>
<!-- Generator: Adobe Illustrator 18.0.0, SVG Export Plug-In . SVG Version: 6.00 Build 0)  -->
<!DOCTYPE svg PUBLIC "-//W3C//DTD SVG 1.1//EN" "http://www.w3.org/Graphics/SVG/1.1/DTD/svg11.dtd">
<svg version="1.1" id="Capa_1" xmlns="http://www.w3.org/2000/svg" xmlns:xlink="http://www.w3.org/1999/xlink" x="0px" y="0px"
	 viewBox="0 0 297 297" style="enable-background:new 0 0 297 297;" xml:space="preserve">

<path d="M148.497,253.077c-1.924,0-3.807,0.784-5.177,2.144c-1.359,1.359-2.144,3.253-2.144,5.177s0.784,3.816,2.144,5.177
	c1.37,1.359,3.253,2.144,5.177,2.144c1.924,0,3.816-0.784,5.176-2.144c1.371-1.36,2.145-3.253,2.145-5.177
	s-0.774-3.817-2.145-5.177C152.313,253.862,150.431,253.077,148.497,253.077z"/>
<path d="M106.666,240.528c-1.924,0-3.817,0.784-5.177,2.144c-1.359,1.359-2.144,3.253-2.144,5.177c0,1.934,0.784,3.816,2.144,5.177
	c1.359,1.359,3.253,2.144,5.177,2.144c1.934,0,3.816-0.784,5.176-2.144c1.371-1.36,2.145-3.243,2.145-5.177
	c0-1.924-0.774-3.817-2.145-5.177C110.482,241.313,108.6,240.528,106.666,240.528z"/>
<path d="M194.511,240.528c-1.924,0-3.807,0.784-5.177,2.144c-1.359,1.359-2.144,3.253-2.144,5.177c0,1.934,0.784,3.816,2.144,5.177
	c1.37,1.359,3.253,2.144,5.177,2.144c1.934,0,3.816-0.784,5.176-2.144c1.36-1.36,2.145-3.243,2.145-5.177
	c0-1.924-0.784-3.817-2.145-5.177C198.327,241.313,196.445,240.528,194.511,240.528z"/>
<path d="M223.793,197.651c-1.924,0-3.807,0.784-5.177,2.144c-1.359,1.359-2.144,3.253-2.144,5.177s0.784,3.816,2.144,5.177
	c1.359,1.359,3.253,2.144,5.177,2.144c1.934,0,3.816-0.784,5.176-2.144c1.371-1.36,2.145-3.243,2.145-5.177
	c0-1.924-0.774-3.817-2.145-5.177C227.609,198.436,225.727,197.651,223.793,197.651z"/>
<path d="M74.247,197.651c-1.924,0-3.807,0.784-5.177,2.144c-1.359,1.359-2.144,3.253-2.144,5.177s0.784,3.816,2.144,5.177
	c1.37,1.359,3.253,2.144,5.177,2.144c1.934,0,3.816-0.784,5.176-2.144c1.371-1.36,2.145-3.253,2.145-5.177
	s-0.774-3.807-2.145-5.177C78.063,198.436,76.171,197.651,74.247,197.651z"/>
<path d="M74.247,158.435c-1.924,0-3.817,0.784-5.177,2.144c-1.359,1.359-2.144,3.253-2.144,5.177s0.784,3.816,2.144,5.177
	c1.37,1.359,3.253,2.144,5.177,2.144c1.924,0,3.816-0.784,5.176-2.144c1.371-1.36,2.145-3.253,2.145-5.177
	s-0.774-3.807-2.145-5.177C78.063,159.219,76.181,158.435,74.247,158.435z"/>
<path d="M216.472,165.755c0,1.934,0.784,3.816,2.144,5.177c1.37,1.359,3.253,2.144,5.177,2.144c1.934,0,3.816-0.784,5.176-2.144
	c1.371-1.36,2.145-3.253,2.145-5.177s-0.774-3.817-2.145-5.177c-1.359-1.359-3.241-2.144-5.176-2.144
	c-1.924,0-3.817,0.784-5.177,2.144S216.472,163.831,216.472,165.755z"/>
<path d="M209.204,119.27c-1.359,1.359-2.144,3.253-2.144,5.177c0,1.924,0.784,3.816,2.144,5.177
	c1.37,1.359,3.253,2.144,5.177,2.144c1.934,0,3.816-0.784,5.176-2.144c1.371-1.36,2.145-3.253,2.145-5.177
	c0-1.935-0.774-3.817-2.145-5.177c-1.359-1.359-3.241-2.144-5.176-2.144C212.457,117.127,210.573,117.911,209.204,119.27z"/>
<path d="M88.888,124.447c0-1.924-0.774-3.817-2.145-5.177c-1.359-1.359-3.241-2.144-5.176-2.144c-1.924,0-3.807,0.784-5.177,2.144
	c-1.359,1.359-2.144,3.241-2.144,5.177c0,1.924,0.784,3.816,2.144,5.177c1.37,1.359,3.253,2.144,5.177,2.144
	c1.924,0,3.816-0.784,5.176-2.144C88.114,128.264,88.888,126.371,88.888,124.447z"/>
<path d="M259.596,158.061c-4.121-20.507-19.245-81.425-19.245-81.425c-0.197-1.311,0.382-2.25,0.755-2.701
	c0.387-0.468,1.247-1.253,2.662-1.253h25.519c5.775,0,10.458-4.682,10.458-10.458V10.458C279.745,4.682,275.062,0,269.287,0
	h-44.024c-17.869,0-34.672,7.878-46.101,21.613s-16.122,31.691-12.873,49.262c0.043,0.234,0.094,0.467,0.153,0.697
	c0.205,0.8,20.542,80.366,23.407,112.372c0.848,9.473-2.469,18.829-9.342,26.344c-8.035,8.786-20.001,14.032-32.008,14.032
	s-23.973-5.246-32.008-14.032c-6.872-7.514-10.189-16.87-9.341-26.344c2.865-31.994,23.202-111.572,23.407-112.372
	c0.059-0.23,0.11-0.463,0.153-0.697c3.249-17.571-1.444-35.527-12.873-49.262S89.606,0,71.737,0H27.713
	c-5.775,0-10.458,4.682-10.458,10.458v51.766c0,5.775,4.682,10.458,10.458,10.458h25.519c1.414,0,2.275,0.785,2.662,1.253
	c0.372,0.451,0.951,1.389,0.755,2.698c0,0-14.628,58.753-18.609,78.533c-2.059,10.226-3.529,21.966-3.529,27.845
	C34.511,245.864,85.646,297,148.5,297s113.989-51.136,113.989-113.989C262.489,176.412,260.865,164.377,259.596,158.061z
	 M258.829,51.766h-15.062c-7.293,0-14.14,3.224-18.785,8.846c-4.646,5.621-6.521,12.953-5.146,20.115
	c0.028,0.146,0.058,0.291,0.093,0.436l19.161,81.017c1.534,9.3,2.484,17.26,2.484,20.831c0,51.322-41.752,93.074-93.074,93.074
	s-93.074-41.752-93.074-93.074c0-3.252,1.048-11.226,3.121-23.732L77.07,81.169c0.035-0.147,0.066-0.294,0.094-0.442
	c1.375-7.162-0.5-14.494-5.146-20.115c-4.646-5.622-11.492-8.846-18.785-8.846H38.171v-30.85h33.566
	c11.637,0,22.58,5.131,30.023,14.075c7.373,8.86,10.441,20.416,8.444,31.755c-1.716,6.714-20.943,82.464-23.885,115.332
	c-1.378,15.392,3.856,30.422,14.739,42.322c12.107,13.241,29.4,20.834,47.443,20.834s35.336-7.593,47.443-20.834
	c10.883-11.9,16.117-26.93,14.739-42.322c-2.942-32.868-22.17-108.619-23.885-115.332c-1.998-11.339,1.071-22.895,8.444-31.755
	c7.443-8.944,18.386-14.075,30.023-14.075h33.566V51.766z"/>

</svg>
