<?xml version="1.0" encoding="iso-8859-1"?>
<!-- Generator: Adobe Illustrator 18.0.0, SVG Export Plug-In . SVG Version: 6.00 Build 0)  -->
<!DOCTYPE svg PUBLIC "-//W3C//DTD SVG 1.1//EN" "http://www.w3.org/Graphics/SVG/1.1/DTD/svg11.dtd">
<svg xmlns="http://www.w3.org/2000/svg" version="1.1" x="0" y="0" viewBox="0 0 297 297" xml:space="preserve"><path d="M115.9 108.6c5.5 0 9.9-4.4 9.9-9.9s-4.4-9.9-9.9-9.9h0c-5.5 0-9.9 4.4-9.9 9.9S110.4 108.6 115.9 108.6zM34.4 203h0c-5.5 0-9.9 4.4-9.9 9.9 0 5.5 4.4 9.9 9.9 9.9 5.5 0 9.9-4.4 9.9-9.9C44.2 207.4 39.8 203 34.4 203zM246.4 219.3c-5.5 0-9.9 4.4-9.9 9.9s4.4 9.9 9.9 9.9c5.5 0 9.9-4.4 9.9-9.9s-4.4-9.9-9.9-9.9H246.4zM287.1 268.3h-76.7v-58.8c0-5.5-4.4-9.9-9.9-9.9H184.4v-19.3h16.1c5.5 0 9.9-4.4 9.9-9.9v-39c0-5.5-4.4-9.9-9.9-9.9H96.4c-5.5 0-9.9 4.4-9.9 9.9v39c0 5.5 4.4 9.9 9.9 9.9h16.1v19.3H96.4c-5.5 0-9.9 4.4-9.9 9.9v58.8H9.9c-5.5 0-9.9 4.4-9.9 9.9 0 5.5 4.4 9.9 9.9 9.9h277.2c5.5 0 9.9-4.4 9.9-9.9C297 272.7 292.6 268.3 287.1 268.3zM106.3 141.2h84.3v19.3h-84.3V141.2zM106.3 219.3h16.1c5.5 0 9.9-4.4 9.9-9.9v-29.2h32.3v29.2c0 5.5 4.4 9.9 9.9 9.9h16.1v48.9h-84.3V219.3zM30.2 96.9c5.2 3.1 11.2 3.2 17 0.2l0.9-0.5c4.9-2.6 6.2-3.3 15.6 1.9 1 0.6 2.2 0.9 3.4 0.9 1.3 0 2.6-0.4 3.7-1.1 2.1-1.4 3.4-3.8 3.2-6.3 -0.9-11.3-8.9-32.8-33.3-32.8 -11.1 0-20.1 9-20.1 20.1C20.5 86.3 24.4 93.4 30.2 96.9zM40.6 73.1c7.8 0 12.5 3.7 15.3 7.9 -5.6-0.7-9.6 1-14.3 3.5l-0.9 0.5c-2 1.1-3 0.5-3.4 0.2 -1.6-1-3-3.6-3-5.8C34.3 75.9 37.2 73.1 40.6 73.1zM218.8 121c0 0 0.1 0 0.1 0 2.5 0 4.9-1.5 6-3.7 6.4-12.5 8.9-12.8 16-13.5l1.3-0.1c7.4-0.8 13.1-4.7 16-10.9 3.3-7.1 2.5-16.4-2-23.1 -3.4-5.2-8.7-8.7-14.8-9.9 -6.1-1.2-12.3 0-17.4 3.5 -24.1 16-17.9 42.6-11.2 54.4C214 119.7 216.3 121 218.8 121zM231.7 74.6c2.1-1.4 4.6-1.9 7.1-1.4 2.5 0.5 4.6 1.9 6 4 1.8 2.7 2.2 6.9 1 9.6 -0.5 1.1-1.6 2.7-5 3l-1.2 0.1c-7.3 0.8-12.8 1.8-18.7 8.3C219.9 90.8 221.4 81.5 231.7 74.6zM20.9 162.1c2.8 1.1 5.9 1.7 8.9 1.7 5.1 0 10.2-1.5 14.1-4.5 5.5-4.1 8.1-10.5 7.4-17.9l-0.1-1.3c-0.7-7.2-1-9.6 9.9-18.4 2-1.6 2.9-4.2 2.4-6.7 -0.5-2.5-2.3-4.5-4.7-5.3 -12.9-4.1-40.2-4.6-50.9 22.2C3.2 143.8 9 157.3 20.9 162.1zM20.8 137c3.6-9.1 10-14 19.4-15.2 0.5-0.1 1-0.1 1.5-0.2 -5.1 7-5 12.6-4.2 19.9l0.1 1.2c0.3 3.4-1 4.8-2 5.5 -2.4 1.8-6.6 2.2-9.6 1C21.2 147.3 18.9 141.8 20.8 137zM239.7 125.4c-4.7 3.7-6.8 9.2-6 15.6l0.1 1c0.7 5.4 0.9 6.7-6.9 13.3 -1.9 1.7-2.8 4.2-2.2 6.7 0.5 2.5 2.4 4.5 4.9 5.2 2.8 0.8 6.5 1.4 10.5 1.4 11 0 24.7-4.4 30.7-20.8 3.7-10.2-1.5-21.5-11.7-25.3C252.7 120.1 244.9 121.3 239.7 125.4zM257.9 143c-2.5 6.8-7.1 9.8-11.7 11 2.3-4.7 2.1-8.8 1.4-13.9l-0.1-0.9c-0.3-2.1 0.5-2.7 0.9-3 0.9-0.7 2.4-1.1 3.8-1.1 0.8 0 1.5 0.1 2.2 0.4C257.4 136.6 259 140 257.9 143zM69.7 52.4l1.2 0.3c7 1.8 9.3 2.4 13.9 15.7 0.8 2.4 2.9 4.2 5.4 4.6 0.4 0.1 0.8 0.1 1.1 0.1 2.1 0 4.2-1 5.5-2.7 8.3-10.7 18.2-36.1-3.3-55.4 -9.5-8.6-24.2-7.8-32.8 1.7 -5.4 6-7.6 15.1-5.3 22.6C57.4 45.9 62.5 50.5 69.7 52.4zM71.1 25.9c1.9-2.1 4.4-3.1 7-3.1 2.2 0 4.5 0.8 6.3 2.4 7.3 6.5 9.7 14.2 7.6 23.4 -0.1 0.5-0.2 1-0.4 1.5 -4.8-7.2-10.1-9-17.2-10.8l-1.2-0.3c-3.3-0.8-4.1-2.5-4.5-3.7C67.8 32.4 68.9 28.3 71.1 25.9z"/></svg>
