<?xml version="1.0" encoding="iso-8859-1"?>
<!-- Generator: Adobe Illustrator 18.0.0, SVG Export Plug-In . SVG Version: 6.00 Build 0)  -->
<!DOCTYPE svg PUBLIC "-//W3C//DTD SVG 1.1//EN" "http://www.w3.org/Graphics/SVG/1.1/DTD/svg11.dtd">
<svg version="1.1" id="Capa_1" xmlns="http://www.w3.org/2000/svg" xmlns:xlink="http://www.w3.org/1999/xlink" x="0px" y="0px"
	 viewBox="0 0 297 297" style="enable-background:new 0 0 297 297;" xml:space="preserve">
<g>
	<path d="M115.904,108.634c5.459,0,9.884-4.425,9.884-9.884s-4.424-9.884-9.884-9.884h-0.01c-5.458,0-9.879,4.425-9.879,9.884
		S110.446,108.634,115.904,108.634z"/>
	<path d="M34.365,203.021h-0.01c-5.458,0-9.879,4.425-9.879,9.884c0,5.458,4.43,9.884,9.888,9.884c5.459,0,9.884-4.425,9.884-9.884
		C44.248,207.447,39.824,203.021,34.365,203.021z"/>
	<path d="M246.357,219.329c-5.458,0-9.879,4.425-9.879,9.884s4.43,9.884,9.888,9.884c5.459,0,9.884-4.425,9.884-9.884
		s-4.424-9.884-9.884-9.884H246.357z"/>
	<path d="M287.116,268.253h-76.679v-58.806c0-5.458-4.425-9.884-9.884-9.884H184.41v-19.274h16.144c5.458,0,9.884-4.425,9.884-9.884
		v-39.04c0-5.458-4.425-9.884-9.884-9.884H96.446c-5.458,0-9.884,4.425-9.884,9.884v39.04c0,5.458,4.425,9.884,9.884,9.884h16.143
		v19.274H96.446c-5.458,0-9.884,4.425-9.884,9.884v58.806H9.884c-5.458,0-9.884,4.425-9.884,9.884c0,5.458,4.425,9.884,9.884,9.884
		h277.233c5.458,0,9.884-4.425,9.884-9.884C297,272.678,292.575,268.253,287.116,268.253z M106.33,141.249h84.34v19.273h-84.34
		V141.249z M106.33,219.33h16.143c5.458,0,9.884-4.425,9.884-9.884v-29.157h32.287v29.157c0,5.458,4.425,9.884,9.884,9.884h16.144
		v48.923h-84.34V219.33z"/>
	<path d="M30.158,96.896c5.179,3.143,11.209,3.223,16.982,0.219l0.906-0.474c4.918-2.583,6.239-3.28,15.555,1.898
		c1.046,0.582,2.204,0.871,3.36,0.871c1.299,0,2.596-0.366,3.731-1.093c2.143-1.372,3.36-3.811,3.168-6.349
		c-0.859-11.327-8.914-32.752-33.256-32.752c-11.081,0-20.096,9.015-20.096,20.096C20.508,86.325,24.386,93.391,30.158,96.896z
		 M40.605,73.053c7.8,0,12.489,3.671,15.301,7.879c-5.551-0.73-9.556,0.971-14.292,3.458l-0.86,0.45
		c-2.04,1.061-2.969,0.498-3.416,0.228c-1.622-0.985-2.993-3.62-2.993-5.755C34.345,75.861,37.153,73.053,40.605,73.053z"/>
	<path d="M218.78,121.024c0.042,0,0.086,0,0.128-0.001c2.544-0.047,4.858-1.487,6.023-3.75c6.445-12.51,8.853-12.763,16.004-13.513
		l1.253-0.133c7.411-0.807,13.101-4.695,16.023-10.947c3.303-7.068,2.494-16.36-2.013-23.119c-3.441-5.162-8.687-8.675-14.77-9.892
		c-6.081-1.216-12.275,0.008-17.438,3.45c-24.062,16.041-17.872,42.585-11.238,54.379
		C213.978,119.678,216.285,121.024,218.78,121.024z M231.664,74.631c2.086-1.391,4.586-1.886,7.05-1.395
		c2.458,0.492,4.579,1.913,5.971,4.001c1.804,2.704,2.238,6.915,0.99,9.585c-0.53,1.134-1.622,2.683-4.984,3.049l-1.2,0.127
		c-7.269,0.762-12.824,1.762-18.652,8.295C219.893,90.819,221.411,81.467,231.664,74.631z"/>
	<path d="M20.917,162.061c2.821,1.127,5.88,1.677,8.933,1.676c5.112,0,10.202-1.539,14.106-4.476
		c5.514-4.148,8.144-10.518,7.406-17.936l-0.128-1.254c-0.74-7.151-0.989-9.56,9.922-18.446c1.974-1.607,2.905-4.168,2.426-6.667
		c-0.479-2.5-2.291-4.534-4.72-5.298c-12.909-4.06-40.158-4.642-50.891,22.211C3.217,143.764,9.024,157.306,20.917,162.061z
		 M20.819,137.008c3.623-9.064,9.957-14.047,19.363-15.235c0.503-0.063,1.001-0.114,1.495-0.152
		c-5.125,7.01-4.956,12.635-4.207,19.874l0.123,1.201c0.336,3.366-0.955,4.755-1.955,5.507c-2.356,1.773-6.565,2.217-9.585,1.009
		C21.245,147.29,18.897,141.816,20.819,137.008z"/>
	<path d="M239.731,125.428c-4.654,3.709-6.772,9.24-5.961,15.573l0.128,0.987c0.709,5.386,0.878,6.666-6.863,13.338
		c-1.928,1.661-2.788,4.247-2.239,6.732c0.548,2.485,2.417,4.469,4.865,5.164c2.831,0.804,6.481,1.383,10.474,1.383
		c11.049,0,24.701-4.438,30.726-20.82c3.748-10.196-1.496-21.54-11.691-25.29C252.717,120.126,244.907,121.302,239.731,125.428z
		 M257.872,143.01c-2.495,6.786-7.121,9.82-11.695,11.043c2.318-4.674,2.103-8.831,1.439-13.871l-0.122-0.936
		c-0.268-2.098,0.493-2.705,0.859-2.997c0.906-0.721,2.396-1.122,3.844-1.122c0.775,0,1.539,0.114,2.195,0.356
		C257.427,136.599,258.988,139.975,257.872,143.01z"/>
	<path d="M69.724,52.392l1.221,0.312c6.968,1.774,9.315,2.371,13.888,15.679c0.827,2.406,2.909,4.165,5.42,4.578
		c0.374,0.062,0.75,0.092,1.123,0.092c2.122,0,4.155-0.979,5.477-2.693c8.265-10.715,18.215-36.088-3.283-55.431
		c-9.522-8.566-24.236-7.788-32.802,1.733c-5.434,6.04-7.574,15.119-5.323,22.589C57.437,45.859,62.508,50.525,69.724,52.392z
		 M71.057,25.916c1.851-2.058,4.413-3.105,6.985-3.105c2.238,0,4.484,0.793,6.276,2.405c7.256,6.529,9.747,14.193,7.614,23.431
		c-0.114,0.493-0.238,0.979-0.372,1.456c-4.811-7.229-10.149-9.013-17.203-10.808l-1.17-0.299c-3.273-0.846-4.132-2.537-4.493-3.734
		C67.845,32.438,68.883,28.333,71.057,25.916z"/>
</g>
<g>
</g>
<g>
</g>
<g>
</g>
<g>
</g>
<g>
</g>
<g>
</g>
<g>
</g>
<g>
</g>
<g>
</g>
<g>
</g>
<g>
</g>
<g>
</g>
<g>
</g>
<g>
</g>
<g>
</g>
</svg>
