<?xml version="1.0" encoding="iso-8859-1"?>
<!-- Generator: Adobe Illustrator 18.0.0, SVG Export Plug-In . SVG Version: 6.00 Build 0)  -->
<!DOCTYPE svg PUBLIC "-//W3C//DTD SVG 1.1//EN" "http://www.w3.org/Graphics/SVG/1.1/DTD/svg11.dtd">
<svg version="1.1" id="Capa_1" xmlns="http://www.w3.org/2000/svg" xmlns:xlink="http://www.w3.org/1999/xlink" x="0px" y="0px"
	 viewBox="0 0 297 297" style="enable-background:new 0 0 297 297;" xml:space="preserve">
<path d="M270.319,172.744c-18.158-6.44-32.958-3.436-43.871,2.7c1.374-13.124,5.477-29.048,16.515-39.287
	c4.15-3.85,4.393-10.335,0.544-14.486c-3.848-4.149-10.335-4.394-14.486-0.544c-14.25,13.218-20.171,31.718-22.455,47.557v-65.242
	c0-8.811-1.652-17.241-4.653-25.006c10.063-4.403,16.307-8.459,16.966-8.894c3.055-2.018,4.802-5.513,4.583-9.167
	c-0.22-3.656-2.373-6.916-5.649-8.554l-21.627-10.813c1.233-2.772,1.924-5.837,1.924-9.062v-9.566
	C198.108,10.04,188.068,0,175.727,0H47.768c-12.341,0-22.38,10.04-22.38,22.381v9.566c0,3.225,0.691,6.289,1.924,9.062L5.686,51.822
	c-2.665,1.332-4.618,3.757-5.351,6.644c-0.733,2.887-0.175,5.95,1.531,8.393c3.451,4.943,9.712,11.291,18.166,16.154
	c-1.997,6.465-3.098,13.319-3.098,20.432v154.269c0,18.417,14.982,33.4,33.399,33.4h122.834c0.068,0,0.135-0.007,0.203-0.007
	c1.738,0.895,3.529,1.696,5.38,2.386c7.06,2.63,13.959,3.51,20.032,3.51c7.443,0,13.644-1.321,17.373-2.362
	c6.771,1.891,21.693,4.706,37.405-1.147c28.504-10.619,43.645-46.649,43.421-75.159C296.796,195.305,287.08,178.69,270.319,172.744z
	 M176.982,54.327l13.412,6.706c-14.452,5.853-36.421,11.722-59.621,6.84c-29.337-6.178-53.187-6.086-72.911,0.274
	c-13.051,4.21-23.34,0.203-30.098-4.445l18.751-9.376H176.982z M45.89,22.381c0-1.037,0.843-1.88,1.879-1.88h127.959
	c1.037,0,1.88,0.843,1.88,1.88v9.566c0,1.037-0.843,1.88-1.88,1.88H47.768c-1.036,0-1.879-0.843-1.879-1.88V22.381z M47.063,90.426
	c5.375,0,11.095-0.833,17.092-2.767c16.235-5.236,36.645-5.145,62.394,0.274c20.706,4.36,40.284,1.824,56.045-2.59
	c2.233,5.604,3.469,11.709,3.469,18.1v14.949H37.433v-14.949c0-4.718,0.677-9.278,1.927-13.597
	C41.841,90.218,44.409,90.426,47.063,90.426z M37.433,257.712V138.893h148.631v30.44c-7.191-0.614-15.234,0.275-24.077,3.412
	c-16.761,5.945-26.478,22.561-26.66,45.586c-0.134,17.091,5.259,36.879,15.737,52.28H50.331
	C43.219,270.611,37.433,264.824,37.433,257.712z M246.4,274.279c-13.198,4.917-26.157,0.192-26.529,0.054
	c-2.406-0.94-5.022-0.954-7.431-0.003c-0.13,0.049-13.212,4.914-26.536-0.051c-18.795-7.001-30.247-34.409-30.078-55.786
	c0.052-6.577,1.423-22.317,13.012-26.427c4.786-1.698,9.086-2.394,12.924-2.394c16.482,0,24.418,12.858,25.407,14.585
	c1.801,3.276,5.243,5.312,8.982,5.312c3.739,0,7.181-2.036,8.982-5.312c0.485-0.881,12.164-21.469,38.331-12.19
	c11.589,4.11,12.96,19.85,13.012,26.427C276.647,239.87,265.195,267.278,246.4,274.279z"/>
<g>
</g>
<g>
</g>
<g>
</g>
<g>
</g>
<g>
</g>
<g>
</g>
<g>
</g>
<g>
</g>
<g>
</g>
<g>
</g>
<g>
</g>
<g>
</g>
<g>
</g>
<g>
</g>
<g>
</g>
</svg>
