<?xml version='1.0' encoding='iso-8859-1'?>
<!DOCTYPE svg PUBLIC '-//W3C//DTD SVG 1.1//EN' 'http://www.w3.org/Graphics/SVG/1.1/DTD/svg11.dtd'>
<svg version="1.1" xmlns="http://www.w3.org/2000/svg" viewBox="0 0 224.525 224.525" xmlns:xlink="http://www.w3.org/1999/xlink" enable-background="new 0 0 224.525 224.525">
  <g>
    <path d="m217.025,129.425h-27.758c-1.382-16.069-7.158-30.803-16.04-42.857l18.419-18.417c2.929-2.929 2.929-7.677 0-10.606-2.929-2.93-7.678-2.929-10.606,0l-17.803,17.802c-2.71-2.524-5.585-4.851-8.609-6.959-0.852-18.068-11.919-33.338-27.218-39.529l10.443-10.443c2.929-2.929 2.929-7.678 0-10.606-2.929-2.929-7.678-2.929-10.606,0l-14.984,14.984-14.831-14.835c-2.929-2.929-7.678-2.929-10.606,0-2.929,2.929-2.929,7.677 0,10.606l10.29,10.291c-15.301,6.191-26.37,21.463-27.222,39.532-3.023,2.107-5.896,4.434-8.606,6.956l-17.801-17.801c-2.929-2.929-7.678-2.929-10.606,0-2.929,2.929-2.929,7.678 0,10.606l18.417,18.417c-8.881,12.054-14.658,26.789-16.04,42.858h-27.758c-4.142,0-7.5,3.358-7.5,7.5 0,4.142 3.358,7.5 7.5,7.5h27.757c1.382,16.071 7.158,30.807 16.04,42.861l-18.417,18.416c-2.929,2.929-2.929,7.678 0,10.607 1.465,1.464 3.384,2.197 5.304,2.197 1.919,0 3.839-0.732 5.303-2.196l17.8-17.799c13.623,12.688 31.46,20.405 50.976,20.405 19.516,0 37.354-7.719 50.977-20.407l17.8,17.8c1.464,1.464 3.384,2.197 5.303,2.197 1.919,0 3.839-0.732 5.303-2.197 2.929-2.929 2.929-7.678 0-10.606l-18.417-18.417c8.881-12.055 14.656-26.79 16.038-42.86h27.758c4.142,0 7.5-3.358 7.5-7.5-2.84217e-14-4.142-3.358-7.5-7.5-7.5zm-104.762-88.528c11.494,7.10543e-15 21.352,7.714 25.422,18.617-7.968-2.949-16.518-4.572-25.422-4.572-8.906,0-17.457,1.624-25.426,4.573 4.069-10.903 13.929-18.618 25.426-18.618zm-62.342,96.067c0-0.013 0.002-0.026 0.002-0.04s-0.002-0.026-0.002-0.04c0.019-34.188 24.003-62.448 54.842-66.441v132.969c-30.839-3.993-54.824-32.256-54.842-66.448zm69.842,66.449v-132.969c30.826,3.992 54.803,32.232 54.84,66.401 0,0.026-0.004,0.053-0.004,0.079s0.004,0.053 0.004,0.079c-0.038,34.175-24.015,62.418-54.84,66.41z"/>
    <circle cx="87.963" cy="104.555" r="9.448"/>
    <path d="m69.963,127.624c-5.219,0-9.451,4.231-9.451,9.449 0,5.217 4.232,9.447 9.451,9.447 5.217,0 9.447-4.23 9.447-9.447 0-5.219-4.23-9.449-9.447-9.449z"/>
    <path d="m87.963,159.854c-5.219,0-9.451,4.229-9.451,9.447 0,5.221 4.232,9.449 9.451,9.449 5.217,0 9.447-4.229 9.447-9.449 0-5.218-4.23-9.447-9.447-9.447z"/>
    <circle cx="136.561" cy="104.555" r="9.448"/>
    <circle cx="154.561" cy="137.072" r="9.448"/>
    <circle cx="136.561" cy="169.303" r="9.448"/>
  </g>
</svg>
