<?xml version="1.0" encoding="iso-8859-1"?>
<!-- Generator: Adobe Illustrator 18.0.0, SVG Export Plug-In . SVG Version: 6.00 Build 0)  -->
<!DOCTYPE svg PUBLIC "-//W3C//DTD SVG 1.1//EN" "http://www.w3.org/Graphics/SVG/1.1/DTD/svg11.dtd">
<svg version="1.1" id="Capa_1" xmlns="http://www.w3.org/2000/svg" xmlns:xlink="http://www.w3.org/1999/xlink" x="0px" y="0px"
	 viewBox="0 0 297 297" style="enable-background:new 0 0 297 297;" xml:space="preserve">
<g>
	<path d="M296.966,128.301c-0.7-17.915-17.396-33.829-47.212-44.912c-27.21-10.115-63.169-15.685-101.254-15.685
		S74.455,73.275,47.246,83.39C17.319,94.514,0.612,110.504,0.028,128.5c-0.009-0.013-0.019-0.024-0.028-0.037v35.976
		c0,16.263,11.712,33.52,31.328,46.163c16.363,10.547,39.653,18.692,66.149,18.692c17.416,0,36.218-3.521,55.341-12.193
		c33.912-15.378,64.874-18.243,89.752-20.544c14.727-1.362,26.358-2.438,35.465-5.842C293.711,184.859,297,173.194,297,164.439
		v-36.145C296.989,128.297,296.978,128.299,296.966,128.301z M54.533,102.995c24.935-9.27,58.307-14.374,93.967-14.374
		s69.031,5.104,93.967,14.374c20.737,7.707,33.618,17.855,33.618,26.481c0,1.444,0,2.488-4.873,4.035
		c-6.655,2.113-17.669,2.979-30.423,3.981c-24.946,1.961-59.112,4.647-96.048,18.878c-16.224,6.251-32.421,8.89-47.567,8.889
		c-24.977-0.002-47.083-7.181-61.646-17.176c-10.773-7.394-14.611-14.46-14.611-18.607C20.915,120.85,33.797,110.702,54.533,102.995
		z M20.915,163.343c0.898,0.67,1.823,1.332,2.775,1.985c17.556,12.049,44.072,20.75,73.793,20.75
		c17.538,0,36.194-3.031,54.777-10.191c34.093-13.135,65.184-15.579,90.166-17.542c13.84-1.089,24.924-1.962,33.658-4.463v10.558
		c0,3.253-0.508,4.868-5.37,6.685c-6.492,2.427-17.419,3.437-30.071,4.607c-25.044,2.317-59.345,5.489-96.462,22.322
		c-40.558,18.392-79.036,9.462-101.522-5.031C29.45,184.509,20.915,172.193,20.915,163.343z"/>
	<ellipse cx="174.383" cy="116.334" rx="25.883" ry="8.628"/>
</g>
<g>
</g>
<g>
</g>
<g>
</g>
<g>
</g>
<g>
</g>
<g>
</g>
<g>
</g>
<g>
</g>
<g>
</g>
<g>
</g>
<g>
</g>
<g>
</g>
<g>
</g>
<g>
</g>
<g>
</g>
</svg>
