<?xml version="1.0" encoding="iso-8859-1"?>
<!-- Generator: Adobe Illustrator 18.0.0, SVG Export Plug-In . SVG Version: 6.00 Build 0)  -->
<!DOCTYPE svg PUBLIC "-//W3C//DTD SVG 1.1//EN" "http://www.w3.org/Graphics/SVG/1.1/DTD/svg11.dtd">
<svg version="1.1" id="Capa_1" xmlns="http://www.w3.org/2000/svg" xmlns:xlink="http://www.w3.org/1999/xlink" x="0px" y="0px"
	 viewBox="0 0 297 297" style="enable-background:new 0 0 297 297;" xml:space="preserve">
<g>
	<path d="M246.303,124.56c-1.834-2.22-4.564-3.506-7.443-3.506H58.14c-2.879,0-5.609,1.286-7.443,3.506
		c-1.834,2.22-2.581,5.142-2.037,7.971L78.78,289.17c0.874,4.545,4.851,7.83,9.48,7.83H208.74c4.629,0,8.606-3.285,9.48-7.83
		l30.12-156.639C248.884,129.702,248.136,126.78,246.303,124.56z M225.944,140.361c-4.44,35.8-35.025,60.076-77.444,60.076
		s-73.003-24.276-77.444-60.076H225.944z M200.766,277.693H96.234l-15.63-81.286c17.144,14.692,40.724,23.336,67.896,23.336
		s50.752-8.644,67.896-23.336L200.766,277.693z"/>
	<path d="M69.884,73.237c4.831,4.832,11.255,7.494,18.089,7.494c6.833,0,13.257-2.661,18.09-7.493l2.66-2.661
		c4.532,2.482,9.274,4.525,14.195,6.114v10.314c0,14.106,11.476,25.581,25.581,25.581s25.581-11.476,25.581-25.581V76.691
		c4.921-1.589,9.664-3.632,14.195-6.114l2.66,2.661c4.832,4.831,11.257,7.493,18.09,7.493c6.834,0,13.257-2.661,18.089-7.493
		c9.974-9.974,9.974-26.204,0-36.178l-3.22-3.22c4.669-6.797,7.528-11.655,7.528-24.186c0-5.331-4.322-9.653-9.653-9.653H75.23
		c-5.331,0-9.653,4.322-9.653,9.653c0,12.531,2.858,17.389,7.528,24.186l-3.22,3.22C59.91,47.034,59.91,63.264,69.884,73.237z
		 M83.537,50.712l8.747-8.747c3.119-3.12,3.727-7.958,1.475-11.753c-1.781-3.001-3.382-5.328-4.668-7.199
		c-1.023-1.488-1.811-2.634-2.413-3.707h123.644c-0.602,1.073-1.391,2.219-2.413,3.707c-1.287,1.87-2.888,4.198-4.668,7.199
		c-2.252,3.794-1.644,8.632,1.475,11.753l8.747,8.747c1.185,1.185,1.838,2.76,1.838,4.436s-0.653,3.251-1.838,4.437
		c-1.185,1.185-2.76,1.837-4.436,1.837s-3.252-0.652-4.437-1.838l-8.035-8.035c-3.282-3.282-8.434-3.761-12.266-1.149
		c-6.669,4.549-14.055,7.743-21.952,9.495c-4.418,0.98-7.562,4.898-7.562,9.424v17.684c0,3.46-2.815,6.275-6.275,6.275
		s-6.275-2.815-6.275-6.275V69.321c0-4.526-3.144-8.444-7.562-9.424c-7.897-1.753-15.283-4.946-21.952-9.495
		c-1.653-1.127-3.549-1.678-5.437-1.678c-2.49,0-4.962,0.961-6.829,2.827l-8.035,8.035c-1.185,1.186-2.761,1.838-4.437,1.838
		c-1.676,0-3.251-0.652-4.436-1.838c-1.185-1.185-1.838-2.76-1.838-4.436S82.352,51.897,83.537,50.712z"/>
</g>
<g>
</g>
<g>
</g>
<g>
</g>
<g>
</g>
<g>
</g>
<g>
</g>
<g>
</g>
<g>
</g>
<g>
</g>
<g>
</g>
<g>
</g>
<g>
</g>
<g>
</g>
<g>
</g>
<g>
</g>
</svg>
