<?xml version='1.0' encoding='iso-8859-1'?>
<svg version="1.1" xmlns="http://www.w3.org/2000/svg" viewBox="0 0 463 463" xmlns:xlink="http://www.w3.org/1999/xlink" enable-background="new 0 0 463 463">
  <g>
    <path d="m329.341,192.894l-44.202-93.93c-4.016-8.534-6.139-18.031-6.139-27.464v-25.734c9.29-3.138 16-11.93 16-22.266 0-12.958-10.542-23.5-23.5-23.5h-80c-12.958,0-23.5,10.542-23.5,23.5 0,10.336 6.71,19.128 16,22.266v25.773c0,9.435-2.124,18.935-6.144,27.472l-44.191,93.877c-8.939,18.992-13.665,40.126-13.665,61.116v169.496c0,21.78 17.72,39.5 39.5,39.5h144c21.78,0 39.5-17.72 39.5-39.5v-169.505c0-20.985-4.724-42.114-13.659-61.101zm-194.341,78.106h193v97h-16.5c-0.275,0-0.5-0.225-0.5-0.5v-72c0-4.143-3.357-7.5-7.5-7.5s-7.5,3.357-7.5,7.5v72c0,8.547 6.953,15.5 15.5,15.5h16.5v17h-193v-129zm56.5-256h80c4.687,0 8.5,3.813 8.5,8.5s-3.813,8.5-8.5,8.5h-80c-4.687,0-8.5-3.813-8.5-8.5s3.813-8.5 8.5-8.5zm-.071,90.398c4.953-10.522 7.571-22.231 7.571-33.86v-24.538h65v24.5c0,11.626 2.616,23.332 7.566,33.851l38.797,82.443c-0.78,0.368-1.521,0.736-2.233,1.091-3.731,1.863-6.428,3.21-12.669,3.21-6.24,0-8.937-1.347-12.668-3.21-4.273-2.134-9.592-4.79-19.37-4.79-9.768,0-15.08,2.657-19.349,4.792-3.723,1.862-6.412,3.208-12.638,3.208-6.223,0-8.912-1.346-12.634-3.207-4.268-2.136-9.578-4.793-19.345-4.793-9.766,0-15.076,2.657-19.344,4.793-3.721,1.861-6.409,3.207-12.631,3.207-6.224,0-8.913-1.346-12.636-3.207-0.705-0.353-1.439-0.718-2.211-1.083l38.794-82.407zm-45.153,95.996c0.609,0.288 1.222,0.589 1.861,0.908 4.269,2.135 9.58,4.792 19.347,4.792 9.766,0 15.076-2.657 19.344-4.793 3.721-1.861 6.409-3.207 12.631-3.207 6.223,0 8.912,1.346 12.634,3.207 4.268,2.136 9.578,4.793 19.345,4.793 9.768,0 15.08-2.657 19.349-4.792 3.723-1.862 6.412-3.208 12.638-3.208 6.241,0 8.938,1.347 12.669,3.21 4.273,2.134 9.592,4.79 19.369,4.79 9.778,0 15.097-2.656 19.371-4.79 0.649-0.325 1.272-0.629 1.891-0.92 7.375,16.454 11.275,34.589 11.275,52.611v2.005h-193v-1.996c0-18.021 3.899-36.156 11.276-52.61zm157.224,246.606h-144c-13.51,0-24.5-10.99-24.5-24.5v-8.5h193v8.5c0,13.51-10.99,24.5-24.5,24.5z"/>
    <path d="m239.229,288.396c-4.651-1.409-9.581,0.361-12.274,4.402l-19.455,29.181-19.455-29.184c-2.695-4.041-7.631-5.808-12.275-4.4-4.647,1.407-7.77,5.616-7.77,10.472v76.633c0,4.143 3.357,7.5 7.5,7.5s7.5-3.357 7.5-7.5v-63.229l18.26,27.39c1.391,2.087 3.732,3.34 6.24,3.34s4.85-1.253 6.24-3.34l18.26-27.39v63.229c0,4.143 3.357,7.5 7.5,7.5s7.5-3.357 7.5-7.5v-76.633c0-4.856-3.123-9.064-7.771-10.471z"/>
    <path d="m271.5,288c-4.143,0-7.5,3.357-7.5,7.5v80c0,4.143 3.357,7.5 7.5,7.5s7.5-3.357 7.5-7.5v-80c0-4.143-3.357-7.5-7.5-7.5z"/>
  </g>
</svg>