<?xml version='1.0' encoding='iso-8859-1'?>
<!DOCTYPE svg PUBLIC '-//W3C//DTD SVG 1.1//EN' 'http://www.w3.org/Graphics/SVG/1.1/DTD/svg11.dtd'>
<svg version="1.1" xmlns="http://www.w3.org/2000/svg" viewBox="0 0 455.062 455.062" xmlns:xlink="http://www.w3.org/1999/xlink" enable-background="new 0 0 455.062 455.062">
  <g>
    <path d="m351.535,136.731l.422-.503-114.151-95.706v-30.522c0-5.523-4.477-10-10-10s-10,4.477-10,10v30.533l-114.713,96.53 .003,.003c-2.178,1.834-3.564,4.578-3.564,7.648v300.347c0,5.523 4.477,10 10,10h236c5.523,0 10-4.477 10-10v-300.347c-0.001-3.266-1.574-6.158-3.997-7.983zm-16.004,199.441h-216v-112.365h216v112.365zm-216-132.365v-49.093h216v49.093h-216zm108.286-145.56l91.204,76.467h-182.075l90.871-76.467zm-108.286,376.815v-78.889h216v78.889h-216z"/>
    <path d="m138.928,313.077c5.523,0 10-4.477 10-10v-19.925l3.57,4.005c1.897,2.129 4.613,3.346 7.465,3.346s5.568-1.217 7.465-3.346l3.569-4.005v19.925c0,5.523 4.477,10 10,10s10-4.477 10-10v-46.174c0-4.149-2.563-7.868-6.44-9.345-3.878-1.478-8.265-0.406-11.025,2.691l-13.569,15.225-13.57-15.225c-2.761-3.098-7.148-4.168-11.025-2.691-3.877,1.477-6.44,5.195-6.44,9.345v46.174c0,5.523 4.477,10 10,10z"/>
    <path d="m209.728,313.077c5.523,0 10-4.477 10-10v-46.174c0-5.523-4.477-10-10-10s-10,4.477-10,10v46.174c0,5.523 4.477,10 10,10z"/>
    <path d="m282.58,313.077c5.523,0 10-4.477 10-10v-11.003l16.161,17.738c1.973,2.166 4.679,3.265 7.395,3.265 2.404,0 4.815-0.861 6.732-2.608 4.083-3.72 4.376-10.044 0.657-14.127l-14.898-16.352 14.898-16.352c3.719-4.083 3.425-10.407-0.657-14.127-4.082-3.719-10.407-3.426-14.127,0.657l-16.161,17.738v-11.003c0-5.523-4.477-10-10-10s-10,4.477-10,10v46.174c0,5.523 4.477,10 10,10z"/>
    <path d="m238.458,313.077h18.47c5.523,0 10-4.477 10-10s-4.477-10-10-10h-8.47v-36.174c0-5.523-4.477-10-10-10s-10,4.477-10,10v46.174c0,5.523 4.478,10 10,10z"/>
  </g>
</svg>
