<?xml version="1.0" encoding="iso-8859-1"?>
<!-- Generator: Adobe Illustrator 18.0.0, SVG Export Plug-In . SVG Version: 6.00 Build 0)  -->
<!DOCTYPE svg PUBLIC "-//W3C//DTD SVG 1.1//EN" "http://www.w3.org/Graphics/SVG/1.1/DTD/svg11.dtd">
<svg version="1.1" id="Capa_1" xmlns="http://www.w3.org/2000/svg" xmlns:xlink="http://www.w3.org/1999/xlink" x="0px" y="0px"
	 viewBox="0 0 297 297" style="enable-background:new 0 0 297 297;" xml:space="preserve">
<g>
	<path d="M264.277,53.463c-2.952-4.591-9.066-5.92-13.658-2.97l-19.926,12.81l-14.62-15.464c4.599-3.732,7.542-9.429,7.542-15.799
		V20.343C223.615,9.126,214.489,0,203.272,0H93.729C82.512,0,73.385,9.126,73.385,20.343v11.696c0,6.37,2.944,12.067,7.542,15.799
		L66.308,63.303l-19.927-12.81c-4.59-2.952-10.707-1.623-13.658,2.97c-2.952,4.591-1.622,10.706,2.97,13.658l18.671,12.002
		c-4.528,9.187-6.902,19.281-6.902,29.635v158.395C47.461,283.611,60.85,297,77.308,297h142.385
		c16.457,0,29.847-13.389,29.847-29.847V108.758c0-10.353-2.374-20.447-6.902-29.635l18.671-12.002
		C265.9,64.169,267.229,58.054,264.277,53.463z M106.759,49.289c2.711-2.869,3.456-7.075,1.896-10.7
		c-1.562-3.625-5.131-5.974-9.078-5.974h-5.847c-0.319,0-0.577-0.259-0.577-0.576V20.343c0-0.318,0.259-0.576,0.577-0.576h109.542
		c0.318,0,0.576,0.259,0.576,0.576v11.696c0,0.318-0.259,0.576-0.576,0.576h-5.848c-3.947,0-7.516,2.348-9.078,5.974
		c-1.561,3.625-0.816,7.832,1.896,10.7l32.012,33.86c4.921,7.657,7.518,16.493,7.518,25.609v5.396H67.228v-5.396
		c0-9.116,2.597-17.953,7.518-25.608L106.759,49.289z M219.692,277.233H77.308c-5.558,0-10.079-4.522-10.079-10.079V133.922h162.543
		v133.232C229.772,272.711,225.25,277.233,219.692,277.233z"/>
	<path d="M93.802,146.276c-5.723,0-10.378,4.645-10.378,10.378s4.655,10.378,10.378,10.378c5.732,0,10.378-4.645,10.378-10.378
		S99.534,146.276,93.802,146.276z"/>
	<circle cx="130.271" cy="156.654" r="10.378"/>
	<circle cx="203.192" cy="156.654" r="10.378"/>
	<circle cx="166.732" cy="156.654" r="10.378"/>
</g>
<g>
</g>
<g>
</g>
<g>
</g>
<g>
</g>
<g>
</g>
<g>
</g>
<g>
</g>
<g>
</g>
<g>
</g>
<g>
</g>
<g>
</g>
<g>
</g>
<g>
</g>
<g>
</g>
<g>
</g>
</svg>
