<?xml version='1.0' encoding='iso-8859-1'?>
<!DOCTYPE svg PUBLIC '-//W3C//DTD SVG 1.1//EN' 'http://www.w3.org/Graphics/SVG/1.1/DTD/svg11.dtd'>
<svg version="1.1" xmlns="http://www.w3.org/2000/svg" viewBox="0 0 468.368 468.368" xmlns:xlink="http://www.w3.org/1999/xlink" enable-background="new 0 0 468.368 468.368">
  <g>
    <path d="m404.171,249.161l-175.428-175.428-14.332-47.091c-4.85-15.935-19.3-26.642-35.957-26.642-20.726,0-37.587,16.861-37.587,37.586 0,16.658 10.707,31.108 26.644,35.958l33.538,10.207-163.578,163.578c-1.875,1.875-2.929,4.419-2.929,7.071s1.054,5.196 2.929,7.071c17.543,17.542 31.252,38.059 40.746,60.98s14.308,47.122 14.308,71.931v20.816c0,27.293 22.205,49.498 49.499,49.498 27.187,0 49.324-22.029 49.497-49.176l23.144,23.145c19.154,19.154 44.621,29.702 71.708,29.702 27.088,0 52.555-10.549 71.708-29.702l46.09-46.09c39.539-39.539 39.539-103.874-5.68434e-14-143.414zm-243.304-211.575c0-9.697 7.89-17.586 17.587-17.586 7.794,0 14.555,5.01 16.824,12.466l9.601,31.546-31.546-9.601c-7.456-2.269-12.466-9.031-12.466-16.825zm229.161,340.848l-46.09,46.09c-15.376,15.376-35.819,23.844-57.565,23.844-21.745,0-42.189-8.468-57.565-23.844l-37.285-37.286v-28.186c0-5.523-4.478-10-10-10s-10,4.477-10,10v56.147c0,16.265-13.232,29.498-29.498,29.498s-29.499-13.233-29.499-29.498v-20.816c0-27.449-5.326-54.225-15.83-79.585-9.225-22.27-22.046-42.489-38.178-60.23l161.387-161.388 170.123,170.124c31.741,31.74 31.741,83.388 0,115.13z"/>
    <path d="m333.553,268.22c5.522,0 10-4.477 10-10s-4.478-10-10-10h-41v-41c0-5.523-4.478-10-10-10s-10,4.477-10,10v41h-36v-41c0-5.523-4.478-10-10-10s-10,4.477-10,10v41h-41c-5.522,0-10,4.477-10,10s4.478,10 10,10h41v36h-41c-5.522,0-10,4.477-10,10s4.478,10 10,10h41v41c0,5.523 4.478,10 10,10s10-4.477 10-10v-41h36v41c0,5.523 4.478,10 10,10s10-4.477 10-10v-41h41c5.522,0 10-4.477 10-10s-4.478-10-10-10h-41v-36h41zm-61,36h-36v-36h36v36z"/>
  </g>
</svg>
