<?xml version="1.0" encoding="iso-8859-1"?>
<!-- Generator: Adobe Illustrator 19.0.0, SVG Export Plug-In . SVG Version: 6.00 Build 0)  -->
<svg version="1.1" id="Layer_1" xmlns="http://www.w3.org/2000/svg" xmlns:xlink="http://www.w3.org/1999/xlink" x="0px" y="0px"
	 viewBox="0 0 495 495" style="enable-background:new 0 0 495 495;" xml:space="preserve">
<g>
	<path style="fill:#C4C8F5;" d="M345.64,458.73C254.95,436.1,185.63,350.02,185.63,247.5S254.95,58.9,345.64,36.27
		c30.19-7.54,59.89-8.18,87.48-3.08C396.71,12.12,354.47,0,309.38,0c-136.7,0-247.5,110.81-247.5,247.5S172.68,495,309.38,495
		c45.09,0,87.33-12.12,123.74-33.19C405.53,466.91,375.83,466.27,345.64,458.73z"/>
	<path style="fill:#A7ADF0;" d="M309.38,247.5c0-91.59,49.79-171.51,123.74-214.31c-27.59-5.1-57.29-4.46-87.48,3.08
		C254.95,58.9,185.63,144.98,185.63,247.5s69.32,188.6,160.01,211.23c30.19,7.54,59.89,8.18,87.48,3.08
		C359.17,419.01,309.38,339.09,309.38,247.5z"/>
</g>
</svg>
