<?xml version="1.0" encoding="iso-8859-1"?>
<!-- Generator: Adobe Illustrator 18.0.0, SVG Export Plug-In . SVG Version: 6.00 Build 0)  -->
<!DOCTYPE svg PUBLIC "-//W3C//DTD SVG 1.1//EN" "http://www.w3.org/Graphics/SVG/1.1/DTD/svg11.dtd">
<svg version="1.1" id="Capa_1" xmlns="http://www.w3.org/2000/svg" xmlns:xlink="http://www.w3.org/1999/xlink" x="0px" y="0px"
	 viewBox="0 0 170.169 170.169" style="enable-background:new 0 0 170.169 170.169;" xml:space="preserve">

<path d="M152.368,132.404c7.345-11.978,11.588-26.054,11.588-41.105c0-14.891-4.118-29.155-11.973-41.676
	c5.489-5.369,8.693-12.743,8.693-20.602C160.676,13.019,147.654,0,131.647,0c-10.862,0-20.616,6.106-25.575,15.312
	c-13.742-3.839-28.243-3.836-41.978,0C59.137,6.106,49.382,0,38.515,0C22.51,0,9.489,13.019,9.489,29.021
	c0,7.861,3.204,15.236,8.693,20.605C10.33,62.141,6.213,76.404,6.213,91.299c0,15.051,4.243,29.127,11.588,41.105
	c-7.176,2.916-12.253,9.952-12.253,18.162c0,10.809,8.796,19.604,19.608,19.604h119.855c10.812,0,19.608-8.794,19.608-19.604
	C164.621,142.357,159.543,135.32,152.368,132.404z M35.8,46.359c-0.468-2.155-1.861-3.995-3.808-5.03
	c-4.628-2.462-7.504-7.178-7.504-12.308C24.489,21.29,30.781,15,38.515,15c6.636,0,12.413,4.706,13.736,11.189
	c0.441,2.16,1.809,4.016,3.741,5.076c1.932,1.059,4.233,1.216,6.292,0.428c14.775-5.663,30.808-5.669,45.597,0
	c2.058,0.789,4.358,0.632,6.29-0.427c1.932-1.06,3.301-2.915,3.742-5.074C119.239,19.707,125.015,15,131.647,15
	c7.736,0,14.029,6.29,14.029,14.021c0,5.127-2.876,9.841-7.504,12.303c-1.946,1.035-3.339,2.875-3.807,5.029
	c-0.468,2.154,0.036,4.406,1.376,6.155c8.645,11.278,13.214,24.692,13.214,38.79c0,35.218-28.651,63.87-63.867,63.87
	c-35.221,0-63.875-28.652-63.875-63.87c0-14.104,4.568-27.516,13.209-38.784C35.765,50.766,36.269,48.514,35.8,46.359z
	 M25.157,155.169c-2.541,0-4.608-2.065-4.608-4.604c0-2.54,2.067-4.605,4.608-4.605h3.152c3.248,3.372,6.788,6.455,10.586,9.209
	H25.157z M145.012,155.169h-13.735c3.798-2.754,7.337-5.837,10.584-9.209h3.15c2.541,0,4.608,2.066,4.608,4.605
	C149.621,153.104,147.553,155.169,145.012,155.169z"/>
<path d="M65.42,100.439v14.08c0,4.142,3.358,7.5,7.5,7.5h24.327c4.142,0,7.5-3.358,7.5-7.5v-14.08
	c11.451-1.674,20.272-11.556,20.272-23.463c0-4.142-3.358-7.5-7.5-7.5c-4.142,0-7.5,3.358-7.5,7.5c0,4.807-3.911,8.717-8.718,8.717
	c-4.806,0-8.716-3.91-8.716-8.717c0-0.019-0.003-0.037-0.003-0.055c4.38-2.58,7.334-7.332,7.334-12.773c0-1.104-0.896-2-2-2H72.254
	c-1.104,0-2,0.896-2,2c0,5.439,2.954,10.191,7.335,12.771c0,0.02-0.003,0.038-0.003,0.057c0,4.807-3.909,8.717-8.713,8.717
	c-4.811,0-8.725-3.91-8.725-8.717c0-4.142-3.358-7.5-7.5-7.5c-4.142,0-7.5,3.358-7.5,7.5C45.149,88.881,53.97,98.763,65.42,100.439
	z M80.42,107.02v-9.338c1.695-0.949,3.26-2.101,4.666-3.421c1.405,1.318,2.968,2.469,4.661,3.417v9.342H80.42z"/>

</svg>
