<?xml version="1.0" encoding="iso-8859-1"?>
<!-- Generator: Adobe Illustrator 19.0.0, SVG Export Plug-In . SVG Version: 6.00 Build 0)  -->
<svg version="1.1" id="Capa_1" xmlns="http://www.w3.org/2000/svg" xmlns:xlink="http://www.w3.org/1999/xlink" x="0px" y="0px"
	 viewBox="0 0 511 511" style="enable-background:new 0 0 511 511;" xml:space="preserve">
<g>
	<path d="M435.775,64.797C387.571,23.012,323.548,0,255.5,0S123.429,23.012,75.225,64.797C26.715,106.846,0,162.843,0,222.473
		c0,3.69,0.105,7.427,0.314,11.109c1.784,31.489,18.487,58.502,44.682,72.26c23.373,12.275,49.658,11.471,72.114-2.205
		c11.062-6.737,22.662-12.603,34.688-17.583l-4.289,141.814c-1.001,21.889,6.779,42.672,21.911,58.524
		C184.567,502.261,204.99,511,226.927,511h57.146c21.937,0,42.359-8.739,57.506-24.607c15.132-15.852,22.912-36.635,21.911-58.524
		l-4.289-141.814c12.026,4.98,23.626,10.845,34.688,17.583c11.879,7.234,24.828,10.867,37.852,10.867
		c11.596,0,23.253-2.88,34.262-8.662c26.195-13.757,42.898-40.771,44.682-72.261c0.208-3.681,0.314-7.418,0.314-11.108
		C511,162.843,484.285,106.846,435.775,64.797z M348.499,428.381c0.001,0.041,0.003,0.082,0.005,0.122
		c0.827,17.778-5.486,34.659-17.774,47.533C318.44,488.91,301.871,496,284.073,496h-57.146c-17.798,0-34.367-7.09-46.656-19.964
		c-12.289-12.874-18.601-29.755-17.774-47.533c0.002-0.041,0.003-0.082,0.005-0.122l4.478-148.06
		c27.935-9.565,57.841-14.52,88.521-14.52s60.586,4.955,88.521,14.52L348.499,428.381z M495.71,232.734
		c-1.483,26.179-15.195,48.544-36.681,59.828c-18.595,9.766-39.493,9.132-57.337-1.736c-42.993-26.184-93.546-40.024-146.193-40.024
		s-103.2,13.84-146.193,40.024c-17.843,10.868-38.743,11.502-57.337,1.736c-21.485-11.284-35.198-33.649-36.68-59.827
		c-0.192-3.4-0.29-6.853-0.29-10.262C15,108.072,122.888,15,255.5,15S496,108.072,496,222.473
		C496,225.882,495.902,229.334,495.71,232.734z"/>
	<path d="M49.698,166.376c0.973,0.422,1.985,0.622,2.982,0.622c2.897,0,5.657-1.689,6.884-4.516
		c2.243-5.167,4.811-10.31,7.633-15.285c2.044-3.603,0.78-8.18-2.823-10.224c-3.601-2.043-8.181-0.78-10.224,2.823
		c-3.083,5.437-5.892,11.06-8.346,16.713C44.155,160.31,45.898,164.727,49.698,166.376z"/>
	<path d="M337.893,45.399c-5.66-1.918-11.48-3.657-17.298-5.168c-4.006-1.039-8.103,1.365-9.145,5.374
		c-1.041,4.009,1.365,8.104,5.374,9.145c5.468,1.42,10.937,3.054,16.254,4.855c0.798,0.271,1.61,0.399,2.408,0.399
		c3.125,0,6.043-1.97,7.102-5.095C343.918,50.987,341.816,46.729,337.893,45.399z"/>
	<path d="M370.938,59.403c-3.682-1.9-8.205-0.453-10.104,3.228c-1.899,3.681-0.454,8.205,3.228,10.104
		c24.391,12.581,45.152,28.936,61.707,48.612c1.484,1.763,3.606,2.671,5.743,2.671c1.704,0,3.418-0.578,4.825-1.761
		c3.169-2.667,3.577-7.398,0.911-10.568C419.41,90.488,397.1,72.897,370.938,59.403z"/>
	<path d="M73.299,266.693c-12.134-3.006-24.897-15.232-26.061-35.77c-0.158-2.796-0.239-5.639-0.239-8.45
		c0-9.89,0.992-19.812,2.947-29.488c0.82-4.06-1.806-8.017-5.866-8.837c-4.062-0.817-8.017,1.806-8.837,5.866
		C33.092,200.666,32,211.587,32,222.473c0,3.093,0.088,6.222,0.263,9.299c1.595,28.17,19.948,45.149,37.429,49.48
		c0.606,0.15,1.212,0.222,1.81,0.222c3.366,0,6.428-2.284,7.274-5.698C79.771,271.756,77.32,267.689,73.299,266.693z"/>
	<path d="M194.462,429.979c0.01-0.216,0.018-0.431,0.024-0.631l1.38-45.623c0.125-4.14-3.129-7.598-7.27-7.723
		c-4.115-0.133-7.598,3.129-7.723,7.27l-1.38,45.638l-0.014,0.382c-0.609,13.092,4.039,25.524,13.089,35.005
		c1.474,1.544,3.448,2.321,5.426,2.321c1.861,0,3.725-0.688,5.178-2.075c2.996-2.86,3.106-7.608,0.247-10.604
		C197.226,447.454,194.045,438.948,194.462,429.979z"/>
	<path d="M320.933,334.993c0.077,0,0.154-0.001,0.231-0.003c4.14-0.125,7.395-3.583,7.27-7.724l-0.484-15.993
		c-0.125-4.14-3.608-7.391-7.723-7.27c-4.141,0.125-7.396,3.583-7.27,7.723l0.484,15.994
		C313.563,331.783,316.896,334.993,320.933,334.993z"/>
	<path d="M321.678,352.004c-4.141,0.125-7.395,3.583-7.27,7.723l2.105,69.621c0.123,4.063,3.455,7.273,7.492,7.273
		c0.077,0,0.154-0.001,0.231-0.003c4.141-0.125,7.395-3.583,7.27-7.723l-2.105-69.621
		C329.276,355.134,325.835,351.884,321.678,352.004z"/>
</g>
<g>
</g>
<g>
</g>
<g>
</g>
<g>
</g>
<g>
</g>
<g>
</g>
<g>
</g>
<g>
</g>
<g>
</g>
<g>
</g>
<g>
</g>
<g>
</g>
<g>
</g>
<g>
</g>
<g>
</g>
</svg>
