<?xml version="1.0" encoding="iso-8859-1"?>
<!-- Generator: Adobe Illustrator 19.0.0, SVG Export Plug-In . SVG Version: 6.00 Build 0)  -->
<svg version="1.1" id="Capa_1" xmlns="http://www.w3.org/2000/svg" xmlns:xlink="http://www.w3.org/1999/xlink" x="0px" y="0px"
	 viewBox="0 0 463 463" style="enable-background:new 0 0 463 463;" xml:space="preserve">
<g>
	<path d="M407.5,0h-352C38.131,0,24,14.131,24,31.5v368C24,416.87,38.131,431,55.5,431H56v16.5c0,8.547,6.953,15.5,15.5,15.5h16
		c8.547,0,15.5-6.953,15.5-15.5V431h257v16.5c0,8.547,6.953,15.5,15.5,15.5h16c8.547,0,15.5-6.953,15.5-15.5V431h0.5
		c17.369,0,31.5-14.131,31.5-31.5v-368C439,14.131,424.87,0,407.5,0z M55.5,15h352c9.098,0,16.5,7.402,16.5,16.5V112H39V31.5
		C39,22.402,46.402,15,55.5,15z M88,447.5c0,0.276-0.224,0.5-0.5,0.5h-16c-0.276,0-0.5-0.224-0.5-0.5V431h17V447.5z M392,447.5
		c0,0.276-0.224,0.5-0.5,0.5h-16c-0.276,0-0.5-0.224-0.5-0.5V431h17V447.5z M407.5,416h-352c-9.098,0-16.5-7.402-16.5-16.5V127h385
		v272.5C424,408.599,416.599,416,407.5,416z"/>
	<path d="M199.5,71h1.409c3.374,13.759,15.806,24,30.591,24s27.216-10.241,30.591-24h1.409c4.142,0,7.5-3.358,7.5-7.5
		s-3.358-7.5-7.5-7.5h-1.409c-3.374-13.759-15.806-24-30.591-24s-27.216,10.241-30.591,24H199.5c-4.142,0-7.5,3.358-7.5,7.5
		S195.358,71,199.5,71z M231.5,80c-6.396,0-11.942-3.666-14.679-9h29.357C243.442,76.334,237.897,80,231.5,80z M231.5,47
		c6.396,0,11.942,3.666,14.679,9h-29.357C219.559,50.666,225.104,47,231.5,47z"/>
	<path d="M307.57,80.824c-2.929,2.929-2.929,7.678,0,10.606c1.464,1.464,3.384,2.197,5.303,2.197s3.839-0.732,5.303-2.197
		l0.997-0.997c4.999,3.03,10.662,4.551,16.328,4.551c8.066,0,16.133-3.07,22.274-9.211c10.454-10.454,12.003-26.486,4.66-38.601
		l0.997-0.997c2.929-2.929,2.929-7.678,0-10.606c-2.929-2.929-7.678-2.929-10.606,0l-0.997,0.997
		c-12.115-7.343-28.147-5.794-38.601,4.66c-10.454,10.454-12.003,26.486-4.66,38.601L307.57,80.824z M347.168,75.167
		c-4.523,4.523-11.036,5.852-16.744,4.015l20.759-20.759C353.02,64.131,351.691,70.644,347.168,75.167z M323.833,51.833
		c3.217-3.217,7.442-4.825,11.667-4.825c1.716,0,3.428,0.279,5.076,0.81l-20.759,20.759
		C317.981,62.869,319.31,56.356,323.833,51.833z"/>
	<path d="M105.227,85.774c6.141,6.141,14.207,9.211,22.274,9.211c5.666,0,11.329-1.521,16.327-4.551l0.996,0.996
		c1.464,1.465,3.384,2.197,5.303,2.197c1.919,0,3.839-0.732,5.303-2.197c2.929-2.929,2.929-7.678,0-10.606l-0.997-0.997
		c7.343-12.115,5.794-28.147-4.66-38.601c-10.454-10.455-26.486-12.004-38.601-4.661l-0.997-0.997
		c-2.929-2.929-7.678-2.929-10.606,0c-2.929,2.929-2.929,7.678,0,10.606l0.997,0.997C93.223,59.288,94.772,75.32,105.227,85.774z
		 M115.833,75.167c-4.523-4.523-5.852-11.036-4.015-16.743l20.759,20.759C126.87,81.02,120.356,79.691,115.833,75.167z
		 M127.5,47.008c4.225,0,8.45,1.608,11.667,4.825c4.523,4.523,5.852,11.036,4.015,16.743l-20.758-20.758
		C124.073,47.287,125.785,47.008,127.5,47.008z"/>
	<path d="M367.5,160h-272C82.542,160,72,170.542,72,183.5v176c0,12.958,10.542,23.5,23.5,23.5h272c12.958,0,23.5-10.542,23.5-23.5
		v-176C391,170.542,380.458,160,367.5,160z M376,359.5c0,4.687-3.813,8.5-8.5,8.5h-272c-4.687,0-8.5-3.813-8.5-8.5v-176
		c0-4.687,3.813-8.5,8.5-8.5h272c4.687,0,8.5,3.813,8.5,8.5V359.5z"/>
	<path d="M295.5,192h-128c-4.142,0-7.5,3.358-7.5,7.5v8c0,12.958,10.542,23.5,23.5,23.5h96c12.958,0,23.5-10.542,23.5-23.5v-8
		C303,195.358,299.643,192,295.5,192z M288,207.5c0,4.687-3.813,8.5-8.5,8.5h-96c-4.687,0-8.5-3.813-8.5-8.5V207h113V207.5z"/>
</g>
<g>
</g>
<g>
</g>
<g>
</g>
<g>
</g>
<g>
</g>
<g>
</g>
<g>
</g>
<g>
</g>
<g>
</g>
<g>
</g>
<g>
</g>
<g>
</g>
<g>
</g>
<g>
</g>
<g>
</g>
</svg>
