<?xml version="1.0" encoding="iso-8859-1"?>
<!-- Generator: Adobe Illustrator 18.0.0, SVG Export Plug-In . SVG Version: 6.00 Build 0)  -->
<!DOCTYPE svg PUBLIC "-//W3C//DTD SVG 1.1//EN" "http://www.w3.org/Graphics/SVG/1.1/DTD/svg11.dtd">
<svg version="1.1" id="Capa_1" xmlns="http://www.w3.org/2000/svg" xmlns:xlink="http://www.w3.org/1999/xlink" x="0px" y="0px"
	 viewBox="0 0 297 297" style="enable-background:new 0 0 297 297;" xml:space="preserve">
<path d="M283.52,143.802l-20.533-10.264l-9.382-37.524c-4.531-18.125-20.743-30.784-39.426-30.784h-41.217
	c-5.458,0-9.884,4.425-9.884,9.884v6.424h-22.979v-39.04c0-5.458-4.425-9.884-9.884-9.884H64.984c-5.458,0-9.884,4.425-9.884,9.884
	v39.04H32.369c-5.458,0-9.884,4.425-9.884,9.884v55.348H9.884c-5.458,0-9.884,4.425-9.884,9.884v65.231
	c0,5.458,4.425,9.884,9.884,9.884h7.597c4.468,18.681,21.296,32.616,41.327,32.616s36.858-13.934,41.327-32.616h80.425
	c4.468,18.681,21.296,32.616,41.327,32.616s36.858-13.934,41.327-32.616h9.409c13.443,0,24.38-10.937,24.38-24.379v-41.781
	C297,156.314,291.835,147.959,283.52,143.802z M182.845,84.998h31.334c9.596,0,17.923,6.502,20.25,15.811l7.414,29.653h-58.997
	V84.998z M163.078,146.77h-55.595v-45.464h55.595V146.77z M74.868,52.383h45.464v29.156H74.868V52.383z M42.252,101.306h45.464
	v45.464H42.252V101.306z M58.807,244.617c-12.535,0-22.732-10.197-22.732-22.732s10.197-22.732,22.732-22.732
	s22.732,10.197,22.732,22.732S71.342,244.617,58.807,244.617z M58.807,179.386c-17.477,0-32.52,10.608-39.04,25.721v-38.569h143.311
	v45.464h-62.945C95.665,193.32,78.838,179.386,58.807,179.386z M221.885,244.617c-12.535,0-22.732-10.197-22.732-22.732
	s10.197-22.732,22.732-22.732s22.732,10.197,22.732,22.732S234.42,244.617,221.885,244.617z M277.233,207.39
	c0,2.543-2.069,4.612-4.613,4.612h-9.409c-4.468-18.681-21.296-32.616-41.327-32.616c-17.477,0-32.52,10.608-39.04,25.721V150.23
	h69.324l22.512,11.253c1.573,0.787,2.551,2.368,2.551,4.126V207.39z"/>
<g>
</g>
<g>
</g>
<g>
</g>
<g>
</g>
<g>
</g>
<g>
</g>
<g>
</g>
<g>
</g>
<g>
</g>
<g>
</g>
<g>
</g>
<g>
</g>
<g>
</g>
<g>
</g>
<g>
</g>
</svg>
