<?xml version="1.0" encoding="iso-8859-1"?>
<!-- Generator: Adobe Illustrator 18.0.0, SVG Export Plug-In . SVG Version: 6.00 Build 0)  -->
<!DOCTYPE svg PUBLIC "-//W3C//DTD SVG 1.1//EN" "http://www.w3.org/Graphics/SVG/1.1/DTD/svg11.dtd">
<svg version="1.1" id="Capa_1" xmlns="http://www.w3.org/2000/svg" xmlns:xlink="http://www.w3.org/1999/xlink" x="0px" y="0px"
	 viewBox="0 0 297 297" style="enable-background:new 0 0 297 297;" xml:space="preserve">

<path d="M214.121,114.781h-0.01c-4.549,0-8.232,3.688-8.232,8.237c0,4.549,3.693,8.237,8.242,8.237c4.55,0,8.237-3.688,8.237-8.237
	C222.358,118.469,218.671,114.781,214.121,114.781z"/>
<path d="M286.704,112.722h-12.723L247.52,86.26l14.976-44.928c1.233-3.699,0.269-7.778-2.487-10.536s-6.836-3.718-10.536-2.487
	l-48.106,16.036c-8.829-2.135-35.219-7.813-66.088-7.813c-0.196,0-0.394,0.001-0.59,0.001C83.45,36.653,44.996,52.75,23.483,83.085
	c-0.231,0.326-0.448,0.66-0.675,0.988c-0.46-0.344-0.873-0.735-1.199-1.182c-1.41-1.939-1.11-5.196-0.604-7.577
	c1.171-5.556-2.39-11.025-7.955-12.195C7.486,61.948,2.027,65.51,0.856,71.074c-0.186,0.885-0.34,1.75-0.463,2.591
	C-1.133,84.12,2.061,91.133,5.156,95.272c2.272,3.039,5.003,5.269,7.744,6.908c-11.591,27.577-11.76,61.669-0.275,99.983
	c10.493,35.006,26.845,61.155,27.536,62.251c1.885,2.991,5.174,4.805,8.709,4.805h33.976c5.686,0,10.296-4.61,10.296-10.296
	v-19.905c16.263,4.145,44.79,8.373,77.717-0.131v20.036c0,5.686,4.61,10.296,10.296,10.296h37.597c2.958,0,5.778-1.237,7.733-3.458
	c1.955-2.22,2.864-5.139,2.488-8.073c-0.152-1.339-3.333-33.072,30.005-58.536c3.964-3.028,21-11.02,31.831-15.728
	c3.759-1.634,6.192-5.343,6.192-9.442v-50.964C297,117.332,292.39,112.722,286.704,112.722z M276.408,167.281
	c-9.053,4.074-24.315,11.219-29.93,15.507c-29.968,22.889-36.714,50.523-37.966,65.839h-17.062v-23.68
	c0-3.353-1.633-6.496-4.376-8.424c-2.743-1.927-6.251-2.397-9.409-1.263c-48.638,17.516-90.381,0.385-90.771,0.22
	c-3.179-1.362-6.831-1.032-9.719,0.873c-2.888,1.906-4.625,5.134-4.625,8.594v23.68H54.773
	C43.333,228.278,2.689,148.004,40.281,94.998C83.23,34.435,197.91,64.688,199.057,64.999c1.96,0.534,4.035,0.475,5.962-0.166
	l31.429-10.477l-10.477,31.429c-1.233,3.699-0.269,7.778,2.488,10.536l33.976,33.976c1.931,1.93,4.55,3.015,7.28,3.015h6.692
	V167.281z"/>

</svg>
