<?xml version="1.0" encoding="iso-8859-1"?>
<!-- Generator: Adobe Illustrator 18.0.0, SVG Export Plug-In . SVG Version: 6.00 Build 0)  -->
<!DOCTYPE svg PUBLIC "-//W3C//DTD SVG 1.1//EN" "http://www.w3.org/Graphics/SVG/1.1/DTD/svg11.dtd">
<svg version="1.1" id="Capa_1" xmlns="http://www.w3.org/2000/svg" xmlns:xlink="http://www.w3.org/1999/xlink" x="0px" y="0px"
	 viewBox="0 0 297 297" style="enable-background:new 0 0 297 297;" xml:space="preserve">
<g>
	<path d="M117.579,155.058c1.724,0,3.41-0.703,4.638-1.92c1.227-1.219,1.92-2.914,1.92-4.638s-0.694-3.411-1.92-4.638
		c-1.219-1.218-2.914-1.92-4.638-1.92c-1.724,0-3.411,0.703-4.638,1.92c-1.218,1.227-1.92,2.914-1.92,4.638s0.703,3.419,1.92,4.638
		C114.168,154.356,115.856,155.058,117.579,155.058z"/>
	<path d="M148.497,139.599c1.724,0,3.419-0.703,4.638-1.92c1.227-1.219,1.92-2.914,1.92-4.638c0-1.724-0.694-3.42-1.92-4.638
		c-1.219-1.218-2.905-1.92-4.638-1.92c-1.724,0-3.411,0.703-4.638,1.92c-1.218,1.218-1.92,2.904-1.92,4.638
		c0,1.733,0.703,3.419,1.92,4.638C145.086,138.897,146.773,139.599,148.497,139.599z"/>
	<path d="M128.4,205.698c-1.218,1.218-1.92,2.914-1.92,4.638c0,1.724,0.703,3.419,1.92,4.638c1.218,1.218,2.914,1.92,4.638,1.92
		c1.733,0,3.419-0.703,4.638-1.92c1.227-1.219,1.92-2.914,1.92-4.638c0-1.724-0.694-3.42-1.92-4.638
		c-1.219-1.218-2.905-1.92-4.638-1.92C131.314,203.778,129.618,204.48,128.4,205.698z"/>
	<path d="M174.777,205.698c-1.218,1.218-1.92,2.914-1.92,4.638c0,1.724,0.703,3.419,1.92,4.638c1.227,1.218,2.914,1.92,4.638,1.92
		s3.419-0.703,4.638-1.92c1.227-1.219,1.92-2.914,1.92-4.638c0-1.724-0.694-3.42-1.92-4.638c-1.219-1.218-2.914-1.92-4.638-1.92
		S176.004,204.48,174.777,205.698z"/>
	<path d="M287.631,200.967h-46.377c-2.036,0-4.017,0.663-5.642,1.889c-0.385,0.29-39.042,29.029-87.112,29.029
		c-47.843,0-86.735-28.747-87.112-29.029c-1.625-1.226-3.606-1.889-5.642-1.889H9.369c-5.174,0-9.369,4.195-9.369,9.369
		s4.195,9.369,9.369,9.369h43.384c10.247,7.043,48.469,30.918,95.747,30.918s85.5-23.875,95.747-30.918h43.384
		c5.174,0,9.369-4.195,9.369-9.369S292.805,200.967,287.631,200.967z"/>
	<path d="M55.746,247.344H40.287c-5.174,0-9.369,4.195-9.369,9.369c0,5.174,4.195,9.369,9.369,9.369h15.459
		c5.174,0,9.369-4.195,9.369-9.369C65.115,251.539,60.92,247.344,55.746,247.344z"/>
	<path d="M256.713,247.344h-15.459c-5.174,0-9.369,4.195-9.369,9.369c0,5.174,4.195,9.369,9.369,9.369h15.459
		c5.174,0,9.369-4.195,9.369-9.369C266.082,251.539,261.887,247.344,256.713,247.344z"/>
	<path d="M194.877,262.803h-15.459c-5.174,0-9.369,4.195-9.369,9.369s4.195,9.369,9.369,9.369h15.459
		c5.174,0,9.369-4.195,9.369-9.369S200.051,262.803,194.877,262.803z"/>
	<path d="M102.123,262.803H86.664c-5.174,0-9.369,4.195-9.369,9.369s4.195,9.369,9.369,9.369h15.459
		c5.174,0,9.369-4.195,9.369-9.369S107.297,262.803,102.123,262.803z"/>
	<path d="M24.828,173.328H79.13c3.705,9.06,12.615,15.459,22.993,15.459h123.672c13.69,0,24.828-11.138,24.828-24.828
		c0-2.186-0.287-4.307-0.82-6.328c12.089-1.662,21.432-12.052,21.432-24.59c0-3.38-0.681-6.604-1.91-9.544
		c7.305-4.327,12.216-12.286,12.216-21.374c0-10.813-6.951-20.028-16.617-23.426c0.75-2.365,1.158-4.881,1.158-7.492
		c0-13.69-11.138-24.828-24.828-24.828h-35.736c0.493-1.95,0.758-3.989,0.758-6.09c0-13.69-11.138-24.828-24.828-24.828h-63.866
		c-18.99,0-34.954,13.206-39.187,30.918H24.828c-5.174,0-9.369,4.195-9.369,9.369v108.213
		C15.459,169.133,19.654,173.328,24.828,173.328z M34.197,65.115h52.467c5.174,0,9.369-4.195,9.369-9.369
		c0-11.882,9.666-21.549,21.549-21.549h63.866c3.358,0,6.09,2.732,6.09,6.09c0,3.358-2.732,6.09-6.09,6.09H148.5
		c-5.174,0-9.369,4.195-9.369,9.369c0,20.406-16.602,37.008-37.008,37.008c-5.174,0-9.369,4.195-9.369,9.369
		c0,5.174,4.195,9.369,9.369,9.369c27.547,0,50.492-20.082,54.958-46.377h84.173c3.358,0,6.09,2.732,6.09,6.09
		s-2.732,6.09-6.09,6.09h-51.53c-5.174,0-9.369,4.195-9.369,9.369s4.195,9.369,9.369,9.369h66.989c3.358,0,6.09,2.732,6.09,6.09
		c0,3.358-2.732,6.09-6.09,6.09h-61.836c-5.174,0-9.369,4.195-9.369,9.369c0,5.174,4.195,9.369,9.369,9.369h51.53
		c3.358,0,6.09,2.732,6.09,6.09s-2.732,6.09-6.09,6.09h-66.989c-5.174,0-9.369,4.195-9.369,9.369s4.195,9.369,9.369,9.369h46.377
		c3.358,0,6.09,2.732,6.09,6.09s-2.732,6.09-6.09,6.09H102.123c-3.358,0-6.09-2.732-6.09-6.09c0-5.174-4.195-9.369-9.369-9.369
		H34.197V65.115z"/>
</g>
<g>
</g>
<g>
</g>
<g>
</g>
<g>
</g>
<g>
</g>
<g>
</g>
<g>
</g>
<g>
</g>
<g>
</g>
<g>
</g>
<g>
</g>
<g>
</g>
<g>
</g>
<g>
</g>
<g>
</g>
</svg>
