<?xml version="1.0" encoding="iso-8859-1"?>
<!-- Generator: Adobe Illustrator 18.0.0, SVG Export Plug-In . SVG Version: 6.00 Build 0)  -->
<!DOCTYPE svg PUBLIC "-//W3C//DTD SVG 1.1//EN" "http://www.w3.org/Graphics/SVG/1.1/DTD/svg11.dtd">
<svg xmlns="http://www.w3.org/2000/svg" version="1.1" x="0" y="0" viewBox="0 0 297 297" xml:space="preserve"><path d="M117.6 155.1c1.7 0 3.4-0.7 4.6-1.9 1.2-1.2 1.9-2.9 1.9-4.6s-0.7-3.4-1.9-4.6c-1.2-1.2-2.9-1.9-4.6-1.9 -1.7 0-3.4 0.7-4.6 1.9 -1.2 1.2-1.9 2.9-1.9 4.6s0.7 3.4 1.9 4.6C114.2 154.4 115.9 155.1 117.6 155.1zM148.5 139.6c1.7 0 3.4-0.7 4.6-1.9 1.2-1.2 1.9-2.9 1.9-4.6 0-1.7-0.7-3.4-1.9-4.6 -1.2-1.2-2.9-1.9-4.6-1.9 -1.7 0-3.4 0.7-4.6 1.9 -1.2 1.2-1.9 2.9-1.9 4.6 0 1.7 0.7 3.4 1.9 4.6C145.1 138.9 146.8 139.6 148.5 139.6zM128.4 205.7c-1.2 1.2-1.9 2.9-1.9 4.6 0 1.7 0.7 3.4 1.9 4.6 1.2 1.2 2.9 1.9 4.6 1.9 1.7 0 3.4-0.7 4.6-1.9 1.2-1.2 1.9-2.9 1.9-4.6 0-1.7-0.7-3.4-1.9-4.6 -1.2-1.2-2.9-1.9-4.6-1.9C131.3 203.8 129.6 204.5 128.4 205.7zM174.8 205.7c-1.2 1.2-1.9 2.9-1.9 4.6 0 1.7 0.7 3.4 1.9 4.6 1.2 1.2 2.9 1.9 4.6 1.9s3.4-0.7 4.6-1.9c1.2-1.2 1.9-2.9 1.9-4.6 0-1.7-0.7-3.4-1.9-4.6 -1.2-1.2-2.9-1.9-4.6-1.9S176 204.5 174.8 205.7zM287.6 201h-46.4c-2 0-4 0.7-5.6 1.9 -0.4 0.3-39 29-87.1 29 -47.8 0-86.7-28.7-87.1-29 -1.6-1.2-3.6-1.9-5.6-1.9H9.4c-5.2 0-9.4 4.2-9.4 9.4s4.2 9.4 9.4 9.4h43.4c10.2 7 48.5 30.9 95.7 30.9s85.5-23.9 95.7-30.9h43.4c5.2 0 9.4-4.2 9.4-9.4S292.8 201 287.6 201zM55.7 247.3H40.3c-5.2 0-9.4 4.2-9.4 9.4 0 5.2 4.2 9.4 9.4 9.4h15.5c5.2 0 9.4-4.2 9.4-9.4C65.1 251.5 60.9 247.3 55.7 247.3zM256.7 247.3h-15.5c-5.2 0-9.4 4.2-9.4 9.4 0 5.2 4.2 9.4 9.4 9.4h15.5c5.2 0 9.4-4.2 9.4-9.4C266.1 251.5 261.9 247.3 256.7 247.3zM194.9 262.8h-15.5c-5.2 0-9.4 4.2-9.4 9.4s4.2 9.4 9.4 9.4h15.5c5.2 0 9.4-4.2 9.4-9.4S200.1 262.8 194.9 262.8zM102.1 262.8H86.7c-5.2 0-9.4 4.2-9.4 9.4s4.2 9.4 9.4 9.4h15.5c5.2 0 9.4-4.2 9.4-9.4S107.3 262.8 102.1 262.8zM24.8 173.3H79.1c3.7 9.1 12.6 15.5 23 15.5h123.7c13.7 0 24.8-11.1 24.8-24.8 0-2.2-0.3-4.3-0.8-6.3 12.1-1.7 21.4-12.1 21.4-24.6 0-3.4-0.7-6.6-1.9-9.5 7.3-4.3 12.2-12.3 12.2-21.4 0-10.8-7-20-16.6-23.4 0.8-2.4 1.2-4.9 1.2-7.5 0-13.7-11.1-24.8-24.8-24.8h-35.7c0.5-1.9 0.8-4 0.8-6.1 0-13.7-11.1-24.8-24.8-24.8h-63.9c-19 0-35 13.2-39.2 30.9H24.8c-5.2 0-9.4 4.2-9.4 9.4v108.2C15.5 169.1 19.7 173.3 24.8 173.3zM34.2 65.1h52.5c5.2 0 9.4-4.2 9.4-9.4 0-11.9 9.7-21.5 21.5-21.5h63.9c3.4 0 6.1 2.7 6.1 6.1 0 3.4-2.7 6.1-6.1 6.1H148.5c-5.2 0-9.4 4.2-9.4 9.4 0 20.4-16.6 37-37 37 -5.2 0-9.4 4.2-9.4 9.4 0 5.2 4.2 9.4 9.4 9.4 27.5 0 50.5-20.1 55-46.4h84.2c3.4 0 6.1 2.7 6.1 6.1s-2.7 6.1-6.1 6.1h-51.5c-5.2 0-9.4 4.2-9.4 9.4s4.2 9.4 9.4 9.4h67c3.4 0 6.1 2.7 6.1 6.1 0 3.4-2.7 6.1-6.1 6.1h-61.8c-5.2 0-9.4 4.2-9.4 9.4 0 5.2 4.2 9.4 9.4 9.4h51.5c3.4 0 6.1 2.7 6.1 6.1s-2.7 6.1-6.1 6.1h-67c-5.2 0-9.4 4.2-9.4 9.4s4.2 9.4 9.4 9.4h46.4c3.4 0 6.1 2.7 6.1 6.1s-2.7 6.1-6.1 6.1H102.1c-3.4 0-6.1-2.7-6.1-6.1 0-5.2-4.2-9.4-9.4-9.4H34.2V65.1z"/></svg>