<?xml version="1.0" encoding="iso-8859-1"?>
<!-- Generator: Adobe Illustrator 18.0.0, SVG Export Plug-In . SVG Version: 6.00 Build 0)  -->
<!DOCTYPE svg PUBLIC "-//W3C//DTD SVG 1.1//EN" "http://www.w3.org/Graphics/SVG/1.1/DTD/svg11.dtd">
<svg version="1.1" id="Capa_1" xmlns="http://www.w3.org/2000/svg" xmlns:xlink="http://www.w3.org/1999/xlink" x="0px" y="0px"
	 viewBox="0 0 297 297" style="enable-background:new 0 0 297 297;" xml:space="preserve">

<path d="M249.252,237.416c10.495-59.108,10.484-118.715-0.011-177.824c6.102-5.013,11.688-13.09,14.76-26.046
	c2.874-12.122,2.164-23.301,2.133-23.77c-0.327-4.855-4.094-8.774-8.933-9.291C231.587-2.247,216,7.006,207.594,17.12
	C168.276,6.984,128.718,6.977,89.4,17.112C80.992,7.001,65.407-2.246,39.8,0.485c-4.839,0.517-8.606,4.436-8.933,9.291
	c-0.031,0.47-0.741,11.648,2.133,23.77c3.07,12.949,8.652,21.024,14.75,26.038c-10.496,59.11-10.497,118.72-0.001,177.83
	C41.652,242.429,36.07,250.504,33,263.452c-2.874,12.122-2.164,23.301-2.133,23.77c0.327,4.855,4.094,8.774,8.933,9.291
	c3.098,0.331,6.048,0.486,8.859,0.486c20.434,0,33.374-8.235,40.761-17.132c19.654,5.069,39.367,7.624,59.081,7.624
	s39.427-2.555,59.081-7.624c7.387,8.897,20.327,17.132,40.761,17.132c2.81,0,5.761-0.156,8.859-0.486
	c4.839-0.517,8.606-4.436,8.933-9.291c0.031-0.47,0.741-11.648-2.133-23.77C260.93,250.505,255.349,242.43,249.252,237.416z
	 M219.543,260.946c-0.459-1.822-1.398-3.391-2.637-4.628l0.036-0.036c-0.019,0.006-0.037,0.012-0.056,0.018
	c-2.411-2.393-5.973-3.508-9.51-2.619c-3.749,0.945-6.46,3.892-7.296,7.411c-34.324,8.408-68.837,8.41-103.161,0.004
	c-0.834-3.521-3.546-6.47-7.297-7.415c-3.539-0.89-7.102,0.227-9.514,2.622c-0.015-0.005-0.029-0.009-0.044-0.014l0.029,0.029
	c-1.24,1.237-2.178,2.806-2.637,4.628c-0.043,0.168-4.058,14.971-26.321,15.967c0.877-9.723,4.08-24.206,15.261-26.938
	c5.376-1.313,8.669-6.736,7.355-12.112c-0.871-3.566-3.554-6.205-6.828-7.201c-9.326-54.63-9.331-109.69-0.008-164.32
	c3.278-0.994,5.964-3.637,6.836-7.206c1.314-5.376-1.979-10.799-7.355-12.112c-11.181-2.732-14.384-17.215-15.261-26.938
	c22.263,0.995,26.278,15.798,26.321,15.967c1.351,5.365,6.797,8.62,12.166,7.266c3.751-0.945,6.463-3.894,7.297-7.415
	c34.324-8.407,68.838-8.4,103.161,0.008c0.836,3.518,3.547,6.463,7.295,7.408c5.369,1.354,10.815-1.9,12.166-7.266
	c0.043-0.168,4.058-14.971,26.321-15.967c-0.877,9.723-4.08,24.206-15.261,26.938c-5.376,1.313-8.669,6.736-7.355,12.112
	c0.871,3.564,3.551,6.205,6.824,7.202c9.326,54.632,9.325,109.693,0.001,164.325c-3.273,0.997-5.954,3.635-6.825,7.2
	c-1.314,5.376,1.979,10.799,7.355,12.112c11.181,2.732,14.384,17.215,15.261,26.938
	C223.601,275.918,219.586,261.115,219.543,260.946z"/>
<path d="M200.299,118.058c-34.372-7.734-69.227-7.734-103.598,0c-3.22,0.724-5.878,2.988-7.104,6.054
	c-10.862,27.153-10.862,54.689,0,81.842c1.226,3.066,3.884,5.33,7.104,6.054c17.186,3.867,34.493,5.801,51.799,5.801
	s34.613-1.934,51.799-5.801c3.22-0.724,5.878-2.988,7.104-6.054c10.862-27.153,10.862-54.689,0-81.842
	C206.177,121.046,203.519,118.782,200.299,118.058z M190.629,193.575c-27.984,5.585-56.275,5.585-84.259,0
	c-6.567-19.158-6.567-37.928,0-57.085c27.984-5.585,56.275-5.585,84.259,0C197.196,155.647,197.196,174.418,190.629,193.575z"/>

</svg>
