<?xml version="1.0" encoding="iso-8859-1"?>
<!-- Generator: Adobe Illustrator 18.0.0, SVG Export Plug-In . SVG Version: 6.00 Build 0)  -->
<!DOCTYPE svg PUBLIC "-//W3C//DTD SVG 1.1//EN" "http://www.w3.org/Graphics/SVG/1.1/DTD/svg11.dtd">
<svg xmlns="http://www.w3.org/2000/svg" version="1.1" x="0" y="0" viewBox="0 0 297 297" xml:space="preserve"><path d="M249.3 237.4c10.5-59.1 10.5-118.7 0-177.8 6.1-5 11.7-13.1 14.8-26 2.9-12.1 2.2-23.3 2.1-23.8 -0.3-4.9-4.1-8.8-8.9-9.3C231.6-2.2 216 7 207.6 17.1 168.3 7 128.7 7 89.4 17.1 81 7 65.4-2.2 39.8 0.5c-4.8 0.5-8.6 4.4-8.9 9.3 0 0.5-0.7 11.6 2.1 23.8 3.1 12.9 8.7 21 14.8 26 -10.5 59.1-10.5 118.7 0 177.8C41.7 242.4 36.1 250.5 33 263.5c-2.9 12.1-2.2 23.3-2.1 23.8 0.3 4.9 4.1 8.8 8.9 9.3 3.1 0.3 6 0.5 8.9 0.5 20.4 0 33.4-8.2 40.8-17.1 19.7 5.1 39.4 7.6 59.1 7.6s39.4-2.6 59.1-7.6c7.4 8.9 20.3 17.1 40.8 17.1 2.8 0 5.8-0.2 8.9-0.5 4.8-0.5 8.6-4.4 8.9-9.3 0-0.5 0.7-11.6-2.1-23.8C260.9 250.5 255.3 242.4 249.3 237.4zM219.5 260.9c-0.5-1.8-1.4-3.4-2.6-4.6l0 0c0 0 0 0-0.1 0 -2.4-2.4-6-3.5-9.5-2.6 -3.7 0.9-6.5 3.9-7.3 7.4 -34.3 8.4-68.8 8.4-103.2 0 -0.8-3.5-3.5-6.5-7.3-7.4 -3.5-0.9-7.1 0.2-9.5 2.6 0 0 0 0 0 0l0 0c-1.2 1.2-2.2 2.8-2.6 4.6 0 0.2-4.1 15-26.3 16 0.9-9.7 4.1-24.2 15.3-26.9 5.4-1.3 8.7-6.7 7.4-12.1 -0.9-3.6-3.6-6.2-6.8-7.2 -9.3-54.6-9.3-109.7 0-164.3 3.3-1 6-3.6 6.8-7.2 1.3-5.4-2-10.8-7.4-12.1 -11.2-2.7-14.4-17.2-15.3-26.9 22.3 1 26.3 15.8 26.3 16 1.4 5.4 6.8 8.6 12.2 7.3 3.8-0.9 6.5-3.9 7.3-7.4 34.3-8.4 68.8-8.4 103.2 0 0.8 3.5 3.5 6.5 7.3 7.4 5.4 1.4 10.8-1.9 12.2-7.3 0-0.2 4.1-15 26.3-16 -0.9 9.7-4.1 24.2-15.3 26.9 -5.4 1.3-8.7 6.7-7.4 12.1 0.9 3.6 3.6 6.2 6.8 7.2 9.3 54.6 9.3 109.7 0 164.3 -3.3 1-6 3.6-6.8 7.2 -1.3 5.4 2 10.8 7.4 12.1 11.2 2.7 14.4 17.2 15.3 26.9C223.6 275.9 219.6 261.1 219.5 260.9zM200.3 118.1c-34.4-7.7-69.2-7.7-103.6 0 -3.2 0.7-5.9 3-7.1 6.1 -10.9 27.2-10.9 54.7 0 81.8 1.2 3.1 3.9 5.3 7.1 6.1 17.2 3.9 34.5 5.8 51.8 5.8s34.6-1.9 51.8-5.8c3.2-0.7 5.9-3 7.1-6.1 10.9-27.2 10.9-54.7 0-81.8C206.2 121 203.5 118.8 200.3 118.1zM190.6 193.6c-28 5.6-56.3 5.6-84.3 0 -6.6-19.2-6.6-37.9 0-57.1 28-5.6 56.3-5.6 84.3 0C197.2 155.6 197.2 174.4 190.6 193.6z"/></svg>