<?xml version='1.0' encoding='utf-8'?>
<!DOCTYPE svg PUBLIC '-//W3C//DTD SVG 1.1//EN' 'http://www.w3.org/Graphics/SVG/1.1/DTD/svg11.dtd'>
<svg version="1.1" xmlns="http://www.w3.org/2000/svg" viewBox="0 0 512 512" xmlns:xlink="http://www.w3.org/1999/xlink" enable-background="new 0 0 512 512">

<path d="m412.3,128.2c-12.5-42.4-48-71.7-89.6-71.7-8.6,0-16.9,1.3-25.1,3.8-23.1-31.2-57.4-49.3-94.4-49.3-62.9,0-114.9,52.9-122,121.6-41,14.1-70.2,56.7-70.2,105.7 0,61.1 44.8,110.8 99.9,110.8 11.3,0 20.4-9.1 20.4-20.4 0-11.3-9.1-20.4-20.4-20.4-32.6,0-59.1-31.4-59.1-70 0-35.3 22.3-65.1 51.9-69.4 10-1.5 17.5-10.9 17.5-21 0-53 36.8-96.1 82.1-96.1 27.8,0 53.8,16.2 68.8,43.8 8.1,14.9 23.1,10.5 27.9,7.8 7.3-4.1 15-6.2 22.8-6.2 25.9,0 48.6,23 52.8,53.4 1.4,10.1 5.4,17.6 25.6,17.6 32.6,0 59.1,31.4 59.1,70 0,38.6-26.5,70-59.1,70-11.3,0-20.4,9.1-20.4,20.4 0,11.3 9.1,20.4 20.4,20.4 55.1,0 99.9-49.7 99.9-110.8-0.1-56.8-38.9-103.8-88.8-110z"/>
<path d="m213,275.8c-11.3,0-20.4,9.1-20.4,20.4v32.5c0,11.3 9.1,20.4 20.4,20.4 11.3,0 20.4-9.1 20.4-20.4v-32.5c0-11.3-9.1-20.4-20.4-20.4z"/>
<path d="m306,275.8c-11.3,0-20.4,9.1-20.4,20.4v32.5c0,11.3 9.1,20.4 20.4,20.4 11.3,0 20.4-9.1 20.4-20.4v-32.5c0-11.3-9.1-20.4-20.4-20.4z"/>
<path d="m256.9,427.7c-11.3,0-20.4,9.1-20.4,20.4v32.5c0,11.3 9.1,20.4 20.4,20.4 11.3,0 20.4-9.1 20.4-20.4v-32.5c5.68434e-14-11.3-9.1-20.4-20.4-20.4z"/>
<path d="m363.9,426.5c-11.3,0-20.4,9.1-20.4,20.4v32.5c0,11.3 9.1,20.4 20.4,20.4 11.3,0 20.4-9.1 20.4-20.4v-32.5c5.68434e-14-11.2-9.1-20.4-20.4-20.4z"/>
<path d="m148.1,425.4c-11.3,0-20.4,9.1-20.4,20.4v32.5c0,11.3 9.1,20.4 20.4,20.4 11.3,0 20.4-9.1 20.4-20.4v-32.5c0-11.3-9.1-20.4-20.4-20.4z"/>

</svg>
