<?xml version="1.0" encoding="iso-8859-1"?>
<!-- Generator: Adobe Illustrator 16.0.0, SVG Export Plug-In . SVG Version: 6.00 Build 0)  -->
<!DOCTYPE svg PUBLIC "-//W3C//DTD SVG 1.1//EN" "http://www.w3.org/Graphics/SVG/1.1/DTD/svg11.dtd">
<svg version="1.1" id="Capa_1" xmlns="http://www.w3.org/2000/svg" xmlns:xlink="http://www.w3.org/1999/xlink" x="0px" y="0px"
	 width="348.41px" height="348.41px" viewBox="0 0 348.41 348.41" style="enable-background:new 0 0 348.41 348.41;"
	 xml:space="preserve">
<g>
	<path d="M118.249,144.719c-15.633,0-28.35,12.717-28.35,28.35c0,15.636,12.717,28.351,28.35,28.351
		c15.63,0,28.35-12.715,28.35-28.351C146.599,157.436,133.874,144.719,118.249,144.719z M118.249,185.219
		c-6.697,0-12.15-5.447-12.15-12.15c0-6.702,5.453-12.149,12.15-12.149c6.695,0,12.15,5.447,12.15,12.149
		C130.398,179.771,124.943,185.219,118.249,185.219z"/>
	<path d="M221.987,144.61c-15.636,0-28.35,12.717-28.35,28.348c0,15.636,12.714,28.35,28.35,28.35s28.351-12.714,28.351-28.35
		C250.338,157.327,237.612,144.61,221.987,144.61z M221.987,185.108c-6.697,0-12.149-5.448-12.149-12.15
		c0-6.7,5.452-12.147,12.149-12.147c6.692,0,12.15,5.447,12.15,12.147C234.138,179.66,228.68,185.108,221.987,185.108z"/>
	<path d="M305.503,55.645C305.503,24.962,280.538,0,249.857,0c-17.476,0-33.454,8.002-43.948,21.642
		c-21.269-6.755-43.691-7.367-64.977-1.978C130.414,7.282,114.981,0,98.56,0C67.876,0,42.912,24.962,42.912,55.645
		c0,14.515,5.648,28.297,15.639,38.628c-4.715,12.97-7.249,26.528-7.249,40.456c0,31.756,12.463,84.915,33.449,130.262H51.007
		c-4.472,0-8.1,3.628-8.1,8.1c0,4.482,3.628,8.101,8.1,8.101h41.805c1.777,3.322,3.602,6.57,5.477,9.739L64.723,303.19
		c-4.203,1.535-6.368,6.191-4.833,10.389c1.205,3.28,4.304,5.321,7.607,5.321c0.925,0,1.864-0.153,2.781-0.496l36.925-13.489
		c17.93,25.803,39.324,43.495,62.894,43.495c23.662,0,45.114-17.818,63.097-43.785l45.226,13.911
		c0.791,0.243,1.592,0.364,2.383,0.364c3.46,0,6.666-2.241,7.742-5.722c1.308-4.282-1.087-8.807-5.363-10.125L242.2,290.45
		c1.783-3.037,3.523-6.154,5.221-9.323h41.776c4.472,0,8.101-3.623,8.101-8.101c0-4.472-3.629-8.1-8.101-8.1h-33.718
		c20.972-45.341,33.417-98.458,33.417-130.198c0-11.733-1.898-23.42-5.437-34.853C297.187,89.421,305.503,73.034,305.503,55.645z
		 M98.565,16.205c9.323,0,18.212,3.293,25.218,9.12c-0.103,0.042-0.19,0.098-0.293,0.135c-2.695,1.149-5.323,2.407-7.916,3.741
		c-0.627,0.324-1.242,0.659-1.87,0.994c-2.417,1.303-4.807,2.674-7.122,4.137c-0.19,0.119-0.39,0.227-0.578,0.351
		c-2.468,1.577-4.843,3.267-7.182,5.015c-0.562,0.417-1.107,0.838-1.659,1.266c-4.643,3.612-9.012,7.56-13.073,11.826
		c-0.469,0.491-0.928,0.983-1.387,1.479c-1.988,2.16-3.926,4.38-5.746,6.689c-0.121,0.153-0.227,0.309-0.348,0.459
		c-1.717,2.199-3.341,4.472-4.907,6.795c-0.372,0.551-0.746,1.097-1.107,1.655c-1.603,2.474-3.143,4.997-4.575,7.6
		c-0.042,0.082-0.098,0.158-0.14,0.237c-4.369-6.447-6.761-14.104-6.761-22.064C59.123,33.9,76.817,16.205,98.565,16.205z
		 M235.551,268.46c-0.364,0.532-0.654,1.129-0.886,1.74c-3.623,7.029-7.436,13.7-11.406,19.912c-0.316,0.412-0.591,0.85-0.828,1.324
		c-15.715,24.189-33.809,40.779-52.315,40.779c-18.539,0-36.65-16.643-52.376-40.88c-0.211-0.406-0.453-0.785-0.722-1.139
		c-4.002-6.265-7.852-12.994-11.509-20.087c-0.145-0.363-0.335-0.701-0.527-1.039c-22.389-43.875-37.465-100.345-37.465-134.338
		c0-13.695,2.666-27.005,7.937-39.577C87.283,66.867,110.887,45.52,140.188,36.6c9.729-2.961,19.797-4.466,29.927-4.466
		c12.231,0,24.393,2.251,36.142,6.679c6.977,2.631,13.574,5.985,19.701,9.969c18.415,11.96,32.653,29.628,40.374,50.62
		c0,0,0.005,0.005,0.005,0.011c4.225,11.535,6.376,23.419,6.376,35.321C272.713,168.565,257.778,224.669,235.551,268.46z
		 M277.364,83.855c-0.096-0.206-0.222-0.401-0.316-0.604c-1.287-2.673-2.669-5.29-4.146-7.847c-0.269-0.458-0.548-0.907-0.812-1.36
		c-1.393-2.339-2.854-4.625-4.394-6.848c-0.231-0.335-0.448-0.68-0.686-1.015c-1.692-2.399-3.496-4.72-5.362-6.977
		c-0.401-0.493-0.812-0.978-1.234-1.463c-1.936-2.268-3.929-4.493-6.022-6.605l0,0c-2.088-2.112-4.287-4.108-6.533-6.059
		c-0.501-0.427-0.986-0.859-1.487-1.273c-2.23-1.87-4.52-3.673-6.882-5.379c-0.369-0.269-0.76-0.52-1.14-0.783
		c-2.156-1.524-4.382-2.964-6.645-4.34c-0.484-0.298-0.97-0.606-1.455-0.896c-2.521-1.477-5.094-2.858-7.73-4.153
		c-0.222-0.113-0.433-0.25-0.654-0.355c7.309-7.443,17.266-11.697,28.002-11.697c21.748,0,39.445,17.695,39.445,39.445
		C289.303,66.326,284.884,76.507,277.364,83.855z"/>
	<path d="M170.115,287.851c17.463,0,31.617,5.458,31.617,12.182c0,6.729-14.154,12.187-31.617,12.187s-31.617-5.458-31.617-12.187
		C138.499,293.309,152.652,287.851,170.115,287.851z"/>
</g>
<g>
</g>
<g>
</g>
<g>
</g>
<g>
</g>
<g>
</g>
<g>
</g>
<g>
</g>
<g>
</g>
<g>
</g>
<g>
</g>
<g>
</g>
<g>
</g>
<g>
</g>
<g>
</g>
<g>
</g>
</svg>
