<?xml version="1.0" encoding="iso-8859-1"?>
<!-- Generator: Adobe Illustrator 19.0.0, SVG Export Plug-In . SVG Version: 6.00 Build 0)  -->
<svg version="1.1" id="Capa_1" xmlns="http://www.w3.org/2000/svg" xmlns:xlink="http://www.w3.org/1999/xlink" x="0px" y="0px"
	 viewBox="0 0 463 463" style="enable-background:new 0 0 463 463;" xml:space="preserve">
<g>
	<path d="M251.034,89.503l4.271-64.059c0.438-6.563-1.889-13.083-6.383-17.886C244.428,2.755,238.078,0,231.5,0
		s-12.928,2.755-17.421,7.558c-4.494,4.804-6.82,11.323-6.383,17.886l4.27,64.059c-16.577,4.691-28.762,19.946-28.762,38.004
		v207.985c0,18.058,12.185,33.314,28.762,38.004l-4.27,64.059c-0.438,6.563,1.889,13.083,6.383,17.886
		c4.494,4.804,10.844,7.559,17.421,7.559s12.928-2.755,17.421-7.559c4.494-4.803,6.82-11.322,6.383-17.886l-4.271-64.059
		c16.577-4.691,28.762-19.946,28.762-38.004V127.507C279.796,109.449,267.611,94.194,251.034,89.503z M198.205,335.493V127.507
		c0-0.114,0.007-0.227,0.009-0.341h66.574c0.002,0.114,0.009,0.227,0.009,0.341v207.985c0,0.114-0.007,0.227-0.009,0.341h-66.574
		C198.212,335.72,198.205,335.607,198.205,335.493z M225.033,17.806c1.693-1.81,3.99-2.806,6.468-2.806s4.775,0.997,6.468,2.806
		s2.535,4.167,2.37,6.64L236.1,88.007h-9.2l-4.237-63.561C222.498,21.974,223.34,19.616,225.033,17.806z M222.705,103.007h17.591
		c7.706,0,14.588,3.579,19.083,9.159h-55.757C208.116,106.587,214.999,103.007,222.705,103.007z M237.968,445.194
		c-1.693,1.81-3.99,2.806-6.468,2.806s-4.775-0.997-6.468-2.806s-2.535-4.168-2.37-6.64l4.237-63.562h9.2l4.238,63.562
		C240.503,441.026,239.661,443.385,237.968,445.194z M240.296,359.993h-17.591c-7.706,0-14.588-3.579-19.083-9.159h55.757
		C254.884,356.413,248.002,359.993,240.296,359.993z"/>
	<path d="M240.5,144.542c-4.142,0-7.5,3.358-7.5,7.5v8.242c0,4.142,3.358,7.5,7.5,7.5s7.5-3.358,7.5-7.5v-8.242
		C248,147.9,244.643,144.542,240.5,144.542z"/>
	<path d="M240.5,182.75c-4.142,0-7.5,3.358-7.5,7.5v60.696c0,4.142,3.358,7.5,7.5,7.5s7.5-3.358,7.5-7.5V190.25
		C248,186.108,244.643,182.75,240.5,182.75z"/>
</g>
<g>
</g>
<g>
</g>
<g>
</g>
<g>
</g>
<g>
</g>
<g>
</g>
<g>
</g>
<g>
</g>
<g>
</g>
<g>
</g>
<g>
</g>
<g>
</g>
<g>
</g>
<g>
</g>
<g>
</g>
</svg>
