<?xml version="1.0" encoding="iso-8859-1"?>
<!-- Generator: Adobe Illustrator 19.0.0, SVG Export Plug-In . SVG Version: 6.00 Build 0)  -->
<svg version="1.1" id="Layer_1" xmlns="http://www.w3.org/2000/svg" xmlns:xlink="http://www.w3.org/1999/xlink" x="0px" y="0px"
	 viewBox="0 0 495 495" style="enable-background:new 0 0 495 495;" xml:space="preserve">
<g>
	<path style="fill:#FFA733;" d="M247.5,0v271.49c61.5,0,117.14,38.81,138.44,96.59l-37.53,13.84
		c-15.53-42.13-56.08-70.43-100.91-70.43V495C384.19,495,495,384.19,495,247.5S384.19,0,247.5,0z M323.514,241.486
		c-22.056,0-40-17.944-40-40s17.944-40,40-40s40,17.944,40,40S345.57,241.486,323.514,241.486z"/>
	<path style="fill:#FFCD00;" d="M146.59,381.92l-37.53-13.84c21.3-57.78,76.94-96.59,138.44-96.59V0C110.81,0,0,110.81,0,247.5
		S110.81,495,247.5,495V311.49C202.67,311.49,162.12,339.79,146.59,381.92z M171.486,161.486c22.056,0,40,17.944,40,40
		s-17.944,40-40,40s-40-17.944-40-40S149.43,161.486,171.486,161.486z"/>
	<path style="fill:#554431;" d="M323.514,161.486c-22.056,0-40,17.944-40,40s17.944,40,40,40s40-17.944,40-40
		S345.57,161.486,323.514,161.486z"/>
	<path style="fill:#6A563D;" d="M171.486,241.486c22.056,0,40-17.944,40-40s-17.944-40-40-40s-40,17.944-40,40
		S149.43,241.486,171.486,241.486z"/>
	<path style="fill:#FF5023;" d="M348.41,381.92l37.53-13.84c-21.3-57.78-76.94-96.59-138.44-96.59v40
		C292.33,311.49,332.88,339.79,348.41,381.92z"/>
	<path style="fill:#FF7956;" d="M109.06,368.08l37.53,13.84c15.53-42.13,56.08-70.43,100.91-70.43v-40
		C186,271.49,130.36,310.3,109.06,368.08z"/>
</g>
</svg>
