<?xml version="1.0" encoding="iso-8859-1"?>
<!-- Generator: Adobe Illustrator 19.0.0, SVG Export Plug-In . SVG Version: 6.00 Build 0)  -->
<svg version="1.1" id="Capa_1" xmlns="http://www.w3.org/2000/svg" xmlns:xlink="http://www.w3.org/1999/xlink" x="0px" y="0px"
	 viewBox="0 0 463 463" style="enable-background:new 0 0 463 463;" xml:space="preserve">
<g>
	<path d="M191.5,103h80c4.142,0,7.5-3.358,7.5-7.5s-3.358-7.5-7.5-7.5h-80c-4.142,0-7.5,3.358-7.5,7.5S187.358,103,191.5,103z"/>
	<path d="M369.882,395.491L305.11,103.237c-0.012-0.053-0.024-0.105-0.037-0.158C303.698,97.451,303,91.659,303,85.864V79.5
		c0-4.687,3.813-8.5,8.5-8.5c4.142,0,7.5-3.358,7.5-7.5s-3.358-7.5-7.5-7.5h-6.057l4.528-15.846
		c2.74-9.591,0.867-19.659-5.14-27.623C298.824,4.567,289.658,0,279.683,0h-96.365c-9.975,0-19.141,4.567-25.148,12.531
		c-6.007,7.964-7.88,18.032-5.14,27.623L157.557,56H151.5c-4.142,0-7.5,3.358-7.5,7.5s3.358,7.5,7.5,7.5c4.687,0,8.5,3.813,8.5,8.5
		v6.364c0,5.795-0.698,11.587-2.074,17.215c-0.013,0.053-0.025,0.105-0.037,0.158L93.118,395.491
		c-3.661,16.517,0.313,33.556,10.903,46.75C114.61,455.433,130.385,463,147.303,463h168.395c16.917,0,32.693-7.567,43.282-20.76
		C369.569,429.047,373.543,412.008,369.882,395.491z M167.452,36.033c-1.436-5.024-0.454-10.297,2.692-14.469S178.092,15,183.317,15
		H200v0.5c0,4.142,3.358,7.5,7.5,7.5s7.5-3.358,7.5-7.5V15h33v0.5c0,4.142,3.358,7.5,7.5,7.5s7.5-3.358,7.5-7.5V15h16.683
		c5.225,0,10.026,2.393,13.173,6.564s4.128,9.445,2.692,14.469L289.843,56H173.157L167.452,36.033z M347.282,432.851
		C339.554,442.479,328.042,448,315.697,448H147.303c-12.345,0-23.857-5.521-31.584-15.149s-10.627-22.062-7.956-34.114
		l64.755-292.176C174.165,99.793,175,92.83,175,85.864V79.5c0-2.996-0.563-5.863-1.59-8.5H289.59c-1.027,2.637-1.59,5.504-1.59,8.5
		v6.364c0,6.966,0.835,13.929,2.483,20.696l64.755,292.176C357.909,410.79,355.009,423.224,347.282,432.851z"/>
	<path d="M279.044,168.177c-4.044,0.896-6.596,4.901-5.699,8.945l19.503,88.001c0.775,3.497,3.875,5.878,7.315,5.878
		c0.537,0,1.083-0.058,1.63-0.179c4.044-0.896,6.596-4.901,5.699-8.945l-19.503-88.001
		C287.094,169.833,283.094,167.279,279.044,168.177z"/>
	<path d="M268.406,120.179c-4.044,0.896-6.596,4.901-5.699,8.945l3.545,15.994c0.775,3.498,3.875,5.878,7.315,5.878
		c0.537,0,1.083-0.058,1.63-0.179c4.044-0.896,6.596-4.901,5.699-8.945l-3.545-15.994
		C276.455,121.834,272.448,119.281,268.406,120.179z"/>
	<path d="M314.585,293.877c-0.761-3.433-3.806-5.877-7.322-5.877H155.737c-3.517,0-6.562,2.444-7.322,5.877L124.36,402.415
		c-2.122,9.575,1.981,16.512,4.616,19.795c2.635,3.283,8.519,8.791,18.327,8.791h168.395c9.808,0,15.692-5.508,18.327-8.791
		c2.635-3.284,6.739-10.221,4.616-19.795L314.585,293.877z M322.326,412.821c-1.164,1.45-3.259,3.179-6.628,3.179H147.303
		c-3.37,0-5.464-1.729-6.628-3.179c-1.164-1.451-2.399-3.871-1.67-7.16L161.757,303h139.485l22.753,102.661
		C324.725,408.95,323.49,411.37,322.326,412.821z"/>
	<path d="M231.5,24c-1.97,0-3.91,0.8-5.3,2.2c-1.4,1.39-2.2,3.32-2.2,5.3c0,1.97,0.8,3.91,2.2,5.3c1.39,1.4,3.33,2.2,5.3,2.2
		c1.97,0,3.91-0.8,5.3-2.2c1.4-1.39,2.2-3.33,2.2-5.3c0-1.97-0.8-3.91-2.2-5.3C235.41,24.8,233.47,24,231.5,24z"/>
</g>
<g>
</g>
<g>
</g>
<g>
</g>
<g>
</g>
<g>
</g>
<g>
</g>
<g>
</g>
<g>
</g>
<g>
</g>
<g>
</g>
<g>
</g>
<g>
</g>
<g>
</g>
<g>
</g>
<g>
</g>
</svg>