<?xml version="1.0" encoding="iso-8859-1"?>
<!-- Generator: Adobe Illustrator 19.0.0, SVG Export Plug-In . SVG Version: 6.00 Build 0)  -->
<svg version="1.1" id="Capa_1" xmlns="http://www.w3.org/2000/svg" xmlns:xlink="http://www.w3.org/1999/xlink" x="0px" y="0px"
	 viewBox="0 0 463 463" style="enable-background:new 0 0 463 463;" xml:space="preserve">
<g>
	<path d="M383.5,0h-304C75.358,0,72,3.358,72,7.5v4.793c0,9.846,6.217,18.721,15.469,22.085L160,60.753V71.5
		c0,8.547,6.953,15.5,15.5,15.5H224v25h-40.5c-3.667,0-6.795,2.65-7.398,6.267l-6.642,39.85C121.311,181.298,88,230.582,88,287.5
		c0,54.647,30.708,102.251,75.77,126.48l-33.367,7.415c-10.835,2.407-18.403,11.84-18.403,22.94V455.5c0,4.142,3.358,7.5,7.5,7.5
		h224c4.142,0,7.5-3.358,7.5-7.5v-11.166c0-11.1-7.567-20.533-18.402-22.94l-33.368-7.415C344.293,389.751,375,342.147,375,287.5
		c0-56.918-33.311-106.201-81.46-129.383l-6.642-39.85c-0.603-3.617-3.732-6.267-7.398-6.267H239V87h48.5
		c8.547,0,15.5-6.953,15.5-15.5V60.753l72.531-26.375C384.784,31.014,391,22.138,391,12.293V7.5C391,3.358,387.643,0,383.5,0z
		 M329.345,436.038c3.919,0.871,6.656,4.283,6.656,8.297V448H127v-3.666c0-4.015,2.737-7.427,6.656-8.297l53.81-11.958
		C201.348,428.566,216.144,431,231.5,431c15.356,0,30.153-2.434,44.035-6.921L329.345,436.038z M360,287.5
		c0,70.855-57.645,128.5-128.5,128.5C160.645,416,103,358.355,103,287.5c0-70.855,57.645-128.5,128.5-128.5
		C302.355,159,360,216.645,360,287.5z M277.225,151.471C262.857,146.628,247.48,144,231.5,144c-15.98,0-31.357,2.628-45.725,7.471
		L189.854,127h83.293L277.225,151.471z M287.5,72h-112c-0.276,0-0.5-0.224-0.5-0.5V63h113v8.5C288,71.776,287.776,72,287.5,72z
		 M370.405,20.282L294.179,48H168.821L92.595,20.282c-2.466-0.897-4.336-2.877-5.149-5.282h288.109
		C374.742,17.405,372.872,19.385,370.405,20.282z"/>
	<path d="M231.5,184C174.43,184,128,230.43,128,287.5S174.43,391,231.5,391S335,344.57,335,287.5
		c0-25.842-9.52-49.501-25.237-67.657l7.04-7.04c2.929-2.929,2.929-7.678,0-10.606c-2.929-2.929-7.678-2.929-10.606,0l-7.04,7.04
		C281.001,193.52,257.342,184,231.5,184z M319.679,280H303.5c-4.142,0-7.5,3.358-7.5,7.5s3.358,7.5,7.5,7.5h16.179
		c-3.612,42.829-37.851,77.068-80.679,80.68V359.5c0-4.142-3.358-7.5-7.5-7.5s-7.5,3.358-7.5,7.5v16.179
		c-42.829-3.612-77.067-37.851-80.679-80.68H159.5c4.142,0,7.5-3.358,7.5-7.5s-3.358-7.5-7.5-7.5h-16.179
		c3.612-42.829,37.85-77.067,80.679-80.679V215.5c0,4.142,3.358,7.5,7.5,7.5s7.5-3.358,7.5-7.5v-16.179
		c18.776,1.583,35.9,9.053,49.519,20.554l-46.58,46.58c-3.147-1.568-6.691-2.454-10.439-2.454c-12.958,0-23.5,10.542-23.5,23.5
		c0,3.748,0.887,7.292,2.454,10.439l-8.258,8.258c-2.929,2.929-2.929,7.678,0,10.606c1.464,1.465,3.384,2.197,5.303,2.197
		s3.839-0.732,5.303-2.197l8.258-8.258c3.147,1.568,6.691,2.454,10.439,2.454c12.958,0,23.5-10.542,23.5-23.5
		c0-3.748-0.887-7.292-2.454-10.439l46.58-46.58C310.626,244.099,318.096,261.223,319.679,280z M223,287.5
		c0-4.687,3.813-8.5,8.5-8.5s8.5,3.813,8.5,8.5s-3.813,8.5-8.5,8.5S223,292.187,223,287.5z"/>
</g>
<g>
</g>
<g>
</g>
<g>
</g>
<g>
</g>
<g>
</g>
<g>
</g>
<g>
</g>
<g>
</g>
<g>
</g>
<g>
</g>
<g>
</g>
<g>
</g>
<g>
</g>
<g>
</g>
<g>
</g>
</svg>
