<?xml version="1.0" encoding="iso-8859-1"?>
<!-- Generator: Adobe Illustrator 18.0.0, SVG Export Plug-In . SVG Version: 6.00 Build 0)  -->
<!DOCTYPE svg PUBLIC "-//W3C//DTD SVG 1.1//EN" "http://www.w3.org/Graphics/SVG/1.1/DTD/svg11.dtd">
<svg version="1.1" id="Capa_1" xmlns="http://www.w3.org/2000/svg" xmlns:xlink="http://www.w3.org/1999/xlink" x="0px" y="0px"
	 viewBox="0 0 297 297" style="enable-background:new 0 0 297 297;" xml:space="preserve">
<path d="M276.304,101.905h-6.293v-6.293c0-5.347-4.335-9.682-9.682-9.682h-81.35c6.914-7.436,11.154-17.39,11.154-28.32
	c0-2.14-0.172-4.24-0.485-6.293h6.778c5.347,0,9.682-4.335,9.682-9.682s-4.335-9.682-9.682-9.682h-6.293v-6.212
	C190.133,11.547,178.587,0,164.394,0h-31.789c-14.192,0-25.738,11.547-25.738,25.739v6.212h-6.293c-5.347,0-9.682,4.335-9.682,9.682
	s4.335,9.682,9.682,9.682h6.778c-0.313,2.054-0.485,4.153-0.485,6.293c0,10.93,4.24,20.884,11.154,28.32h-81.35
	c-5.347,0-9.682,4.335-9.682,9.682v6.293h-6.293c-5.347,0-9.682,4.335-9.682,9.682s4.335,9.682,9.682,9.682h6.293v22.269
	c0,2.901,1.3,5.649,3.544,7.488c2.244,1.839,5.193,2.577,8.037,2.006l63.518-12.703l-26.676,80.025
	c-0.983,2.953-0.489,6.198,1.331,8.722c1.82,2.525,4.742,4.021,7.854,4.021h45.641l8.579,4.289v49.931
	c0,5.347,4.335,9.682,9.682,9.682s9.682-4.335,9.682-9.682v-40.249l1.964,0.982c1.357,0.679,2.84,1.022,4.33,1.022
	c1.032,0,2.065-0.165,3.062-0.496l47.927-15.976c5.073-1.692,7.815-7.175,6.124-12.247l-26.676-80.025l63.518,12.703
	c2.843,0.571,5.794-0.167,8.037-2.006c2.244-1.839,3.544-4.587,3.544-7.488v-22.269h6.293c5.347,0,9.682-4.335,9.682-9.682
	S281.651,101.905,276.304,101.905z M127.145,51.315h42.71c0.59,1.997,0.914,4.107,0.914,6.293c0,12.28-9.989,22.269-22.269,22.269
	s-22.269-9.989-22.269-22.269C126.231,55.423,126.554,53.312,127.145,51.315z M132.605,19.364h31.789
	c3.515,0,6.375,2.859,6.375,6.375v6.212h-44.538v-6.212C126.231,22.224,129.09,19.364,132.605,19.364z M250.647,131.727
	l-68.297-13.659c-3.386-0.678-6.872,0.499-9.157,3.086c-2.283,2.588-3.018,6.195-1.927,9.469l28.889,86.669l-34.936,11.645
	l-28.365-14.182c-1.344-0.672-2.826-1.022-4.33-1.022H98.031l27.704-83.11c1.091-3.274,0.356-6.882-1.927-9.469
	c-2.284-2.587-5.774-3.763-9.157-3.086l-68.297,13.659v-26.434h204.293V131.727z"/>
</svg>
