<?xml version="1.0" encoding="iso-8859-1"?>
<!-- Generator: Adobe Illustrator 18.0.0, SVG Export Plug-In . SVG Version: 6.00 Build 0)  -->
<!DOCTYPE svg PUBLIC "-//W3C//DTD SVG 1.1//EN" "http://www.w3.org/Graphics/SVG/1.1/DTD/svg11.dtd">
<svg version="1.1" id="Capa_1" xmlns="http://www.w3.org/2000/svg" xmlns:xlink="http://www.w3.org/1999/xlink" x="0px" y="0px"
	 viewBox="0 0 296.848 296.848" style="enable-background:new 0 0 296.848 296.848;" xml:space="preserve">
<path d="M99.321,112.136C99.341,112.121,99.304,112.118,99.321,112.136l88.144,88.148c0.019,0.019,0.019,0.051,0,0.07
	l-27.366,27.366c-3.728,3.728-4.175,9.797-0.696,13.758c1.98,2.254,4.715,3.382,7.452,3.382c2.533,0,5.066-0.967,6.999-2.899
	l27.609-27.609c0.019-0.019,0.051-0.019,0.07,0l50.704,50.704c4.955,4.954,11.542,7.682,18.547,7.682
	c7.069,0,13.713-2.779,18.681-7.818c10.192-10.338,9.676-27.146-0.59-37.411L147.917,86.55c0.844-0.243,1.316-0.361,1.346-0.368
	c3.498-0.819,6.279-3.468,7.264-6.922c0.986-3.455,0.021-7.173-2.519-9.714l-34.621-34.622c-2.624-2.624-6.502-3.601-10.03-2.451
	c-3.876,1.263-7.648,2.651-11.333,4.142c-0.018,0.007-0.039,0.003-0.053-0.011l-4.516-4.516
	c-9.915-9.915-26.012-10.805-36.457-1.448c-9.976,8.937-11.407,23.587-4.304,34.17c0.013,0.02,0.01,0.046-0.007,0.062
	c-24.535,22.421-40.948,53.231-48.315,91.409c-8.923,46.249-1.474,86.587-1.153,88.281c0.886,4.668,4.965,8.049,9.718,8.052
	c0.002,0,0.005,0,0.007,0c4.75,0,8.829-3.374,9.722-8.04C33.315,188.853,61.67,142.334,99.321,112.136z M69.925,45.65
	c1.254-1.255,2.902-1.881,4.549-1.881s3.295,0.626,4.549,1.881l0.078,0.078c-3.659,2.075-7.191,4.292-10.61,6.631
	c-0.027,0.019-0.066,0.006-0.077-0.025C67.62,50.072,68.119,47.455,69.925,45.65z M20.778,182.953
	c-0.022,0.052-0.1,0.036-0.096-0.02c0.631-7.517,1.658-15.415,3.233-23.458c10.451-53.352,39.306-89.044,85.805-106.179
	c0.018-0.007,0.039-0.002,0.053,0.012l18.99,18.99c0.025,0.025,0.018,0.067-0.015,0.08c-11.352,4.689-27.57,12.909-44.808,26.577
	C63.454,115.199,38.629,141.714,20.778,182.953z M275.333,251.058L275.333,251.058c-1.215,1.216-2.83,1.885-4.549,1.885
	c-1.719,0-3.335-0.669-4.55-1.885l-150.15-150.15c-0.023-0.023-0.017-0.062,0.011-0.079c4.182-2.465,8.128-4.552,11.746-6.313
	c0.019-0.009,0.042-0.005,0.057,0.01l147.434,147.434C277.841,244.469,277.841,248.55,275.333,251.058z"/>

</svg>
