<?xml version="1.0" encoding="iso-8859-1"?>
<!-- Generator: Adobe Illustrator 18.0.0, SVG Export Plug-In . SVG Version: 6.00 Build 0)  -->
<!DOCTYPE svg PUBLIC "-//W3C//DTD SVG 1.1//EN" "http://www.w3.org/Graphics/SVG/1.1/DTD/svg11.dtd">
<svg xmlns="http://www.w3.org/2000/svg" version="1.1" x="0" y="0" viewBox="0 0 296.8 296.8" xml:space="preserve" enable-background="new 0 0 296.848 296.848"><path d="M99.3 112.1C99.3 112.1 99.3 112.1 99.3 112.1l88.1 88.1c0 0 0 0.1 0 0.1l-27.4 27.4c-3.7 3.7-4.2 9.8-0.7 13.8 2 2.3 4.7 3.4 7.5 3.4 2.5 0 5.1-1 7-2.9l27.6-27.6c0 0 0.1 0 0.1 0l50.7 50.7c5 5 11.5 7.7 18.5 7.7 7.1 0 13.7-2.8 18.7-7.8 10.2-10.3 9.7-27.1-0.6-37.4L147.9 86.6c0.8-0.2 1.3-0.4 1.3-0.4 3.5-0.8 6.3-3.5 7.3-6.9 1-3.5 0-7.2-2.5-9.7l-34.6-34.6c-2.6-2.6-6.5-3.6-10-2.5-3.9 1.3-7.6 2.7-11.3 4.1 0 0 0 0-0.1 0l-4.5-4.5c-9.9-9.9-26-10.8-36.5-1.4-10 8.9-11.4 23.6-4.3 34.2 0 0 0 0 0 0.1-24.5 22.4-40.9 53.2-48.3 91.4-8.9 46.2-1.5 86.6-1.2 88.3 0.9 4.7 5 8 9.7 8.1 0 0 0 0 0 0 4.8 0 8.8-3.4 9.7-8C33.3 188.9 61.7 142.3 99.3 112.1zM69.9 45.7c1.3-1.3 2.9-1.9 4.5-1.9s3.3 0.6 4.5 1.9l0.1 0.1c-3.7 2.1-7.2 4.3-10.6 6.6 0 0-0.1 0-0.1 0C67.6 50.1 68.1 47.5 69.9 45.7zM20.8 183c0 0.1-0.1 0-0.1 0 0.6-7.5 1.7-15.4 3.2-23.5 10.5-53.4 39.3-89 85.8-106.2 0 0 0 0 0.1 0l19 19c0 0 0 0.1 0 0.1-11.4 4.7-27.6 12.9-44.8 26.6C63.5 115.2 38.6 141.7 20.8 183zM275.3 251.1L275.3 251.1c-1.2 1.2-2.8 1.9-4.5 1.9-1.7 0-3.3-0.7-4.5-1.9l-150.1-150.1c0 0 0-0.1 0-0.1 4.2-2.5 8.1-4.6 11.7-6.3 0 0 0 0 0.1 0l147.4 147.4C277.8 244.5 277.8 248.6 275.3 251.1z"/></svg>