<?xml version="1.0" encoding="iso-8859-1"?>
<!-- Generator: Adobe Illustrator 18.0.0, SVG Export Plug-In . SVG Version: 6.00 Build 0)  -->
<!DOCTYPE svg PUBLIC "-//W3C//DTD SVG 1.1//EN" "http://www.w3.org/Graphics/SVG/1.1/DTD/svg11.dtd">
<svg version="1.1" id="Capa_1" xmlns="http://www.w3.org/2000/svg" xmlns:xlink="http://www.w3.org/1999/xlink" x="0px" y="0px"
	 viewBox="0 0 297 297" style="enable-background:new 0 0 297 297;" xml:space="preserve">

<path d="M260.013,31.316c-0.425-1.836-1.337-3.428-2.559-4.69c-1.698-4.626-6.589-7.404-11.531-6.313l-21.864,4.826L213.691,9.33
	c-1.486-2.267-3.829-3.832-6.492-4.339c-2.667-0.504-5.417,0.088-7.632,1.65l-13.611,9.594L175.181,3.532
	c-1.757-2.07-4.28-3.338-6.99-3.511c-2.709-0.174-5.373,0.763-7.38,2.594l-12.311,11.237L136.19,2.614
	c-2.005-1.829-4.653-2.765-7.38-2.594c-2.71,0.173-5.233,1.441-6.99,3.511l-10.775,12.702L97.432,6.64
	c-2.216-1.562-4.971-2.157-7.632-1.65c-2.662,0.507-5.005,2.073-6.492,4.34L72.942,25.139l-21.865-4.826
	c-4.944-1.088-9.836,1.689-11.532,6.317c-1.221,1.261-2.133,2.852-2.558,4.686c-18.58,80.281-18.58,161.694,0,241.975
	c0.798,3.449,3.361,6.22,6.738,7.284C78.486,291.525,113.493,297,148.5,297s70.014-5.475,104.775-16.425
	c3.377-1.064,5.94-3.834,6.738-7.284C278.593,193.01,278.593,111.597,260.013,31.316z M241.793,263.172
	c-61.935,18.41-124.651,18.41-186.586,0c-16.18-73.513-16.192-147.961-0.051-221.476l20.211,4.46
	c0.719,0.159,1.442,0.236,2.156,0.236c3.323,0,6.489-1.66,8.362-4.518l8.478-12.928l12.633,8.903
	c4.232,2.981,10.038,2.241,13.388-1.705l9.98-11.766l11.394,10.4c3.821,3.487,9.665,3.487,13.485,0l11.393-10.4l9.98,11.766
	c3.348,3.946,9.157,4.688,13.388,1.705l12.632-8.903l8.479,12.929c2.278,3.472,6.46,5.179,10.518,4.281l20.21-4.46
	C257.985,115.211,257.973,189.659,241.793,263.172z"/>
<path d="M203.831,75.371c-1.254-0.062-29.934-1.343-49.158,16.507c-2.165-5.828-5.397-11.73-10.209-17.01
	c-11.523-12.646-28.807-18.509-51.351-17.463c-5.133,0.241-9.249,4.334-9.518,9.467c-0.067,1.293-1.435,31.909,18.384,51.077
	c9.316,9.01,21.44,13.882,36.137,14.568c-0.036,2.788,0.055,5.653,0.31,8.616c0.016,0.188,0.046,0.373,0.072,0.558v54.816
	c-7.131,7.644-22.993,21.974-46.872,28.918c-3.712,1.08-5.846,4.964-4.767,8.677c0.89,3.06,3.685,5.047,6.719,5.047
	c0.647,0,1.305-0.091,1.958-0.28c19.079-5.549,33.544-15.087,43.339-23.376c-3.355,11.918-10.947,25.327-28.085,28.047
	c-3.819,0.606-6.423,4.192-5.817,8.01c0.547,3.448,3.523,5.905,6.905,5.905c0.365,0,0.734-0.028,1.106-0.088
	c18.468-2.93,31.702-14.838,38.27-34.436c1.092-3.259,1.904-6.466,2.511-9.479c7.148,8.221,17.079,18.238,27.718,24.683
	c1.134,0.687,2.385,1.014,3.62,1.014c2.368,0,4.678-1.201,5.995-3.374c2.003-3.307,0.946-7.612-2.361-9.615
	c-12.343-7.477-24.156-21.238-30.238-28.97v-46.682c10.239-0.529,25.381-3.375,37.333-14.267
	c12.646-11.524,18.521-28.801,17.463-51.351C213.056,79.756,208.963,75.641,203.831,75.371z M104.187,77.525
	c11.176,0.922,19.701,4.513,25.411,10.725c6.756,7.35,8.687,17.283,9.125,24.268c-9.532-0.528-17.167-3.499-22.765-8.876
	C108.201,96.19,105.276,85.316,104.187,77.525z M182.452,121.374c-7.243,6.658-16.986,8.626-23.953,9.101
	c-0.002-0.625-0.066-1.235-0.178-1.828c0.792-8.674,3.715-15.682,8.739-20.913c7.453-7.757,18.327-10.683,26.117-11.771
	C192.256,107.141,188.664,115.663,182.452,121.374z"/>

</svg>
