<?xml version="1.0" encoding="iso-8859-1"?>
<!-- Generator: Adobe Illustrator 18.0.0, SVG Export Plug-In . SVG Version: 6.00 Build 0)  -->
<!DOCTYPE svg PUBLIC "-//W3C//DTD SVG 1.1//EN" "http://www.w3.org/Graphics/SVG/1.1/DTD/svg11.dtd">
<svg xmlns="http://www.w3.org/2000/svg" version="1.1" x="0" y="0" viewBox="0 0 297 297" xml:space="preserve" enable-background="new 0 0 297 297"><path d="M260 31.3c-0.4-1.8-1.3-3.4-2.6-4.7-1.7-4.6-6.6-7.4-11.5-6.3l-21.9 4.8L213.7 9.3c-1.5-2.3-3.8-3.8-6.5-4.3-2.7-0.5-5.4 0.1-7.6 1.7l-13.6 9.6L175.2 3.5c-1.8-2.1-4.3-3.3-7-3.5-2.7-0.2-5.4 0.8-7.4 2.6l-12.3 11.2L136.2 2.6c-2-1.8-4.7-2.8-7.4-2.6-2.7 0.2-5.2 1.4-7 3.5l-10.8 12.7L97.4 6.6c-2.2-1.6-5-2.2-7.6-1.6-2.7 0.5-5 2.1-6.5 4.3L72.9 25.1l-21.9-4.8c-4.9-1.1-9.8 1.7-11.5 6.3-1.2 1.3-2.1 2.9-2.6 4.7-18.6 80.3-18.6 161.7 0 242 0.8 3.4 3.4 6.2 6.7 7.3C78.5 291.5 113.5 297 148.5 297s70-5.5 104.8-16.4c3.4-1.1 5.9-3.8 6.7-7.3C278.6 193 278.6 111.6 260 31.3zM241.8 263.2c-61.9 18.4-124.7 18.4-186.6 0-16.2-73.5-16.2-148-0.1-221.5l20.2 4.5c0.7 0.2 1.4 0.2 2.2 0.2 3.3 0 6.5-1.7 8.4-4.5l8.5-12.9 12.6 8.9c4.2 3 10 2.2 13.4-1.7l10-11.8 11.4 10.4c3.8 3.5 9.7 3.5 13.5 0l11.4-10.4 10 11.8c3.3 3.9 9.2 4.7 13.4 1.7l12.6-8.9 8.5 12.9c2.3 3.5 6.5 5.2 10.5 4.3l20.2-4.5C258 115.2 258 189.7 241.8 263.2zM203.8 75.4c-1.3-0.1-29.9-1.3-49.2 16.5-2.2-5.8-5.4-11.7-10.2-17-11.5-12.6-28.8-18.5-51.4-17.5-5.1 0.2-9.2 4.3-9.5 9.5-0.1 1.3-1.4 31.9 18.4 51.1 9.3 9 21.4 13.9 36.1 14.6 0 2.8 0.1 5.7 0.3 8.6 0 0.2 0 0.4 0.1 0.6v54.8c-7.1 7.6-23 22-46.9 28.9-3.7 1.1-5.8 5-4.8 8.7 0.9 3.1 3.7 5 6.7 5 0.6 0 1.3-0.1 2-0.3 19.1-5.5 33.5-15.1 43.3-23.4-3.4 11.9-10.9 25.3-28.1 28-3.8 0.6-6.4 4.2-5.8 8 0.5 3.4 3.5 5.9 6.9 5.9 0.4 0 0.7 0 1.1-0.1 18.5-2.9 31.7-14.8 38.3-34.4 1.1-3.3 1.9-6.5 2.5-9.5 7.1 8.2 17.1 18.2 27.7 24.7 1.1 0.7 2.4 1 3.6 1 2.4 0 4.7-1.2 6-3.4 2-3.3 0.9-7.6-2.4-9.6-12.3-7.5-24.2-21.2-30.2-29v-46.7c10.2-0.5 25.4-3.4 37.3-14.3 12.6-11.5 18.5-28.8 17.5-51.4C213.1 79.8 209 75.6 203.8 75.4zM104.2 77.5c11.2 0.9 19.7 4.5 25.4 10.7 6.8 7.4 8.7 17.3 9.1 24.3-9.5-0.5-17.2-3.5-22.8-8.9C108.2 96.2 105.3 85.3 104.2 77.5zM182.5 121.4c-7.2 6.7-17 8.6-24 9.1 0-0.6-0.1-1.2-0.2-1.8 0.8-8.7 3.7-15.7 8.7-20.9 7.5-7.8 18.3-10.7 26.1-11.8C192.3 107.1 188.7 115.7 182.5 121.4z"/></svg>