<?xml version="1.0" encoding="iso-8859-1"?>
<!-- Generator: Adobe Illustrator 18.0.0, SVG Export Plug-In . SVG Version: 6.00 Build 0)  -->
<!DOCTYPE svg PUBLIC "-//W3C//DTD SVG 1.1//EN" "http://www.w3.org/Graphics/SVG/1.1/DTD/svg11.dtd">
<svg version="1.1" id="Capa_1" xmlns="http://www.w3.org/2000/svg" xmlns:xlink="http://www.w3.org/1999/xlink" x="0px" y="0px"
	 viewBox="0 0 297 297" style="enable-background:new 0 0 297 297;" xml:space="preserve">
<g>
	<path d="M260.64,119.413h-0.01c-2.783,0-5.036,2.257-5.036,5.041c0,2.784,2.263,5.041,5.046,5.041c2.784,0,5.041-2.257,5.041-5.041
		C265.681,121.67,263.424,119.413,260.64,119.413z"/>
	<path d="M290.991,111.663c-10.036-21.743-30.119-34.977-49.398-34.539c-3.569-2.472-8.226-3.386-12.161-3.97
		c-9.92-9.31-23.236-15.04-37.883-15.04c-7.146,0-14.136,1.358-20.659,3.98c-9.913-16.303-27.788-26.663-47.391-26.663
		c-19.603,0-37.478,10.361-47.39,26.663c-6.523-2.622-13.513-3.98-20.659-3.98C24.874,58.114,0,82.988,0,113.562
		c0,12.223,3.935,23.854,11.206,33.434c-2.173,5.286-3.301,10.964-3.301,16.745c0,21.357,15.259,39.213,35.448,43.249v30.55
		c0,13.25,10.779,24.029,24.028,24.029h5.377c13.25,0,24.029-10.779,24.029-24.029v-23.311c1.336,0.097,2.679,0.149,4.029,0.149
		c12.408,0,24.365-4.172,34.025-11.682c4.518,3.513,9.543,6.284,14.877,8.251v26.593c0,13.25,10.779,24.029,24.028,24.029h5.377
		c13.25,0,24.029-10.779,24.029-24.029v-35.08c9.834-7.769,16.988-18.789,19.813-31.429c3.817,3.451,8.009,6.366,12.499,8.611
		c6.771,3.385,13.748,5.085,20.543,5.085c5.711,0,11.294-1.201,16.517-3.611C295.49,170.516,303.774,139.36,290.991,111.663z
		 M233.625,145.018c-2.004,2.927-5.027,4.9-8.517,5.554c-1.693,0.316-3.686,0.304-7.602-0.068l12.744-44.599l5.466,29.166
		C236.371,138.557,235.628,142.09,233.625,145.018z M76.623,237.54c0,2.132-1.734,3.865-3.865,3.865h-5.377
		c-2.131,0-3.864-1.734-3.864-3.865v-31.228c1.896-0.513,3.759-1.141,5.573-1.904c2.399,1.677,4.92,3.149,7.534,4.418V237.54z
		 M142.401,182.252c-1.914-2.17-4.668-3.413-7.561-3.413s-5.647,1.243-7.561,3.413c-6.707,7.602-16.353,11.963-26.464,11.963
		c-8.818,0-17.258-3.27-23.767-9.207c-3.365-3.07-8.368-3.501-12.209-1.056c-3.837,2.443-8.273,3.733-12.829,3.733
		c-13.202,0-23.943-10.741-23.943-23.944c0-4.545,1.285-8.971,3.715-12.8c2.523-3.976,1.958-9.169-1.362-12.509
		c-6.615-6.657-10.258-15.489-10.258-24.869c0-19.456,15.829-35.284,35.285-35.284c7.026,0,13.812,2.061,19.623,5.958
		c2.59,1.738,5.84,2.177,8.8,1.193c2.96-0.986,5.297-3.286,6.33-6.229c4.952-14.119,18.333-23.605,33.296-23.605
		s28.345,9.486,33.297,23.605c1.033,2.944,3.37,5.244,6.33,6.229c2.959,0.984,6.209,0.544,8.8-1.193
		c5.812-3.897,12.598-5.958,19.623-5.958c8.852,0,16.94,3.29,23.141,8.695l-19.84,69.429c-0.811,2.839-0.338,5.89,1.296,8.348
		c1.506,2.267,3.861,3.807,6.516,4.312c-4.366,14.532-17.861,25.152-33.795,25.152C158.754,194.214,149.108,189.853,142.401,182.252
		z M182.988,237.54c0,2.132-1.734,3.865-3.865,3.865h-5.377c-2.131,0-3.864-1.734-3.864-3.865v-23.185
		c4.521-0.082,8.91-0.704,13.107-1.811V237.54z M265.765,166.47c-6.9,3.186-15.099,2.737-23.086-1.255
		c-0.236-0.118-0.462-0.259-0.696-0.383c3.197-2.264,6.004-5.097,8.282-8.426c5.045-7.373,6.918-16.27,5.271-25.049l-7.031-37.511
		c10.949,2.401,21.75,11.387,27.839,24.578C285.4,138.044,280.654,159.598,265.765,166.47z"/>
</g>
<g>
</g>
<g>
</g>
<g>
</g>
<g>
</g>
<g>
</g>
<g>
</g>
<g>
</g>
<g>
</g>
<g>
</g>
<g>
</g>
<g>
</g>
<g>
</g>
<g>
</g>
<g>
</g>
<g>
</g>
</svg>
