<?xml version="1.0" encoding="iso-8859-1"?>
<!-- Generator: Adobe Illustrator 18.0.0, SVG Export Plug-In . SVG Version: 6.00 Build 0)  -->
<!DOCTYPE svg PUBLIC "-//W3C//DTD SVG 1.1//EN" "http://www.w3.org/Graphics/SVG/1.1/DTD/svg11.dtd">
<svg version="1.1" id="Capa_1" xmlns="http://www.w3.org/2000/svg" xmlns:xlink="http://www.w3.org/1999/xlink" x="0px" y="0px"
	 viewBox="0 0 297 297" style="enable-background:new 0 0 297 297;" xml:space="preserve">
<path d="M255.143,290.224c4.517,4.517,10.452,6.776,16.386,6.776s11.868-2.258,16.386-6.776v-0.001
	c9.033-9.035,9.033-23.734,0-32.77L160.822,128.381c9.736-17.025,12.802-36.796,8.618-56.526
	c-4.532-21.372-17.055-40.915-35.264-55.028C117.558,3.946,96.167-1.846,73.943,0.517c-18.471,1.965-36.375,9.616-46.725,19.965
	C10.778,36.923,1.936,58.8,2.323,82.085c0.381,22.999,9.686,44.76,26.2,61.275c3.859,3.857,10.111,3.857,13.97,0
	c1.928-1.929,2.893-4.457,2.893-6.985c0-2.528-0.965-5.056-2.893-6.985c-18.083-18.082-18.083-47.506,0-65.589
	c18.083-18.084,47.508-18.082,65.588,0c18.083,18.082,18.083,47.506,0,65.589c-3.858,3.858-3.858,10.112,0,13.97L255.143,290.224z
	 M31.261,47.243c2.703-4.572,6.012-8.876,9.927-12.79c12.721-12.724,51.708-24.625,80.886-2.01
	c30.724,23.815,38.515,63.167,18.121,91.537c-2.825,3.93-2.388,9.328,1.035,12.751l29.48,29.479l-5.92,5.92l-36.269-36.269
	c8.375-11.304,12.9-24.936,12.9-39.264c0-17.665-6.879-34.273-19.37-46.764C97.159,24.939,57.197,24.077,31.261,47.243z
	 M273.944,276.255c-0.871,0.87-1.887,1-2.415,1s-1.545-0.13-2.415-1.001L178.859,186l4.831-4.831l90.255,90.253
	C275.276,272.754,275.276,274.922,273.944,276.255z"/>
<g>
</g>
<g>
</g>
<g>
</g>
<g>
</g>
<g>
</g>
<g>
</g>
<g>
</g>
<g>
</g>
<g>
</g>
<g>
</g>
<g>
</g>
<g>
</g>
<g>
</g>
<g>
</g>
<g>
</g>
</svg>
