<?xml version="1.0" encoding="iso-8859-1"?>
<!-- Generator: Adobe Illustrator 18.0.0, SVG Export Plug-In . SVG Version: 6.00 Build 0)  -->
<!DOCTYPE svg PUBLIC "-//W3C//DTD SVG 1.1//EN" "http://www.w3.org/Graphics/SVG/1.1/DTD/svg11.dtd">
<svg version="1.1" id="Capa_1" xmlns="http://www.w3.org/2000/svg" xmlns:xlink="http://www.w3.org/1999/xlink" x="0px" y="0px"
	 viewBox="0 0 297 297" style="enable-background:new 0 0 297 297;" xml:space="preserve">
<path d="M276.615,111.807c0-34.674-28.21-62.884-62.884-62.884c-16.926,0-32.301,6.734-43.617,17.649
	C165.859,29.164,134.028,0,95.5,0C54.081,0,20.385,33.697,20.385,75.115v212.002c0,5.458,4.425,9.884,9.884,9.884
	s9.884-4.425,9.884-9.884v-6.424h110.696v6.424c0,5.458,4.425,9.884,9.884,9.884s9.884-4.425,9.884-9.884v-6.424h86.234v6.424
	c0,5.458,4.425,9.884,9.884,9.884c5.458,0,9.884-4.425,9.884-9.884V111.807z M213.731,68.691c20.373,0,37.479,14.209,41.961,33.233
	h-83.921C176.252,82.899,193.358,68.691,213.731,68.691z M216.079,163.078H203.23V150.23h12.849V163.078z M203.23,182.845h12.849
	v12.849H203.23V182.845z M216.079,130.463H203.23v-8.772h12.849V130.463z M95.5,19.767c27.145,0,49.771,19.647,54.446,45.464H41.053
	C45.729,39.414,68.355,19.767,95.5,19.767z M53,163.078H40.152V150.23H53V163.078z M53,130.463H40.152v-12.849H53V130.463z
	 M40.152,182.845H53v12.849H40.152V182.845z M53,97.847H40.152V84.998H53V97.847z M40.152,215.461H53v22.732
	c0,5.458,4.425,9.884,9.884,9.884s9.884-4.425,9.884-9.884V84.998h78.08v175.927H40.152V215.461z M170.614,121.691h12.849v111.313
	c0,5.458,4.425,9.884,9.884,9.884c5.458,0,9.884-4.425,9.884-9.884v-17.543h12.849v17.543c0,5.458,4.425,9.884,9.884,9.884
	c5.458,0,9.884-4.425,9.884-9.884V121.691h21.003v139.234h-86.234V121.691z"/>

</svg>
