<?xml version="1.0" encoding="iso-8859-1"?>
<!-- Generator: Adobe Illustrator 19.0.0, SVG Export Plug-In . SVG Version: 6.00 Build 0)  -->
<svg version="1.1" id="Layer_1" xmlns="http://www.w3.org/2000/svg" xmlns:xlink="http://www.w3.org/1999/xlink" x="0px" y="0px"
	 viewBox="0 0 495 495" style="enable-background:new 0 0 495 495;" xml:space="preserve">
<g>
	<path style="fill:#FFA733;" d="M247.5,0v355c44.83,0,85.38-28.3,100.91-70.43l37.53,13.84C364.64,356.18,309,395,247.5,395v100
		C384.19,495,495,384.19,495,247.5S384.19,0,247.5,0z M323.514,241.486c-22.056,0-40-17.944-40-40s17.944-40,40-40s40,17.944,40,40
		S345.569,241.486,323.514,241.486z"/>
	<path style="fill:#FFCD00;" d="M109.06,298.41l37.53-13.84C162.12,326.7,202.67,355,247.5,355V0C110.81,0,0,110.81,0,247.5
		S110.81,495,247.5,495V395C186,395,130.36,356.18,109.06,298.41z M171.486,161.486c22.056,0,40,17.944,40,40s-17.944,40-40,40
		s-40-17.944-40-40S149.431,161.486,171.486,161.486z"/>
	<path style="fill:#554431;" d="M323.514,161.486c-22.056,0-40,17.944-40,40s17.944,40,40,40s40-17.944,40-40
		S345.569,161.486,323.514,161.486z"/>
	<path style="fill:#6A563D;" d="M171.486,241.486c22.056,0,40-17.944,40-40s-17.944-40-40-40s-40,17.944-40,40
		S149.431,241.486,171.486,241.486z"/>
	<path style="fill:#FF5023;" d="M385.94,298.41l-37.53-13.84C332.88,326.7,292.33,355,247.5,355v40
		C309,395,364.64,356.18,385.94,298.41z"/>
	<path style="fill:#FF7956;" d="M146.59,284.57l-37.53,13.84C130.36,356.18,186,395,247.5,395v-40
		C202.67,355,162.12,326.7,146.59,284.57z"/>
</g>
</svg>
