<?xml version='1.0' encoding='utf-8'?>
<!DOCTYPE svg PUBLIC '-//W3C//DTD SVG 1.1//EN' 'http://www.w3.org/Graphics/SVG/1.1/DTD/svg11.dtd'>
<svg version="1.1" xmlns="http://www.w3.org/2000/svg" viewBox="0 0 512 512" xmlns:xlink="http://www.w3.org/1999/xlink" enable-background="new 0 0 512 512">

<path d="m481.4,460.2h-81v-58.7c8.8-46.4 35.9-139.7 83.2-149.8 11.1-2.3 18.1-13.2 15.8-24.2-2.4-11-13.2-18.1-24.3-15.7-32.9,7-57.1,32.8-74.7,63.7v-244.1c0-11.3-9.2-20.4-20.5-20.4-11.3,0-20.5,9.1-20.5,20.4v110.6c-16.7-23.3-39.5-45.1-70.3-57.9-10.4-4.3-22.4,0.6-26.8,11-4.4,10.4 0.6,22.4 11,26.7 56.8,23.7 79.8,93.2 86.1,116.5v222h-208.1v-58.8c8.8-46.4 35.8-139.6 83.2-149.7 11.1-2.3 18.1-13.2 15.8-24.2-2.4-11-13.2-18.1-24.3-15.7-32.9,7-57.1,32.8-74.7,63.7v-244.2c0-11.3-9.2-20.4-20.5-20.4s-20.5,9.1-20.5,20.4v110.2c-16.7-23.2-39.4-44.9-70-57.6-10.4-4.3-22.4,0.6-26.8,11-4.4,10.4 0.6,22.4 11,26.7 56.1,23.4 79.3,91.4 85.8,115.6v222.9h-75.7c-11.3,0-20.5,9.1-20.5,20.4s9.1,20.4 20.5,20.4h446.8c11.3,0 20.5-9.1 20.5-20.4s-9.2-20.4-20.5-20.4z"/>

</svg>
