<svg xmlns="http://www.w3.org/2000/svg" version="1.1" x="0" y="0" viewBox="0 0 297 297" xml:space="preserve"><path d="M60.5 181.2H10.5C4.7 181.2 0 185.9 0 191.6s4.7 10.5 10.5 10.5h50v11.2c0 5.8 4.7 10.5 10.5 10.5 5.8 0 10.5-4.7 10.5-10.5v-11.2h45.5l14.2 14.2c2 2 4.7 3.1 7.4 3.1s5.4-1 7.4-3.1l14.2-14.2h37v11.2c0 5.8 4.7 10.5 10.5 10.5 5.8 0 10.5-4.7 10.5-10.5v-11.2h58.6c5.8 0 10.5-4.7 10.5-10.5s-4.7-10.5-10.5-10.5h-58.6v-69.4c9.3-0.7 22.3-3.5 32.7-13 11.6-10.6 17-26.3 16-46.9 -0.3-5.4-4.5-9.7-9.9-10 -1.1-0.1-25.6-1.2-43.1 13.6 -2-4.7-4.7-9.3-8.5-13.5 -10.6-11.6-26.3-17-46.9-16 -5.4 0.3-9.7 4.5-10 9.9 -0.1 1.2-1.3 29.1 16.8 46.6 8.2 8 19.2 12.4 32 13.3v85.4h-41.3c-2.8 0-5.4 1.1-7.4 3.1l-9.9 9.9 -9.9-9.9c-2-2-4.6-3.1-7.4-3.1H81.4v-69.4c9.3-0.7 22.3-3.5 32.7-13 11.6-10.6 17-26.3 16-46.9 -0.3-5.4-4.5-9.7-9.9-10 -1.1-0.1-25.6-1.2-43.1 13.6 -2-4.7-4.7-9.3-8.5-13.5 -10.6-11.6-26.3-17-46.9-16 -5.4 0.3-9.7 4.5-10 9.9 -0.1 1.2-1.3 29.1 16.8 46.6 8.2 8 19.2 12.4 32 13.3V181.2zM255.5 63.7c-1 8.5-4 15.1-8.8 19.5 -5.6 5.1-12.9 7-18.7 7.6V89.7c0.8-6.7 3.2-12.2 7.2-16.3C240.9 67.4 249 64.8 255.5 63.7zM180 47.2c8.5 1 15.1 4 19.5 8.8 5.2 5.6 7 13 7.6 18.8 -7.2-0.7-13.1-3.1-17.4-7.3C183.7 61.8 181.1 53.7 180 47.2zM108.9 63.7c-1 8.5-4 15.1-8.8 19.5 -5.6 5.1-12.9 7-18.7 7.6V89.7c0.8-6.7 3.2-12.2 7.2-16.3C94.3 67.4 102.5 64.8 108.9 63.7zM33.4 47.2c8.5 1 15.1 4 19.5 8.8 5.2 5.6 7 13 7.6 18.8 -7.2-0.7-13.1-3.1-17.4-7.3C37.2 61.8 34.6 53.7 33.4 47.2zM269.3 232.9h-17.3c-5.8 0-10.5 4.7-10.5 10.5 0 5.8 4.7 10.5 10.5 10.5h17.3c5.8 0 10.5-4.7 10.5-10.5C279.7 237.6 275.1 232.9 269.3 232.9zM131.2 232.9h-17.3c-5.8 0-10.5 4.7-10.5 10.5 0 5.8 4.7 10.5 10.5 10.5h17.3c5.8 0 10.5-4.7 10.5-10.5C141.7 237.6 137 232.9 131.2 232.9zM27.7 215.7H10.5C4.7 215.7 0 220.4 0 226.1c0 5.8 4.7 10.5 10.5 10.5h17.3c5.8 0 10.5-4.7 10.5-10.5C38.2 220.4 33.5 215.7 27.7 215.7zM193.5 226.1c0-5.8-4.7-10.5-10.5-10.5h-17.3c-5.8 0-10.5 4.7-10.5 10.5 0 5.8 4.7 10.5 10.5 10.5h17.3C188.8 236.6 193.5 231.9 193.5 226.1zM79.5 250.2H62.2c-5.8 0-10.5 4.7-10.5 10.5 0 5.8 4.7 10.5 10.5 10.5h17.3c5.8 0 10.5-4.7 10.5-10.5C89.9 254.9 85.3 250.2 79.5 250.2zM217.5 250.2h-17.3c-5.8 0-10.5 4.7-10.5 10.5 0 5.8 4.7 10.5 10.5 10.5h17.3c5.8 0 10.5-4.7 10.5-10.5C228 254.9 223.3 250.2 217.5 250.2z"/></svg>