<?xml version='1.0' encoding='iso-8859-1'?>
<svg version="1.1" xmlns="http://www.w3.org/2000/svg" viewBox="0 0 470 470" xmlns:xlink="http://www.w3.org/1999/xlink" enable-background="new 0 0 470 470">
  <g>
    <path d="M363.994,1.153c-2.182-1.374-4.917-1.529-7.239-0.414L318.33,19.181L279.904,0.739c-2.052-0.984-4.439-0.985-6.491,0   l-38.419,18.442L196.573,0.739c-2.052-0.985-4.439-0.985-6.491,0l-38.418,18.442L113.246,0.739   c-2.324-1.116-5.059-0.959-7.24,0.413C103.824,2.525,102.5,4.923,102.5,7.5v455c0,2.578,1.324,4.975,3.506,6.348   c2.182,1.372,4.917,1.528,7.24,0.413l38.418-18.442l38.418,18.442c2.052,0.985,4.439,0.985,6.491,0l38.421-18.442l38.419,18.442   c1.026,0.493,2.136,0.739,3.246,0.739s2.22-0.246,3.245-0.738l38.426-18.442l38.425,18.442c2.324,1.115,5.058,0.959,7.239-0.414   c2.182-1.373,3.506-3.77,3.506-6.348V7.5C367.5,4.923,366.177,2.525,363.994,1.153z M321.575,435.739   c-2.051-0.984-4.438-0.984-6.49,0l-38.425,18.442l-38.419-18.442c-1.026-0.493-2.136-0.739-3.246-0.739s-2.22,0.246-3.246,0.739   l-38.421,18.442l-38.418-18.442c-2.052-0.985-4.439-0.985-6.491,0L117.5,450.581V405H330c4.142,0,7.5-3.358,7.5-7.5   s-3.358-7.5-7.5-7.5H117.5V19.42l30.918,14.842c2.052,0.985,4.439,0.985,6.491,0l38.418-18.442l38.421,18.442   c2.052,0.985,4.439,0.985,6.491,0l38.419-18.442l38.425,18.442c2.052,0.984,4.439,0.984,6.49,0L352.5,19.419V65H140   c-4.142,0-7.5,3.358-7.5,7.5s3.358,7.5,7.5,7.5h212.5v370.581L321.575,435.739z"/>
    <path d="m218.386,176.949c5.079-1.293 10.669-1.949 16.614-1.949 19.741,0 34.579,7.13 38.724,18.609 1.103,3.055 3.984,4.955 7.055,4.955 0.845,0 1.706-0.144 2.547-0.448 3.896-1.407 5.914-5.706 4.507-9.602-6.351-17.587-26.595-28.514-52.833-28.514-7.193,0-14.028,0.812-20.315,2.413-4.014,1.022-6.439,5.104-5.417,9.119 1.022,4.013 5.103,6.441 9.118,5.417z"/>
    <path d="m236.207,227.588c-28.01-4.598-41.207-8.694-41.207-26.325 0-4.764 1.306-9 3.881-12.591 2.415-3.366 1.643-8.051-1.723-10.466-3.366-2.413-8.052-1.642-10.466,1.724-4.44,6.191-6.692,13.369-6.692,21.333 0,32.298 29.817,37.193 53.776,41.127 28.022,4.6 41.224,8.699 41.224,26.347 0,19.385-21.548,26.263-40,26.263-19.748,0-34.587-7.134-38.727-18.618-1.405-3.896-5.701-5.917-9.599-4.512-3.897,1.405-5.917,5.703-4.512,9.599 6.345,17.599 26.591,28.531 52.838,28.531 32.897,0 55-16.583 55-41.263 0-32.317-29.827-37.214-53.793-41.149z"/>
  </g>
</svg>
