<svg xmlns="http://www.w3.org/2000/svg" version="1.1" viewBox="0 0 512 512" enable-background="new 0 0 512 512"><path d="m256 432.3c-11.3 0-20.4 9.1-20.4 20.4v27.9c0 11.3 9.1 20.4 20.4 20.4s20.4-9.1 20.4-20.4v-27.9c0-11.3-9.1-20.4-20.4-20.4zM256 102.5c-84.6 0-153.5 68.8-153.5 153.5 0 84.6 68.8 153.5 153.5 153.5 84.6 0 153.5-68.8 153.5-153.5 0-84.6-68.9-153.5-153.5-153.5zm0 266.1c-62.1 0-112.6-50.5-112.6-112.6 0-62.1 50.5-112.6 112.6-112.6s112.6 50.5 112.6 112.6c0 62.1-50.5 112.6-112.6 112.6zM256 79.7c11.3 0 20.4-9.1 20.4-20.4V31.4c0-11.3-9.1-20.4-20.4-20.4s-20.4 9.1-20.4 20.4v27.9C235.6 70.6 244.7 79.7 256 79.7zM480.6 235.6h-27.9c-11.3 0-20.4 9.1-20.4 20.4 0 11.3 9.1 20.4 20.4 20.4h27.9c11.3 0 20.4-9.1 20.4-20.4 0-11.3-9.1-20.4-20.4-20.4zM59.3 235.6h-27.9c-11.3 0-20.4 9.1-20.4 20.4 0 11.3 9.1 20.4 20.4 20.4h27.9c11.3 0 20.4-9.1 20.4-20.4 0-11.3-9.1-20.4-20.4-20.4zM409.5 131.4l19.7-19.7c8-8 8-20.9 0-28.9-8-8-20.9-8-28.9 0l-19.7 19.7c-8 8-8 20.9 0 28.9s20.9 7.9 28.9 0zM102.5 380.6l-19.7 19.7c-8 8-8 20.9 0 28.9 8 8 20.9 8 28.9 0l19.7-19.7c8-8 8-20.9 0-28.9s-20.9-7.9-28.9 0zM409.5 380.6c-8-8-20.9-8-28.9 0-8 8-8 20.9 0 28.9l19.7 19.7c8 8 20.9 8 28.9 0 8-8 8-20.9 0-28.9l-19.7-19.7zM102.5 131.4c8 8 20.9 8 28.9 0 8-8 8-20.9 0-28.9l-19.7-19.7c-8-8-20.9-8-28.9 0-8 8-8 20.9 0 28.9l19.7 19.7z"/></svg>