<?xml version="1.0" encoding="iso-8859-1"?>
<!-- Generator: Adobe Illustrator 18.0.0, SVG Export Plug-In . SVG Version: 6.00 Build 0)  -->
<!DOCTYPE svg PUBLIC "-//W3C//DTD SVG 1.1//EN" "http://www.w3.org/Graphics/SVG/1.1/DTD/svg11.dtd">
<svg version="1.1" id="Capa_1" xmlns="http://www.w3.org/2000/svg" xmlns:xlink="http://www.w3.org/1999/xlink" x="0px" y="0px"
	 viewBox="0 0 297 297" style="enable-background:new 0 0 297 297;" xml:space="preserve">
<g>
	<path d="M245.903,94.813c-5.401-3.73-17.575-11.674-26.335-13.934c6.399-6.394,12.854-19.419,15.613-25.375
		c0.914-1.974,0.801-4.271-0.304-6.144c-1.104-1.874-3.058-3.086-5.228-3.242c-6.316-0.457-20.054-1.088-28.821,1.112
		c2.084-8.797,1.267-22.525,0.727-28.835c-0.186-2.167-1.423-4.105-3.312-5.185c-1.888-1.079-4.186-1.162-6.148-0.221
		c-5.71,2.738-17.952,9.005-24.473,15.265c-2.556-8.671-10.076-20.186-13.674-25.396C152.711,1.069,150.675,0,148.5,0
		s-4.211,1.069-5.448,2.858c-3.73,5.401-11.674,17.575-13.934,26.335c-6.394-6.399-19.419-12.854-25.375-15.613
		c-1.974-0.915-4.271-0.803-6.144,0.304c-1.874,1.104-3.086,3.058-3.242,5.228c-0.456,6.316-1.089,20.054,1.112,28.821
		c-8.797-2.084-22.525-1.267-28.834-0.727c-2.167,0.186-4.105,1.423-5.185,3.312c-1.079,1.888-1.161,4.186-0.221,6.148
		c2.738,5.71,9.005,17.952,15.265,24.473c-8.671,2.555-20.186,10.075-25.396,13.674c-1.789,1.237-2.858,3.273-2.858,5.448
		s1.069,4.211,2.858,5.448c5.401,3.73,17.575,11.674,26.335,13.934c-6.399,6.394-12.854,19.419-15.613,25.375
		c-0.914,1.974-0.801,4.271,0.304,6.144c1.104,1.874,3.058,3.086,5.228,3.242c2.861,0.207,7.243,0.45,11.998,0.45
		c5.747,0,12.027-0.36,16.824-1.565c-2.085,8.796-1.268,22.527-0.728,28.838c0.186,2.167,1.423,4.105,3.312,5.185
		c1.015,0.58,2.149,0.872,3.285,0.872c0.977,0,1.956-0.216,2.863-0.651c5.71-2.738,17.952-9.005,24.473-15.265
		c1.797,6.098,6.045,13.597,9.664,19.327v17.175c-1.502-1.205-3.088-2.327-4.774-3.351c-26.832-16.305-66.804-1.755-68.494-1.128
		c-2.483,0.923-4.466,2.845-5.465,5.298c-0.999,2.454-0.924,5.214,0.209,7.609c10.413,22.034,24.685,35.945,42.421,41.347
		c5.734,1.747,11.324,2.427,16.555,2.427c7.454,0,14.176-1.383,19.548-3.033v29.601c0,5.223,4.235,9.459,9.459,9.459
		s9.459-4.235,9.459-9.459v-41.46c6.072,3.044,11.683,4.082,16.499,4.082c2.986,0,5.668-0.397,7.965-0.958
		c22.728-5.547,35.699-32.582,37.103-35.647c1.104-2.408,1.146-5.169,0.118-7.611c-1.028-2.441-3.033-4.339-5.527-5.233
		c-17.194-6.16-32.212-5.922-44.64,0.702c-4.67,2.489-8.457,5.647-11.518,8.967v-18.789c3.806-6.027,8.311-14.014,9.923-20.265
		c6.394,6.399,19.419,12.854,25.375,15.613c0.885,0.41,1.835,0.613,2.783,0.613c1.166,0,2.328-0.308,3.361-0.917
		c1.874-1.104,3.086-3.058,3.242-5.228c0.456-6.315,1.089-20.052-1.111-28.82c4.319,1.023,9.825,1.347,15.061,1.347
		c5.428,0,10.562-0.347,13.773-0.622c2.167-0.186,4.105-1.423,5.185-3.312c1.079-1.888,1.161-4.186,0.221-6.148
		c-2.738-5.71-9.005-17.952-15.265-24.473c8.671-2.555,20.186-10.075,25.396-13.674c1.789-1.237,2.858-3.273,2.858-5.448
		S247.692,96.05,245.903,94.813z M108.278,240.397c-9.732-3.018-18.203-10.2-25.274-21.403c12.242-2.731,29.94-4.422,41.475,2.611
		c5.935,3.618,9.886,9.291,11.978,17.243C130.102,241.212,119.359,243.832,108.278,240.397z M178.375,218.11
		c5.003-2.667,11.044-3.497,18.051-2.497c-4.6,6.471-11.182,13.448-18.522,15.222c-3.444,0.833-6.958,0.429-10.626-1.242
		C169.359,225.781,172.863,221.048,178.375,218.11z M148.5,181.635c-3.893-6.548-6.707-12.438-6.756-14.488
		c0-3.725,3.031-6.756,6.756-6.756c3.724,0,6.754,3.029,6.756,6.752C155.205,169.2,152.392,175.089,148.5,181.635z M148.5,144.311
		c-24.289,0-44.05-19.761-44.05-44.05s19.761-44.05,44.05-44.05s44.05,19.761,44.05,44.05S172.789,144.311,148.5,144.311z
		 M202.691,60.485c1.798-1,8.304-1.523,15.915-1.537c-3.664,6.678-7.309,12.093-9.051,13.176c-1.555,0.917-3.372,1.174-5.121,0.72
		c-1.748-0.452-3.214-1.556-4.131-3.111c-0.915-1.555-1.171-3.373-0.72-5.121C200.035,62.867,201.138,61.401,202.691,60.485z
		 M175.817,38.839c1.064-1.761,6.429-5.477,13.055-9.23c0.131,7.616-0.347,14.126-1.323,15.931
		c-0.895,1.567-2.347,2.692-4.088,3.166c-1.741,0.472-3.562,0.243-5.129-0.653c-1.567-0.895-2.691-2.347-3.165-4.087
		C174.692,42.227,174.923,40.406,175.817,38.839z M148.5,18.888c3.893,6.548,6.707,12.438,6.756,14.488
		c0,3.725-3.031,6.756-6.756,6.756c-3.724,0-6.754-3.029-6.756-6.752C141.795,31.322,144.608,25.433,148.5,18.888z M120.363,39.206
		c0.916,1.555,1.172,3.373,0.72,5.121c-0.452,1.748-1.556,3.214-3.111,4.131c-1.554,0.915-3.37,1.171-5.121,0.72
		c-1.746-0.452-3.212-1.555-4.128-3.108c-1-1.798-1.566-8.3-1.537-15.915C113.865,33.819,119.28,37.464,120.363,39.206z
		 M93.779,61.211c1.567,0.895,2.692,2.347,3.166,4.088c0.475,1.74,0.243,3.562-0.653,5.129c-0.895,1.567-2.347,2.691-4.087,3.165
		c-1.739,0.476-3.56,0.243-5.126-0.649c-1.76-1.064-5.477-6.429-9.23-13.056C85.465,59.755,91.974,60.236,93.779,61.211z
		 M81.615,93.505c3.725,0,6.756,3.031,6.756,6.756c0,3.724-3.029,6.754-6.752,6.756c-2.057-0.051-7.947-2.864-14.492-6.756
		C73.675,96.368,79.564,93.554,81.615,93.505z M94.309,140.037c-1.799,0.999-8.331,1.538-15.915,1.537
		c3.664-6.678,7.309-12.093,9.051-13.176c1.555-0.915,3.374-1.172,5.121-0.72c1.748,0.452,3.214,1.556,4.131,3.111
		c0.915,1.555,1.171,3.373,0.72,5.121C96.965,137.655,95.862,139.121,94.309,140.037z M121.183,161.683
		c-1.064,1.761-6.429,5.477-13.055,9.23c-0.131-7.616,0.347-14.126,1.323-15.931c0.895-1.567,2.347-2.692,4.088-3.166
		c0.591-0.161,1.191-0.241,1.787-0.241c1.16,0,2.306,0.302,3.342,0.894c1.567,0.895,2.691,2.347,3.165,4.087
		C122.308,158.296,122.077,160.116,121.183,161.683z M176.637,161.316c-0.916-1.555-1.172-3.373-0.72-5.121
		c0.452-1.748,1.556-3.214,3.111-4.131c1.053-0.62,2.227-0.938,3.419-0.938c0.567,0,1.138,0.072,1.702,0.217
		c1.746,0.452,3.212,1.555,4.128,3.108c1,1.798,1.566,8.3,1.537,15.915C183.135,166.703,177.72,163.058,176.637,161.316z
		 M203.22,139.311c-1.567-0.895-2.691-2.347-3.165-4.087c-0.475-1.741-0.243-3.563,0.653-5.13c0.895-1.567,2.347-2.691,4.087-3.165
		c0.591-0.162,1.192-0.241,1.788-0.241c1.159,0,2.304,0.301,3.338,0.89c1.76,1.064,5.477,6.429,9.23,13.056
		C211.532,140.771,205.024,140.287,203.22,139.311z M215.385,107.017c-3.725,0-6.756-3.031-6.756-6.756
		c0-3.724,3.029-6.754,6.752-6.756c2.057,0.051,7.947,2.864,14.492,6.756C223.325,104.155,217.436,106.968,215.385,107.017z"/>
	<path d="M164.125,78.506h-0.009c-3.395,0-6.143,2.753-6.143,6.148c0,3.395,2.757,6.148,6.153,6.148
		c3.395,0,6.148-2.753,6.148-6.148C170.273,81.259,167.521,78.506,164.125,78.506z"/>
	<path d="M148.518,78.506h-0.009c-3.395,0-6.143,2.753-6.143,6.148c0,3.395,2.757,6.148,6.153,6.148
		c3.395,0,6.148-2.753,6.148-6.148C154.667,81.259,151.914,78.506,148.518,78.506z"/>
	<path d="M148.518,62.9h-0.009c-3.395,0-6.143,2.753-6.143,6.148c0,3.395,2.757,6.148,6.153,6.148c3.395,0,6.148-2.753,6.148-6.148
		C154.667,65.652,151.914,62.9,148.518,62.9z"/>
</g>
<g>
</g>
<g>
</g>
<g>
</g>
<g>
</g>
<g>
</g>
<g>
</g>
<g>
</g>
<g>
</g>
<g>
</g>
<g>
</g>
<g>
</g>
<g>
</g>
<g>
</g>
<g>
</g>
<g>
</g>
</svg>
