<?xml version="1.0" encoding="iso-8859-1"?>
<!-- Generator: Adobe Illustrator 18.0.0, SVG Export Plug-In . SVG Version: 6.00 Build 0)  -->
<!DOCTYPE svg PUBLIC "-//W3C//DTD SVG 1.1//EN" "http://www.w3.org/Graphics/SVG/1.1/DTD/svg11.dtd">
<svg version="1.1" id="Capa_1" xmlns="http://www.w3.org/2000/svg" xmlns:xlink="http://www.w3.org/1999/xlink" x="0px" y="0px"
	 viewBox="0 0 297 297" style="enable-background:new 0 0 297 297;" xml:space="preserve">
<path d="M297,139.872c0-48.583-39.524-88.107-88.107-88.107h-49.936V38.171h6.798c5.775,0,10.458-4.682,10.458-10.458
	s-4.682-10.458-10.458-10.458H148.5H96.734H79.479c-5.775,0-10.458,4.682-10.458,10.458s4.682,10.458,10.458,10.458h6.798v13.642
	C38.538,52.793,0,91.904,0,139.872c0,42.313,29.986,77.743,69.821,86.186c-10.533,3.929-18.055,14.088-18.055,25.974
	c0,15.281,12.432,27.713,27.713,27.713s27.713-12.432,27.713-27.713c0-10.284-5.635-19.27-13.975-24.053h113.846v41.308
	c0,5.775,4.682,10.458,10.458,10.458c5.775,0,10.458-4.682,10.458-10.458v-43.414C267.413,217.127,297,181.9,297,139.872z
	 M86.799,207.03V72.715h123.401V207.03H86.799z M138.042,38.171v13.595h-30.85V38.171H138.042z M20.915,139.872
	c0-31.554,21.869-58.083,51.243-65.263v130.526C42.785,197.955,20.915,171.427,20.915,139.872z M79.479,258.829
	c-3.748,0-6.798-3.049-6.798-6.798c0-3.748,3.049-6.798,6.798-6.798s6.798,3.049,6.798,6.798
	C86.276,255.78,83.227,258.829,79.479,258.829z M224.842,205.135V74.609c29.374,7.18,51.243,33.709,51.243,65.263
	S254.215,197.955,224.842,205.135z"/>
<g>
</g>
<g>
</g>
<g>
</g>
<g>
</g>
<g>
</g>
<g>
</g>
<g>
</g>
<g>
</g>
<g>
</g>
<g>
</g>
<g>
</g>
<g>
</g>
<g>
</g>
<g>
</g>
<g>
</g>
</svg>
