<?xml version='1.0' encoding='iso-8859-1'?>
<!DOCTYPE svg PUBLIC '-//W3C//DTD SVG 1.1//EN' 'http://www.w3.org/Graphics/SVG/1.1/DTD/svg11.dtd'>
<svg version="1.1" xmlns="http://www.w3.org/2000/svg" viewBox="0 0 432 432" xmlns:xlink="http://www.w3.org/1999/xlink" enable-background="new 0 0 432 432">
  <g>
    <path d="M334.064,102.193C299.792,36.293,257.862,0,216,0c-41.863,0-83.792,36.293-118.064,102.193   C70.208,155.51,51.578,221.973,51.578,267.578C51.578,358.241,125.337,432,216,432c90.662,0,164.422-73.759,164.422-164.422   C380.422,221.973,361.792,155.51,334.064,102.193z M115.679,111.421c14.298-27.494,30.581-50.283,47.087-65.905   C180.656,28.585,198.566,20,216,20s35.344,8.585,53.233,25.517c16.507,15.622,32.789,38.411,47.087,65.905   c20.782,39.96,36.184,87.381,41.787,126.579H334.09v-9.579c0-5.523-4.478-10-10-10s-10,4.477-10,10V238h-18.8v-9.579   c0-5.523-4.478-10-10-10s-10,4.477-10,10V238h-18.8v-21.579c0-5.523-4.478-10-10-10s-10,4.477-10,10V238h-18.8v-9.579   c0-5.523-4.477-10-10-10s-10,4.477-10,10V238h-18.8v-9.579c0-5.523-4.477-10-10-10s-10,4.477-10,10V238h-18.8v-21.579   c0-5.523-4.477-10-10-10s-10,4.477-10,10V238H73.893C79.496,198.803,94.898,151.381,115.679,111.421z M216,412   c-79.634,0-144.422-64.788-144.422-144.422c0-3.088,0.104-6.292,0.286-9.578h288.272c0.182,3.286,0.286,6.49,0.286,9.578   C360.422,347.212,295.635,412,216,412z"/>
    <path d="m253.002,272.823c-1.786-3.094-5.087-5-8.66-5-3.572,0-6.874,1.906-8.66,5l-10.166,17.607c-1.786,3.094-1.786,6.906 0,10 1.786,3.094 5.088,5 8.66,5h20.331c3.572,0 6.874-1.906 8.66-5 1.786-3.094 1.786-6.906 0-10l-10.165-17.607z"/>
  </g>
</svg>
