<?xml version="1.0" encoding="iso-8859-1"?>
<!-- Generator: Adobe Illustrator 18.0.0, SVG Export Plug-In . SVG Version: 6.00 Build 0)  -->
<!DOCTYPE svg PUBLIC "-//W3C//DTD SVG 1.1//EN" "http://www.w3.org/Graphics/SVG/1.1/DTD/svg11.dtd">
<svg xmlns="http://www.w3.org/2000/svg" version="1.1" x="0" y="0" viewBox="0 0 297 297" xml:space="preserve"><path d="M93.4 161H81.3V13.3c0-5.8-4.7-10.5-10.5-10.5 -5.8 0-10.5 4.7-10.5 10.5v147.7H48.3c-17.1 0-31 13.9-31 31v94.5c0 5.8 4.7 10.5 10.5 10.5h86.3c5.8 0 10.5-4.7 10.5-10.5v-94.5C124.4 175 110.5 161 93.4 161zM103.5 276.1H38.2v-84c0-5.6 4.5-10.1 10.1-10.1h12.1v35.6c0 5.8 4.7 10.5 10.5 10.5 5.8 0 10.5-4.7 10.5-10.5v-35.6h12.1c5.6 0 10.1 4.5 10.1 10.1V276.1zM269.3 0c-5.8 0-10.5 4.7-10.5 10.5v12.7c0 6.2-5.1 11.3-11.3 11.3h-2.3V10.5C245.2 4.7 240.6 0 234.8 0c-5.8 0-10.5 4.7-10.5 10.5v24.1h-13.6V10.5C210.7 4.7 206 0 200.3 0c-5.8 0-10.5 4.7-10.5 10.5v24.1h-13.6V10.5C176.2 4.7 171.5 0 165.8 0s-10.5 4.7-10.5 10.5v24.1h-2.3c-6.2 0-11.3-5.1-11.3-11.3V10.5C141.7 4.7 137 0 131.2 0s-10.5 4.7-10.5 10.5v12.7c0 17.8 14.5 32.2 32.2 32.2h36.8v231.1c0 5.8 4.7 10.5 10.5 10.5 5.8 0 10.5-4.7 10.5-10.5V55.4h36.8c17.8 0 32.2-14.5 32.2-32.2V10.5C279.7 4.7 275.1 0 269.3 0z"/></svg>