<?xml version="1.0" encoding="iso-8859-1"?>
<!-- Generator: Adobe Illustrator 18.0.0, SVG Export Plug-In . SVG Version: 6.00 Build 0)  -->
<!DOCTYPE svg PUBLIC "-//W3C//DTD SVG 1.1//EN" "http://www.w3.org/Graphics/SVG/1.1/DTD/svg11.dtd">
<svg version="1.1" id="Capa_1" xmlns="http://www.w3.org/2000/svg" xmlns:xlink="http://www.w3.org/1999/xlink" x="0px" y="0px"
	 viewBox="0 0 297 297" style="enable-background:new 0 0 297 297;" xml:space="preserve">
<g>
	<path d="M93.422,161.049H81.309V13.334c0-5.775-4.682-10.458-10.458-10.458c-5.775,0-10.458,4.682-10.458,10.458v147.716H48.279
		c-17.106,0-31.024,13.918-31.024,31.024v94.469c0,5.775,4.682,10.458,10.458,10.458h86.276c5.775,0,10.458-4.682,10.458-10.458
		v-94.469C124.447,174.967,110.529,161.049,93.422,161.049z M103.532,276.085H38.171v-84.011c0-5.574,4.534-10.108,10.108-10.108
		h12.114v35.556c0,5.775,4.682,10.458,10.458,10.458c5.775,0,10.458-4.682,10.458-10.458v-35.556h12.113
		c5.574,0,10.109,4.534,10.109,10.108V276.085z"/>
	<path d="M269.287,0c-5.775,0-10.458,4.682-10.458,10.458v12.723c0,6.247-5.083,11.33-11.33,11.33h-2.265V10.458
		C245.234,4.682,240.552,0,234.776,0c-5.775,0-10.458,4.682-10.458,10.458v24.053h-13.595V10.458C210.724,4.682,206.041,0,200.266,0
		c-5.775,0-10.458,4.682-10.458,10.458v24.053h-13.595V10.458C176.213,4.682,171.531,0,165.755,0s-10.458,4.682-10.458,10.458
		v24.053h-2.266c-6.247,0-11.329-5.083-11.329-11.33V10.458C141.702,4.682,137.02,0,131.245,0s-10.458,4.682-10.458,10.458v12.723
		c0,17.78,14.465,32.245,32.244,32.245h36.777v231.116c0,5.775,4.682,10.458,10.458,10.458c5.775,0,10.458-4.682,10.458-10.458
		V55.426h36.776c17.78,0,32.245-14.465,32.245-32.245V10.458C279.745,4.682,275.062,0,269.287,0z"/>
</g>
<g>
</g>
<g>
</g>
<g>
</g>
<g>
</g>
<g>
</g>
<g>
</g>
<g>
</g>
<g>
</g>
<g>
</g>
<g>
</g>
<g>
</g>
<g>
</g>
<g>
</g>
<g>
</g>
<g>
</g>
</svg>
