<?xml version="1.0" encoding="iso-8859-1"?>
<!-- Generator: Adobe Illustrator 18.0.0, SVG Export Plug-In . SVG Version: 6.00 Build 0)  -->
<!DOCTYPE svg PUBLIC "-//W3C//DTD SVG 1.1//EN" "http://www.w3.org/Graphics/SVG/1.1/DTD/svg11.dtd">
<svg version="1.1" id="Capa_1" xmlns="http://www.w3.org/2000/svg" xmlns:xlink="http://www.w3.org/1999/xlink" x="0px" y="0px"
	 viewBox="0 0 297 297" style="enable-background:new 0 0 297 297;" xml:space="preserve">
<g>
	<path d="M256.122,212.91l24.35-85.227c2.383-8.343,0.754-17.101-4.471-24.028c-5.225-6.928-13.199-10.901-21.876-10.901h-3.506
		V40.287c0-5.174-4.195-9.369-9.369-9.369h-6.09v-6.09c0-3.358,2.732-6.09,6.09-6.09c5.174,0,9.369-4.195,9.369-9.369
		S246.424,0,241.25,0c-13.69,0-24.828,11.138-24.828,24.828v6.09h-6.09c-5.174,0-9.369,4.195-9.369,9.369v52.467H158.54
		l-24.696-21.328l6.988-10.483c2.87-4.305,1.707-10.122-2.598-12.992c-4.306-2.871-10.123-1.708-12.992,2.598L97.105,92.754H79.637
		c-15.109,0-27.401,12.292-27.401,27.401v43.336c-21.911,12.155-36.781,35.521-36.781,62.304C15.455,265.057,47.398,297,86.66,297
		s71.205-31.943,71.205-71.205c0-2.053-0.107-4.08-0.278-6.09h52.299c-14.326,6.181-24.382,20.44-24.382,37.008
		c0,22.214,18.073,40.287,40.287,40.287s40.287-18.073,40.287-40.287c0-16.568-10.056-30.827-24.382-37.008h5.417
		C251.296,219.705,254.972,216.932,256.122,212.91z M225.791,278.262c-11.882,0-21.549-9.666-21.549-21.549
		c0-11.882,9.666-21.549,21.549-21.549c11.882,0,21.549,9.666,21.549,21.549C247.34,268.595,237.673,278.262,225.791,278.262z
		 M219.701,49.656h12.18v43.098h-12.18V49.656z M123.369,87.138l6.503,5.616h-10.247L123.369,87.138z M86.66,278.262
		c-28.931,0-52.467-23.536-52.467-52.467s23.536-52.467,52.467-52.467s52.467,23.536,52.467,52.467S115.591,278.262,86.66,278.262z
		 M254.125,111.492c2.743,0,5.264,1.256,6.916,3.447c1.651,2.19,2.168,4.959,1.414,7.597l-4.757,16.648
		c-0.325-0.034-0.655-0.053-0.989-0.053h-46.377c-5.174,0-9.369,4.195-9.369,9.369s4.195,9.369,9.369,9.369h42.028l-3.48,12.18
		h-38.548c-5.174,0-9.369,4.195-9.369,9.369s4.195,9.369,9.369,9.369h33.194l-3.48,12.18h-86.655
		c-10.099-27.055-36.198-46.377-66.731-46.377c-5.39,0-10.635,0.622-15.686,1.762v-36.197c0-4.777,3.886-8.663,8.663-8.663H254.125z
		"/>
	<path d="M86.66,200.967c-13.69,0-24.828,11.138-24.828,24.828s11.138,24.828,24.828,24.828s24.828-11.138,24.828-24.828
		S100.35,200.967,86.66,200.967z"/>
</g>
<g>
</g>
<g>
</g>
<g>
</g>
<g>
</g>
<g>
</g>
<g>
</g>
<g>
</g>
<g>
</g>
<g>
</g>
<g>
</g>
<g>
</g>
<g>
</g>
<g>
</g>
<g>
</g>
<g>
</g>
</svg>
