<?xml version="1.0" encoding="iso-8859-1"?>
<!-- Generator: Adobe Illustrator 18.0.0, SVG Export Plug-In . SVG Version: 6.00 Build 0)  -->
<!DOCTYPE svg PUBLIC "-//W3C//DTD SVG 1.1//EN" "http://www.w3.org/Graphics/SVG/1.1/DTD/svg11.dtd">
<svg version="1.1" id="Capa_1" xmlns="http://www.w3.org/2000/svg" xmlns:xlink="http://www.w3.org/1999/xlink" x="0px" y="0px"
	 viewBox="0 0 297 297" style="enable-background:new 0 0 297 297;" xml:space="preserve">

<path d="M157.687,131.202c-0.876-4.38-4.721-7.532-9.187-7.532h-6.09V99.43c-2.948,0.981-6.096,1.52-9.369,1.52
	c-3.273,0-6.421-0.539-9.369-1.52v24.24h-6.09c-4.466,0-8.311,3.152-9.187,7.532L77.478,285.791
	c-1.015,5.073,2.275,10.009,7.35,11.024c5.072,1.019,10.009-2.275,11.024-7.35l0.437-2.186l36.752-36.752l36.752,36.752
	l0.437,2.186c0.89,4.454,4.803,7.534,9.177,7.534c0.609,0,1.228-0.059,1.847-0.184c5.074-1.015,8.364-5.951,7.35-11.024
	L157.687,131.202z M119.112,173.165l5.427,6.578l-8.9,10.788L119.112,173.165z M140.819,142.409l2.833,14.167l-10.611,12.862
	l-10.611-12.862l2.833-14.167H140.819z M150.444,190.531l-8.9-10.788l5.427-6.578L150.444,190.531z M133.041,190.048l18.954,22.974
	l-18.954,18.954l-18.954-18.954L133.041,190.048z M100.927,264.091l7.613-38.065l15.226,15.226L100.927,264.091z M142.317,241.252
	l15.226-15.226l7.613,38.065L142.317,241.252z"/>
<path d="M142.41,42.978V9.369c0-5.174-4.195-9.369-9.369-9.369c-5.174,0-9.369,4.195-9.369,9.369v33.609
	c2.948-0.981,6.096-1.52,9.369-1.52C136.314,41.458,139.462,41.997,142.41,42.978z"/>
<path d="M106.461,57.874c2.877-5.712,7.538-10.374,13.25-13.25L95.942,20.855c-3.66-3.658-9.59-3.658-13.25,0
	c-3.659,3.659-3.659,9.591,0,13.25L106.461,57.874z"/>
<path d="M159.622,57.874l23.769-23.769c3.659-3.659,3.659-9.591,0-13.25c-3.66-3.658-9.59-3.658-13.25,0l-23.769,23.769
	C152.084,47.501,156.745,52.162,159.622,57.874z"/>
<path d="M133.041,87.834c9.17,0,16.63-7.46,16.63-16.63s-7.46-16.63-16.63-16.63c-9.17,0-16.63,7.46-16.63,16.63
	S123.872,87.834,133.041,87.834z"/>
<path d="M146.371,97.785l23.769,23.769c1.83,1.829,4.227,2.744,6.625,2.744s4.795-0.915,6.625-2.744
	c3.659-3.659,3.659-9.591,0-13.25l-23.769-23.769C156.745,90.247,152.084,94.908,146.371,97.785z"/>
<path d="M106.461,84.535l-23.769,23.769c-3.659,3.659-3.659,9.591,0,13.25c1.83,1.829,4.227,2.744,6.625,2.744
	c2.398,0,4.795-0.915,6.625-2.744l23.769-23.769C113.999,94.908,109.337,90.247,106.461,84.535z"/>
<path d="M103.295,71.204c0-3.273,0.539-6.421,1.52-9.369H71.206c-5.174,0-9.369,4.195-9.369,9.369s4.195,9.369,9.369,9.369h33.609
	C103.834,77.625,103.295,74.478,103.295,71.204z"/>
<path d="M225.794,30.918c-5.174,0-9.369,4.195-9.369,9.369v21.549h-55.158c0.981,2.948,1.52,6.096,1.52,9.369
	s-0.539,6.421-1.52,9.369h55.158v21.549c0,5.174,4.195,9.369,9.369,9.369c5.174,0,9.369-4.195,9.369-9.369V40.287
	C235.163,35.113,230.968,30.918,225.794,30.918z"/>

</svg>
