<?xml version="1.0" encoding="iso-8859-1"?>
<!-- Generator: Adobe Illustrator 18.0.0, SVG Export Plug-In . SVG Version: 6.00 Build 0)  -->
<!DOCTYPE svg PUBLIC "-//W3C//DTD SVG 1.1//EN" "http://www.w3.org/Graphics/SVG/1.1/DTD/svg11.dtd">
<svg version="1.1" id="Capa_1" xmlns="http://www.w3.org/2000/svg" xmlns:xlink="http://www.w3.org/1999/xlink" x="0px" y="0px"
	 viewBox="0 0 297 297" style="enable-background:new 0 0 297 297;" xml:space="preserve">

<path d="M142.076,205.577c0-5.458-4.425-9.884-9.884-9.884h-16.308c-5.458,0-9.884,4.425-9.884,9.884
	c0,5.458,4.425,9.884,9.884,9.884h16.308C137.65,215.461,142.076,211.036,142.076,205.577z"/>
<path d="M122.309,238.193c0,5.458,4.425,9.884,9.884,9.884h32.616c5.458,0,9.884-4.425,9.884-9.884
	c0-5.458-4.425-9.884-9.884-9.884h-32.616C126.734,228.309,122.309,232.735,122.309,238.193z"/>
<path d="M278.963,114.155h-6.424v-39.04c0-5.458-4.425-9.884-9.884-9.884h-22.732V19.767h6.424c5.458,0,9.884-4.425,9.884-9.884
	S251.805,0,246.347,0H18.037c-5.458,0-9.884,4.425-9.884,9.884s4.425,9.884,9.884,9.884h6.424v45.464h-6.424
	c-5.458,0-9.884,4.425-9.884,9.884s4.425,9.884,9.884,9.884h6.424v202.118c0,5.458,4.425,9.884,9.884,9.884
	s9.884-4.425,9.884-9.884V84.998h12.849v6.424c0,5.458,4.425,9.884,9.884,9.884h87.963v29.156H66.961
	c-5.458,0-9.884,4.425-9.884,9.884v146.77c0,5.458,4.425,9.884,9.884,9.884h130.463c5.458,0,9.884-4.425,9.884-9.884v-146.77
	c0-5.458-4.425-9.884-9.884-9.884h-22.732v-29.156h22.732c5.458,0,9.884-4.425,9.884-9.884v-6.424h12.849v202.118
	c0,5.458,4.425,9.884,9.884,9.884c5.458,0,9.884-4.425,9.884-9.884V84.998h12.849v39.04c0,5.458,4.425,9.884,9.884,9.884h16.308
	c5.458,0,9.884-4.425,9.884-9.884C288.846,118.58,284.421,114.155,278.963,114.155z M187.54,179.386h-22.732
	c-5.458,0-9.884,4.425-9.884,9.884c0,5.458,4.425,9.884,9.884,9.884h22.732v78.08H76.844v-94.388h39.04
	c5.458,0,9.884-4.425,9.884-9.884s-4.425-9.884-9.884-9.884h-39.04V150.23H187.54V179.386z M76.844,68.691h45.464v12.849H76.844
	V68.691z M142.076,81.539V68.691h12.849v12.849H142.076z M187.54,81.539h-12.849V68.691h12.849V81.539z M207.307,65.231v-6.424
	c0-5.458-4.425-9.884-9.884-9.884H66.961c-5.458,0-9.884,4.425-9.884,9.884v6.424H44.229V19.767h175.927v45.464H207.307z"/>

</svg>
