<?xml version="1.0" encoding="iso-8859-1"?>
<!-- Generator: Adobe Illustrator 19.0.0, SVG Export Plug-In . SVG Version: 6.00 Build 0)  -->
<svg version="1.1" id="Capa_1" xmlns="http://www.w3.org/2000/svg" xmlns:xlink="http://www.w3.org/1999/xlink" x="0px" y="0px"
	 viewBox="0 0 463 463" style="enable-background:new 0 0 463 463;" xml:space="preserve">
<path d="M322.926,151.161c-0.53-3.154-3-5.625-6.154-6.154c-4.934-0.829-10.003-1.05-15.107-0.707
	c16.806-18.453,24.92-42.87,21.261-64.655c-0.53-3.154-3-5.625-6.154-6.154c-17.155-2.882-35.945,1.538-52.168,11.753
	c1.332-6.121,2.037-12.477,2.037-18.933c0-26.515-11.797-51.391-30.788-64.92c-2.604-1.855-6.099-1.855-8.703,0
	c-18.991,13.529-30.788,38.405-30.788,64.92c0,6.455,0.704,12.812,2.036,18.932c-16.224-10.215-35.014-14.635-52.168-11.753
	c-3.154,0.53-5.625,3-6.154,6.154c-3.659,21.786,4.456,46.203,21.262,64.655c-5.105-0.343-10.174-0.122-15.108,0.706
	c-3.154,0.53-5.625,3-6.154,6.154c-3.583,21.333,4.124,45.189,20.226,63.497c-4.754-0.248-9.472-0.009-14.072,0.764
	c-3.154,0.53-5.625,3-6.154,6.154c-3.605,21.465,4.217,45.488,20.525,63.841c-4.855-0.274-9.675-0.042-14.371,0.747
	c-3.154,0.53-5.625,3-6.154,6.154c-3.862,22.995,5.386,48.927,24.135,67.676c15.93,15.93,37.043,25.001,57.135,25.001
	c0.887,0,1.772-0.018,2.655-0.053V455.5c0,4.142,3.358,7.5,7.5,7.5s7.5-3.358,7.5-7.5v-70.558c0.882,0.036,1.768,0.053,2.655,0.053
	c20.091,0,41.207-9.072,57.136-25.001c18.749-18.75,27.997-44.682,24.135-67.676c-0.53-3.154-3-5.625-6.154-6.154
	c-4.696-0.788-9.516-1.021-14.371-0.747c16.308-18.353,24.131-42.376,20.526-63.841c-0.53-3.154-3-5.625-6.154-6.154
	c-4.6-0.772-9.318-1.012-14.072-0.764C318.802,196.35,326.509,172.494,322.926,151.161z M239,243.784
	c0.882,0.036,1.768,0.053,2.655,0.053c1.173,0,2.351-0.037,3.53-0.099c-2.225,2.53-4.288,5.165-6.185,7.886V243.784z M224,251.624
	c-1.896-2.72-3.96-5.356-6.185-7.885c1.179,0.062,2.356,0.099,3.529,0.099c0.887,0,1.772-0.018,2.655-0.053V251.624z M239,172.269
	c0.882,0.036,1.768,0.053,2.655,0.053c1.521,0,3.05-0.069,4.58-0.172c-2.628,2.885-5.043,5.915-7.235,9.059V172.269z M224,181.208
	c-2.191-3.144-4.606-6.174-7.235-9.059c1.53,0.103,3.058,0.172,4.58,0.172c0.887,0,1.772-0.018,2.655-0.053V181.208z
	 M308.736,87.681c0.866,16.864-6.71,35.192-20.552,49.034c-13.843,13.842-32.182,21.41-49.034,20.552
	c-0.866-16.864,6.71-35.192,20.552-49.034S291.871,86.818,308.736,87.681z M231.5,17.108c12.537,11.313,20.14,29.629,20.14,49.204
	c0,19.575-7.603,37.892-20.14,49.205c-12.537-11.313-20.14-29.629-20.14-49.205C211.361,46.737,218.964,28.42,231.5,17.108z
	 M154.264,87.681c16.865-0.857,35.193,6.712,49.034,20.552c13.842,13.842,21.417,32.17,20.552,49.034
	c-16.86,0.861-35.193-6.711-49.034-20.552C160.974,122.874,153.399,104.545,154.264,87.681z M154.264,159.197
	c16.864-0.869,35.192,6.71,49.034,20.552c13.842,13.842,21.417,32.17,20.552,49.034c-16.86,0.859-35.193-6.711-49.034-20.552
	C160.974,194.389,153.399,176.061,154.264,159.197z M154.264,229.612c16.865-0.861,35.193,6.711,49.034,20.552
	c13.842,13.841,21.417,32.169,20.552,49.034c-16.86,0.867-35.193-6.712-49.034-20.552
	C160.974,264.804,153.399,246.476,154.264,229.612z M223.85,369.94c-16.86,0.862-35.193-6.711-49.034-20.552
	c-13.842-13.842-21.417-32.17-20.552-49.034c16.865-0.857,35.193,6.711,49.034,20.552C217.14,334.748,224.716,353.076,223.85,369.94
	z M217.523,314.144c1.277,0.072,2.552,0.109,3.822,0.109c0.887,0,1.772-0.018,2.655-0.053v8.166
	C222.02,319.526,219.861,316.776,217.523,314.144z M239,314.2c0.882,0.036,1.768,0.053,2.655,0.053c1.271,0,2.545-0.038,3.823-0.11
	c-2.338,2.632-4.497,5.382-6.478,8.223V314.2z M308.736,300.354c0.866,16.864-6.71,35.191-20.552,49.034
	c-13.842,13.842-32.167,21.42-49.034,20.552c-0.866-16.864,6.71-35.192,20.552-49.034S291.871,299.486,308.736,300.354z
	 M308.736,229.612c0.866,16.864-6.71,35.191-20.552,49.034c-13.842,13.842-32.167,21.419-49.034,20.552
	c-0.866-16.864,6.71-35.192,20.552-49.034S291.871,228.745,308.736,229.612z M288.184,208.23
	c-13.843,13.841-32.182,21.412-49.034,20.552c-0.866-16.864,6.71-35.192,20.552-49.034c13.842-13.841,32.168-21.413,49.034-20.552
	C309.602,176.061,302.026,194.388,288.184,208.23z"/>
<g>
</g>
<g>
</g>
<g>
</g>
<g>
</g>
<g>
</g>
<g>
</g>
<g>
</g>
<g>
</g>
<g>
</g>
<g>
</g>
<g>
</g>
<g>
</g>
<g>
</g>
<g>
</g>
<g>
</g>
</svg>
