<?xml version="1.0" encoding="iso-8859-1"?>
<!-- Generator: Adobe Illustrator 18.0.0, SVG Export Plug-In . SVG Version: 6.00 Build 0)  -->
<!DOCTYPE svg PUBLIC "-//W3C//DTD SVG 1.1//EN" "http://www.w3.org/Graphics/SVG/1.1/DTD/svg11.dtd">
<svg version="1.1" id="Capa_1" xmlns="http://www.w3.org/2000/svg" xmlns:xlink="http://www.w3.org/1999/xlink" x="0px" y="0px"
	 viewBox="0 0 297 297" style="enable-background:new 0 0 297 297;" xml:space="preserve">

<path d="M202.331,82.013c-0.079-5.072-4.142-9.179-9.213-9.311c-1.471-0.038-8.912-0.106-17.878,1.897
	c0.051-0.671,0.085-1.347,0.085-2.031c0-21.68-18.233-39.619-20.312-41.593c-3.678-3.492-9.457-3.464-13.098,0.069
	c-2.071,2.009-20.24,20.242-20.24,41.524c0,0.686,0.034,1.363,0.085,2.036c-8.968-2.002-16.411-1.935-17.878-1.902
	c-5.071,0.132-9.134,4.239-9.213,9.311c-0.035,2.306-0.004,19.199,7.683,33.575c-4.333,0.825-7.612,4.588-7.683,9.136
	c-0.035,2.306-0.004,19.2,7.683,33.576c-4.333,0.825-7.613,4.588-7.683,9.137c-0.044,2.886,0.002,28.625,15.05,43.672v0.001
	c5.066,5.066,11.803,7.857,18.969,7.857c3.614,0,7.117-0.712,10.354-2.065v70.64c0,5.223,4.235,9.459,9.459,9.459
	s9.459-4.235,9.459-9.459v-70.64c3.236,1.354,6.74,2.065,10.354,2.065c7.166,0,13.902-2.79,18.969-7.857
	c15.048-15.048,15.094-40.787,15.05-43.673c-0.07-4.549-3.35-8.312-7.683-9.137c7.687-14.376,7.718-31.27,7.683-33.576
	c-0.07-4.549-3.35-8.311-7.683-9.136C202.335,101.212,202.366,84.318,202.331,82.013z M134.279,143.838
	c3.083,3.083,3.083,8.1,0,11.183c-3.084,3.084-8.101,3.083-11.183,0c-4.907-4.907-7.398-13.002-8.576-19.815
	C121.267,136.36,129.291,138.849,134.279,143.838z M149.344,173.174c-0.29,0.29-0.57,0.588-0.844,0.888
	c-0.275-0.3-0.554-0.598-0.845-0.889c-0.862-0.862-1.761-1.669-2.683-2.435c0.932-0.713,1.831-1.488,2.683-2.34
	c0.29-0.29,0.57-0.588,0.844-0.888c0.275,0.3,0.554,0.598,0.845,0.889c0.852,0.852,1.751,1.627,2.683,2.34
	C151.105,171.505,150.207,172.311,149.344,173.174z M173.904,155.021c-3.083,3.081-8.1,3.082-11.183,0.001
	c-3.083-3.084-3.083-8.101,0-11.184c4.987-4.988,13.007-7.477,19.748-8.632C181.285,141.999,178.792,150.134,173.904,155.021z
	 M149.344,130.461c-0.29,0.291-0.57,0.588-0.844,0.888c-0.274-0.3-0.554-0.598-0.844-0.888c-0.862-0.862-1.761-1.669-2.683-2.436
	c0.932-0.713,1.831-1.488,2.683-2.34c0.29-0.29,0.57-0.588,0.844-0.888c0.275,0.3,0.554,0.598,0.845,0.889
	c0.852,0.852,1.751,1.626,2.682,2.339C151.105,128.793,150.207,129.599,149.344,130.461z M173.904,112.31
	c-3.083,3.082-8.1,3.082-11.183,0.001c-3.083-3.084-3.083-8.102,0-11.185c4.987-4.988,13.007-7.477,19.748-8.631
	C181.285,99.288,178.792,107.422,173.904,112.31z M148.54,52.493c3.81,5.324,7.868,12.72,7.868,20.075
	c0,4.361-3.547,7.908-7.908,7.908s-7.908-3.547-7.908-7.908C140.592,65.629,144.554,58.144,148.54,52.493z M134.279,101.125
	c3.083,3.084,3.083,8.102,0,11.185c-3.084,3.085-8.101,3.083-11.183,0c-4.907-4.907-7.398-13.002-8.576-19.816
	C121.267,93.648,129.291,96.137,134.279,101.125z M134.279,197.734c-1.494,1.494-3.48,2.316-5.591,2.316
	c-2.112,0-4.098-0.822-5.592-2.316v-0.001c-4.907-4.907-7.398-13.001-8.576-19.815c6.747,1.154,14.771,3.643,19.759,8.631
	C137.362,189.633,137.362,194.649,134.279,197.734z M173.904,197.733L173.904,197.733c-1.494,1.495-3.48,2.317-5.592,2.317
	c-2.112,0-4.098-0.822-5.591-2.317c-3.083-3.083-3.083-8.1,0-11.183c4.99-4.99,13.016-7.479,19.758-8.633
	C181.301,184.735,178.81,192.827,173.904,197.733z"/>
<path d="M109.72,60.062c3.657,0,6.621-2.964,6.621-6.621V6.621c0-3.657-2.964-6.621-6.621-6.621c-3.657,0-6.621,2.964-6.621,6.621
	v46.82C103.099,57.098,106.063,60.062,109.72,60.062z"/>
<path d="M132.893,28.849c3.657,0,6.621-2.964,6.621-6.621V6.621c0-3.657-2.964-6.621-6.621-6.621s-6.621,2.964-6.621,6.621v15.607
	C126.272,25.885,129.236,28.849,132.893,28.849z"/>
<path d="M164.107,28.849c3.657,0,6.621-2.964,6.621-6.621V6.621c0-3.657-2.964-6.621-6.621-6.621s-6.621,2.964-6.621,6.621v15.607
	C157.486,25.885,160.45,28.849,164.107,28.849z"/>
<path d="M189.172,60.062c3.657,0,6.621-2.964,6.621-6.621V6.621c0-3.657-2.964-6.621-6.621-6.621c-3.657,0-6.621,2.964-6.621,6.621
	v46.82C182.551,57.098,185.515,60.062,189.172,60.062z"/>
<path d="M86.073,0c-3.657,0-6.621,2.964-6.621,6.621v93.64c0,3.657,2.964,6.621,6.621,6.621c3.657,0,6.621-2.964,6.621-6.621V6.621
	C92.694,2.964,89.73,0,86.073,0z"/>
<path d="M210.927,0c-3.657,0-6.621,2.964-6.621,6.621v93.64c0,3.657,2.964,6.621,6.621,6.621c3.657,0,6.621-2.964,6.621-6.621
	V6.621C217.548,2.964,214.584,0,210.927,0z"/>

</svg>
