<?xml version="1.0" encoding="iso-8859-1"?>
<!-- Generator: Adobe Illustrator 18.0.0, SVG Export Plug-In . SVG Version: 6.00 Build 0)  -->
<!DOCTYPE svg PUBLIC "-//W3C//DTD SVG 1.1//EN" "http://www.w3.org/Graphics/SVG/1.1/DTD/svg11.dtd">
<svg version="1.1" id="Capa_1" xmlns="http://www.w3.org/2000/svg" xmlns:xlink="http://www.w3.org/1999/xlink" x="0px" y="0px"
	 viewBox="0 0 297 297" style="enable-background:new 0 0 297 297;" xml:space="preserve">
<path d="M84.388,223.558l24.424,42.006c4.259,8.182,11.748,13.047,19.74,13.047c1.063,0,2.135-0.087,3.211-0.262
	c9.555-1.564,16.755-9.688,18.341-20.696l4.335-30.077h18.628c-0.338,2.217-0.514,4.487-0.514,6.798
	c0,24.795,20.173,44.968,44.968,44.968s44.968-20.173,44.968-44.968c0-14.297-6.715-27.048-17.148-35.29l49.367-61.709
	c2.511-3.139,3-7.44,1.259-11.063c-1.741-3.623-5.406-5.927-9.425-5.927h-24.299c0.162-2.229,0.246-4.496,0.246-6.798
	c0-34.892-18.805-62.224-42.811-62.224c-9.017,0-17.292,3.87-24.119,10.536c-5.743-4.478-12.27-7.698-19.287-9.326
	c-0.049-8.701-3.389-19.317-13.096-31.101c-3.498-4.247-9.645-5.026-14.074-1.917c-0.221,0.155-0.436,0.32-0.647,0.493
	c-4.458,3.672-5.096,10.263-1.424,14.721c6.569,7.976,8.332,13.823,8.367,17.771c-7.076,1.615-13.659,4.846-19.445,9.357
	c-6.826-6.669-15.104-10.533-24.122-10.533c-24.007,0-42.811,27.332-42.811,62.224c0,2.305,0.107,4.565,0.269,6.798H54.38
	L37.635,75.767c-1.424-4.271-5.42-7.151-9.922-7.151H10.458C4.683,68.616,0,73.299,0,79.074s4.683,10.458,10.458,10.458h9.717
	L63.514,199.28C66.834,210.112,74.577,218.792,84.388,223.558z M219.678,72.276c10.357,0,21.896,16.964,21.896,41.308
	c0,2.341-0.119,4.603-0.323,6.798h-22.222c0.211-2.233,0.323-4.5,0.323-6.798c0-13.412-3.686-25.836-9.927-36.008
	C212.662,74.174,216.233,72.276,219.678,72.276z M165.755,72.276c18.02,0,32.68,18.531,32.68,41.308
	c0,2.316-0.156,4.585-0.449,6.798h-64.452c-0.292-2.214-0.46-4.48-0.46-6.798C133.075,90.807,147.735,72.276,165.755,72.276z
	 M89.937,113.585c0-24.344,11.539-41.308,21.896-41.308c3.445,0,7.016,1.899,10.253,5.302c-6.24,10.172-9.926,22.595-9.926,36.006
	c0,2.298,0.116,4.564,0.326,6.798H90.252C90.049,118.189,89.937,115.924,89.937,113.585z M128.206,255.246l-17.396-27.672h22.498
	L128.206,255.246z M217.521,258.424c-13.263,0-24.053-10.79-24.053-24.053s10.79-24.053,24.053-24.053s24.053,10.79,24.053,24.053
	S230.784,258.424,217.521,258.424z M60.962,141.298h203.821l-39.091,48.863c-2.652-0.489-5.38-0.758-8.171-0.758
	c-14.346,0-27.135,6.761-35.374,17.255h-80.375c-8.482,0-14.455-6.323-18.362-13.85C77.301,181.037,60.962,141.298,60.962,141.298z"
	/>

</svg>
