<?xml version="1.0" encoding="iso-8859-1"?>
<!-- Generator: Adobe Illustrator 18.0.0, SVG Export Plug-In . SVG Version: 6.00 Build 0)  -->
<!DOCTYPE svg PUBLIC "-//W3C//DTD SVG 1.1//EN" "http://www.w3.org/Graphics/SVG/1.1/DTD/svg11.dtd">
<svg version="1.1" id="Capa_1" xmlns="http://www.w3.org/2000/svg" xmlns:xlink="http://www.w3.org/1999/xlink" x="0px" y="0px"
	 viewBox="0 0 297 297" style="enable-background:new 0 0 297 297;" xml:space="preserve">

<path d="M192.087,219.963c0-5.598-4.539-10.136-10.136-10.136h-16.725c-5.598,0-10.136,4.539-10.136,10.136
	s4.539,10.136,10.136,10.136h16.725C187.548,230.099,192.087,225.561,192.087,219.963z"/>
<path d="M262.101,186.676l-36.564-36.564v-47.226c0-2.455-0.891-4.827-2.508-6.675l-9.475-10.829l47.712-38.17
	c2.251-1.801,3.629-4.475,3.788-7.355c0.159-2.879-0.915-5.689-2.953-7.728l-29.16-29.16c-3.96-3.958-10.376-3.958-14.336,0
	l-45.917,45.917c-7.591-3.122-15.793-4.792-24.189-4.792c-10.886,0-21.447,2.799-30.769,7.946L79.142,3.805
	c-1.801-2.251-4.475-3.629-7.355-3.788c-2.87-0.166-5.688,0.914-7.728,2.953l-29.16,29.16c-3.959,3.959-3.959,10.377,0,14.336
	l44.053,44.053l-4.981,5.693c-1.617,1.848-2.508,4.22-2.508,6.675v54.46l-35.728,28.582c-2.251,1.801-3.629,4.475-3.788,7.355
	c-0.159,2.879,0.915,5.689,2.953,7.728l29.16,29.16c1.98,1.979,4.573,2.969,7.168,2.969c0.079,0,0.157-0.009,0.236-0.011v53.735
	c0,5.598,4.539,10.136,10.136,10.136h133.802c5.598,0,10.136-4.539,10.136-10.136v-53.73c0.079,0.002,0.158,0.007,0.237,0.007
	c2.68,0,5.26-1.063,7.167-2.969l29.16-29.16C266.06,197.053,266.06,190.634,262.101,186.676z M205.264,106.695v23.144
	l-21.014-21.014l13.457-10.766L205.264,106.695z M137.857,115.984c0-5.869,4.774-10.643,10.643-10.643s10.643,4.774,10.643,10.643
	c0,5.869-4.774,10.643-10.643,10.643S137.857,121.853,137.857,115.984z M225.773,24.473l13.984,13.984l-69.492,55.594
	c-2.39-2.372-5.164-4.356-8.219-5.851L225.773,24.473z M148.5,64.368c2.692,0,5.351,0.265,7.955,0.753l-15.7,15.7l-10.087-12.608
	C136.212,65.712,142.278,64.368,148.5,64.368z M70.387,25.313l55.606,69.507c-2.317,2.462-4.233,5.302-5.649,8.418L56.402,39.298
	L70.387,25.313z M91.736,106.695l1.584-1.81l19.431,19.431l-21.014,16.811V106.695z M57.243,194.684l70.161-56.13
	c2.447,2.288,5.264,4.182,8.351,5.585l-64.529,64.529L57.243,194.684z M91.736,276.727v-29.903h23.314
	c5.598,0,10.136-4.539,10.136-10.136s-4.539-10.136-10.136-10.136H91.736v-9.721l64.51-64.51l49.019,61.273v29.682H181.95
	c-5.598,0-10.136,4.539-10.136,10.136c0,5.598,4.539,10.136,10.136,10.136h23.314v13.177H91.736z M226.613,207.828l-56.117-70.146
	c2.343-2.375,4.305-5.125,5.787-8.152l64.314,64.314L226.613,207.828z"/>

</svg>
